<?xml version="1.0" encoding="utf-8" standalone="no"?>
<!DOCTYPE svg PUBLIC "-//W3C//DTD SVG 1.1//EN"
  "http://www.w3.org/Graphics/SVG/1.1/DTD/svg11.dtd">
<svg xmlns:xlink="http://www.w3.org/1999/xlink" width="724.189062pt" height="251.188661pt" viewBox="0 0 724.189062 251.188661" xmlns="http://www.w3.org/2000/svg" version="1.1">
 <metadata>
  <rdf:RDF xmlns:dc="http://purl.org/dc/elements/1.1/" xmlns:cc="http://creativecommons.org/ns#" xmlns:rdf="http://www.w3.org/1999/02/22-rdf-syntax-ns#">
   <cc:Work>
    <dc:type rdf:resource="http://purl.org/dc/dcmitype/StillImage"/>
    <dc:date>2025-12-04T04:03:51.919046</dc:date>
    <dc:format>image/svg+xml</dc:format>
    <dc:creator>
     <cc:Agent>
      <dc:title>Matplotlib v3.10.6, https://matplotlib.org/</dc:title>
     </cc:Agent>
    </dc:creator>
   </cc:Work>
  </rdf:RDF>
 </metadata>
 <defs>
  <style type="text/css">*{stroke-linejoin: round; stroke-linecap: butt}</style>
 </defs>
 <g id="figure_1">
  <g id="patch_1">
   <path d="M 0 251.188661 
L 724.189062 251.188661 
L 724.189062 0 
L 0 0 
z
" style="fill: #ffffff"/>
  </g>
  <g id="axes_1">
   <g id="patch_2">
    <path d="M 47.389063 213.632411 
L 716.989063 213.632411 
L 716.989063 22.318125 
L 47.389063 22.318125 
z
" style="fill: #ffffff"/>
   </g>
   <g id="matplotlib.axis_1">
    <g id="xtick_1">
     <g id="line2d_1">
      <path d="M 95.217634 213.632411 
L 95.217634 22.318125 
" clip-path="url(#p7470ade139)" style="fill: none; stroke: #b0b0b0; stroke-opacity: 0.3; stroke-width: 0.8; stroke-linecap: square"/>
     </g>
     <g id="line2d_2">
      <defs>
       <path id="m79199f4e1d" d="M 0 0 
L 0 3.5 
" style="stroke: #000000; stroke-width: 0.8"/>
      </defs>
      <g>
       <use xlink:href="#m79199f4e1d" x="95.217634" y="213.632411" style="stroke: #000000; stroke-width: 0.8"/>
      </g>
     </g>
     <g id="text_1">
      <!-- 0 -->
      <g transform="translate(92.036384 228.230848) scale(0.1 -0.1)">
       <defs>
        <path id="DejaVuSans-30" d="M 2034 4250 
Q 1547 4250 1301 3770 
Q 1056 3291 1056 2328 
Q 1056 1369 1301 889 
Q 1547 409 2034 409 
Q 2525 409 2770 889 
Q 3016 1369 3016 2328 
Q 3016 3291 2770 3770 
Q 2525 4250 2034 4250 
z
M 2034 4750 
Q 2819 4750 3233 4129 
Q 3647 3509 3647 2328 
Q 3647 1150 3233 529 
Q 2819 -91 2034 -91 
Q 1250 -91 836 529 
Q 422 1150 422 2328 
Q 422 3509 836 4129 
Q 1250 4750 2034 4750 
z
" transform="scale(0.015625)"/>
       </defs>
       <use xlink:href="#DejaVuSans-30"/>
      </g>
     </g>
    </g>
    <g id="xtick_2">
     <g id="line2d_3">
      <path d="M 190.874777 213.632411 
L 190.874777 22.318125 
" clip-path="url(#p7470ade139)" style="fill: none; stroke: #b0b0b0; stroke-opacity: 0.3; stroke-width: 0.8; stroke-linecap: square"/>
     </g>
     <g id="line2d_4">
      <g>
       <use xlink:href="#m79199f4e1d" x="190.874777" y="213.632411" style="stroke: #000000; stroke-width: 0.8"/>
      </g>
     </g>
     <g id="text_2">
      <!-- 2 -->
      <g transform="translate(187.693527 228.230848) scale(0.1 -0.1)">
       <defs>
        <path id="DejaVuSans-32" d="M 1228 531 
L 3431 531 
L 3431 0 
L 469 0 
L 469 531 
Q 828 903 1448 1529 
Q 2069 2156 2228 2338 
Q 2531 2678 2651 2914 
Q 2772 3150 2772 3378 
Q 2772 3750 2511 3984 
Q 2250 4219 1831 4219 
Q 1534 4219 1204 4116 
Q 875 4013 500 3803 
L 500 4441 
Q 881 4594 1212 4672 
Q 1544 4750 1819 4750 
Q 2544 4750 2975 4387 
Q 3406 4025 3406 3419 
Q 3406 3131 3298 2873 
Q 3191 2616 2906 2266 
Q 2828 2175 2409 1742 
Q 1991 1309 1228 531 
z
" transform="scale(0.015625)"/>
       </defs>
       <use xlink:href="#DejaVuSans-32"/>
      </g>
     </g>
    </g>
    <g id="xtick_3">
     <g id="line2d_5">
      <path d="M 286.53192 213.632411 
L 286.53192 22.318125 
" clip-path="url(#p7470ade139)" style="fill: none; stroke: #b0b0b0; stroke-opacity: 0.3; stroke-width: 0.8; stroke-linecap: square"/>
     </g>
     <g id="line2d_6">
      <g>
       <use xlink:href="#m79199f4e1d" x="286.53192" y="213.632411" style="stroke: #000000; stroke-width: 0.8"/>
      </g>
     </g>
     <g id="text_3">
      <!-- 4 -->
      <g transform="translate(283.35067 228.230848) scale(0.1 -0.1)">
       <defs>
        <path id="DejaVuSans-34" d="M 2419 4116 
L 825 1625 
L 2419 1625 
L 2419 4116 
z
M 2253 4666 
L 3047 4666 
L 3047 1625 
L 3713 1625 
L 3713 1100 
L 3047 1100 
L 3047 0 
L 2419 0 
L 2419 1100 
L 313 1100 
L 313 1709 
L 2253 4666 
z
" transform="scale(0.015625)"/>
       </defs>
       <use xlink:href="#DejaVuSans-34"/>
      </g>
     </g>
    </g>
    <g id="xtick_4">
     <g id="line2d_7">
      <path d="M 382.189063 213.632411 
L 382.189063 22.318125 
" clip-path="url(#p7470ade139)" style="fill: none; stroke: #b0b0b0; stroke-opacity: 0.3; stroke-width: 0.8; stroke-linecap: square"/>
     </g>
     <g id="line2d_8">
      <g>
       <use xlink:href="#m79199f4e1d" x="382.189063" y="213.632411" style="stroke: #000000; stroke-width: 0.8"/>
      </g>
     </g>
     <g id="text_4">
      <!-- 6 -->
      <g transform="translate(379.007813 228.230848) scale(0.1 -0.1)">
       <defs>
        <path id="DejaVuSans-36" d="M 2113 2584 
Q 1688 2584 1439 2293 
Q 1191 2003 1191 1497 
Q 1191 994 1439 701 
Q 1688 409 2113 409 
Q 2538 409 2786 701 
Q 3034 994 3034 1497 
Q 3034 2003 2786 2293 
Q 2538 2584 2113 2584 
z
M 3366 4563 
L 3366 3988 
Q 3128 4100 2886 4159 
Q 2644 4219 2406 4219 
Q 1781 4219 1451 3797 
Q 1122 3375 1075 2522 
Q 1259 2794 1537 2939 
Q 1816 3084 2150 3084 
Q 2853 3084 3261 2657 
Q 3669 2231 3669 1497 
Q 3669 778 3244 343 
Q 2819 -91 2113 -91 
Q 1303 -91 875 529 
Q 447 1150 447 2328 
Q 447 3434 972 4092 
Q 1497 4750 2381 4750 
Q 2619 4750 2861 4703 
Q 3103 4656 3366 4563 
z
" transform="scale(0.015625)"/>
       </defs>
       <use xlink:href="#DejaVuSans-36"/>
      </g>
     </g>
    </g>
    <g id="xtick_5">
     <g id="line2d_9">
      <path d="M 477.846205 213.632411 
L 477.846205 22.318125 
" clip-path="url(#p7470ade139)" style="fill: none; stroke: #b0b0b0; stroke-opacity: 0.3; stroke-width: 0.8; stroke-linecap: square"/>
     </g>
     <g id="line2d_10">
      <g>
       <use xlink:href="#m79199f4e1d" x="477.846205" y="213.632411" style="stroke: #000000; stroke-width: 0.8"/>
      </g>
     </g>
     <g id="text_5">
      <!-- 8 -->
      <g transform="translate(474.664955 228.230848) scale(0.1 -0.1)">
       <defs>
        <path id="DejaVuSans-38" d="M 2034 2216 
Q 1584 2216 1326 1975 
Q 1069 1734 1069 1313 
Q 1069 891 1326 650 
Q 1584 409 2034 409 
Q 2484 409 2743 651 
Q 3003 894 3003 1313 
Q 3003 1734 2745 1975 
Q 2488 2216 2034 2216 
z
M 1403 2484 
Q 997 2584 770 2862 
Q 544 3141 544 3541 
Q 544 4100 942 4425 
Q 1341 4750 2034 4750 
Q 2731 4750 3128 4425 
Q 3525 4100 3525 3541 
Q 3525 3141 3298 2862 
Q 3072 2584 2669 2484 
Q 3125 2378 3379 2068 
Q 3634 1759 3634 1313 
Q 3634 634 3220 271 
Q 2806 -91 2034 -91 
Q 1263 -91 848 271 
Q 434 634 434 1313 
Q 434 1759 690 2068 
Q 947 2378 1403 2484 
z
M 1172 3481 
Q 1172 3119 1398 2916 
Q 1625 2713 2034 2713 
Q 2441 2713 2670 2916 
Q 2900 3119 2900 3481 
Q 2900 3844 2670 4047 
Q 2441 4250 2034 4250 
Q 1625 4250 1398 4047 
Q 1172 3844 1172 3481 
z
" transform="scale(0.015625)"/>
       </defs>
       <use xlink:href="#DejaVuSans-38"/>
      </g>
     </g>
    </g>
    <g id="xtick_6">
     <g id="line2d_11">
      <path d="M 573.503348 213.632411 
L 573.503348 22.318125 
" clip-path="url(#p7470ade139)" style="fill: none; stroke: #b0b0b0; stroke-opacity: 0.3; stroke-width: 0.8; stroke-linecap: square"/>
     </g>
     <g id="line2d_12">
      <g>
       <use xlink:href="#m79199f4e1d" x="573.503348" y="213.632411" style="stroke: #000000; stroke-width: 0.8"/>
      </g>
     </g>
     <g id="text_6">
      <!-- 10 -->
      <g transform="translate(567.140848 228.230848) scale(0.1 -0.1)">
       <defs>
        <path id="DejaVuSans-31" d="M 794 531 
L 1825 531 
L 1825 4091 
L 703 3866 
L 703 4441 
L 1819 4666 
L 2450 4666 
L 2450 531 
L 3481 531 
L 3481 0 
L 794 0 
L 794 531 
z
" transform="scale(0.015625)"/>
       </defs>
       <use xlink:href="#DejaVuSans-31"/>
       <use xlink:href="#DejaVuSans-30" transform="translate(63.623047 0)"/>
      </g>
     </g>
    </g>
    <g id="xtick_7">
     <g id="line2d_13">
      <path d="M 669.160491 213.632411 
L 669.160491 22.318125 
" clip-path="url(#p7470ade139)" style="fill: none; stroke: #b0b0b0; stroke-opacity: 0.3; stroke-width: 0.8; stroke-linecap: square"/>
     </g>
     <g id="line2d_14">
      <g>
       <use xlink:href="#m79199f4e1d" x="669.160491" y="213.632411" style="stroke: #000000; stroke-width: 0.8"/>
      </g>
     </g>
     <g id="text_7">
      <!-- 12 -->
      <g transform="translate(662.797991 228.230848) scale(0.1 -0.1)">
       <use xlink:href="#DejaVuSans-31"/>
       <use xlink:href="#DejaVuSans-32" transform="translate(63.623047 0)"/>
      </g>
     </g>
    </g>
    <g id="text_8">
     <!-- Coordenada X -->
     <g transform="translate(346.875 241.908973) scale(0.1 -0.1)">
      <defs>
       <path id="DejaVuSans-43" d="M 4122 4306 
L 4122 3641 
Q 3803 3938 3442 4084 
Q 3081 4231 2675 4231 
Q 1875 4231 1450 3742 
Q 1025 3253 1025 2328 
Q 1025 1406 1450 917 
Q 1875 428 2675 428 
Q 3081 428 3442 575 
Q 3803 722 4122 1019 
L 4122 359 
Q 3791 134 3420 21 
Q 3050 -91 2638 -91 
Q 1578 -91 968 557 
Q 359 1206 359 2328 
Q 359 3453 968 4101 
Q 1578 4750 2638 4750 
Q 3056 4750 3426 4639 
Q 3797 4528 4122 4306 
z
" transform="scale(0.015625)"/>
       <path id="DejaVuSans-6f" d="M 1959 3097 
Q 1497 3097 1228 2736 
Q 959 2375 959 1747 
Q 959 1119 1226 758 
Q 1494 397 1959 397 
Q 2419 397 2687 759 
Q 2956 1122 2956 1747 
Q 2956 2369 2687 2733 
Q 2419 3097 1959 3097 
z
M 1959 3584 
Q 2709 3584 3137 3096 
Q 3566 2609 3566 1747 
Q 3566 888 3137 398 
Q 2709 -91 1959 -91 
Q 1206 -91 779 398 
Q 353 888 353 1747 
Q 353 2609 779 3096 
Q 1206 3584 1959 3584 
z
" transform="scale(0.015625)"/>
       <path id="DejaVuSans-72" d="M 2631 2963 
Q 2534 3019 2420 3045 
Q 2306 3072 2169 3072 
Q 1681 3072 1420 2755 
Q 1159 2438 1159 1844 
L 1159 0 
L 581 0 
L 581 3500 
L 1159 3500 
L 1159 2956 
Q 1341 3275 1631 3429 
Q 1922 3584 2338 3584 
Q 2397 3584 2469 3576 
Q 2541 3569 2628 3553 
L 2631 2963 
z
" transform="scale(0.015625)"/>
       <path id="DejaVuSans-64" d="M 2906 2969 
L 2906 4863 
L 3481 4863 
L 3481 0 
L 2906 0 
L 2906 525 
Q 2725 213 2448 61 
Q 2172 -91 1784 -91 
Q 1150 -91 751 415 
Q 353 922 353 1747 
Q 353 2572 751 3078 
Q 1150 3584 1784 3584 
Q 2172 3584 2448 3432 
Q 2725 3281 2906 2969 
z
M 947 1747 
Q 947 1113 1208 752 
Q 1469 391 1925 391 
Q 2381 391 2643 752 
Q 2906 1113 2906 1747 
Q 2906 2381 2643 2742 
Q 2381 3103 1925 3103 
Q 1469 3103 1208 2742 
Q 947 2381 947 1747 
z
" transform="scale(0.015625)"/>
       <path id="DejaVuSans-65" d="M 3597 1894 
L 3597 1613 
L 953 1613 
Q 991 1019 1311 708 
Q 1631 397 2203 397 
Q 2534 397 2845 478 
Q 3156 559 3463 722 
L 3463 178 
Q 3153 47 2828 -22 
Q 2503 -91 2169 -91 
Q 1331 -91 842 396 
Q 353 884 353 1716 
Q 353 2575 817 3079 
Q 1281 3584 2069 3584 
Q 2775 3584 3186 3129 
Q 3597 2675 3597 1894 
z
M 3022 2063 
Q 3016 2534 2758 2815 
Q 2500 3097 2075 3097 
Q 1594 3097 1305 2825 
Q 1016 2553 972 2059 
L 3022 2063 
z
" transform="scale(0.015625)"/>
       <path id="DejaVuSans-6e" d="M 3513 2113 
L 3513 0 
L 2938 0 
L 2938 2094 
Q 2938 2591 2744 2837 
Q 2550 3084 2163 3084 
Q 1697 3084 1428 2787 
Q 1159 2491 1159 1978 
L 1159 0 
L 581 0 
L 581 3500 
L 1159 3500 
L 1159 2956 
Q 1366 3272 1645 3428 
Q 1925 3584 2291 3584 
Q 2894 3584 3203 3211 
Q 3513 2838 3513 2113 
z
" transform="scale(0.015625)"/>
       <path id="DejaVuSans-61" d="M 2194 1759 
Q 1497 1759 1228 1600 
Q 959 1441 959 1056 
Q 959 750 1161 570 
Q 1363 391 1709 391 
Q 2188 391 2477 730 
Q 2766 1069 2766 1631 
L 2766 1759 
L 2194 1759 
z
M 3341 1997 
L 3341 0 
L 2766 0 
L 2766 531 
Q 2569 213 2275 61 
Q 1981 -91 1556 -91 
Q 1019 -91 701 211 
Q 384 513 384 1019 
Q 384 1609 779 1909 
Q 1175 2209 1959 2209 
L 2766 2209 
L 2766 2266 
Q 2766 2663 2505 2880 
Q 2244 3097 1772 3097 
Q 1472 3097 1187 3025 
Q 903 2953 641 2809 
L 641 3341 
Q 956 3463 1253 3523 
Q 1550 3584 1831 3584 
Q 2591 3584 2966 3190 
Q 3341 2797 3341 1997 
z
" transform="scale(0.015625)"/>
       <path id="DejaVuSans-20" transform="scale(0.015625)"/>
       <path id="DejaVuSans-58" d="M 403 4666 
L 1081 4666 
L 2241 2931 
L 3406 4666 
L 4084 4666 
L 2584 2425 
L 4184 0 
L 3506 0 
L 2194 1984 
L 872 0 
L 191 0 
L 1856 2491 
L 403 4666 
z
" transform="scale(0.015625)"/>
      </defs>
      <use xlink:href="#DejaVuSans-43"/>
      <use xlink:href="#DejaVuSans-6f" transform="translate(69.824219 0)"/>
      <use xlink:href="#DejaVuSans-6f" transform="translate(131.005859 0)"/>
      <use xlink:href="#DejaVuSans-72" transform="translate(192.1875 0)"/>
      <use xlink:href="#DejaVuSans-64" transform="translate(231.550781 0)"/>
      <use xlink:href="#DejaVuSans-65" transform="translate(295.027344 0)"/>
      <use xlink:href="#DejaVuSans-6e" transform="translate(356.550781 0)"/>
      <use xlink:href="#DejaVuSans-61" transform="translate(419.929688 0)"/>
      <use xlink:href="#DejaVuSans-64" transform="translate(481.208984 0)"/>
      <use xlink:href="#DejaVuSans-61" transform="translate(544.685547 0)"/>
      <use xlink:href="#DejaVuSans-20" transform="translate(605.964844 0)"/>
      <use xlink:href="#DejaVuSans-58" transform="translate(637.751953 0)"/>
     </g>
    </g>
   </g>
   <g id="matplotlib.axis_2">
    <g id="ytick_1">
     <g id="line2d_15">
      <path d="M 47.389063 213.632411 
L 716.989063 213.632411 
" clip-path="url(#p7470ade139)" style="fill: none; stroke: #b0b0b0; stroke-opacity: 0.3; stroke-width: 0.8; stroke-linecap: square"/>
     </g>
     <g id="line2d_16">
      <defs>
       <path id="m1462aa55c9" d="M 0 0 
L -3.5 0 
" style="stroke: #000000; stroke-width: 0.8"/>
      </defs>
      <g>
       <use xlink:href="#m1462aa55c9" x="47.389063" y="213.632411" style="stroke: #000000; stroke-width: 0.8"/>
      </g>
     </g>
     <g id="text_9">
      <!-- -2.0 -->
      <g transform="translate(20.878125 217.431629) scale(0.1 -0.1)">
       <defs>
        <path id="DejaVuSans-2d" d="M 313 2009 
L 1997 2009 
L 1997 1497 
L 313 1497 
L 313 2009 
z
" transform="scale(0.015625)"/>
        <path id="DejaVuSans-2e" d="M 684 794 
L 1344 794 
L 1344 0 
L 684 0 
L 684 794 
z
" transform="scale(0.015625)"/>
       </defs>
       <use xlink:href="#DejaVuSans-2d"/>
       <use xlink:href="#DejaVuSans-32" transform="translate(36.083984 0)"/>
       <use xlink:href="#DejaVuSans-2e" transform="translate(99.707031 0)"/>
       <use xlink:href="#DejaVuSans-30" transform="translate(131.494141 0)"/>
      </g>
     </g>
    </g>
    <g id="ytick_2">
     <g id="line2d_17">
      <path d="M 47.389063 189.718125 
L 716.989063 189.718125 
" clip-path="url(#p7470ade139)" style="fill: none; stroke: #b0b0b0; stroke-opacity: 0.3; stroke-width: 0.8; stroke-linecap: square"/>
     </g>
     <g id="line2d_18">
      <g>
       <use xlink:href="#m1462aa55c9" x="47.389063" y="189.718125" style="stroke: #000000; stroke-width: 0.8"/>
      </g>
     </g>
     <g id="text_10">
      <!-- -1.5 -->
      <g transform="translate(20.878125 193.517344) scale(0.1 -0.1)">
       <defs>
        <path id="DejaVuSans-35" d="M 691 4666 
L 3169 4666 
L 3169 4134 
L 1269 4134 
L 1269 2991 
Q 1406 3038 1543 3061 
Q 1681 3084 1819 3084 
Q 2600 3084 3056 2656 
Q 3513 2228 3513 1497 
Q 3513 744 3044 326 
Q 2575 -91 1722 -91 
Q 1428 -91 1123 -41 
Q 819 9 494 109 
L 494 744 
Q 775 591 1075 516 
Q 1375 441 1709 441 
Q 2250 441 2565 725 
Q 2881 1009 2881 1497 
Q 2881 1984 2565 2268 
Q 2250 2553 1709 2553 
Q 1456 2553 1204 2497 
Q 953 2441 691 2322 
L 691 4666 
z
" transform="scale(0.015625)"/>
       </defs>
       <use xlink:href="#DejaVuSans-2d"/>
       <use xlink:href="#DejaVuSans-31" transform="translate(36.083984 0)"/>
       <use xlink:href="#DejaVuSans-2e" transform="translate(99.707031 0)"/>
       <use xlink:href="#DejaVuSans-35" transform="translate(131.494141 0)"/>
      </g>
     </g>
    </g>
    <g id="ytick_3">
     <g id="line2d_19">
      <path d="M 47.389063 165.803839 
L 716.989063 165.803839 
" clip-path="url(#p7470ade139)" style="fill: none; stroke: #b0b0b0; stroke-opacity: 0.3; stroke-width: 0.8; stroke-linecap: square"/>
     </g>
     <g id="line2d_20">
      <g>
       <use xlink:href="#m1462aa55c9" x="47.389063" y="165.803839" style="stroke: #000000; stroke-width: 0.8"/>
      </g>
     </g>
     <g id="text_11">
      <!-- -1.0 -->
      <g transform="translate(20.878125 169.603058) scale(0.1 -0.1)">
       <use xlink:href="#DejaVuSans-2d"/>
       <use xlink:href="#DejaVuSans-31" transform="translate(36.083984 0)"/>
       <use xlink:href="#DejaVuSans-2e" transform="translate(99.707031 0)"/>
       <use xlink:href="#DejaVuSans-30" transform="translate(131.494141 0)"/>
      </g>
     </g>
    </g>
    <g id="ytick_4">
     <g id="line2d_21">
      <path d="M 47.389063 141.889554 
L 716.989063 141.889554 
" clip-path="url(#p7470ade139)" style="fill: none; stroke: #b0b0b0; stroke-opacity: 0.3; stroke-width: 0.8; stroke-linecap: square"/>
     </g>
     <g id="line2d_22">
      <g>
       <use xlink:href="#m1462aa55c9" x="47.389063" y="141.889554" style="stroke: #000000; stroke-width: 0.8"/>
      </g>
     </g>
     <g id="text_12">
      <!-- -0.5 -->
      <g transform="translate(20.878125 145.688772) scale(0.1 -0.1)">
       <use xlink:href="#DejaVuSans-2d"/>
       <use xlink:href="#DejaVuSans-30" transform="translate(36.083984 0)"/>
       <use xlink:href="#DejaVuSans-2e" transform="translate(99.707031 0)"/>
       <use xlink:href="#DejaVuSans-35" transform="translate(131.494141 0)"/>
      </g>
     </g>
    </g>
    <g id="ytick_5">
     <g id="line2d_23">
      <path d="M 47.389063 117.975268 
L 716.989063 117.975268 
" clip-path="url(#p7470ade139)" style="fill: none; stroke: #b0b0b0; stroke-opacity: 0.3; stroke-width: 0.8; stroke-linecap: square"/>
     </g>
     <g id="line2d_24">
      <g>
       <use xlink:href="#m1462aa55c9" x="47.389063" y="117.975268" style="stroke: #000000; stroke-width: 0.8"/>
      </g>
     </g>
     <g id="text_13">
      <!-- 0.0 -->
      <g transform="translate(24.485938 121.774487) scale(0.1 -0.1)">
       <use xlink:href="#DejaVuSans-30"/>
       <use xlink:href="#DejaVuSans-2e" transform="translate(63.623047 0)"/>
       <use xlink:href="#DejaVuSans-30" transform="translate(95.410156 0)"/>
      </g>
     </g>
    </g>
    <g id="ytick_6">
     <g id="line2d_25">
      <path d="M 47.389063 94.060982 
L 716.989063 94.060982 
" clip-path="url(#p7470ade139)" style="fill: none; stroke: #b0b0b0; stroke-opacity: 0.3; stroke-width: 0.8; stroke-linecap: square"/>
     </g>
     <g id="line2d_26">
      <g>
       <use xlink:href="#m1462aa55c9" x="47.389063" y="94.060982" style="stroke: #000000; stroke-width: 0.8"/>
      </g>
     </g>
     <g id="text_14">
      <!-- 0.5 -->
      <g transform="translate(24.485938 97.860201) scale(0.1 -0.1)">
       <use xlink:href="#DejaVuSans-30"/>
       <use xlink:href="#DejaVuSans-2e" transform="translate(63.623047 0)"/>
       <use xlink:href="#DejaVuSans-35" transform="translate(95.410156 0)"/>
      </g>
     </g>
    </g>
    <g id="ytick_7">
     <g id="line2d_27">
      <path d="M 47.389063 70.146696 
L 716.989063 70.146696 
" clip-path="url(#p7470ade139)" style="fill: none; stroke: #b0b0b0; stroke-opacity: 0.3; stroke-width: 0.8; stroke-linecap: square"/>
     </g>
     <g id="line2d_28">
      <g>
       <use xlink:href="#m1462aa55c9" x="47.389063" y="70.146696" style="stroke: #000000; stroke-width: 0.8"/>
      </g>
     </g>
     <g id="text_15">
      <!-- 1.0 -->
      <g transform="translate(24.485938 73.945915) scale(0.1 -0.1)">
       <use xlink:href="#DejaVuSans-31"/>
       <use xlink:href="#DejaVuSans-2e" transform="translate(63.623047 0)"/>
       <use xlink:href="#DejaVuSans-30" transform="translate(95.410156 0)"/>
      </g>
     </g>
    </g>
    <g id="ytick_8">
     <g id="line2d_29">
      <path d="M 47.389063 46.232411 
L 716.989063 46.232411 
" clip-path="url(#p7470ade139)" style="fill: none; stroke: #b0b0b0; stroke-opacity: 0.3; stroke-width: 0.8; stroke-linecap: square"/>
     </g>
     <g id="line2d_30">
      <g>
       <use xlink:href="#m1462aa55c9" x="47.389063" y="46.232411" style="stroke: #000000; stroke-width: 0.8"/>
      </g>
     </g>
     <g id="text_16">
      <!-- 1.5 -->
      <g transform="translate(24.485938 50.031629) scale(0.1 -0.1)">
       <use xlink:href="#DejaVuSans-31"/>
       <use xlink:href="#DejaVuSans-2e" transform="translate(63.623047 0)"/>
       <use xlink:href="#DejaVuSans-35" transform="translate(95.410156 0)"/>
      </g>
     </g>
    </g>
    <g id="ytick_9">
     <g id="line2d_31">
      <path d="M 47.389063 22.318125 
L 716.989063 22.318125 
" clip-path="url(#p7470ade139)" style="fill: none; stroke: #b0b0b0; stroke-opacity: 0.3; stroke-width: 0.8; stroke-linecap: square"/>
     </g>
     <g id="line2d_32">
      <g>
       <use xlink:href="#m1462aa55c9" x="47.389063" y="22.318125" style="stroke: #000000; stroke-width: 0.8"/>
      </g>
     </g>
     <g id="text_17">
      <!-- 2.0 -->
      <g transform="translate(24.485938 26.117344) scale(0.1 -0.1)">
       <use xlink:href="#DejaVuSans-32"/>
       <use xlink:href="#DejaVuSans-2e" transform="translate(63.623047 0)"/>
       <use xlink:href="#DejaVuSans-30" transform="translate(95.410156 0)"/>
      </g>
     </g>
    </g>
    <g id="text_18">
     <!-- Coordenada Y -->
     <g transform="translate(14.798438 152.918237) rotate(-90) scale(0.1 -0.1)">
      <defs>
       <path id="DejaVuSans-59" d="M -13 4666 
L 666 4666 
L 1959 2747 
L 3244 4666 
L 3922 4666 
L 2272 2222 
L 2272 0 
L 1638 0 
L 1638 2222 
L -13 4666 
z
" transform="scale(0.015625)"/>
      </defs>
      <use xlink:href="#DejaVuSans-43"/>
      <use xlink:href="#DejaVuSans-6f" transform="translate(69.824219 0)"/>
      <use xlink:href="#DejaVuSans-6f" transform="translate(131.005859 0)"/>
      <use xlink:href="#DejaVuSans-72" transform="translate(192.1875 0)"/>
      <use xlink:href="#DejaVuSans-64" transform="translate(231.550781 0)"/>
      <use xlink:href="#DejaVuSans-65" transform="translate(295.027344 0)"/>
      <use xlink:href="#DejaVuSans-6e" transform="translate(356.550781 0)"/>
      <use xlink:href="#DejaVuSans-61" transform="translate(419.929688 0)"/>
      <use xlink:href="#DejaVuSans-64" transform="translate(481.208984 0)"/>
      <use xlink:href="#DejaVuSans-61" transform="translate(544.685547 0)"/>
      <use xlink:href="#DejaVuSans-20" transform="translate(605.964844 0)"/>
      <use xlink:href="#DejaVuSans-59" transform="translate(637.751953 0)"/>
     </g>
    </g>
   </g>
   <g id="line2d_33">
    <path d="M 410.886205 117.975268 
L 410.763638 113.645822 
L 410.396328 109.330244 
L 409.785453 105.042359 
L 408.932968 100.795902 
L 407.841606 96.604476 
L 406.514861 92.481507 
L 404.956984 88.440202 
L 403.172965 84.493507 
L 401.16852 80.654064 
L 398.950068 76.934172 
L 396.524716 73.345747 
L 393.900233 69.900284 
L 391.085026 66.608819 
L 388.088114 63.481897 
L 384.919096 60.529534 
L 381.588124 57.761186 
L 378.105867 55.185722 
L 374.48348 52.811392 
L 370.732568 50.645802 
L 366.865145 48.695888 
L 362.893599 46.967897 
L 358.830654 45.467364 
L 354.689323 44.199096 
L 350.482873 43.167155 
L 346.224778 42.374847 
L 341.928678 41.82471 
L 337.608334 41.518506 
L 333.277587 41.457216 
L 328.950309 41.641036 
L 324.640362 42.069379 
L 320.361551 42.74087 
L 316.127582 43.65336 
L 311.952019 44.803926 
L 307.848238 46.188881 
L 303.829383 47.80379 
L 299.908328 49.643479 
L 296.097634 51.702055 
L 292.409507 53.972925 
L 288.855763 56.448813 
L 285.447783 59.121789 
L 282.196486 61.983291 
L 279.112285 65.024152 
L 276.205062 68.234631 
L 273.484127 71.604444 
L 270.958198 75.122797 
L 268.635366 78.77842 
L 266.523071 82.559602 
L 264.62808 86.454231 
L 262.956463 90.449831 
L 261.513574 94.533603 
L 260.304036 98.692467 
L 259.331723 102.913099 
L 258.59975 107.181979 
L 258.110462 111.485434 
L 257.865425 115.809678 
L 257.865425 120.140858 
L 258.110462 124.465102 
L 258.59975 128.768557 
L 259.331723 133.037437 
L 260.304036 137.258069 
L 261.513574 141.416932 
L 262.956463 145.500705 
L 264.62808 149.496305 
L 266.523071 153.390934 
L 268.635366 157.172116 
L 270.958198 160.827738 
L 273.484127 164.346091 
L 276.205062 167.715905 
L 279.112285 170.926384 
L 282.196486 173.967245 
L 285.447783 176.828746 
L 288.855763 179.501723 
L 292.409507 181.977611 
L 296.097634 184.24848 
L 299.908328 186.307057 
L 303.829383 188.146746 
L 307.848238 189.761655 
L 311.952019 191.14661 
L 316.127582 192.297176 
L 320.361551 193.209666 
L 324.640362 193.881157 
L 328.950309 194.309499 
L 333.277587 194.49332 
L 337.608334 194.43203 
L 341.928678 194.125826 
L 346.224778 193.575689 
L 350.482873 192.783381 
L 354.689323 191.75144 
L 358.830654 190.483171 
L 362.893599 188.982638 
L 366.865145 187.254647 
L 370.732568 185.304734 
L 374.48348 183.139143 
L 378.105867 180.764813 
L 381.588124 178.18935 
L 384.919096 175.421002 
L 388.088114 172.468639 
L 391.085026 169.341716 
L 393.900233 166.050252 
L 396.524716 162.604789 
L 398.950068 159.016364 
L 401.16852 155.296472 
L 403.172965 151.457029 
L 404.956984 147.510334 
L 406.514861 143.469029 
L 407.841606 139.346059 
L 408.932968 135.154633 
L 409.785453 130.908176 
L 410.396328 126.620291 
L 410.763638 122.304714 
L 410.886205 117.975268 
L 410.763638 113.645822 
L 410.396328 109.330244 
L 409.785453 105.042359 
L 408.932968 100.795902 
L 407.841606 96.604476 
L 406.514861 92.481507 
L 404.956984 88.440202 
L 403.172965 84.493507 
L 401.16852 80.654064 
L 398.950068 76.934172 
L 396.524716 73.345747 
L 393.900233 69.900284 
L 391.085026 66.608819 
L 388.088114 63.481897 
L 384.919096 60.529534 
L 381.588124 57.761186 
L 378.105867 55.185722 
L 374.48348 52.811392 
L 370.732568 50.645802 
L 366.865145 48.695888 
L 362.893599 46.967897 
L 358.830654 45.467364 
L 354.689323 44.199096 
L 350.482873 43.167155 
L 346.224778 42.374847 
L 341.928678 41.82471 
L 337.608334 41.518506 
L 333.277587 41.457216 
L 328.950309 41.641036 
L 324.640362 42.069379 
L 320.361551 42.74087 
L 316.127582 43.65336 
L 311.952019 44.803926 
L 307.848238 46.188881 
L 303.829383 47.80379 
L 299.908328 49.643479 
L 296.097634 51.702055 
L 292.409507 53.972925 
L 288.855763 56.448813 
L 285.447783 59.121789 
L 282.196486 61.983291 
L 279.112285 65.024152 
L 276.205062 68.234631 
L 273.484127 71.604444 
L 270.958198 75.122797 
L 268.635366 78.77842 
L 266.523071 82.559602 
L 264.62808 86.454231 
L 262.956463 90.449831 
L 261.513574 94.533603 
L 260.304036 98.692467 
L 259.331723 102.913099 
L 258.59975 107.181979 
L 258.110462 111.485434 
L 257.865425 115.809678 
L 257.865425 120.140858 
L 258.110462 124.465102 
L 258.59975 128.768557 
L 259.331723 133.037437 
L 260.304036 137.258069 
L 261.513574 141.416932 
L 262.956463 145.500705 
L 264.62808 149.496305 
L 266.523071 153.390934 
L 268.635366 157.172116 
L 270.958198 160.827738 
L 273.484127 164.346091 
L 276.205062 167.715905 
L 279.112285 170.926384 
L 282.196486 173.967245 
L 285.447783 176.828746 
L 288.855763 179.501723 
L 292.409507 181.977611 
L 296.097634 184.24848 
L 299.908328 186.307057 
L 303.829383 188.146746 
L 307.848238 189.761655 
L 311.952019 191.14661 
L 316.127582 192.297176 
L 320.361551 193.209666 
L 324.640362 193.881157 
L 328.950309 194.309499 
L 333.277587 194.49332 
L 337.608334 194.43203 
L 341.928678 194.125826 
L 346.224778 193.575689 
L 350.482873 192.783381 
L 354.689323 191.75144 
L 358.830654 190.483171 
L 362.893599 188.982638 
L 366.865145 187.254647 
L 370.732568 185.304734 
L 374.48348 183.139143 
L 378.105867 180.764813 
L 381.588124 178.18935 
L 384.919096 175.421002 
L 388.088114 172.468639 
L 391.085026 169.341716 
L 393.900233 166.050252 
L 396.524716 162.604789 
L 398.950068 159.016364 
L 401.16852 155.296472 
L 403.172965 151.457029 
L 404.956984 147.510334 
L 406.514861 143.469029 
L 407.841606 139.346059 
L 408.932968 135.154633 
L 409.785453 130.908176 
L 410.396328 126.620291 
L 410.763638 122.304714 
L 410.886205 117.975268 
L 410.763638 113.645822 
L 410.396328 109.330244 
L 409.785453 105.042359 
L 408.932968 100.795902 
L 407.841606 96.604476 
L 406.514861 92.481507 
L 404.956984 88.440202 
L 403.172965 84.493507 
L 401.16852 80.654064 
L 398.950068 76.934172 
L 396.524716 73.345747 
L 393.900233 69.900284 
L 391.085026 66.608819 
L 388.088114 63.481897 
L 384.919096 60.529534 
L 381.588124 57.761186 
L 378.105867 55.185722 
L 374.48348 52.811392 
L 370.732568 50.645802 
L 366.865145 48.695888 
L 362.893599 46.967897 
L 358.830654 45.467364 
L 354.689323 44.199096 
L 350.482873 43.167155 
L 346.224778 42.374847 
L 341.928678 41.82471 
L 337.608334 41.518506 
L 333.277587 41.457216 
L 328.950309 41.641036 
L 324.640362 42.069379 
L 320.361551 42.74087 
L 316.127582 43.65336 
L 311.952019 44.803926 
L 307.848238 46.188881 
L 303.829383 47.80379 
L 299.908328 49.643479 
L 296.097634 51.702055 
L 292.409507 53.972925 
L 288.855763 56.448813 
L 285.447783 59.121789 
L 282.196486 61.983291 
L 279.112285 65.024152 
L 276.205062 68.234631 
L 273.484127 71.604444 
L 270.958198 75.122797 
L 268.635366 78.77842 
L 266.523071 82.559602 
L 264.62808 86.454231 
L 262.956463 90.449831 
L 261.513574 94.533603 
L 260.304036 98.692467 
L 259.331723 102.913099 
L 258.59975 107.181979 
L 258.110462 111.485434 
L 257.865425 115.809678 
L 257.865425 120.140858 
L 258.110462 124.465102 
L 258.59975 128.768557 
L 259.331723 133.037437 
L 260.304036 137.258069 
L 261.513574 141.416932 
L 262.956463 145.500705 
L 264.62808 149.496305 
L 266.523071 153.390934 
L 268.635366 157.172116 
L 270.958198 160.827738 
L 273.484127 164.346091 
L 276.205062 167.715905 
L 279.112285 170.926384 
L 282.196486 173.967245 
L 285.447783 176.828746 
L 288.855763 179.501723 
L 292.409507 181.977611 
L 296.097634 184.24848 
L 299.908328 186.307057 
L 303.829383 188.146746 
L 307.848238 189.761655 
L 311.952019 191.14661 
L 316.127582 192.297176 
L 320.361551 193.209666 
L 324.640362 193.881157 
L 328.950309 194.309499 
L 333.277587 194.49332 
L 337.608334 194.43203 
L 341.928678 194.125826 
L 346.224778 193.575689 
L 350.482873 192.783381 
L 354.689323 191.75144 
L 358.830654 190.483171 
L 362.893599 188.982638 
L 366.865145 187.254647 
L 370.732568 185.304734 
L 374.48348 183.139143 
L 378.105867 180.764813 
L 381.588124 178.18935 
L 384.919096 175.421002 
L 388.088114 172.468639 
L 391.085026 169.341716 
L 393.900233 166.050252 
L 396.524716 162.604789 
L 398.950068 159.016364 
L 401.16852 155.296472 
L 403.172965 151.457029 
L 404.956984 147.510334 
L 406.514861 143.469029 
L 407.841606 139.346059 
L 408.932968 135.154633 
L 409.785453 130.908176 
L 410.396328 126.620291 
L 410.763638 122.304714 
L 410.886205 117.975268 
L 410.886205 117.975268 
" clip-path="url(#p7470ade139)" style="fill: none; stroke-dasharray: 3.7,1.6; stroke-dashoffset: 0; stroke: #808080; stroke-opacity: 0.5"/>
   </g>
   <g id="line2d_34">
    <path d="M 410.886205 117.975268 
L 412.451511 115.026959 
L 413.880314 111.962191 
L 415.145809 108.790244 
L 416.222481 105.5237 
L 417.086648 102.178232 
L 417.716954 98.772324 
L 418.094824 95.326915 
L 418.204858 91.864994 
L 418.035151 88.41113 
L 417.577548 84.990973 
L 416.827812 81.630723 
L 415.785715 78.356581 
L 414.455036 75.194197 
L 412.843484 72.168122 
L 410.962523 69.301294 
L 408.827135 66.614539 
L 406.455496 64.12613 
L 403.868591 61.851397 
L 401.089772 59.802397 
L 398.144268 57.987659 
L 395.058657 56.412007 
L 391.860318 55.076462 
L 388.576864 53.978227 
L 385.235584 53.110763 
L 381.862893 52.463938 
L 378.483812 52.024267 
L 375.121481 51.775214 
L 371.796722 51.697578 
L 366.918875 51.855141 
L 362.213908 52.270574 
L 356.261402 53.080351 
L 340.571844 55.477078 
L 337.004296 55.738036 
L 333.480449 55.791423 
L 329.94195 55.63246 
L 326.331462 55.275424 
L 321.316222 54.550069 
L 308.784212 52.548827 
L 304.178574 52.035808 
L 299.382156 51.739016 
L 296.097634 51.702055 
L 292.761671 51.820615 
L 289.393102 52.115619 
L 286.013368 52.605642 
L 282.646122 53.306489 
L 279.316778 54.230833 
L 276.052022 55.387926 
L 272.879276 56.783384 
L 269.826147 58.419053 
L 266.919866 60.292955 
L 264.186725 62.39933 
L 261.651531 64.728746 
L 259.33709 67.268299 
L 257.263724 70.001893 
L 255.448843 72.910575 
L 253.906577 75.972949 
L 252.647473 79.165627 
L 251.678268 82.463731 
L 251.001743 85.841423 
L 250.616666 89.272451 
L 250.517809 92.730701 
L 250.69606 96.190744 
L 251.138613 99.62836 
L 251.829242 103.021032 
L 252.748636 106.348397 
L 253.874814 109.592645 
L 255.183588 112.738851 
L 256.649068 115.775242 
L 258.244212 118.693386 
L 260.819589 122.838944 
L 263.531848 126.705848 
L 267.209389 131.455981 
L 277.129795 143.845174 
L 279.139565 146.804281 
L 280.947723 149.829329 
L 282.579307 152.97324 
L 284.075348 156.278533 
L 285.954792 160.984536 
L 290.487671 172.838196 
L 292.346202 177.083305 
L 294.487382 181.38552 
L 296.097634 184.24848 
L 297.868291 187.078229 
L 299.808057 189.847993 
L 301.922296 192.529917 
L 304.21287 195.095615 
L 306.678047 197.516739 
L 309.312497 199.765554 
L 312.107373 201.815504 
L 315.050468 203.641757 
L 318.126456 205.221718 
L 321.3172 206.535501 
L 324.60213 207.566335 
L 327.958668 208.300923 
L 331.362713 208.729714 
L 334.789146 208.847106 
L 338.212373 208.65156 
L 341.606865 208.145638 
L 344.94771 207.335942 
L 348.211139 206.232983 
L 351.375035 204.850956 
L 354.419396 203.207444 
L 357.326756 201.323052 
L 360.082542 199.220982 
L 362.675368 196.926544 
L 365.097254 194.466643 
L 367.343765 191.86922 
L 369.414073 189.162686 
L 371.310924 186.375347 
L 373.040539 183.53484 
L 375.343009 179.231719 
L 377.335717 174.949382 
L 379.610682 169.389472 
L 385.379835 154.603552 
L 386.937612 151.383486 
L 388.653301 148.305051 
L 390.560216 145.320103 
L 392.674663 142.371847 
L 395.810459 138.391199 
L 403.809591 128.538781 
L 406.556697 124.806691 
L 409.211935 120.801267 
L 410.886205 117.975268 
L 412.451511 115.026959 
L 413.880314 111.962191 
L 415.145809 108.790244 
L 416.222481 105.5237 
L 417.086648 102.178232 
L 417.716954 98.772324 
L 418.094824 95.326915 
L 418.204858 91.864994 
L 418.035151 88.41113 
L 417.577548 84.990973 
L 416.827812 81.630723 
L 415.785715 78.356581 
L 414.455036 75.194197 
L 412.843484 72.168122 
L 410.962523 69.301294 
L 408.827135 66.614539 
L 406.455496 64.12613 
L 403.868591 61.851397 
L 401.089772 59.802397 
L 398.144268 57.987659 
L 395.058657 56.412007 
L 391.860318 55.076462 
L 388.576864 53.978227 
L 385.235584 53.110763 
L 381.862893 52.463938 
L 378.483812 52.024267 
L 375.121481 51.775214 
L 371.796722 51.697578 
L 366.918875 51.855141 
L 362.213908 52.270574 
L 356.261402 53.080351 
L 340.571844 55.477078 
L 337.004296 55.738036 
L 333.480449 55.791423 
L 329.94195 55.63246 
L 326.331462 55.275424 
L 321.316222 54.550069 
L 308.784212 52.548827 
L 304.178574 52.035808 
L 299.382156 51.739016 
L 296.097634 51.702055 
L 292.761671 51.820615 
L 289.393102 52.115619 
L 286.013368 52.605642 
L 282.646122 53.306489 
L 279.316778 54.230833 
L 276.052022 55.387926 
L 272.879276 56.783384 
L 269.826147 58.419053 
L 266.919866 60.292955 
L 264.186725 62.39933 
L 261.651531 64.728746 
L 259.33709 67.268299 
L 257.263724 70.001893 
L 255.448843 72.910575 
L 253.906577 75.972949 
L 252.647473 79.165627 
L 251.678268 82.463731 
L 251.001743 85.841423 
L 250.616666 89.272451 
L 250.517809 92.730701 
L 250.69606 96.190744 
L 251.138613 99.62836 
L 251.829242 103.021032 
L 252.748636 106.348397 
L 253.874814 109.592645 
L 255.183588 112.738851 
L 256.649068 115.775242 
L 258.244212 118.693386 
L 260.819589 122.838944 
L 263.531848 126.705848 
L 267.209389 131.455981 
L 277.129795 143.845174 
L 279.139565 146.804281 
L 280.947723 149.829329 
L 282.579307 152.97324 
L 284.075348 156.278533 
L 285.954792 160.984536 
L 290.487671 172.838196 
L 292.346202 177.083305 
L 294.487382 181.38552 
L 296.097634 184.24848 
L 297.868291 187.078229 
L 299.808057 189.847993 
L 301.922296 192.529917 
L 304.21287 195.095615 
L 306.678047 197.516739 
L 309.312497 199.765554 
L 312.107373 201.815504 
L 315.050468 203.641757 
L 318.126456 205.221718 
L 321.3172 206.535501 
L 324.60213 207.566335 
L 327.958668 208.300923 
L 331.362713 208.729714 
L 334.789146 208.847106 
L 338.212373 208.65156 
L 341.606865 208.145638 
L 344.94771 207.335942 
L 348.211139 206.232983 
L 351.375035 204.850956 
L 354.419396 203.207444 
L 357.326756 201.323052 
L 360.082542 199.220982 
L 362.675368 196.926544 
L 365.097254 194.466643 
L 367.343765 191.86922 
L 369.414073 189.162686 
L 371.310924 186.375347 
L 373.040539 183.53484 
L 375.343009 179.231719 
L 377.335717 174.949382 
L 379.610682 169.389472 
L 385.379835 154.603552 
L 386.937612 151.383486 
L 388.653301 148.305051 
L 390.560216 145.320103 
L 392.674663 142.371847 
L 395.810459 138.391199 
L 403.809591 128.538781 
L 406.556697 124.806691 
L 409.211935 120.801267 
L 410.886205 117.975268 
L 412.451511 115.026959 
L 413.880314 111.962191 
L 415.145809 108.790244 
L 416.222481 105.5237 
L 417.086648 102.178232 
L 417.716954 98.772324 
L 418.094824 95.326915 
L 418.204858 91.864994 
L 418.035151 88.41113 
L 417.577548 84.990973 
L 416.827812 81.630723 
L 415.785715 78.356581 
L 414.455036 75.194197 
L 412.843484 72.168122 
L 410.962523 69.301294 
L 408.827135 66.614539 
L 406.455496 64.12613 
L 403.868591 61.851397 
L 401.089772 59.802397 
L 398.144268 57.987659 
L 395.058657 56.412007 
L 391.860318 55.076462 
L 388.576864 53.978227 
L 385.235584 53.110763 
L 381.862893 52.463938 
L 378.483812 52.024267 
L 375.121481 51.775214 
L 371.796722 51.697578 
L 366.918875 51.855141 
L 362.213908 52.270574 
L 356.261402 53.080351 
L 340.571844 55.477078 
L 337.004296 55.738036 
L 333.480449 55.791423 
L 329.94195 55.63246 
L 326.331462 55.275424 
L 321.316222 54.550069 
L 308.784212 52.548827 
L 304.178574 52.035808 
L 299.382156 51.739016 
L 296.097634 51.702055 
L 292.761671 51.820615 
L 289.393102 52.115619 
L 286.013368 52.605642 
L 282.646122 53.306489 
L 279.316778 54.230833 
L 276.052022 55.387926 
L 272.879276 56.783384 
L 269.826147 58.419053 
L 266.919866 60.292955 
L 264.186725 62.39933 
L 261.651531 64.728746 
L 259.33709 67.268299 
L 257.263724 70.001893 
L 255.448843 72.910575 
L 253.906577 75.972949 
L 252.647473 79.165627 
L 251.678268 82.463731 
L 251.001743 85.841423 
L 250.616666 89.272451 
L 250.517809 92.730701 
L 250.69606 96.190744 
L 251.138613 99.62836 
L 251.829242 103.021032 
L 252.748636 106.348397 
L 253.874814 109.592645 
L 255.183588 112.738851 
L 256.649068 115.775242 
L 258.244212 118.693386 
L 260.819589 122.838944 
L 263.531848 126.705848 
L 267.209389 131.455981 
L 277.129795 143.845174 
L 279.139565 146.804281 
L 280.947723 149.829329 
L 282.579307 152.97324 
L 284.075348 156.278533 
L 285.954792 160.984536 
L 290.487671 172.838196 
L 292.346202 177.083305 
L 294.487382 181.38552 
L 296.097634 184.24848 
L 297.868291 187.078229 
L 299.808057 189.847993 
L 301.922296 192.529917 
L 304.21287 195.095615 
L 306.678047 197.516739 
L 309.312497 199.765554 
L 312.107373 201.815504 
L 315.050468 203.641757 
L 318.126456 205.221718 
L 321.3172 206.535501 
L 324.60213 207.566335 
L 327.958668 208.300923 
L 331.362713 208.729714 
L 334.789146 208.847106 
L 338.212373 208.65156 
L 341.606865 208.145638 
L 344.94771 207.335942 
L 348.211139 206.232983 
L 351.375035 204.850956 
L 354.419396 203.207444 
L 357.326756 201.323052 
L 360.082542 199.220982 
L 362.675368 196.926544 
L 365.097254 194.466643 
L 367.343765 191.86922 
L 369.414073 189.162686 
L 371.310924 186.375347 
L 373.040539 183.53484 
L 375.343009 179.231719 
L 377.335717 174.949382 
L 379.610682 169.389472 
L 385.379835 154.603552 
L 386.937612 151.383486 
L 388.653301 148.305051 
L 390.560216 145.320103 
L 392.674663 142.371847 
L 395.810459 138.391199 
L 403.809591 128.538781 
L 406.556697 124.806691 
L 409.211935 120.801267 
L 410.886205 117.975268 
L 410.886205 117.975268 
" clip-path="url(#p7470ade139)" style="fill: none; stroke: #ff0000; stroke-width: 3; stroke-linecap: square"/>
   </g>
   <g id="patch_3">
    <path d="M 47.389063 213.632411 
L 47.389063 22.318125 
" style="fill: none; stroke: #000000; stroke-width: 0.8; stroke-linejoin: miter; stroke-linecap: square"/>
   </g>
   <g id="patch_4">
    <path d="M 716.989063 213.632411 
L 716.989063 22.318125 
" style="fill: none; stroke: #000000; stroke-width: 0.8; stroke-linejoin: miter; stroke-linecap: square"/>
   </g>
   <g id="patch_5">
    <path d="M 47.389063 213.632411 
L 716.989063 213.632411 
" style="fill: none; stroke: #000000; stroke-width: 0.8; stroke-linejoin: miter; stroke-linecap: square"/>
   </g>
   <g id="patch_6">
    <path d="M 47.389063 22.318125 
L 716.989063 22.318125 
" style="fill: none; stroke: #000000; stroke-width: 0.8; stroke-linejoin: miter; stroke-linecap: square"/>
   </g>
   <g id="text_19">
    <g id="patch_7">
     <path d="M 114.349063 210.162321 
L 340.288437 210.162321 
Q 343.888438 210.162321 343.888438 206.562321 
L 343.888438 194.948571 
Q 343.888438 191.348571 340.288437 191.348571 
L 114.349063 191.348571 
Q 110.749063 191.348571 110.749063 194.948571 
L 110.749063 206.562321 
Q 110.749063 210.162321 114.349063 210.162321 
z
" style="fill: #ffff00; stroke: #000000; stroke-linejoin: miter"/>
    </g>
    <!-- CONDICIÓN EINSTEIN-VED: L = 3λ -->
    <g transform="translate(114.349063 204.066696) scale(0.12 -0.12)">
     <defs>
      <path id="DejaVuSans-Bold-43" d="M 4288 256 
Q 3956 84 3597 -3 
Q 3238 -91 2847 -91 
Q 1681 -91 1000 561 
Q 319 1213 319 2328 
Q 319 3447 1000 4098 
Q 1681 4750 2847 4750 
Q 3238 4750 3597 4662 
Q 3956 4575 4288 4403 
L 4288 3438 
Q 3953 3666 3628 3772 
Q 3303 3878 2944 3878 
Q 2300 3878 1931 3465 
Q 1563 3053 1563 2328 
Q 1563 1606 1931 1193 
Q 2300 781 2944 781 
Q 3303 781 3628 887 
Q 3953 994 4288 1222 
L 4288 256 
z
" transform="scale(0.015625)"/>
      <path id="DejaVuSans-Bold-4f" d="M 2719 3878 
Q 2169 3878 1866 3472 
Q 1563 3066 1563 2328 
Q 1563 1594 1866 1187 
Q 2169 781 2719 781 
Q 3272 781 3575 1187 
Q 3878 1594 3878 2328 
Q 3878 3066 3575 3472 
Q 3272 3878 2719 3878 
z
M 2719 4750 
Q 3844 4750 4481 4106 
Q 5119 3463 5119 2328 
Q 5119 1197 4481 553 
Q 3844 -91 2719 -91 
Q 1597 -91 958 553 
Q 319 1197 319 2328 
Q 319 3463 958 4106 
Q 1597 4750 2719 4750 
z
" transform="scale(0.015625)"/>
      <path id="DejaVuSans-Bold-4e" d="M 588 4666 
L 1931 4666 
L 3628 1466 
L 3628 4666 
L 4769 4666 
L 4769 0 
L 3425 0 
L 1728 3200 
L 1728 0 
L 588 0 
L 588 4666 
z
" transform="scale(0.015625)"/>
      <path id="DejaVuSans-Bold-44" d="M 1791 3756 
L 1791 909 
L 2222 909 
Q 2959 909 3348 1275 
Q 3738 1641 3738 2338 
Q 3738 3031 3350 3393 
Q 2963 3756 2222 3756 
L 1791 3756 
z
M 588 4666 
L 1856 4666 
Q 2919 4666 3439 4514 
Q 3959 4363 4331 4000 
Q 4659 3684 4818 3271 
Q 4978 2859 4978 2338 
Q 4978 1809 4818 1395 
Q 4659 981 4331 666 
Q 3956 303 3431 151 
Q 2906 0 1856 0 
L 588 0 
L 588 4666 
z
" transform="scale(0.015625)"/>
      <path id="DejaVuSans-Bold-49" d="M 588 4666 
L 1791 4666 
L 1791 0 
L 588 0 
L 588 4666 
z
" transform="scale(0.015625)"/>
      <path id="DejaVuSans-Bold-d3" d="M 2719 3878 
Q 2169 3878 1866 3472 
Q 1563 3066 1563 2328 
Q 1563 1594 1866 1187 
Q 2169 781 2719 781 
Q 3272 781 3575 1187 
Q 3878 1594 3878 2328 
Q 3878 3066 3575 3472 
Q 3272 3878 2719 3878 
z
M 2719 4750 
Q 3844 4750 4481 4106 
Q 5119 3463 5119 2328 
Q 5119 1197 4481 553 
Q 3844 -91 2719 -91 
Q 1597 -91 958 553 
Q 319 1197 319 2328 
Q 319 3463 958 4106 
Q 1597 4750 2719 4750 
z
M 2799 5921 
L 3684 5921 
L 2793 5096 
L 2181 5096 
L 2799 5921 
z
" transform="scale(0.015625)"/>
      <path id="DejaVuSans-Bold-20" transform="scale(0.015625)"/>
      <path id="DejaVuSans-Bold-45" d="M 588 4666 
L 3834 4666 
L 3834 3756 
L 1791 3756 
L 1791 2888 
L 3713 2888 
L 3713 1978 
L 1791 1978 
L 1791 909 
L 3903 909 
L 3903 0 
L 588 0 
L 588 4666 
z
" transform="scale(0.015625)"/>
      <path id="DejaVuSans-Bold-53" d="M 3834 4519 
L 3834 3531 
Q 3450 3703 3084 3790 
Q 2719 3878 2394 3878 
Q 1963 3878 1756 3759 
Q 1550 3641 1550 3391 
Q 1550 3203 1689 3098 
Q 1828 2994 2194 2919 
L 2706 2816 
Q 3484 2659 3812 2340 
Q 4141 2022 4141 1434 
Q 4141 663 3683 286 
Q 3225 -91 2284 -91 
Q 1841 -91 1394 -6 
Q 947 78 500 244 
L 500 1259 
Q 947 1022 1364 901 
Q 1781 781 2169 781 
Q 2563 781 2772 912 
Q 2981 1044 2981 1288 
Q 2981 1506 2839 1625 
Q 2697 1744 2272 1838 
L 1806 1941 
Q 1106 2091 782 2419 
Q 459 2747 459 3303 
Q 459 4000 909 4375 
Q 1359 4750 2203 4750 
Q 2588 4750 2994 4692 
Q 3400 4634 3834 4519 
z
" transform="scale(0.015625)"/>
      <path id="DejaVuSans-Bold-54" d="M 31 4666 
L 4331 4666 
L 4331 3756 
L 2784 3756 
L 2784 0 
L 1581 0 
L 1581 3756 
L 31 3756 
L 31 4666 
z
" transform="scale(0.015625)"/>
      <path id="DejaVuSans-Bold-2d" d="M 347 2297 
L 2309 2297 
L 2309 1388 
L 347 1388 
L 347 2297 
z
" transform="scale(0.015625)"/>
      <path id="DejaVuSans-Bold-56" d="M 31 4666 
L 1241 4666 
L 2478 1222 
L 3713 4666 
L 4922 4666 
L 3194 0 
L 1759 0 
L 31 4666 
z
" transform="scale(0.015625)"/>
      <path id="DejaVuSans-Bold-3a" d="M 716 3500 
L 1844 3500 
L 1844 2291 
L 716 2291 
L 716 3500 
z
M 716 1209 
L 1844 1209 
L 1844 0 
L 716 0 
L 716 1209 
z
" transform="scale(0.015625)"/>
      <path id="DejaVuSans-Bold-4c" d="M 588 4666 
L 1791 4666 
L 1791 909 
L 3903 909 
L 3903 0 
L 588 0 
L 588 4666 
z
" transform="scale(0.015625)"/>
      <path id="DejaVuSans-Bold-3d" d="M 678 3084 
L 4684 3084 
L 4684 2350 
L 678 2350 
L 678 3084 
z
M 678 1663 
L 4684 1663 
L 4684 922 
L 678 922 
L 678 1663 
z
" transform="scale(0.015625)"/>
      <path id="DejaVuSans-Bold-33" d="M 2981 2516 
Q 3453 2394 3698 2092 
Q 3944 1791 3944 1325 
Q 3944 631 3412 270 
Q 2881 -91 1863 -91 
Q 1503 -91 1142 -33 
Q 781 25 428 141 
L 428 1069 
Q 766 900 1098 814 
Q 1431 728 1753 728 
Q 2231 728 2486 893 
Q 2741 1059 2741 1369 
Q 2741 1688 2480 1852 
Q 2219 2016 1709 2016 
L 1228 2016 
L 1228 2791 
L 1734 2791 
Q 2188 2791 2409 2933 
Q 2631 3075 2631 3366 
Q 2631 3634 2415 3781 
Q 2200 3928 1806 3928 
Q 1516 3928 1219 3862 
Q 922 3797 628 3669 
L 628 4550 
Q 984 4650 1334 4700 
Q 1684 4750 2022 4750 
Q 2931 4750 3382 4451 
Q 3834 4153 3834 3553 
Q 3834 3144 3618 2883 
Q 3403 2622 2981 2516 
z
" transform="scale(0.015625)"/>
      <path id="DejaVuSans-Bold-3bb" d="M 1544 3188 
L 1350 3713 
Q 1263 3953 1145 4040 
Q 1028 4128 734 4128 
L 384 4128 
L 384 4863 
L 1031 4863 
Q 1600 4863 1908 4622 
Q 2216 4381 2428 3813 
L 3859 0 
L 2741 0 
L 2044 1838 
L 1309 0 
L 191 0 
L 1544 3188 
z
" transform="scale(0.015625)"/>
     </defs>
     <use xlink:href="#DejaVuSans-Bold-43"/>
     <use xlink:href="#DejaVuSans-Bold-4f" transform="translate(73.388672 0)"/>
     <use xlink:href="#DejaVuSans-Bold-4e" transform="translate(158.398438 0)"/>
     <use xlink:href="#DejaVuSans-Bold-44" transform="translate(242.089844 0)"/>
     <use xlink:href="#DejaVuSans-Bold-49" transform="translate(325.097656 0)"/>
     <use xlink:href="#DejaVuSans-Bold-43" transform="translate(362.304688 0)"/>
     <use xlink:href="#DejaVuSans-Bold-49" transform="translate(435.693359 0)"/>
     <use xlink:href="#DejaVuSans-Bold-d3" transform="translate(472.900391 0)"/>
     <use xlink:href="#DejaVuSans-Bold-4e" transform="translate(557.910156 0)"/>
     <use xlink:href="#DejaVuSans-Bold-20" transform="translate(641.601562 0)"/>
     <use xlink:href="#DejaVuSans-Bold-45" transform="translate(676.416016 0)"/>
     <use xlink:href="#DejaVuSans-Bold-49" transform="translate(744.726562 0)"/>
     <use xlink:href="#DejaVuSans-Bold-4e" transform="translate(781.933594 0)"/>
     <use xlink:href="#DejaVuSans-Bold-53" transform="translate(865.625 0)"/>
     <use xlink:href="#DejaVuSans-Bold-54" transform="translate(937.646484 0)"/>
     <use xlink:href="#DejaVuSans-Bold-45" transform="translate(1005.859375 0)"/>
     <use xlink:href="#DejaVuSans-Bold-49" transform="translate(1074.169922 0)"/>
     <use xlink:href="#DejaVuSans-Bold-4e" transform="translate(1111.376953 0)"/>
     <use xlink:href="#DejaVuSans-Bold-2d" transform="translate(1195.068359 0)"/>
     <use xlink:href="#DejaVuSans-Bold-56" transform="translate(1229.322266 0)"/>
     <use xlink:href="#DejaVuSans-Bold-45" transform="translate(1306.714844 0)"/>
     <use xlink:href="#DejaVuSans-Bold-44" transform="translate(1375.025391 0)"/>
     <use xlink:href="#DejaVuSans-Bold-3a" transform="translate(1458.033203 0)"/>
     <use xlink:href="#DejaVuSans-Bold-20" transform="translate(1498.023438 0)"/>
     <use xlink:href="#DejaVuSans-Bold-4c" transform="translate(1532.837891 0)"/>
     <use xlink:href="#DejaVuSans-Bold-20" transform="translate(1596.558594 0)"/>
     <use xlink:href="#DejaVuSans-Bold-3d" transform="translate(1631.373047 0)"/>
     <use xlink:href="#DejaVuSans-Bold-20" transform="translate(1715.162109 0)"/>
     <use xlink:href="#DejaVuSans-Bold-33" transform="translate(1749.976562 0)"/>
     <use xlink:href="#DejaVuSans-Bold-3bb" transform="translate(1819.556641 0)"/>
    </g>
   </g>
   <g id="text_20">
    <!-- 3. Onda Auto-Confinada - Partícula Estable -->
    <g transform="translate(237.448438 16.318125) scale(0.12 -0.12)">
     <defs>
      <path id="DejaVuSans-Bold-2e" d="M 653 1209 
L 1778 1209 
L 1778 0 
L 653 0 
L 653 1209 
z
" transform="scale(0.015625)"/>
      <path id="DejaVuSans-Bold-6e" d="M 4056 2131 
L 4056 0 
L 2931 0 
L 2931 347 
L 2931 1631 
Q 2931 2084 2911 2256 
Q 2891 2428 2841 2509 
Q 2775 2619 2662 2680 
Q 2550 2741 2406 2741 
Q 2056 2741 1856 2470 
Q 1656 2200 1656 1722 
L 1656 0 
L 538 0 
L 538 3500 
L 1656 3500 
L 1656 2988 
Q 1909 3294 2193 3439 
Q 2478 3584 2822 3584 
Q 3428 3584 3742 3212 
Q 4056 2841 4056 2131 
z
" transform="scale(0.015625)"/>
      <path id="DejaVuSans-Bold-64" d="M 2919 2988 
L 2919 4863 
L 4044 4863 
L 4044 0 
L 2919 0 
L 2919 506 
Q 2688 197 2409 53 
Q 2131 -91 1766 -91 
Q 1119 -91 703 423 
Q 288 938 288 1747 
Q 288 2556 703 3070 
Q 1119 3584 1766 3584 
Q 2128 3584 2408 3439 
Q 2688 3294 2919 2988 
z
M 2181 722 
Q 2541 722 2730 984 
Q 2919 1247 2919 1747 
Q 2919 2247 2730 2509 
Q 2541 2772 2181 2772 
Q 1825 2772 1636 2509 
Q 1447 2247 1447 1747 
Q 1447 1247 1636 984 
Q 1825 722 2181 722 
z
" transform="scale(0.015625)"/>
      <path id="DejaVuSans-Bold-61" d="M 2106 1575 
Q 1756 1575 1579 1456 
Q 1403 1338 1403 1106 
Q 1403 894 1545 773 
Q 1688 653 1941 653 
Q 2256 653 2472 879 
Q 2688 1106 2688 1447 
L 2688 1575 
L 2106 1575 
z
M 3816 1997 
L 3816 0 
L 2688 0 
L 2688 519 
Q 2463 200 2181 54 
Q 1900 -91 1497 -91 
Q 953 -91 614 226 
Q 275 544 275 1050 
Q 275 1666 698 1953 
Q 1122 2241 2028 2241 
L 2688 2241 
L 2688 2328 
Q 2688 2594 2478 2717 
Q 2269 2841 1825 2841 
Q 1466 2841 1156 2769 
Q 847 2697 581 2553 
L 581 3406 
Q 941 3494 1303 3539 
Q 1666 3584 2028 3584 
Q 2975 3584 3395 3211 
Q 3816 2838 3816 1997 
z
" transform="scale(0.015625)"/>
      <path id="DejaVuSans-Bold-41" d="M 3419 850 
L 1538 850 
L 1241 0 
L 31 0 
L 1759 4666 
L 3194 4666 
L 4922 0 
L 3713 0 
L 3419 850 
z
M 1838 1716 
L 3116 1716 
L 2478 3572 
L 1838 1716 
z
" transform="scale(0.015625)"/>
      <path id="DejaVuSans-Bold-75" d="M 500 1363 
L 500 3500 
L 1625 3500 
L 1625 3150 
Q 1625 2866 1622 2436 
Q 1619 2006 1619 1863 
Q 1619 1441 1641 1255 
Q 1663 1069 1716 984 
Q 1784 875 1895 815 
Q 2006 756 2150 756 
Q 2500 756 2700 1025 
Q 2900 1294 2900 1772 
L 2900 3500 
L 4019 3500 
L 4019 0 
L 2900 0 
L 2900 506 
Q 2647 200 2364 54 
Q 2081 -91 1741 -91 
Q 1134 -91 817 281 
Q 500 653 500 1363 
z
" transform="scale(0.015625)"/>
      <path id="DejaVuSans-Bold-74" d="M 1759 4494 
L 1759 3500 
L 2913 3500 
L 2913 2700 
L 1759 2700 
L 1759 1216 
Q 1759 972 1856 886 
Q 1953 800 2241 800 
L 2816 800 
L 2816 0 
L 1856 0 
Q 1194 0 917 276 
Q 641 553 641 1216 
L 641 2700 
L 84 2700 
L 84 3500 
L 641 3500 
L 641 4494 
L 1759 4494 
z
" transform="scale(0.015625)"/>
      <path id="DejaVuSans-Bold-6f" d="M 2203 2784 
Q 1831 2784 1636 2517 
Q 1441 2250 1441 1747 
Q 1441 1244 1636 976 
Q 1831 709 2203 709 
Q 2569 709 2762 976 
Q 2956 1244 2956 1747 
Q 2956 2250 2762 2517 
Q 2569 2784 2203 2784 
z
M 2203 3584 
Q 3106 3584 3614 3096 
Q 4122 2609 4122 1747 
Q 4122 884 3614 396 
Q 3106 -91 2203 -91 
Q 1297 -91 786 396 
Q 275 884 275 1747 
Q 275 2609 786 3096 
Q 1297 3584 2203 3584 
z
" transform="scale(0.015625)"/>
      <path id="DejaVuSans-Bold-66" d="M 2841 4863 
L 2841 4128 
L 2222 4128 
Q 1984 4128 1890 4042 
Q 1797 3956 1797 3744 
L 1797 3500 
L 2753 3500 
L 2753 2700 
L 1797 2700 
L 1797 0 
L 678 0 
L 678 2700 
L 122 2700 
L 122 3500 
L 678 3500 
L 678 3744 
Q 678 4316 997 4589 
Q 1316 4863 1984 4863 
L 2841 4863 
z
" transform="scale(0.015625)"/>
      <path id="DejaVuSans-Bold-69" d="M 538 3500 
L 1656 3500 
L 1656 0 
L 538 0 
L 538 3500 
z
M 538 4863 
L 1656 4863 
L 1656 3950 
L 538 3950 
L 538 4863 
z
" transform="scale(0.015625)"/>
      <path id="DejaVuSans-Bold-50" d="M 588 4666 
L 2584 4666 
Q 3475 4666 3951 4270 
Q 4428 3875 4428 3144 
Q 4428 2409 3951 2014 
Q 3475 1619 2584 1619 
L 1791 1619 
L 1791 0 
L 588 0 
L 588 4666 
z
M 1791 3794 
L 1791 2491 
L 2456 2491 
Q 2806 2491 2997 2661 
Q 3188 2831 3188 3144 
Q 3188 3456 2997 3625 
Q 2806 3794 2456 3794 
L 1791 3794 
z
" transform="scale(0.015625)"/>
      <path id="DejaVuSans-Bold-72" d="M 3138 2547 
Q 2991 2616 2845 2648 
Q 2700 2681 2553 2681 
Q 2122 2681 1889 2404 
Q 1656 2128 1656 1613 
L 1656 0 
L 538 0 
L 538 3500 
L 1656 3500 
L 1656 2925 
Q 1872 3269 2151 3426 
Q 2431 3584 2822 3584 
Q 2878 3584 2943 3579 
Q 3009 3575 3134 3559 
L 3138 2547 
z
" transform="scale(0.015625)"/>
      <path id="DejaVuSans-Bold-ed" d="M 538 3500 
L 1656 3500 
L 1656 0 
L 538 0 
L 538 3500 
z
M 1590 5119 
L 2474 5119 
L 1321 3944 
L 709 3944 
L 1590 5119 
z
" transform="scale(0.015625)"/>
      <path id="DejaVuSans-Bold-63" d="M 3366 3391 
L 3366 2478 
Q 3138 2634 2908 2709 
Q 2678 2784 2431 2784 
Q 1963 2784 1702 2511 
Q 1441 2238 1441 1747 
Q 1441 1256 1702 982 
Q 1963 709 2431 709 
Q 2694 709 2930 787 
Q 3166 866 3366 1019 
L 3366 103 
Q 3103 6 2833 -42 
Q 2563 -91 2291 -91 
Q 1344 -91 809 395 
Q 275 881 275 1747 
Q 275 2613 809 3098 
Q 1344 3584 2291 3584 
Q 2566 3584 2833 3536 
Q 3100 3488 3366 3391 
z
" transform="scale(0.015625)"/>
      <path id="DejaVuSans-Bold-6c" d="M 538 4863 
L 1656 4863 
L 1656 0 
L 538 0 
L 538 4863 
z
" transform="scale(0.015625)"/>
      <path id="DejaVuSans-Bold-73" d="M 3272 3391 
L 3272 2541 
Q 2913 2691 2578 2766 
Q 2244 2841 1947 2841 
Q 1628 2841 1473 2761 
Q 1319 2681 1319 2516 
Q 1319 2381 1436 2309 
Q 1553 2238 1856 2203 
L 2053 2175 
Q 2913 2066 3209 1816 
Q 3506 1566 3506 1031 
Q 3506 472 3093 190 
Q 2681 -91 1863 -91 
Q 1516 -91 1145 -36 
Q 775 19 384 128 
L 384 978 
Q 719 816 1070 734 
Q 1422 653 1784 653 
Q 2113 653 2278 743 
Q 2444 834 2444 1013 
Q 2444 1163 2330 1236 
Q 2216 1309 1875 1350 
L 1678 1375 
Q 931 1469 631 1722 
Q 331 1975 331 2491 
Q 331 3047 712 3315 
Q 1094 3584 1881 3584 
Q 2191 3584 2531 3537 
Q 2872 3491 3272 3391 
z
" transform="scale(0.015625)"/>
      <path id="DejaVuSans-Bold-62" d="M 2400 722 
Q 2759 722 2948 984 
Q 3138 1247 3138 1747 
Q 3138 2247 2948 2509 
Q 2759 2772 2400 2772 
Q 2041 2772 1848 2508 
Q 1656 2244 1656 1747 
Q 1656 1250 1848 986 
Q 2041 722 2400 722 
z
M 1656 2988 
Q 1888 3294 2169 3439 
Q 2450 3584 2816 3584 
Q 3463 3584 3878 3070 
Q 4294 2556 4294 1747 
Q 4294 938 3878 423 
Q 3463 -91 2816 -91 
Q 2450 -91 2169 54 
Q 1888 200 1656 506 
L 1656 0 
L 538 0 
L 538 4863 
L 1656 4863 
L 1656 2988 
z
" transform="scale(0.015625)"/>
      <path id="DejaVuSans-Bold-65" d="M 4031 1759 
L 4031 1441 
L 1416 1441 
Q 1456 1047 1700 850 
Q 1944 653 2381 653 
Q 2734 653 3104 758 
Q 3475 863 3866 1075 
L 3866 213 
Q 3469 63 3072 -14 
Q 2675 -91 2278 -91 
Q 1328 -91 801 392 
Q 275 875 275 1747 
Q 275 2603 792 3093 
Q 1309 3584 2216 3584 
Q 3041 3584 3536 3087 
Q 4031 2591 4031 1759 
z
M 2881 2131 
Q 2881 2450 2695 2645 
Q 2509 2841 2209 2841 
Q 1884 2841 1681 2658 
Q 1478 2475 1428 2131 
L 2881 2131 
z
" transform="scale(0.015625)"/>
     </defs>
     <use xlink:href="#DejaVuSans-Bold-33"/>
     <use xlink:href="#DejaVuSans-Bold-2e" transform="translate(69.580078 0)"/>
     <use xlink:href="#DejaVuSans-Bold-20" transform="translate(107.568359 0)"/>
     <use xlink:href="#DejaVuSans-Bold-4f" transform="translate(142.382812 0)"/>
     <use xlink:href="#DejaVuSans-Bold-6e" transform="translate(227.392578 0)"/>
     <use xlink:href="#DejaVuSans-Bold-64" transform="translate(298.583984 0)"/>
     <use xlink:href="#DejaVuSans-Bold-61" transform="translate(370.166016 0)"/>
     <use xlink:href="#DejaVuSans-Bold-20" transform="translate(437.646484 0)"/>
     <use xlink:href="#DejaVuSans-Bold-41" transform="translate(472.460938 0)"/>
     <use xlink:href="#DejaVuSans-Bold-75" transform="translate(549.853516 0)"/>
     <use xlink:href="#DejaVuSans-Bold-74" transform="translate(621.044922 0)"/>
     <use xlink:href="#DejaVuSans-Bold-6f" transform="translate(668.847656 0)"/>
     <use xlink:href="#DejaVuSans-Bold-2d" transform="translate(737.548828 0)"/>
     <use xlink:href="#DejaVuSans-Bold-43" transform="translate(779.052734 0)"/>
     <use xlink:href="#DejaVuSans-Bold-6f" transform="translate(852.441406 0)"/>
     <use xlink:href="#DejaVuSans-Bold-6e" transform="translate(921.142578 0)"/>
     <use xlink:href="#DejaVuSans-Bold-66" transform="translate(992.333984 0)"/>
     <use xlink:href="#DejaVuSans-Bold-69" transform="translate(1035.839844 0)"/>
     <use xlink:href="#DejaVuSans-Bold-6e" transform="translate(1070.117188 0)"/>
     <use xlink:href="#DejaVuSans-Bold-61" transform="translate(1141.308594 0)"/>
     <use xlink:href="#DejaVuSans-Bold-64" transform="translate(1208.789062 0)"/>
     <use xlink:href="#DejaVuSans-Bold-61" transform="translate(1280.371094 0)"/>
     <use xlink:href="#DejaVuSans-Bold-20" transform="translate(1347.851562 0)"/>
     <use xlink:href="#DejaVuSans-Bold-2d" transform="translate(1382.666016 0)"/>
     <use xlink:href="#DejaVuSans-Bold-20" transform="translate(1424.169922 0)"/>
     <use xlink:href="#DejaVuSans-Bold-50" transform="translate(1458.984375 0)"/>
     <use xlink:href="#DejaVuSans-Bold-61" transform="translate(1529.650391 0)"/>
     <use xlink:href="#DejaVuSans-Bold-72" transform="translate(1597.130859 0)"/>
     <use xlink:href="#DejaVuSans-Bold-74" transform="translate(1646.447266 0)"/>
     <use xlink:href="#DejaVuSans-Bold-ed" transform="translate(1694.25 0)"/>
     <use xlink:href="#DejaVuSans-Bold-63" transform="translate(1728.527344 0)"/>
     <use xlink:href="#DejaVuSans-Bold-75" transform="translate(1787.804688 0)"/>
     <use xlink:href="#DejaVuSans-Bold-6c" transform="translate(1858.996094 0)"/>
     <use xlink:href="#DejaVuSans-Bold-61" transform="translate(1893.273438 0)"/>
     <use xlink:href="#DejaVuSans-Bold-20" transform="translate(1960.753906 0)"/>
     <use xlink:href="#DejaVuSans-Bold-45" transform="translate(1995.568359 0)"/>
     <use xlink:href="#DejaVuSans-Bold-73" transform="translate(2063.878906 0)"/>
     <use xlink:href="#DejaVuSans-Bold-74" transform="translate(2123.400391 0)"/>
     <use xlink:href="#DejaVuSans-Bold-61" transform="translate(2171.203125 0)"/>
     <use xlink:href="#DejaVuSans-Bold-62" transform="translate(2238.683594 0)"/>
     <use xlink:href="#DejaVuSans-Bold-6c" transform="translate(2310.265625 0)"/>
     <use xlink:href="#DejaVuSans-Bold-65" transform="translate(2344.542969 0)"/>
    </g>
   </g>
   <g id="legend_1">
    <g id="patch_8">
     <path d="M 595.248438 44.99625 
L 709.989063 44.99625 
Q 711.989063 44.99625 711.989063 42.99625 
L 711.989063 29.318125 
Q 711.989063 27.318125 709.989063 27.318125 
L 595.248438 27.318125 
Q 593.248438 27.318125 593.248438 29.318125 
L 593.248438 42.99625 
Q 593.248438 44.99625 595.248438 44.99625 
z
" style="fill: #ffffff; opacity: 0.8; stroke: #cccccc; stroke-linejoin: miter"/>
    </g>
    <g id="line2d_35">
     <path d="M 597.248438 35.416562 
L 607.248438 35.416562 
L 617.248438 35.416562 
" style="fill: none; stroke: #ff0000; stroke-width: 3; stroke-linecap: square"/>
    </g>
    <g id="text_21">
     <!-- Confinada (n=3) -->
     <g transform="translate(625.248438 38.916562) scale(0.1 -0.1)">
      <defs>
       <path id="DejaVuSans-66" d="M 2375 4863 
L 2375 4384 
L 1825 4384 
Q 1516 4384 1395 4259 
Q 1275 4134 1275 3809 
L 1275 3500 
L 2222 3500 
L 2222 3053 
L 1275 3053 
L 1275 0 
L 697 0 
L 697 3053 
L 147 3053 
L 147 3500 
L 697 3500 
L 697 3744 
Q 697 4328 969 4595 
Q 1241 4863 1831 4863 
L 2375 4863 
z
" transform="scale(0.015625)"/>
       <path id="DejaVuSans-69" d="M 603 3500 
L 1178 3500 
L 1178 0 
L 603 0 
L 603 3500 
z
M 603 4863 
L 1178 4863 
L 1178 4134 
L 603 4134 
L 603 4863 
z
" transform="scale(0.015625)"/>
       <path id="DejaVuSans-28" d="M 1984 4856 
Q 1566 4138 1362 3434 
Q 1159 2731 1159 2009 
Q 1159 1288 1364 580 
Q 1569 -128 1984 -844 
L 1484 -844 
Q 1016 -109 783 600 
Q 550 1309 550 2009 
Q 550 2706 781 3412 
Q 1013 4119 1484 4856 
L 1984 4856 
z
" transform="scale(0.015625)"/>
       <path id="DejaVuSans-3d" d="M 678 2906 
L 4684 2906 
L 4684 2381 
L 678 2381 
L 678 2906 
z
M 678 1631 
L 4684 1631 
L 4684 1100 
L 678 1100 
L 678 1631 
z
" transform="scale(0.015625)"/>
       <path id="DejaVuSans-33" d="M 2597 2516 
Q 3050 2419 3304 2112 
Q 3559 1806 3559 1356 
Q 3559 666 3084 287 
Q 2609 -91 1734 -91 
Q 1441 -91 1130 -33 
Q 819 25 488 141 
L 488 750 
Q 750 597 1062 519 
Q 1375 441 1716 441 
Q 2309 441 2620 675 
Q 2931 909 2931 1356 
Q 2931 1769 2642 2001 
Q 2353 2234 1838 2234 
L 1294 2234 
L 1294 2753 
L 1863 2753 
Q 2328 2753 2575 2939 
Q 2822 3125 2822 3475 
Q 2822 3834 2567 4026 
Q 2313 4219 1838 4219 
Q 1578 4219 1281 4162 
Q 984 4106 628 3988 
L 628 4550 
Q 988 4650 1302 4700 
Q 1616 4750 1894 4750 
Q 2613 4750 3031 4423 
Q 3450 4097 3450 3541 
Q 3450 3153 3228 2886 
Q 3006 2619 2597 2516 
z
" transform="scale(0.015625)"/>
       <path id="DejaVuSans-29" d="M 513 4856 
L 1013 4856 
Q 1481 4119 1714 3412 
Q 1947 2706 1947 2009 
Q 1947 1309 1714 600 
Q 1481 -109 1013 -844 
L 513 -844 
Q 928 -128 1133 580 
Q 1338 1288 1338 2009 
Q 1338 2731 1133 3434 
Q 928 4138 513 4856 
z
" transform="scale(0.015625)"/>
      </defs>
      <use xlink:href="#DejaVuSans-43"/>
      <use xlink:href="#DejaVuSans-6f" transform="translate(69.824219 0)"/>
      <use xlink:href="#DejaVuSans-6e" transform="translate(131.005859 0)"/>
      <use xlink:href="#DejaVuSans-66" transform="translate(194.384766 0)"/>
      <use xlink:href="#DejaVuSans-69" transform="translate(229.589844 0)"/>
      <use xlink:href="#DejaVuSans-6e" transform="translate(257.373047 0)"/>
      <use xlink:href="#DejaVuSans-61" transform="translate(320.751953 0)"/>
      <use xlink:href="#DejaVuSans-64" transform="translate(382.03125 0)"/>
      <use xlink:href="#DejaVuSans-61" transform="translate(445.507812 0)"/>
      <use xlink:href="#DejaVuSans-20" transform="translate(506.787109 0)"/>
      <use xlink:href="#DejaVuSans-28" transform="translate(538.574219 0)"/>
      <use xlink:href="#DejaVuSans-6e" transform="translate(577.587891 0)"/>
      <use xlink:href="#DejaVuSans-3d" transform="translate(640.966797 0)"/>
      <use xlink:href="#DejaVuSans-33" transform="translate(724.755859 0)"/>
      <use xlink:href="#DejaVuSans-29" transform="translate(788.378906 0)"/>
     </g>
    </g>
   </g>
  </g>
 </g>
 <defs>
  <clipPath id="p7470ade139">
   <rect x="47.389063" y="22.318125" width="669.6" height="191.314286"/>
  </clipPath>
 </defs>
</svg>
