<?xml version="1.0" encoding="utf-8" standalone="no"?>
<!DOCTYPE svg PUBLIC "-//W3C//DTD SVG 1.1//EN"
  "http://www.w3.org/Graphics/SVG/1.1/DTD/svg11.dtd">
<svg xmlns:xlink="http://www.w3.org/1999/xlink" width="1072.670938pt" height="229.65675pt" viewBox="0 0 1072.670938 229.65675" xmlns="http://www.w3.org/2000/svg" version="1.1">
 <metadata>
  <rdf:RDF xmlns:dc="http://purl.org/dc/elements/1.1/" xmlns:cc="http://creativecommons.org/ns#" xmlns:rdf="http://www.w3.org/1999/02/22-rdf-syntax-ns#">
   <cc:Work>
    <dc:type rdf:resource="http://purl.org/dc/dcmitype/StillImage"/>
    <dc:date>2025-12-03T16:17:01.416946</dc:date>
    <dc:format>image/svg+xml</dc:format>
    <dc:creator>
     <cc:Agent>
      <dc:title>Matplotlib v3.10.6, https://matplotlib.org/</dc:title>
     </cc:Agent>
    </dc:creator>
   </cc:Work>
  </rdf:RDF>
 </metadata>
 <defs>
  <style type="text/css">*{stroke-linejoin: round; stroke-linecap: butt}</style>
 </defs>
 <g id="figure_1">
  <g id="patch_1">
   <path d="M 0 229.65675 
L 1072.670938 229.65675 
L 1072.670938 0 
L 0 0 
z
" style="fill: #ffffff"/>
  </g>
  <g id="axes_1">
   <g id="patch_2">
    <path d="M 38.210938 176.181937 
L 349.332187 176.181937 
L 349.332187 51.733437 
L 38.210938 51.733437 
z
" style="fill: #ffffff"/>
   </g>
   <g id="patch_3">
    <path d="M 69.323062 151.292237 
L 318.220062 151.292237 
L 318.220062 76.623137 
L 69.323062 76.623137 
L 69.323062 151.292237 
z
" clip-path="url(#pfcf7160c84)" style="fill: none; stroke: #a52a2a; stroke-width: 2; stroke-linejoin: miter"/>
   </g>
   <g id="matplotlib.axis_1">
    <g id="xtick_1">
     <g id="line2d_1">
      <path d="M 69.323062 176.181937 
L 69.323062 51.733437 
" clip-path="url(#pfcf7160c84)" style="fill: none; stroke: #b0b0b0; stroke-opacity: 0.3; stroke-width: 0.8; stroke-linecap: square"/>
     </g>
     <g id="line2d_2">
      <defs>
       <path id="m91585814af" d="M 0 0 
L 0 3.5 
" style="stroke: #000000; stroke-width: 0.8"/>
      </defs>
      <g>
       <use xlink:href="#m91585814af" x="69.323062" y="176.181937" style="stroke: #000000; stroke-width: 0.8"/>
      </g>
     </g>
     <g id="text_1">
      <!-- 0 -->
      <g transform="translate(66.141812 190.780375) scale(0.1 -0.1)">
       <defs>
        <path id="DejaVuSans-30" d="M 2034 4250 
Q 1547 4250 1301 3770 
Q 1056 3291 1056 2328 
Q 1056 1369 1301 889 
Q 1547 409 2034 409 
Q 2525 409 2770 889 
Q 3016 1369 3016 2328 
Q 3016 3291 2770 3770 
Q 2525 4250 2034 4250 
z
M 2034 4750 
Q 2819 4750 3233 4129 
Q 3647 3509 3647 2328 
Q 3647 1150 3233 529 
Q 2819 -91 2034 -91 
Q 1250 -91 836 529 
Q 422 1150 422 2328 
Q 422 3509 836 4129 
Q 1250 4750 2034 4750 
z
" transform="scale(0.015625)"/>
       </defs>
       <use xlink:href="#DejaVuSans-30"/>
      </g>
     </g>
    </g>
    <g id="xtick_2">
     <g id="line2d_3">
      <path d="M 131.547312 176.181937 
L 131.547312 51.733437 
" clip-path="url(#pfcf7160c84)" style="fill: none; stroke: #b0b0b0; stroke-opacity: 0.3; stroke-width: 0.8; stroke-linecap: square"/>
     </g>
     <g id="line2d_4">
      <g>
       <use xlink:href="#m91585814af" x="131.547312" y="176.181937" style="stroke: #000000; stroke-width: 0.8"/>
      </g>
     </g>
     <g id="text_2">
      <!-- 2 -->
      <g transform="translate(128.366062 190.780375) scale(0.1 -0.1)">
       <defs>
        <path id="DejaVuSans-32" d="M 1228 531 
L 3431 531 
L 3431 0 
L 469 0 
L 469 531 
Q 828 903 1448 1529 
Q 2069 2156 2228 2338 
Q 2531 2678 2651 2914 
Q 2772 3150 2772 3378 
Q 2772 3750 2511 3984 
Q 2250 4219 1831 4219 
Q 1534 4219 1204 4116 
Q 875 4013 500 3803 
L 500 4441 
Q 881 4594 1212 4672 
Q 1544 4750 1819 4750 
Q 2544 4750 2975 4387 
Q 3406 4025 3406 3419 
Q 3406 3131 3298 2873 
Q 3191 2616 2906 2266 
Q 2828 2175 2409 1742 
Q 1991 1309 1228 531 
z
" transform="scale(0.015625)"/>
       </defs>
       <use xlink:href="#DejaVuSans-32"/>
      </g>
     </g>
    </g>
    <g id="xtick_3">
     <g id="line2d_5">
      <path d="M 193.771562 176.181937 
L 193.771562 51.733437 
" clip-path="url(#pfcf7160c84)" style="fill: none; stroke: #b0b0b0; stroke-opacity: 0.3; stroke-width: 0.8; stroke-linecap: square"/>
     </g>
     <g id="line2d_6">
      <g>
       <use xlink:href="#m91585814af" x="193.771562" y="176.181937" style="stroke: #000000; stroke-width: 0.8"/>
      </g>
     </g>
     <g id="text_3">
      <!-- 4 -->
      <g transform="translate(190.590312 190.780375) scale(0.1 -0.1)">
       <defs>
        <path id="DejaVuSans-34" d="M 2419 4116 
L 825 1625 
L 2419 1625 
L 2419 4116 
z
M 2253 4666 
L 3047 4666 
L 3047 1625 
L 3713 1625 
L 3713 1100 
L 3047 1100 
L 3047 0 
L 2419 0 
L 2419 1100 
L 313 1100 
L 313 1709 
L 2253 4666 
z
" transform="scale(0.015625)"/>
       </defs>
       <use xlink:href="#DejaVuSans-34"/>
      </g>
     </g>
    </g>
    <g id="xtick_4">
     <g id="line2d_7">
      <path d="M 255.995812 176.181937 
L 255.995812 51.733437 
" clip-path="url(#pfcf7160c84)" style="fill: none; stroke: #b0b0b0; stroke-opacity: 0.3; stroke-width: 0.8; stroke-linecap: square"/>
     </g>
     <g id="line2d_8">
      <g>
       <use xlink:href="#m91585814af" x="255.995812" y="176.181937" style="stroke: #000000; stroke-width: 0.8"/>
      </g>
     </g>
     <g id="text_4">
      <!-- 6 -->
      <g transform="translate(252.814562 190.780375) scale(0.1 -0.1)">
       <defs>
        <path id="DejaVuSans-36" d="M 2113 2584 
Q 1688 2584 1439 2293 
Q 1191 2003 1191 1497 
Q 1191 994 1439 701 
Q 1688 409 2113 409 
Q 2538 409 2786 701 
Q 3034 994 3034 1497 
Q 3034 2003 2786 2293 
Q 2538 2584 2113 2584 
z
M 3366 4563 
L 3366 3988 
Q 3128 4100 2886 4159 
Q 2644 4219 2406 4219 
Q 1781 4219 1451 3797 
Q 1122 3375 1075 2522 
Q 1259 2794 1537 2939 
Q 1816 3084 2150 3084 
Q 2853 3084 3261 2657 
Q 3669 2231 3669 1497 
Q 3669 778 3244 343 
Q 2819 -91 2113 -91 
Q 1303 -91 875 529 
Q 447 1150 447 2328 
Q 447 3434 972 4092 
Q 1497 4750 2381 4750 
Q 2619 4750 2861 4703 
Q 3103 4656 3366 4563 
z
" transform="scale(0.015625)"/>
       </defs>
       <use xlink:href="#DejaVuSans-36"/>
      </g>
     </g>
    </g>
    <g id="xtick_5">
     <g id="line2d_9">
      <path d="M 318.220062 176.181937 
L 318.220062 51.733437 
" clip-path="url(#pfcf7160c84)" style="fill: none; stroke: #b0b0b0; stroke-opacity: 0.3; stroke-width: 0.8; stroke-linecap: square"/>
     </g>
     <g id="line2d_10">
      <g>
       <use xlink:href="#m91585814af" x="318.220062" y="176.181937" style="stroke: #000000; stroke-width: 0.8"/>
      </g>
     </g>
     <g id="text_5">
      <!-- 8 -->
      <g transform="translate(315.038813 190.780375) scale(0.1 -0.1)">
       <defs>
        <path id="DejaVuSans-38" d="M 2034 2216 
Q 1584 2216 1326 1975 
Q 1069 1734 1069 1313 
Q 1069 891 1326 650 
Q 1584 409 2034 409 
Q 2484 409 2743 651 
Q 3003 894 3003 1313 
Q 3003 1734 2745 1975 
Q 2488 2216 2034 2216 
z
M 1403 2484 
Q 997 2584 770 2862 
Q 544 3141 544 3541 
Q 544 4100 942 4425 
Q 1341 4750 2034 4750 
Q 2731 4750 3128 4425 
Q 3525 4100 3525 3541 
Q 3525 3141 3298 2862 
Q 3072 2584 2669 2484 
Q 3125 2378 3379 2068 
Q 3634 1759 3634 1313 
Q 3634 634 3220 271 
Q 2806 -91 2034 -91 
Q 1263 -91 848 271 
Q 434 634 434 1313 
Q 434 1759 690 2068 
Q 947 2378 1403 2484 
z
M 1172 3481 
Q 1172 3119 1398 2916 
Q 1625 2713 2034 2713 
Q 2441 2713 2670 2916 
Q 2900 3119 2900 3481 
Q 2900 3844 2670 4047 
Q 2441 4250 2034 4250 
Q 1625 4250 1398 4047 
Q 1172 3844 1172 3481 
z
" transform="scale(0.015625)"/>
       </defs>
       <use xlink:href="#DejaVuSans-38"/>
      </g>
     </g>
    </g>
    <g id="text_6">
     <!-- الموضع x -->
     <g transform="translate(169.661406 204.4585) scale(0.1 -0.1)">
      <defs>
       <path id="DejaVuSans-627" d="M 603 4863 
L 1178 4863 
L 1178 0 
L 603 0 
L 603 4863 
z
" transform="scale(0.015625)"/>
       <path id="DejaVuSans-644" d="M 3256 228 
Q 3500 622 3500 1331 
L 3500 4863 
L 4075 4863 
L 4075 1331 
Q 4075 341 3769 -109 
Q 3391 -663 2575 -869 
Q 2156 -975 1891 -975 
Q 1594 -975 1366 -906 
Q 453 -619 450 234 
Q 447 666 647 953 
L 1222 953 
Q 1019 594 1019 234 
Q 1019 -172 1538 -366 
Q 1663 -416 1891 -416 
Q 2141 -416 2481 -309 
Q 3025 -144 3256 228 
z
" transform="scale(0.015625)"/>
       <path id="DejaVuSans-645" d="M 1906 922 
Q 2288 791 2525 791 
Q 2663 791 2728 859 
Q 2894 1038 2894 1219 
Q 2894 1294 2875 1356 
Q 2809 1631 2625 1684 
Q 2500 1722 2356 1722 
Q 2172 1722 2088 1638 
Q 1875 1425 1875 1213 
Q 1875 1088 1906 922 
z
M 1531 484 
Q 1375 572 1141 328 
Q 1063 247 1063 0 
L 1063 -1538 
L 438 -1538 
L 438 0 
Q 438 541 813 859 
Q 1016 1031 1297 1031 
Q 1291 1163 1291 1288 
Q 1291 1750 1797 2163 
Q 2038 2359 2325 2359 
Q 2566 2359 2813 2247 
Q 3381 1988 3469 1466 
Q 3494 1325 3494 1150 
Q 3494 694 3188 491 
Q 2813 241 2538 241 
Q 1981 234 1531 484 
z
" transform="scale(0.015625)"/>
       <path id="DejaVuSans-648" d="M 1544 1413 
Q 1347 1413 1209 1234 
Q 1134 1131 1134 1019 
Q 1134 859 1294 713 
Q 1441 575 2041 575 
Q 2041 1150 1772 1334 
Q 1656 1413 1544 1413 
z
M 2600 575 
Q 2600 -388 2063 -888 
Q 1766 -1163 1475 -1294 
Q 875 -1563 -266 -1563 
L -266 -988 
Q 856 -988 1275 -750 
Q 1800 -453 1994 9 
Q 1625 9 1484 41 
Q 1016 144 891 250 
Q 528 556 528 984 
Q 528 1425 806 1697 
Q 1131 2019 1559 2019 
Q 1838 2019 2063 1859 
Q 2469 1578 2547 1131 
Q 2600 813 2600 575 
z
" transform="scale(0.015625)"/>
       <path id="DejaVuSans-636" d="M 3650 -756 
Q 3375 -1241 2631 -1481 
Q 2381 -1563 2006 -1563 
Q 1606 -1559 1266 -1472 
Q 406 -1250 406 -225 
Q 406 544 734 1106 
L 1309 1106 
Q 972 463 975 -225 
Q 978 -784 1438 -903 
Q 1734 -978 1988 -978 
Q 2306 -978 2591 -863 
Q 3097 -650 3231 -219 
Q 3334 119 3334 516 
Q 3334 975 3213 1406 
L 3747 1406 
Q 3744 1359 3788 1188 
Q 3819 1063 3944 906 
Q 4303 1363 4688 1700 
Q 5081 2044 5484 2213 
Q 5731 2319 5984 2316 
Q 6375 2309 6678 2194 
Q 7259 1972 7259 1244 
Q 7259 716 6684 375 
Q 6053 0 5166 0 
L 4303 0 
Q 4184 0 4022 94 
Q 3881 175 3881 225 
Q 3881 -356 3650 -756 
z
M 5984 1772 
Q 5747 1772 5353 1519 
Q 4828 1181 4375 575 
L 4959 575 
Q 5700 575 6103 772 
Q 6688 1056 6684 1275 
Q 6678 1697 6250 1756 
Q 6134 1772 5984 1772 
z
M 3984 2965 
L 4453 2965 
L 4453 2496 
L 3984 2496 
L 3984 2965 
z
" transform="scale(0.015625)"/>
       <path id="DejaVuSans-639" d="M 1059 -553 
Q 1431 -1047 2491 -1047 
Q 3094 -1047 3756 -678 
L 3756 -1253 
Q 3288 -1563 2506 -1563 
Q 1191 -1563 672 -975 
Q 366 -628 366 0 
Q 366 553 638 869 
Q 991 1278 1231 1356 
Q 1072 1369 925 1463 
Q 650 1638 650 2044 
Q 650 2694 1288 3091 
Q 1675 3331 2463 3331 
L 2463 2803 
Q 1853 2803 1491 2600 
Q 1200 2438 1200 2113 
Q 1200 1878 1350 1800 
Q 1491 1725 1634 1725 
Q 1759 1725 1888 1781 
Q 2381 1997 3175 2088 
L 3175 1513 
Q 2322 1431 1584 966 
Q 931 556 931 -22 
Q 931 -388 1059 -553 
z
" transform="scale(0.015625)"/>
       <path id="DejaVuSans-20" transform="scale(0.015625)"/>
       <path id="DejaVuSans-78" d="M 3513 3500 
L 2247 1797 
L 3578 0 
L 2900 0 
L 1881 1375 
L 863 0 
L 184 0 
L 1544 1831 
L 300 3500 
L 978 3500 
L 1906 2253 
L 2834 3500 
L 3513 3500 
z
" transform="scale(0.015625)"/>
      </defs>
      <use xlink:href="#DejaVuSans-627"/>
      <use xlink:href="#DejaVuSans-644" transform="translate(27.783203 0)"/>
      <use xlink:href="#DejaVuSans-645" transform="translate(100.439453 0)"/>
      <use xlink:href="#DejaVuSans-648" transform="translate(162.353516 0)"/>
      <use xlink:href="#DejaVuSans-636" transform="translate(210.644531 0)"/>
      <use xlink:href="#DejaVuSans-639" transform="translate(331.542969 0)"/>
      <use xlink:href="#DejaVuSans-20" transform="translate(391.210938 0)"/>
      <use xlink:href="#DejaVuSans-78" transform="translate(422.998047 0)"/>
     </g>
    </g>
   </g>
   <g id="matplotlib.axis_2">
    <g id="ytick_1">
     <g id="line2d_11">
      <path d="M 38.210938 176.181937 
L 349.332187 176.181937 
" clip-path="url(#pfcf7160c84)" style="fill: none; stroke: #b0b0b0; stroke-opacity: 0.3; stroke-width: 0.8; stroke-linecap: square"/>
     </g>
     <g id="line2d_12">
      <defs>
       <path id="mea9d90dc2d" d="M 0 0 
L -3.5 0 
" style="stroke: #000000; stroke-width: 0.8"/>
      </defs>
      <g>
       <use xlink:href="#mea9d90dc2d" x="38.210938" y="176.181937" style="stroke: #000000; stroke-width: 0.8"/>
      </g>
     </g>
     <g id="text_7">
      <!-- -2 -->
      <g transform="translate(21.240625 179.981156) scale(0.1 -0.1)">
       <defs>
        <path id="DejaVuSans-2d" d="M 313 2009 
L 1997 2009 
L 1997 1497 
L 313 1497 
L 313 2009 
z
" transform="scale(0.015625)"/>
       </defs>
       <use xlink:href="#DejaVuSans-2d"/>
       <use xlink:href="#DejaVuSans-32" transform="translate(36.083984 0)"/>
      </g>
     </g>
    </g>
    <g id="ytick_2">
     <g id="line2d_13">
      <path d="M 38.210938 145.069812 
L 349.332187 145.069812 
" clip-path="url(#pfcf7160c84)" style="fill: none; stroke: #b0b0b0; stroke-opacity: 0.3; stroke-width: 0.8; stroke-linecap: square"/>
     </g>
     <g id="line2d_14">
      <g>
       <use xlink:href="#mea9d90dc2d" x="38.210938" y="145.069812" style="stroke: #000000; stroke-width: 0.8"/>
      </g>
     </g>
     <g id="text_8">
      <!-- -1 -->
      <g transform="translate(21.240625 148.869031) scale(0.1 -0.1)">
       <defs>
        <path id="DejaVuSans-31" d="M 794 531 
L 1825 531 
L 1825 4091 
L 703 3866 
L 703 4441 
L 1819 4666 
L 2450 4666 
L 2450 531 
L 3481 531 
L 3481 0 
L 794 0 
L 794 531 
z
" transform="scale(0.015625)"/>
       </defs>
       <use xlink:href="#DejaVuSans-2d"/>
       <use xlink:href="#DejaVuSans-31" transform="translate(36.083984 0)"/>
      </g>
     </g>
    </g>
    <g id="ytick_3">
     <g id="line2d_15">
      <path d="M 38.210938 113.957687 
L 349.332187 113.957687 
" clip-path="url(#pfcf7160c84)" style="fill: none; stroke: #b0b0b0; stroke-opacity: 0.3; stroke-width: 0.8; stroke-linecap: square"/>
     </g>
     <g id="line2d_16">
      <g>
       <use xlink:href="#mea9d90dc2d" x="38.210938" y="113.957687" style="stroke: #000000; stroke-width: 0.8"/>
      </g>
     </g>
     <g id="text_9">
      <!-- 0 -->
      <g transform="translate(24.848437 117.756906) scale(0.1 -0.1)">
       <use xlink:href="#DejaVuSans-30"/>
      </g>
     </g>
    </g>
    <g id="ytick_4">
     <g id="line2d_17">
      <path d="M 38.210938 82.845562 
L 349.332187 82.845562 
" clip-path="url(#pfcf7160c84)" style="fill: none; stroke: #b0b0b0; stroke-opacity: 0.3; stroke-width: 0.8; stroke-linecap: square"/>
     </g>
     <g id="line2d_18">
      <g>
       <use xlink:href="#mea9d90dc2d" x="38.210938" y="82.845562" style="stroke: #000000; stroke-width: 0.8"/>
      </g>
     </g>
     <g id="text_10">
      <!-- 1 -->
      <g transform="translate(24.848437 86.644781) scale(0.1 -0.1)">
       <use xlink:href="#DejaVuSans-31"/>
      </g>
     </g>
    </g>
    <g id="ytick_5">
     <g id="line2d_19">
      <path d="M 38.210938 51.733438 
L 349.332187 51.733438 
" clip-path="url(#pfcf7160c84)" style="fill: none; stroke: #b0b0b0; stroke-opacity: 0.3; stroke-width: 0.8; stroke-linecap: square"/>
     </g>
     <g id="line2d_20">
      <g>
       <use xlink:href="#mea9d90dc2d" x="38.210938" y="51.733438" style="stroke: #000000; stroke-width: 0.8"/>
      </g>
     </g>
     <g id="text_11">
      <!-- 2 -->
      <g transform="translate(24.848437 55.532656) scale(0.1 -0.1)">
       <use xlink:href="#DejaVuSans-32"/>
      </g>
     </g>
    </g>
    <g id="text_12">
     <!-- السعة ψ(x) -->
     <g transform="translate(14.798437 142.435031) rotate(-90) scale(0.1 -0.1)">
      <defs>
       <path id="DejaVuSans-633" d="M 3988 138 
Q 3913 -422 3650 -756 
Q 3234 -1288 2631 -1481 
Q 2381 -1563 2006 -1563 
Q 1606 -1559 1266 -1472 
Q 406 -1250 406 -225 
Q 406 544 734 1106 
L 1309 1106 
Q 972 463 975 -225 
Q 978 -784 1438 -903 
Q 1734 -978 1988 -978 
Q 2294 -978 2591 -863 
Q 2969 -713 3263 -219 
Q 3463 119 3459 563 
Q 3456 953 3406 1144 
L 3206 1875 
L 3781 1875 
L 3894 1388 
Q 3944 1156 4031 969 
Q 4216 566 4575 566 
Q 4831 566 4969 947 
Q 5084 1269 5084 1875 
L 5659 1875 
Q 5659 1234 5719 1078 
Q 5919 550 6263 550 
Q 6706 550 6706 1425 
L 6706 2344 
L 7281 2344 
L 7281 1275 
Q 7281 653 6994 300 
Q 6759 13 6441 -63 
Q 6325 -91 6225 -91 
Q 5997 -91 5847 -13 
Q 5416 206 5363 591 
Q 5209 94 4913 0 
Q 4756 -47 4538 -56 
Q 4125 -75 3988 138 
z
" transform="scale(0.015625)"/>
       <path id="DejaVuSans-629" d="M 1384 1731 
Q 1178 1731 1075 1459 
Q 994 1244 997 859 
Q 1000 603 1172 466 
Q 1350 328 1528 328 
Q 1813 328 2103 506 
Q 2338 650 2338 916 
Q 2338 1156 2131 1359 
Q 1747 1734 1384 1731 
z
M 1272 2294 
Q 1891 2294 2459 1794 
Q 2900 1406 2900 944 
Q 2897 319 2438 84 
Q 1922 -181 1509 -181 
Q 1209 -181 956 -72 
Q 434 159 434 906 
Q 434 1472 550 1716 
Q 813 2294 1272 2294 
z
M 1565 3285 
L 2034 3285 
L 2034 2816 
L 1565 2816 
L 1565 3285 
z
M 784 3285 
L 1253 3285 
L 1253 2816 
L 784 2816 
L 784 3285 
z
" transform="scale(0.015625)"/>
       <path id="DejaVuSans-3c8" d="M 1816 -78 
Q 1094 38 759 341 
Q 350 713 350 1472 
L 350 3500 
L 931 3500 
L 931 1494 
Q 931 922 1197 684 
Q 1428 478 1816 434 
L 1816 3500 
L 2388 3500 
L 2388 438 
Q 2797 481 3006 688 
Q 3272 950 3272 1497 
L 3272 3500 
L 3853 3500 
L 3853 1475 
Q 3853 688 3444 344 
Q 3075 34 2388 -75 
L 2388 -1331 
L 1816 -1331 
L 1816 -78 
z
" transform="scale(0.015625)"/>
       <path id="DejaVuSans-28" d="M 1984 4856 
Q 1566 4138 1362 3434 
Q 1159 2731 1159 2009 
Q 1159 1288 1364 580 
Q 1569 -128 1984 -844 
L 1484 -844 
Q 1016 -109 783 600 
Q 550 1309 550 2009 
Q 550 2706 781 3412 
Q 1013 4119 1484 4856 
L 1984 4856 
z
" transform="scale(0.015625)"/>
       <path id="DejaVuSans-29" d="M 513 4856 
L 1013 4856 
Q 1481 4119 1714 3412 
Q 1947 2706 1947 2009 
Q 1947 1309 1714 600 
Q 1481 -109 1013 -844 
L 513 -844 
Q 928 -128 1133 580 
Q 1338 1288 1338 2009 
Q 1338 2731 1133 3434 
Q 928 4138 513 4856 
z
" transform="scale(0.015625)"/>
      </defs>
      <use xlink:href="#DejaVuSans-627"/>
      <use xlink:href="#DejaVuSans-644" transform="translate(27.783203 0)"/>
      <use xlink:href="#DejaVuSans-633" transform="translate(100.439453 0)"/>
      <use xlink:href="#DejaVuSans-639" transform="translate(222.509766 0)"/>
      <use xlink:href="#DejaVuSans-629" transform="translate(282.177734 0)"/>
      <use xlink:href="#DejaVuSans-20" transform="translate(334.570312 0)"/>
      <use xlink:href="#DejaVuSans-3c8" transform="translate(366.357422 0)"/>
      <use xlink:href="#DejaVuSans-28" transform="translate(432.324219 0)"/>
      <use xlink:href="#DejaVuSans-78" transform="translate(471.337891 0)"/>
      <use xlink:href="#DejaVuSans-29" transform="translate(530.517578 0)"/>
     </g>
    </g>
   </g>
   <g id="line2d_21">
    <path d="M 69.323062 113.957687 
L 78.479808 104.932565 
L 83.474397 100.289287 
L 87.636554 96.68358 
L 91.798711 93.386564 
L 95.128437 91.011016 
L 98.458163 88.898049 
L 101.787889 87.071841 
L 105.117614 85.55329 
L 107.614909 84.626868 
L 110.112203 83.889319 
L 112.609497 83.345394 
L 115.106792 82.998594 
L 117.604086 82.851153 
L 120.10138 82.904019 
L 122.598675 83.156854 
L 125.095969 83.608028 
L 127.593263 84.254636 
L 130.090557 85.092515 
L 132.587852 86.116269 
L 135.917578 87.758852 
L 139.247303 89.70123 
L 142.577029 91.921177 
L 145.906755 94.393289 
L 150.068912 97.794693 
L 154.231069 101.484933 
L 159.225658 106.201339 
L 167.549972 114.442954 
L 176.706718 123.446113 
L 181.701307 128.060353 
L 185.863464 131.633292 
L 190.025621 134.890363 
L 193.355347 137.229266 
L 196.685073 139.30187 
L 200.014798 141.084459 
L 203.344524 142.556633 
L 205.841818 143.446782 
L 208.339113 144.147038 
L 210.836407 144.652892 
L 213.333701 144.961086 
L 215.830996 145.069637 
L 218.32829 144.977845 
L 220.825584 144.6863 
L 223.322879 144.196881 
L 225.820173 143.51274 
L 228.317467 142.63828 
L 230.814761 141.579135 
L 234.144487 139.891605 
L 237.474213 137.90731 
L 240.803939 135.648959 
L 244.133665 133.142392 
L 248.295822 129.704072 
L 252.457979 125.984361 
L 258.284999 120.43135 
L 269.939039 108.848209 
L 276.598491 102.445825 
L 281.593079 97.973643 
L 285.755236 94.556238 
L 289.084962 92.069213 
L 292.414688 89.832659 
L 295.744414 87.87217 
L 299.074139 86.210179 
L 301.571434 85.171152 
L 304.068728 84.317493 
L 306.566022 83.6547 
L 309.063317 83.18704 
L 311.560611 82.917526 
L 314.057905 82.847893 
L 316.5552 82.978588 
L 318.220062 83.17665 
L 318.220062 83.17665 
" clip-path="url(#pfcf7160c84)" style="fill: none; stroke: #0000ff; stroke-width: 3; stroke-linecap: square"/>
   </g>
   <g id="patch_4">
    <path d="M 38.210938 176.181937 
L 38.210938 51.733438 
" style="fill: none; stroke: #000000; stroke-width: 0.8; stroke-linejoin: miter; stroke-linecap: square"/>
   </g>
   <g id="patch_5">
    <path d="M 349.332187 176.181937 
L 349.332187 51.733438 
" style="fill: none; stroke: #000000; stroke-width: 0.8; stroke-linejoin: miter; stroke-linecap: square"/>
   </g>
   <g id="patch_6">
    <path d="M 38.210937 176.181937 
L 349.332187 176.181937 
" style="fill: none; stroke: #000000; stroke-width: 0.8; stroke-linejoin: miter; stroke-linecap: square"/>
   </g>
   <g id="patch_7">
    <path d="M 38.210937 51.733437 
L 349.332187 51.733437 
" style="fill: none; stroke: #000000; stroke-width: 0.8; stroke-linejoin: miter; stroke-linecap: square"/>
   </g>
   <g id="text_13">
    <!-- أ) موجة حرة مستوية -->
    <g transform="translate(123.915625 45.733438) scale(0.12 -0.12)">
     <defs>
      <path id="DejaVuSans-Bold-623" d="M 502 5335 
L 746 5391 
Q 577 5429 527 5532 
Q 477 5638 477 5763 
Q 486 6095 652 6229 
Q 802 6354 1211 6354 
Q 1418 6354 1611 6285 
L 1611 5895 
Q 1393 5957 1211 5957 
Q 1080 5957 1021 5929 
Q 930 5885 930 5735 
Q 930 5573 1127 5523 
Q 1202 5504 1296 5520 
L 1636 5582 
L 1636 5179 
L 502 4938 
L 502 5335 
z
M 538 4863 
L 1656 4863 
L 1656 0 
L 538 0 
L 538 4863 
z
" transform="scale(0.015625)"/>
      <path id="DejaVuSans-Bold-29" d="M 513 -844 
Q 913 -100 1113 609 
Q 1313 1319 1313 2009 
Q 1313 2700 1113 3408 
Q 913 4116 513 4856 
L 1441 4856 
Q 1916 4091 2145 3389 
Q 2375 2688 2375 2003 
Q 2375 1319 2147 623 
Q 1919 -72 1441 -844 
L 513 -844 
z
" transform="scale(0.015625)"/>
      <path id="DejaVuSans-Bold-20" transform="scale(0.015625)"/>
      <path id="DejaVuSans-Bold-645" d="M 3088 1084 
Q 3194 1156 3194 1244 
Q 3194 1372 3122 1444 
Q 3084 1481 2984 1544 
Q 2950 1569 2825 1563 
Q 2725 1556 2675 1497 
Q 2584 1400 2584 1238 
Q 2584 1150 2616 1069 
Q 2697 1025 2881 1025 
Q 3003 1025 3088 1084 
z
M 1797 434 
Q 1728 491 1613 278 
Q 1556 178 1556 0 
L 1556 -1563 
L 438 -1563 
L 438 0 
Q 438 697 813 913 
Q 1278 1178 1563 1216 
L 1556 1288 
Q 1556 1750 2063 2163 
Q 2303 2359 2800 2359 
Q 3294 2359 3541 2247 
Q 4125 1981 4197 1466 
Q 4222 1300 4222 1150 
Q 4222 706 3916 491 
Q 3541 225 2922 225 
Q 2053 225 1797 434 
z
" transform="scale(0.015625)"/>
      <path id="DejaVuSans-Bold-648" d="M 3503 488 
Q 3503 -150 3225 -600 
Q 2934 -1072 2247 -1303 
Q 1478 -1563 -263 -1563 
L -263 -763 
Q 484 -788 1022 -703 
Q 1578 -613 1838 -447 
Q 2153 -247 2234 0 
Q 2134 0 1825 6 
Q 1128 22 838 275 
Q 531 538 531 950 
Q 531 1113 556 1250 
Q 644 1753 1097 1928 
Q 1438 2059 1916 2063 
Q 2603 2063 2931 1884 
Q 3259 1706 3419 1231 
Q 3503 975 3503 488 
z
M 2344 1016 
Q 2325 1144 2178 1266 
Q 2088 1341 1966 1338 
Q 1834 1334 1744 1244 
Q 1650 1150 1650 1063 
Q 1650 922 1759 863 
Q 1872 803 1978 803 
L 2359 803 
Q 2359 925 2344 1016 
z
" transform="scale(0.015625)"/>
      <path id="DejaVuSans-Bold-62c" d="M 2888 597 
L 3357 597 
L 3357 128 
L 2888 128 
L 2888 597 
z
M 3969 1800 
Q 2922 1859 2313 1369 
Q 1678 859 1678 234 
Q 1678 -144 2000 -475 
Q 2281 -763 3022 -763 
Q 3963 -763 4606 -284 
L 4606 -1144 
Q 4094 -1563 3038 -1563 
Q 1672 -1559 1047 -941 
Q 559 -459 559 234 
Q 559 794 997 1328 
Q 1316 1719 1934 1963 
Q 1672 1972 1209 1909 
Q 788 1850 491 1722 
L 491 2522 
Q 1338 2719 1963 2719 
Q 3063 2719 3969 2600 
L 3969 1800 
z
" transform="scale(0.015625)"/>
      <path id="DejaVuSans-Bold-629" d="M 1717 3285 
L 2186 3285 
L 2186 2816 
L 1717 2816 
L 1717 3285 
z
M 936 3285 
L 1405 3285 
L 1405 2816 
L 936 2816 
L 936 3285 
z
M 1781 1500 
Q 1516 1500 1469 1366 
Q 1422 1228 1425 984 
Q 1428 772 1609 669 
Q 1709 613 1881 613 
Q 2006 613 2134 694 
Q 2338 825 2338 966 
Q 2338 1097 2191 1250 
Q 1956 1500 1781 1500 
z
M 1669 2294 
Q 2353 2294 3016 1794 
Q 3463 1456 3456 944 
Q 3450 413 2994 84 
Q 2619 -184 1884 -188 
Q 1347 -188 909 -59 
Q 313 119 306 906 
Q 303 1472 422 1716 
Q 706 2294 1669 2294 
z
" transform="scale(0.015625)"/>
      <path id="DejaVuSans-Bold-62d" d="M 3969 1800 
Q 2922 1859 2313 1369 
Q 1678 859 1678 234 
Q 1678 -144 2000 -475 
Q 2281 -763 3022 -763 
Q 3963 -763 4606 -284 
L 4606 -1144 
Q 4094 -1563 3038 -1563 
Q 1672 -1559 1047 -941 
Q 559 -459 559 234 
Q 559 794 997 1328 
Q 1316 1719 1934 1963 
Q 1672 1972 1209 1909 
Q 788 1850 491 1722 
L 491 2522 
Q 1338 2719 1963 2719 
Q 3063 2719 3969 2600 
L 3969 1800 
z
" transform="scale(0.015625)"/>
      <path id="DejaVuSans-Bold-631" d="M 1916 0 
Q 2144 322 2138 888 
Q 2138 1341 1975 1719 
L 3094 1719 
Q 3250 1250 3250 888 
Q 3250 59 2975 -350 
Q 2578 -941 1881 -1247 
Q 1163 -1563 -266 -1563 
L -266 -763 
Q 700 -763 1188 -550 
Q 1663 -347 1916 0 
z
" transform="scale(0.015625)"/>
      <path id="DejaVuSans-Bold-633" d="M 3241 -125 
Q 3422 200 3422 563 
Q 3422 944 3369 1144 
L 3169 1875 
L 4288 1875 
L 4400 1388 
Q 4450 1156 4538 969 
Q 4622 784 4881 781 
Q 5103 778 5178 947 
Q 5294 1209 5294 1875 
L 6413 1875 
Q 6413 1234 6472 1078 
Q 6584 781 6791 781 
Q 7181 781 7181 1425 
L 7181 2344 
L 8300 2344 
L 8300 1275 
Q 8300 653 8013 300 
Q 7788 22 7347 -53 
Q 7138 -91 6784 -91 
Q 6531 -91 6350 0 
Q 5884 225 5853 528 
Q 5744 113 5313 0 
Q 5088 -56 4869 -56 
Q 4600 -56 4388 225 
Q 4388 -347 4144 -716 
Q 3769 -1281 3034 -1481 
Q 2734 -1563 2272 -1563 
Q 1650 -1563 1322 -1450 
Q 406 -1134 406 -69 
Q 406 544 734 1106 
L 1853 1106 
Q 1516 463 1519 -69 
Q 1522 -566 1969 -694 
Q 2088 -728 2253 -728 
Q 2597 -728 2841 -547 
Q 3119 -338 3241 -125 
z
" transform="scale(0.015625)"/>
      <path id="DejaVuSans-Bold-62a" d="M 3205 2645 
L 3674 2645 
L 3674 2176 
L 3205 2176 
L 3205 2645 
z
M 2424 2645 
L 2893 2645 
L 2893 2176 
L 2424 2176 
L 2424 2645 
z
M 5894 2091 
Q 6050 1291 5703 853 
Q 5347 409 4644 216 
Q 3763 -25 2563 -31 
Q 1831 -34 1438 56 
Q 409 297 406 1197 
Q 403 1628 603 1916 
L 1722 1916 
Q 1563 1622 1563 1341 
Q 1563 1056 2153 850 
Q 2378 772 2641 772 
Q 3281 772 3769 919 
Q 4525 1141 4681 1416 
Q 4881 1769 4775 2091 
L 5894 2091 
z
" transform="scale(0.015625)"/>
      <path id="DejaVuSans-Bold-64a" d="M 2813 -1067 
L 3282 -1067 
L 3282 -1536 
L 2813 -1536 
L 2813 -1067 
z
M 2032 -1067 
L 2501 -1067 
L 2501 -1536 
L 2032 -1536 
L 2032 -1067 
z
M 5125 203 
Q 4847 -288 3588 -556 
Q 2972 -684 2538 -684 
Q 1584 -688 1322 -594 
Q 409 -263 406 547 
Q 403 978 603 1266 
L 1722 1266 
Q 1503 950 1519 547 
Q 1528 303 1925 169 
Q 2084 116 2475 116 
Q 2934 116 3350 225 
Q 4122 431 4128 725 
Q 4131 1025 3744 1156 
Q 3184 1347 3181 1347 
Q 2953 1447 2791 1591 
Q 2591 1769 2588 2128 
Q 2581 2653 3181 2828 
Q 3619 2956 4063 2956 
Q 4603 2956 4931 2813 
Q 5441 2591 5525 2022 
L 4531 2022 
Q 4463 2238 4103 2234 
Q 3819 2231 3747 2141 
Q 3666 2038 3669 2006 
Q 3678 1894 4059 1800 
Q 4734 1634 5013 1284 
Q 5250 984 5253 675 
Q 5256 441 5125 203 
z
" transform="scale(0.015625)"/>
     </defs>
     <use xlink:href="#DejaVuSans-Bold-623"/>
     <use xlink:href="#DejaVuSans-Bold-29" transform="translate(34.277344 0)"/>
     <use xlink:href="#DejaVuSans-Bold-20" transform="translate(79.980469 0)"/>
     <use xlink:href="#DejaVuSans-Bold-645" transform="translate(114.794922 0)"/>
     <use xlink:href="#DejaVuSans-Bold-648" transform="translate(188.085938 0)"/>
     <use xlink:href="#DejaVuSans-Bold-62c" transform="translate(250.244141 0)"/>
     <use xlink:href="#DejaVuSans-Bold-629" transform="translate(322.314453 0)"/>
     <use xlink:href="#DejaVuSans-Bold-20" transform="translate(381.347656 0)"/>
     <use xlink:href="#DejaVuSans-Bold-62d" transform="translate(416.162109 0)"/>
     <use xlink:href="#DejaVuSans-Bold-631" transform="translate(488.232422 0)"/>
     <use xlink:href="#DejaVuSans-Bold-629" transform="translate(545.800781 0)"/>
     <use xlink:href="#DejaVuSans-Bold-20" transform="translate(604.833984 0)"/>
     <use xlink:href="#DejaVuSans-Bold-645" transform="translate(639.648438 0)"/>
     <use xlink:href="#DejaVuSans-Bold-633" transform="translate(712.939453 0)"/>
     <use xlink:href="#DejaVuSans-Bold-62a" transform="translate(850.927734 0)"/>
     <use xlink:href="#DejaVuSans-Bold-648" transform="translate(951.416016 0)"/>
     <use xlink:href="#DejaVuSans-Bold-64a" transform="translate(1013.574219 0)"/>
     <use xlink:href="#DejaVuSans-Bold-629" transform="translate(1105.224609 0)"/>
    </g>
   </g>
  </g>
  <g id="axes_2">
   <g id="patch_8">
    <path d="M 394.689688 191.738 
L 705.810938 191.738 
L 705.810938 36.177375 
L 394.689688 36.177375 
z
" style="fill: #ffffff"/>
   </g>
   <g id="matplotlib.axis_3">
    <g id="xtick_6">
     <g id="line2d_22">
      <path d="M 394.689688 191.738 
L 394.689688 36.177375 
" clip-path="url(#p5ad7d8f65c)" style="fill: none; stroke: #b0b0b0; stroke-opacity: 0.3; stroke-width: 0.8; stroke-linecap: square"/>
     </g>
     <g id="line2d_23">
      <g>
       <use xlink:href="#m91585814af" x="394.689688" y="191.738" style="stroke: #000000; stroke-width: 0.8"/>
      </g>
     </g>
     <g id="text_14">
      <!-- 0 -->
      <g transform="translate(391.508438 206.336437) scale(0.1 -0.1)">
       <use xlink:href="#DejaVuSans-30"/>
      </g>
     </g>
    </g>
    <g id="xtick_7">
     <g id="line2d_24">
      <path d="M 433.579844 191.738 
L 433.579844 36.177375 
" clip-path="url(#p5ad7d8f65c)" style="fill: none; stroke: #b0b0b0; stroke-opacity: 0.3; stroke-width: 0.8; stroke-linecap: square"/>
     </g>
     <g id="line2d_25">
      <g>
       <use xlink:href="#m91585814af" x="433.579844" y="191.738" style="stroke: #000000; stroke-width: 0.8"/>
      </g>
     </g>
     <g id="text_15">
      <!-- 1 -->
      <g transform="translate(430.398594 206.336437) scale(0.1 -0.1)">
       <use xlink:href="#DejaVuSans-31"/>
      </g>
     </g>
    </g>
    <g id="xtick_8">
     <g id="line2d_26">
      <path d="M 472.47 191.738 
L 472.47 36.177375 
" clip-path="url(#p5ad7d8f65c)" style="fill: none; stroke: #b0b0b0; stroke-opacity: 0.3; stroke-width: 0.8; stroke-linecap: square"/>
     </g>
     <g id="line2d_27">
      <g>
       <use xlink:href="#m91585814af" x="472.47" y="191.738" style="stroke: #000000; stroke-width: 0.8"/>
      </g>
     </g>
     <g id="text_16">
      <!-- 2 -->
      <g transform="translate(469.28875 206.336437) scale(0.1 -0.1)">
       <use xlink:href="#DejaVuSans-32"/>
      </g>
     </g>
    </g>
    <g id="xtick_9">
     <g id="line2d_28">
      <path d="M 511.360156 191.738 
L 511.360156 36.177375 
" clip-path="url(#p5ad7d8f65c)" style="fill: none; stroke: #b0b0b0; stroke-opacity: 0.3; stroke-width: 0.8; stroke-linecap: square"/>
     </g>
     <g id="line2d_29">
      <g>
       <use xlink:href="#m91585814af" x="511.360156" y="191.738" style="stroke: #000000; stroke-width: 0.8"/>
      </g>
     </g>
     <g id="text_17">
      <!-- 3 -->
      <g transform="translate(508.178906 206.336437) scale(0.1 -0.1)">
       <defs>
        <path id="DejaVuSans-33" d="M 2597 2516 
Q 3050 2419 3304 2112 
Q 3559 1806 3559 1356 
Q 3559 666 3084 287 
Q 2609 -91 1734 -91 
Q 1441 -91 1130 -33 
Q 819 25 488 141 
L 488 750 
Q 750 597 1062 519 
Q 1375 441 1716 441 
Q 2309 441 2620 675 
Q 2931 909 2931 1356 
Q 2931 1769 2642 2001 
Q 2353 2234 1838 2234 
L 1294 2234 
L 1294 2753 
L 1863 2753 
Q 2328 2753 2575 2939 
Q 2822 3125 2822 3475 
Q 2822 3834 2567 4026 
Q 2313 4219 1838 4219 
Q 1578 4219 1281 4162 
Q 984 4106 628 3988 
L 628 4550 
Q 988 4650 1302 4700 
Q 1616 4750 1894 4750 
Q 2613 4750 3031 4423 
Q 3450 4097 3450 3541 
Q 3450 3153 3228 2886 
Q 3006 2619 2597 2516 
z
" transform="scale(0.015625)"/>
       </defs>
       <use xlink:href="#DejaVuSans-33"/>
      </g>
     </g>
    </g>
    <g id="xtick_10">
     <g id="line2d_30">
      <path d="M 550.250313 191.738 
L 550.250313 36.177375 
" clip-path="url(#p5ad7d8f65c)" style="fill: none; stroke: #b0b0b0; stroke-opacity: 0.3; stroke-width: 0.8; stroke-linecap: square"/>
     </g>
     <g id="line2d_31">
      <g>
       <use xlink:href="#m91585814af" x="550.250313" y="191.738" style="stroke: #000000; stroke-width: 0.8"/>
      </g>
     </g>
     <g id="text_18">
      <!-- 4 -->
      <g transform="translate(547.069063 206.336437) scale(0.1 -0.1)">
       <use xlink:href="#DejaVuSans-34"/>
      </g>
     </g>
    </g>
    <g id="xtick_11">
     <g id="line2d_32">
      <path d="M 589.140469 191.738 
L 589.140469 36.177375 
" clip-path="url(#p5ad7d8f65c)" style="fill: none; stroke: #b0b0b0; stroke-opacity: 0.3; stroke-width: 0.8; stroke-linecap: square"/>
     </g>
     <g id="line2d_33">
      <g>
       <use xlink:href="#m91585814af" x="589.140469" y="191.738" style="stroke: #000000; stroke-width: 0.8"/>
      </g>
     </g>
     <g id="text_19">
      <!-- 5 -->
      <g transform="translate(585.959219 206.336437) scale(0.1 -0.1)">
       <defs>
        <path id="DejaVuSans-35" d="M 691 4666 
L 3169 4666 
L 3169 4134 
L 1269 4134 
L 1269 2991 
Q 1406 3038 1543 3061 
Q 1681 3084 1819 3084 
Q 2600 3084 3056 2656 
Q 3513 2228 3513 1497 
Q 3513 744 3044 326 
Q 2575 -91 1722 -91 
Q 1428 -91 1123 -41 
Q 819 9 494 109 
L 494 744 
Q 775 591 1075 516 
Q 1375 441 1709 441 
Q 2250 441 2565 725 
Q 2881 1009 2881 1497 
Q 2881 1984 2565 2268 
Q 2250 2553 1709 2553 
Q 1456 2553 1204 2497 
Q 953 2441 691 2322 
L 691 4666 
z
" transform="scale(0.015625)"/>
       </defs>
       <use xlink:href="#DejaVuSans-35"/>
      </g>
     </g>
    </g>
    <g id="xtick_12">
     <g id="line2d_34">
      <path d="M 628.030625 191.738 
L 628.030625 36.177375 
" clip-path="url(#p5ad7d8f65c)" style="fill: none; stroke: #b0b0b0; stroke-opacity: 0.3; stroke-width: 0.8; stroke-linecap: square"/>
     </g>
     <g id="line2d_35">
      <g>
       <use xlink:href="#m91585814af" x="628.030625" y="191.738" style="stroke: #000000; stroke-width: 0.8"/>
      </g>
     </g>
     <g id="text_20">
      <!-- 6 -->
      <g transform="translate(624.849375 206.336437) scale(0.1 -0.1)">
       <use xlink:href="#DejaVuSans-36"/>
      </g>
     </g>
    </g>
    <g id="xtick_13">
     <g id="line2d_36">
      <path d="M 666.920781 191.738 
L 666.920781 36.177375 
" clip-path="url(#p5ad7d8f65c)" style="fill: none; stroke: #b0b0b0; stroke-opacity: 0.3; stroke-width: 0.8; stroke-linecap: square"/>
     </g>
     <g id="line2d_37">
      <g>
       <use xlink:href="#m91585814af" x="666.920781" y="191.738" style="stroke: #000000; stroke-width: 0.8"/>
      </g>
     </g>
     <g id="text_21">
      <!-- 7 -->
      <g transform="translate(663.739531 206.336437) scale(0.1 -0.1)">
       <defs>
        <path id="DejaVuSans-37" d="M 525 4666 
L 3525 4666 
L 3525 4397 
L 1831 0 
L 1172 0 
L 2766 4134 
L 525 4134 
L 525 4666 
z
" transform="scale(0.015625)"/>
       </defs>
       <use xlink:href="#DejaVuSans-37"/>
      </g>
     </g>
    </g>
    <g id="xtick_14">
     <g id="line2d_38">
      <path d="M 705.810938 191.738 
L 705.810938 36.177375 
" clip-path="url(#p5ad7d8f65c)" style="fill: none; stroke: #b0b0b0; stroke-opacity: 0.3; stroke-width: 0.8; stroke-linecap: square"/>
     </g>
     <g id="line2d_39">
      <g>
       <use xlink:href="#m91585814af" x="705.810938" y="191.738" style="stroke: #000000; stroke-width: 0.8"/>
      </g>
     </g>
     <g id="text_22">
      <!-- 8 -->
      <g transform="translate(702.629688 206.336437) scale(0.1 -0.1)">
       <use xlink:href="#DejaVuSans-38"/>
      </g>
     </g>
    </g>
    <g id="text_23">
     <!-- الإحداثي X -->
     <g transform="translate(523.362031 220.014562) scale(0.1 -0.1)">
      <defs>
       <path id="DejaVuSans-625" d="M 333 -1227 
L 577 -1171 
Q 440 -1108 390 -996 
Q 340 -880 340 -740 
Q 340 -440 515 -305 
Q 696 -165 983 -165 
Q 1177 -165 1340 -268 
L 1340 -580 
Q 1183 -477 983 -477 
Q 777 -477 724 -533 
Q 633 -633 633 -715 
Q 633 -955 927 -1040 
Q 1030 -1071 1405 -980 
L 1405 -1299 
L 333 -1540 
L 333 -1227 
z
M 603 4863 
L 1178 4863 
L 1178 0 
L 603 0 
L 603 4863 
z
" transform="scale(0.015625)"/>
       <path id="DejaVuSans-62d" d="M 491 2522 
Q 1353 2719 1963 2719 
Q 2875 2719 3488 2550 
L 3488 2069 
Q 2569 2069 1897 1547 
Q 1197 1003 1197 188 
Q 1197 -234 1428 -534 
Q 1825 -1047 2859 -1047 
Q 3463 -1047 4125 -678 
L 4125 -1253 
Q 3656 -1563 2875 -1563 
Q 1569 -1563 1041 -956 
Q 631 -488 631 213 
Q 631 1019 1294 1716 
Q 1594 2031 2022 2194 
Q 1706 2194 1209 2134 
Q 816 2088 491 1947 
L 491 2522 
z
" transform="scale(0.015625)"/>
       <path id="DejaVuSans-62f" d="M 1222 472 
Q 1759 625 1869 975 
Q 1894 1059 1894 1191 
Q 1894 1434 1706 1797 
Q 1500 2200 959 2656 
L 1669 2656 
Q 2022 2372 2228 1984 
Q 2484 1509 2484 1181 
Q 2484 872 2384 638 
Q 2134 31 1316 -97 
Q 1172 -119 1031 -119 
Q 713 -119 391 0 
L 391 575 
Q 750 444 1013 444 
Q 1116 444 1222 472 
z
" transform="scale(0.015625)"/>
       <path id="DejaVuSans-62b" d="M 5488 2091 
Q 5534 1809 5534 1591 
Q 5534 1169 5297 853 
Q 4897 319 3906 119 
Q 3016 -63 2438 -63 
Q 1841 -63 1438 56 
Q 406 359 406 1197 
Q 406 1628 603 1916 
L 1178 1916 
Q 975 1622 975 1197 
Q 975 806 1609 597 
Q 1934 491 2406 491 
Q 2984 491 3813 669 
Q 4609 838 4819 1191 
Q 4991 1481 4991 1716 
Q 4991 1900 4913 2091 
L 5488 2091 
z
M 2575 3298 
L 3043 3298 
L 3043 2829 
L 2575 2829 
L 2575 3298 
z
M 2965 2517 
L 3434 2517 
L 3434 2048 
L 2965 2048 
L 2965 2517 
z
M 2184 2517 
L 2653 2517 
L 2653 2048 
L 2184 2048 
L 2184 2517 
z
" transform="scale(0.015625)"/>
       <path id="DejaVuSans-64a" d="M 4269 38 
Q 3950 -494 2878 -722 
Q 2325 -841 1950 -841 
Q 1547 -841 1322 -759 
Q 406 -434 406 381 
Q 406 747 603 1100 
L 1178 1100 
Q 972 691 975 381 
Q 981 -78 1494 -219 
Q 1797 -300 1988 -281 
Q 2381 -247 2784 -172 
Q 3338 -69 3600 181 
Q 3784 356 3784 522 
Q 3784 753 3391 844 
Q 3184 891 2828 1034 
Q 2619 1119 2438 1278 
Q 2238 1456 2234 1816 
Q 2234 2284 2828 2516 
Q 3125 2631 3450 2631 
Q 3775 2631 4075 2500 
Q 4516 2309 4600 1769 
L 4025 1769 
Q 3984 1959 3778 2063 
Q 3653 2125 3438 2131 
Q 3194 2138 3000 2016 
Q 2813 1897 2813 1791 
Q 2813 1619 3203 1488 
Q 3978 1228 4156 1028 
Q 4397 763 4403 484 
Q 4406 272 4269 38 
z
M 2341 -1067 
L 2810 -1067 
L 2810 -1536 
L 2341 -1536 
L 2341 -1067 
z
M 1560 -1067 
L 2029 -1067 
L 2029 -1536 
L 1560 -1536 
L 1560 -1067 
z
" transform="scale(0.015625)"/>
       <path id="DejaVuSans-58" d="M 403 4666 
L 1081 4666 
L 2241 2931 
L 3406 4666 
L 4084 4666 
L 2584 2425 
L 4184 0 
L 3506 0 
L 2194 1984 
L 872 0 
L 191 0 
L 1856 2491 
L 403 4666 
z
" transform="scale(0.015625)"/>
      </defs>
      <use xlink:href="#DejaVuSans-627"/>
      <use xlink:href="#DejaVuSans-644" transform="translate(27.783203 0)"/>
      <use xlink:href="#DejaVuSans-625" transform="translate(100.439453 0)"/>
      <use xlink:href="#DejaVuSans-62d" transform="translate(128.222656 0)"/>
      <use xlink:href="#DejaVuSans-62f" transform="translate(192.773438 0)"/>
      <use xlink:href="#DejaVuSans-627" transform="translate(237.304688 0)"/>
      <use xlink:href="#DejaVuSans-62b" transform="translate(265.087891 0)"/>
      <use xlink:href="#DejaVuSans-64a" transform="translate(359.228516 0)"/>
      <use xlink:href="#DejaVuSans-20" transform="translate(437.5 0)"/>
      <use xlink:href="#DejaVuSans-58" transform="translate(469.287109 0)"/>
     </g>
    </g>
   </g>
   <g id="matplotlib.axis_4">
    <g id="ytick_6">
     <g id="line2d_40">
      <path d="M 394.689688 191.738 
L 705.810938 191.738 
" clip-path="url(#p5ad7d8f65c)" style="fill: none; stroke: #b0b0b0; stroke-opacity: 0.3; stroke-width: 0.8; stroke-linecap: square"/>
     </g>
     <g id="line2d_41">
      <g>
       <use xlink:href="#mea9d90dc2d" x="394.689688" y="191.738" style="stroke: #000000; stroke-width: 0.8"/>
      </g>
     </g>
     <g id="text_24">
      <!-- -2 -->
      <g transform="translate(377.719375 195.537219) scale(0.1 -0.1)">
       <use xlink:href="#DejaVuSans-2d"/>
       <use xlink:href="#DejaVuSans-32" transform="translate(36.083984 0)"/>
      </g>
     </g>
    </g>
    <g id="ytick_7">
     <g id="line2d_42">
      <path d="M 394.689688 152.847844 
L 705.810938 152.847844 
" clip-path="url(#p5ad7d8f65c)" style="fill: none; stroke: #b0b0b0; stroke-opacity: 0.3; stroke-width: 0.8; stroke-linecap: square"/>
     </g>
     <g id="line2d_43">
      <g>
       <use xlink:href="#mea9d90dc2d" x="394.689688" y="152.847844" style="stroke: #000000; stroke-width: 0.8"/>
      </g>
     </g>
     <g id="text_25">
      <!-- -1 -->
      <g transform="translate(377.719375 156.647062) scale(0.1 -0.1)">
       <use xlink:href="#DejaVuSans-2d"/>
       <use xlink:href="#DejaVuSans-31" transform="translate(36.083984 0)"/>
      </g>
     </g>
    </g>
    <g id="ytick_8">
     <g id="line2d_44">
      <path d="M 394.689688 113.957687 
L 705.810938 113.957687 
" clip-path="url(#p5ad7d8f65c)" style="fill: none; stroke: #b0b0b0; stroke-opacity: 0.3; stroke-width: 0.8; stroke-linecap: square"/>
     </g>
     <g id="line2d_45">
      <g>
       <use xlink:href="#mea9d90dc2d" x="394.689688" y="113.957687" style="stroke: #000000; stroke-width: 0.8"/>
      </g>
     </g>
     <g id="text_26">
      <!-- 0 -->
      <g transform="translate(381.327188 117.756906) scale(0.1 -0.1)">
       <use xlink:href="#DejaVuSans-30"/>
      </g>
     </g>
    </g>
    <g id="ytick_9">
     <g id="line2d_46">
      <path d="M 394.689688 75.067531 
L 705.810938 75.067531 
" clip-path="url(#p5ad7d8f65c)" style="fill: none; stroke: #b0b0b0; stroke-opacity: 0.3; stroke-width: 0.8; stroke-linecap: square"/>
     </g>
     <g id="line2d_47">
      <g>
       <use xlink:href="#mea9d90dc2d" x="394.689688" y="75.067531" style="stroke: #000000; stroke-width: 0.8"/>
      </g>
     </g>
     <g id="text_27">
      <!-- 1 -->
      <g transform="translate(381.327188 78.86675) scale(0.1 -0.1)">
       <use xlink:href="#DejaVuSans-31"/>
      </g>
     </g>
    </g>
    <g id="ytick_10">
     <g id="line2d_48">
      <path d="M 394.689688 36.177375 
L 705.810938 36.177375 
" clip-path="url(#p5ad7d8f65c)" style="fill: none; stroke: #b0b0b0; stroke-opacity: 0.3; stroke-width: 0.8; stroke-linecap: square"/>
     </g>
     <g id="line2d_49">
      <g>
       <use xlink:href="#mea9d90dc2d" x="394.689688" y="36.177375" style="stroke: #000000; stroke-width: 0.8"/>
      </g>
     </g>
     <g id="text_28">
      <!-- 2 -->
      <g transform="translate(381.327188 39.976594) scale(0.1 -0.1)">
       <use xlink:href="#DejaVuSans-32"/>
      </g>
     </g>
    </g>
    <g id="text_29">
     <!-- الإحداثي Y -->
     <g transform="translate(371.277188 140.474875) rotate(-90) scale(0.1 -0.1)">
      <defs>
       <path id="DejaVuSans-59" d="M -13 4666 
L 666 4666 
L 1959 2747 
L 3244 4666 
L 3922 4666 
L 2272 2222 
L 2272 0 
L 1638 0 
L 1638 2222 
L -13 4666 
z
" transform="scale(0.015625)"/>
      </defs>
      <use xlink:href="#DejaVuSans-627"/>
      <use xlink:href="#DejaVuSans-644" transform="translate(27.783203 0)"/>
      <use xlink:href="#DejaVuSans-625" transform="translate(100.439453 0)"/>
      <use xlink:href="#DejaVuSans-62d" transform="translate(128.222656 0)"/>
      <use xlink:href="#DejaVuSans-62f" transform="translate(192.773438 0)"/>
      <use xlink:href="#DejaVuSans-627" transform="translate(237.304688 0)"/>
      <use xlink:href="#DejaVuSans-62b" transform="translate(265.087891 0)"/>
      <use xlink:href="#DejaVuSans-64a" transform="translate(359.228516 0)"/>
      <use xlink:href="#DejaVuSans-20" transform="translate(437.5 0)"/>
      <use xlink:href="#DejaVuSans-59" transform="translate(469.287109 0)"/>
     </g>
    </g>
   </g>
   <g id="line2d_50">
    <path d="M 523.027203 113.957687 
L 528.309406 105.126487 
L 537.123486 90.293417 
L 540.178175 85.579837 
L 542.492858 82.334055 
L 544.696291 79.604236 
L 546.792156 77.42299 
L 548.295918 76.159465 
L 549.743363 75.219421 
L 551.136504 74.602162 
L 552.477476 74.302841 
L 553.76853 74.312562 
L 555.012031 74.618537 
L 556.210449 75.204302 
L 557.366356 76.049983 
L 558.482419 77.132609 
L 559.913298 78.899911 
L 561.285014 80.97525 
L 562.927139 83.891335 
L 565.116154 88.305535 
L 569.2595 96.777644 
L 570.713182 99.246165 
L 571.8831 100.890035 
L 573.067667 102.197091 
L 574.274627 103.140011 
L 575.199151 103.598589 
L 576.143763 103.841635 
L 577.111606 103.87124 
L 578.105767 103.693401 
L 579.129277 103.317926 
L 580.544722 102.533611 
L 582.024425 101.463529 
L 584.37875 99.436375 
L 590.606221 93.864545 
L 593.112725 92.033684 
L 595.235112 90.787643 
L 596.897923 90.026298 
L 598.623321 89.443681 
L 600.412696 89.064678 
L 602.267295 88.911558 
L 604.188217 89.003612 
L 606.176414 89.356837 
L 608.232686 89.983662 
L 610.357682 90.892729 
L 612.551894 92.088728 
L 614.815661 93.57229 
L 616.363578 94.719539 
L 616.363578 94.719539 
" clip-path="url(#p5ad7d8f65c)" style="fill: none; stroke: #ffa500; stroke-width: 3; stroke-linecap: square"/>
   </g>
   <g id="patch_9">
    <path d="M 394.689688 191.738 
L 394.689688 36.177375 
" style="fill: none; stroke: #000000; stroke-width: 0.8; stroke-linejoin: miter; stroke-linecap: square"/>
   </g>
   <g id="patch_10">
    <path d="M 705.810938 191.738 
L 705.810938 36.177375 
" style="fill: none; stroke: #000000; stroke-width: 0.8; stroke-linejoin: miter; stroke-linecap: square"/>
   </g>
   <g id="patch_11">
    <path d="M 394.689688 191.738 
L 705.810938 191.738 
" style="fill: none; stroke: #000000; stroke-width: 0.8; stroke-linejoin: miter; stroke-linecap: square"/>
   </g>
   <g id="patch_12">
    <path d="M 394.689688 36.177375 
L 705.810938 36.177375 
" style="fill: none; stroke: #000000; stroke-width: 0.8; stroke-linejoin: miter; stroke-linecap: square"/>
   </g>
   <g id="text_30">
    <!-- ب) انتقال -->
    <g transform="translate(513.555625 30.177375) scale(0.12 -0.12)">
     <defs>
      <path id="DejaVuSans-Bold-628" d="M 2816 -491 
L 3285 -491 
L 3285 -960 
L 2816 -960 
L 2816 -491 
z
M 5894 2091 
Q 6050 1291 5703 853 
Q 5347 409 4644 216 
Q 3763 -25 2563 -31 
Q 1831 -34 1438 56 
Q 409 297 406 1197 
Q 403 1628 603 1916 
L 1722 1916 
Q 1563 1622 1563 1341 
Q 1563 1056 2153 850 
Q 2378 772 2641 772 
Q 3281 772 3769 919 
Q 4525 1141 4681 1416 
Q 4881 1769 4775 2091 
L 5894 2091 
z
" transform="scale(0.015625)"/>
      <path id="DejaVuSans-Bold-627" d="M 538 4863 
L 1656 4863 
L 1656 0 
L 538 0 
L 538 4863 
z
" transform="scale(0.015625)"/>
      <path id="DejaVuSans-Bold-646" d="M 2112 2901 
L 2581 2901 
L 2581 2432 
L 2112 2432 
L 2112 2901 
z
M 4988 975 
Q 4991 434 4675 -122 
Q 4284 -809 3553 -950 
Q 3000 -1056 2563 -1056 
Q 1963 -1056 1484 -919 
Q 394 -609 394 525 
Q 394 963 519 1513 
L 1638 1513 
Q 1506 1013 1506 597 
Q 1506 41 2134 -191 
Q 2306 -253 2550 -253 
Q 2725 -253 2916 -203 
Q 3581 -34 3756 469 
Q 3859 766 3859 1138 
Q 3859 1650 3544 2344 
L 4663 2344 
Q 4984 1831 4988 975 
z
" transform="scale(0.015625)"/>
      <path id="DejaVuSans-Bold-642" d="M 3909 4053 
L 4378 4053 
L 4378 3584 
L 3909 3584 
L 3909 4053 
z
M 3128 4053 
L 3597 4053 
L 3597 3584 
L 3128 3584 
L 3128 4053 
z
M 3988 1847 
Q 4100 1934 4100 2053 
Q 4100 2238 3944 2328 
Q 3856 2378 3722 2375 
Q 3575 2375 3488 2284 
Q 3406 2203 3406 2050 
Q 3406 1925 3516 1834 
Q 3584 1778 3734 1778 
Q 3897 1778 3988 1847 
z
M 2047 -575 
Q 2725 -575 3216 -269 
Q 4169 344 4169 1200 
Q 3938 1044 3581 1044 
Q 2900 1044 2594 1313 
Q 2288 1575 2288 1988 
Q 2288 2150 2313 2288 
Q 2391 2788 2853 2966 
Q 3194 3097 3672 3100 
Q 4409 3100 4731 2922 
Q 4984 2781 5175 2269 
Q 5278 1991 5278 1450 
Q 5278 806 5091 375 
Q 4766 -372 4028 -881 
Q 3313 -1375 2031 -1375 
Q 991 -1372 575 -775 
Q 334 -431 334 113 
Q 334 675 591 1350 
L 1709 1350 
Q 1444 772 1434 288 
Q 1431 131 1469 -63 
Q 1563 -572 2047 -575 
z
" transform="scale(0.015625)"/>
      <path id="DejaVuSans-Bold-644" d="M 3616 228 
Q 3859 531 3859 1331 
L 3859 4863 
L 4978 4863 
L 4978 1331 
Q 4978 341 4672 -109 
Q 4309 -641 3478 -869 
Q 2381 -1169 1366 -906 
Q 453 -669 450 234 
Q 447 666 647 953 
L 1766 953 
Q 1544 634 1563 234 
Q 1578 -122 2081 -228 
Q 2488 -313 2922 -172 
Q 3425 -9 3616 228 
z
" transform="scale(0.015625)"/>
     </defs>
     <use xlink:href="#DejaVuSans-Bold-628"/>
     <use xlink:href="#DejaVuSans-Bold-29" transform="translate(100.488281 0)"/>
     <use xlink:href="#DejaVuSans-Bold-20" transform="translate(146.191406 0)"/>
     <use xlink:href="#DejaVuSans-Bold-627" transform="translate(181.005859 0)"/>
     <use xlink:href="#DejaVuSans-Bold-646" transform="translate(215.283203 0)"/>
     <use xlink:href="#DejaVuSans-Bold-62a" transform="translate(300.634766 0)"/>
     <use xlink:href="#DejaVuSans-Bold-642" transform="translate(401.123047 0)"/>
     <use xlink:href="#DejaVuSans-Bold-627" transform="translate(490.527344 0)"/>
     <use xlink:href="#DejaVuSans-Bold-644" transform="translate(524.804688 0)"/>
    </g>
   </g>
  </g>
  <g id="axes_3">
   <g id="patch_13">
    <path d="M 751.168438 191.738 
L 1062.289688 191.738 
L 1062.289688 36.177375 
L 751.168438 36.177375 
z
" style="fill: #ffffff"/>
   </g>
   <g id="matplotlib.axis_5">
    <g id="xtick_15">
     <g id="line2d_51">
      <path d="M 751.168438 191.738 
L 751.168438 36.177375 
" clip-path="url(#p8095eebbca)" style="fill: none; stroke: #b0b0b0; stroke-opacity: 0.3; stroke-width: 0.8; stroke-linecap: square"/>
     </g>
     <g id="line2d_52">
      <g>
       <use xlink:href="#m91585814af" x="751.168438" y="191.738" style="stroke: #000000; stroke-width: 0.8"/>
      </g>
     </g>
     <g id="text_31">
      <!-- 0 -->
      <g transform="translate(747.987188 206.336437) scale(0.1 -0.1)">
       <use xlink:href="#DejaVuSans-30"/>
      </g>
     </g>
    </g>
    <g id="xtick_16">
     <g id="line2d_53">
      <path d="M 790.058594 191.738 
L 790.058594 36.177375 
" clip-path="url(#p8095eebbca)" style="fill: none; stroke: #b0b0b0; stroke-opacity: 0.3; stroke-width: 0.8; stroke-linecap: square"/>
     </g>
     <g id="line2d_54">
      <g>
       <use xlink:href="#m91585814af" x="790.058594" y="191.738" style="stroke: #000000; stroke-width: 0.8"/>
      </g>
     </g>
     <g id="text_32">
      <!-- 1 -->
      <g transform="translate(786.877344 206.336437) scale(0.1 -0.1)">
       <use xlink:href="#DejaVuSans-31"/>
      </g>
     </g>
    </g>
    <g id="xtick_17">
     <g id="line2d_55">
      <path d="M 828.94875 191.738 
L 828.94875 36.177375 
" clip-path="url(#p8095eebbca)" style="fill: none; stroke: #b0b0b0; stroke-opacity: 0.3; stroke-width: 0.8; stroke-linecap: square"/>
     </g>
     <g id="line2d_56">
      <g>
       <use xlink:href="#m91585814af" x="828.94875" y="191.738" style="stroke: #000000; stroke-width: 0.8"/>
      </g>
     </g>
     <g id="text_33">
      <!-- 2 -->
      <g transform="translate(825.7675 206.336437) scale(0.1 -0.1)">
       <use xlink:href="#DejaVuSans-32"/>
      </g>
     </g>
    </g>
    <g id="xtick_18">
     <g id="line2d_57">
      <path d="M 867.838906 191.738 
L 867.838906 36.177375 
" clip-path="url(#p8095eebbca)" style="fill: none; stroke: #b0b0b0; stroke-opacity: 0.3; stroke-width: 0.8; stroke-linecap: square"/>
     </g>
     <g id="line2d_58">
      <g>
       <use xlink:href="#m91585814af" x="867.838906" y="191.738" style="stroke: #000000; stroke-width: 0.8"/>
      </g>
     </g>
     <g id="text_34">
      <!-- 3 -->
      <g transform="translate(864.657656 206.336437) scale(0.1 -0.1)">
       <use xlink:href="#DejaVuSans-33"/>
      </g>
     </g>
    </g>
    <g id="xtick_19">
     <g id="line2d_59">
      <path d="M 906.729063 191.738 
L 906.729063 36.177375 
" clip-path="url(#p8095eebbca)" style="fill: none; stroke: #b0b0b0; stroke-opacity: 0.3; stroke-width: 0.8; stroke-linecap: square"/>
     </g>
     <g id="line2d_60">
      <g>
       <use xlink:href="#m91585814af" x="906.729063" y="191.738" style="stroke: #000000; stroke-width: 0.8"/>
      </g>
     </g>
     <g id="text_35">
      <!-- 4 -->
      <g transform="translate(903.547813 206.336437) scale(0.1 -0.1)">
       <use xlink:href="#DejaVuSans-34"/>
      </g>
     </g>
    </g>
    <g id="xtick_20">
     <g id="line2d_61">
      <path d="M 945.619219 191.738 
L 945.619219 36.177375 
" clip-path="url(#p8095eebbca)" style="fill: none; stroke: #b0b0b0; stroke-opacity: 0.3; stroke-width: 0.8; stroke-linecap: square"/>
     </g>
     <g id="line2d_62">
      <g>
       <use xlink:href="#m91585814af" x="945.619219" y="191.738" style="stroke: #000000; stroke-width: 0.8"/>
      </g>
     </g>
     <g id="text_36">
      <!-- 5 -->
      <g transform="translate(942.437969 206.336437) scale(0.1 -0.1)">
       <use xlink:href="#DejaVuSans-35"/>
      </g>
     </g>
    </g>
    <g id="xtick_21">
     <g id="line2d_63">
      <path d="M 984.509375 191.738 
L 984.509375 36.177375 
" clip-path="url(#p8095eebbca)" style="fill: none; stroke: #b0b0b0; stroke-opacity: 0.3; stroke-width: 0.8; stroke-linecap: square"/>
     </g>
     <g id="line2d_64">
      <g>
       <use xlink:href="#m91585814af" x="984.509375" y="191.738" style="stroke: #000000; stroke-width: 0.8"/>
      </g>
     </g>
     <g id="text_37">
      <!-- 6 -->
      <g transform="translate(981.328125 206.336437) scale(0.1 -0.1)">
       <use xlink:href="#DejaVuSans-36"/>
      </g>
     </g>
    </g>
    <g id="xtick_22">
     <g id="line2d_65">
      <path d="M 1023.399531 191.738 
L 1023.399531 36.177375 
" clip-path="url(#p8095eebbca)" style="fill: none; stroke: #b0b0b0; stroke-opacity: 0.3; stroke-width: 0.8; stroke-linecap: square"/>
     </g>
     <g id="line2d_66">
      <g>
       <use xlink:href="#m91585814af" x="1023.399531" y="191.738" style="stroke: #000000; stroke-width: 0.8"/>
      </g>
     </g>
     <g id="text_38">
      <!-- 7 -->
      <g transform="translate(1020.218281 206.336437) scale(0.1 -0.1)">
       <use xlink:href="#DejaVuSans-37"/>
      </g>
     </g>
    </g>
    <g id="xtick_23">
     <g id="line2d_67">
      <path d="M 1062.289688 191.738 
L 1062.289688 36.177375 
" clip-path="url(#p8095eebbca)" style="fill: none; stroke: #b0b0b0; stroke-opacity: 0.3; stroke-width: 0.8; stroke-linecap: square"/>
     </g>
     <g id="line2d_68">
      <g>
       <use xlink:href="#m91585814af" x="1062.289688" y="191.738" style="stroke: #000000; stroke-width: 0.8"/>
      </g>
     </g>
     <g id="text_39">
      <!-- 8 -->
      <g transform="translate(1059.108438 206.336437) scale(0.1 -0.1)">
       <use xlink:href="#DejaVuSans-38"/>
      </g>
     </g>
    </g>
    <g id="text_40">
     <!-- الإحداثي X -->
     <g transform="translate(879.840781 220.014562) scale(0.1 -0.1)">
      <use xlink:href="#DejaVuSans-627"/>
      <use xlink:href="#DejaVuSans-644" transform="translate(27.783203 0)"/>
      <use xlink:href="#DejaVuSans-625" transform="translate(100.439453 0)"/>
      <use xlink:href="#DejaVuSans-62d" transform="translate(128.222656 0)"/>
      <use xlink:href="#DejaVuSans-62f" transform="translate(192.773438 0)"/>
      <use xlink:href="#DejaVuSans-627" transform="translate(237.304688 0)"/>
      <use xlink:href="#DejaVuSans-62b" transform="translate(265.087891 0)"/>
      <use xlink:href="#DejaVuSans-64a" transform="translate(359.228516 0)"/>
      <use xlink:href="#DejaVuSans-20" transform="translate(437.5 0)"/>
      <use xlink:href="#DejaVuSans-58" transform="translate(469.287109 0)"/>
     </g>
    </g>
   </g>
   <g id="matplotlib.axis_6">
    <g id="ytick_11">
     <g id="line2d_69">
      <path d="M 751.168438 191.738 
L 1062.289688 191.738 
" clip-path="url(#p8095eebbca)" style="fill: none; stroke: #b0b0b0; stroke-opacity: 0.3; stroke-width: 0.8; stroke-linecap: square"/>
     </g>
     <g id="line2d_70">
      <g>
       <use xlink:href="#mea9d90dc2d" x="751.168438" y="191.738" style="stroke: #000000; stroke-width: 0.8"/>
      </g>
     </g>
     <g id="text_41">
      <!-- -2 -->
      <g transform="translate(734.198125 195.537219) scale(0.1 -0.1)">
       <use xlink:href="#DejaVuSans-2d"/>
       <use xlink:href="#DejaVuSans-32" transform="translate(36.083984 0)"/>
      </g>
     </g>
    </g>
    <g id="ytick_12">
     <g id="line2d_71">
      <path d="M 751.168438 152.847844 
L 1062.289688 152.847844 
" clip-path="url(#p8095eebbca)" style="fill: none; stroke: #b0b0b0; stroke-opacity: 0.3; stroke-width: 0.8; stroke-linecap: square"/>
     </g>
     <g id="line2d_72">
      <g>
       <use xlink:href="#mea9d90dc2d" x="751.168438" y="152.847844" style="stroke: #000000; stroke-width: 0.8"/>
      </g>
     </g>
     <g id="text_42">
      <!-- -1 -->
      <g transform="translate(734.198125 156.647062) scale(0.1 -0.1)">
       <use xlink:href="#DejaVuSans-2d"/>
       <use xlink:href="#DejaVuSans-31" transform="translate(36.083984 0)"/>
      </g>
     </g>
    </g>
    <g id="ytick_13">
     <g id="line2d_73">
      <path d="M 751.168438 113.957687 
L 1062.289688 113.957687 
" clip-path="url(#p8095eebbca)" style="fill: none; stroke: #b0b0b0; stroke-opacity: 0.3; stroke-width: 0.8; stroke-linecap: square"/>
     </g>
     <g id="line2d_74">
      <g>
       <use xlink:href="#mea9d90dc2d" x="751.168438" y="113.957687" style="stroke: #000000; stroke-width: 0.8"/>
      </g>
     </g>
     <g id="text_43">
      <!-- 0 -->
      <g transform="translate(737.805938 117.756906) scale(0.1 -0.1)">
       <use xlink:href="#DejaVuSans-30"/>
      </g>
     </g>
    </g>
    <g id="ytick_14">
     <g id="line2d_75">
      <path d="M 751.168438 75.067531 
L 1062.289688 75.067531 
" clip-path="url(#p8095eebbca)" style="fill: none; stroke: #b0b0b0; stroke-opacity: 0.3; stroke-width: 0.8; stroke-linecap: square"/>
     </g>
     <g id="line2d_76">
      <g>
       <use xlink:href="#mea9d90dc2d" x="751.168438" y="75.067531" style="stroke: #000000; stroke-width: 0.8"/>
      </g>
     </g>
     <g id="text_44">
      <!-- 1 -->
      <g transform="translate(737.805938 78.86675) scale(0.1 -0.1)">
       <use xlink:href="#DejaVuSans-31"/>
      </g>
     </g>
    </g>
    <g id="ytick_15">
     <g id="line2d_77">
      <path d="M 751.168438 36.177375 
L 1062.289688 36.177375 
" clip-path="url(#p8095eebbca)" style="fill: none; stroke: #b0b0b0; stroke-opacity: 0.3; stroke-width: 0.8; stroke-linecap: square"/>
     </g>
     <g id="line2d_78">
      <g>
       <use xlink:href="#mea9d90dc2d" x="751.168438" y="36.177375" style="stroke: #000000; stroke-width: 0.8"/>
      </g>
     </g>
     <g id="text_45">
      <!-- 2 -->
      <g transform="translate(737.805938 39.976594) scale(0.1 -0.1)">
       <use xlink:href="#DejaVuSans-32"/>
      </g>
     </g>
    </g>
    <g id="text_46">
     <!-- الإحداثي Y -->
     <g transform="translate(727.755938 140.474875) rotate(-90) scale(0.1 -0.1)">
      <use xlink:href="#DejaVuSans-627"/>
      <use xlink:href="#DejaVuSans-644" transform="translate(27.783203 0)"/>
      <use xlink:href="#DejaVuSans-625" transform="translate(100.439453 0)"/>
      <use xlink:href="#DejaVuSans-62d" transform="translate(128.222656 0)"/>
      <use xlink:href="#DejaVuSans-62f" transform="translate(192.773438 0)"/>
      <use xlink:href="#DejaVuSans-627" transform="translate(237.304688 0)"/>
      <use xlink:href="#DejaVuSans-62b" transform="translate(265.087891 0)"/>
      <use xlink:href="#DejaVuSans-64a" transform="translate(359.228516 0)"/>
      <use xlink:href="#DejaVuSans-20" transform="translate(437.5 0)"/>
      <use xlink:href="#DejaVuSans-59" transform="translate(469.287109 0)"/>
     </g>
    </g>
   </g>
   <g id="line2d_79">
    <path d="M 1007.843469 113.957687 
L 1007.743807 110.437347 
L 1007.445142 106.928284 
L 1006.94843 103.441738 
L 1006.255261 99.988878 
L 1005.367857 96.580764 
L 1004.289061 93.228314 
L 1003.022327 89.942266 
L 1001.571713 86.733146 
L 999.941867 83.611235 
L 998.138009 80.586533 
L 996.165918 77.668729 
L 994.03191 74.867169 
L 991.742822 72.190828 
L 989.305986 69.648279 
L 986.729208 67.247666 
L 984.020742 64.99668 
L 981.189265 62.90253 
L 978.243846 60.971926 
L 975.193921 59.21105 
L 972.049259 57.625545 
L 968.819933 56.220489 
L 965.516289 55.000382 
L 962.148909 53.969133 
L 958.728578 53.130046 
L 955.266255 52.485808 
L 951.773029 52.038483 
L 948.260091 51.789504 
L 944.738693 51.739668 
L 941.220116 51.889135 
L 937.71563 52.237427 
L 934.236462 52.783427 
L 930.793757 53.525387 
L 927.398541 54.46093 
L 924.061693 55.587058 
L 920.793899 56.900166 
L 917.605628 58.396046 
L 914.507094 60.069906 
L 911.508221 61.916386 
L 908.618615 63.929569 
L 905.847534 66.103008 
L 903.203854 68.429739 
L 900.696042 70.90231 
L 898.332133 73.512801 
L 896.119699 76.252849 
L 894.065827 79.113676 
L 892.177096 82.08612 
L 890.459556 85.160658 
L 888.918709 88.327441 
L 887.559491 91.576326 
L 886.386256 94.896905 
L 885.402762 98.278542 
L 884.612159 101.710403 
L 884.01698 105.181496 
L 883.619132 108.680702 
L 883.419889 112.196812 
L 883.419889 115.718563 
L 883.619132 119.234673 
L 884.01698 122.733879 
L 884.612159 126.204972 
L 885.402762 129.636833 
L 886.386256 133.01847 
L 887.559491 136.339049 
L 888.918709 139.587934 
L 890.459556 142.754717 
L 892.177096 145.829255 
L 894.065827 148.801699 
L 896.119699 151.662526 
L 898.332133 154.402574 
L 900.696042 157.013065 
L 903.203854 159.485636 
L 905.847534 161.812367 
L 908.618615 163.985806 
L 911.508221 165.998989 
L 914.507094 167.845469 
L 917.605628 169.519329 
L 920.793899 171.015209 
L 924.061693 172.328317 
L 927.398541 173.454445 
L 930.793757 174.389988 
L 934.236462 175.131948 
L 937.71563 175.677948 
L 941.220116 176.02624 
L 944.738693 176.175707 
L 948.260091 176.125871 
L 951.773029 175.876892 
L 955.266255 175.429567 
L 958.728578 174.785329 
L 962.148909 173.946242 
L 965.516289 172.914993 
L 968.819933 171.694886 
L 972.049259 170.28983 
L 975.193921 168.704325 
L 978.243846 166.943449 
L 981.189265 165.012845 
L 984.020742 162.918695 
L 986.729208 160.667709 
L 989.305986 158.267096 
L 991.742822 155.724547 
L 994.03191 153.048206 
L 996.165918 150.246646 
L 998.138009 147.328842 
L 999.941867 144.30414 
L 1001.571713 141.182229 
L 1003.022327 137.973109 
L 1004.289061 134.687061 
L 1005.367857 131.334611 
L 1006.255261 127.926497 
L 1006.94843 124.473637 
L 1007.445142 120.987091 
L 1007.743807 117.478028 
L 1007.843469 113.957687 
L 1007.743807 110.437347 
L 1007.445142 106.928284 
L 1006.94843 103.441738 
L 1006.255261 99.988878 
L 1005.367857 96.580764 
L 1004.289061 93.228314 
L 1003.022327 89.942266 
L 1001.571713 86.733146 
L 999.941867 83.611235 
L 998.138009 80.586533 
L 996.165918 77.668729 
L 994.03191 74.867169 
L 991.742822 72.190828 
L 989.305986 69.648279 
L 986.729208 67.247666 
L 984.020742 64.99668 
L 981.189265 62.90253 
L 978.243846 60.971926 
L 975.193921 59.21105 
L 972.049259 57.625545 
L 968.819933 56.220489 
L 965.516289 55.000382 
L 962.148909 53.969133 
L 958.728578 53.130046 
L 955.266255 52.485808 
L 951.773029 52.038483 
L 948.260091 51.789504 
L 944.738693 51.739668 
L 941.220116 51.889135 
L 937.71563 52.237427 
L 934.236462 52.783427 
L 930.793757 53.525387 
L 927.398541 54.46093 
L 924.061693 55.587058 
L 920.793899 56.900166 
L 917.605628 58.396046 
L 914.507094 60.069906 
L 911.508221 61.916386 
L 908.618615 63.929569 
L 905.847534 66.103008 
L 903.203854 68.429739 
L 900.696042 70.90231 
L 898.332133 73.512801 
L 896.119699 76.252849 
L 894.065827 79.113676 
L 892.177096 82.08612 
L 890.459556 85.160658 
L 888.918709 88.327441 
L 887.559491 91.576326 
L 886.386256 94.896905 
L 885.402762 98.278542 
L 884.612159 101.710403 
L 884.01698 105.181496 
L 883.619132 108.680702 
L 883.419889 112.196812 
L 883.419889 115.718563 
L 883.619132 119.234673 
L 884.01698 122.733879 
L 884.612159 126.204972 
L 885.402762 129.636833 
L 886.386256 133.01847 
L 887.559491 136.339049 
L 888.918709 139.587934 
L 890.459556 142.754717 
L 892.177096 145.829255 
L 894.065827 148.801699 
L 896.119699 151.662526 
L 898.332133 154.402574 
L 900.696042 157.013065 
L 903.203854 159.485636 
L 905.847534 161.812367 
L 908.618615 163.985806 
L 911.508221 165.998989 
L 914.507094 167.845469 
L 917.605628 169.519329 
L 920.793899 171.015209 
L 924.061693 172.328317 
L 927.398541 173.454445 
L 930.793757 174.389988 
L 934.236462 175.131948 
L 937.71563 175.677948 
L 941.220116 176.02624 
L 944.738693 176.175707 
L 948.260091 176.125871 
L 951.773029 175.876892 
L 955.266255 175.429567 
L 958.728578 174.785329 
L 962.148909 173.946242 
L 965.516289 172.914993 
L 968.819933 171.694886 
L 972.049259 170.28983 
L 975.193921 168.704325 
L 978.243846 166.943449 
L 981.189265 165.012845 
L 984.020742 162.918695 
L 986.729208 160.667709 
L 989.305986 158.267096 
L 991.742822 155.724547 
L 994.03191 153.048206 
L 996.165918 150.246646 
L 998.138009 147.328842 
L 999.941867 144.30414 
L 1001.571713 141.182229 
L 1003.022327 137.973109 
L 1004.289061 134.687061 
L 1005.367857 131.334611 
L 1006.255261 127.926497 
L 1006.94843 124.473637 
L 1007.445142 120.987091 
L 1007.743807 117.478028 
L 1007.843469 113.957688 
L 1007.743807 110.437347 
L 1007.445142 106.928284 
L 1006.94843 103.441738 
L 1006.255261 99.988878 
L 1005.367857 96.580764 
L 1004.289061 93.228314 
L 1003.022327 89.942266 
L 1001.571713 86.733146 
L 999.941867 83.611235 
L 998.138009 80.586533 
L 996.165918 77.668729 
L 994.03191 74.867169 
L 991.742822 72.190828 
L 989.305986 69.648279 
L 986.729208 67.247666 
L 984.020742 64.99668 
L 981.189265 62.90253 
L 978.243846 60.971926 
L 975.193921 59.21105 
L 972.049259 57.625545 
L 968.819933 56.220489 
L 965.516289 55.000382 
L 962.148909 53.969133 
L 958.728578 53.130046 
L 955.266255 52.485808 
L 951.773029 52.038483 
L 948.260091 51.789504 
L 944.738693 51.739668 
L 941.220116 51.889135 
L 937.71563 52.237427 
L 934.236462 52.783427 
L 930.793757 53.525387 
L 927.398541 54.46093 
L 924.061693 55.587058 
L 920.793899 56.900166 
L 917.605628 58.396046 
L 914.507094 60.069906 
L 911.508221 61.916386 
L 908.618615 63.929569 
L 905.847534 66.103008 
L 903.203854 68.429739 
L 900.696042 70.90231 
L 898.332133 73.512801 
L 896.119699 76.252849 
L 894.065827 79.113676 
L 892.177096 82.08612 
L 890.459556 85.160658 
L 888.918709 88.327441 
L 887.559491 91.576326 
L 886.386256 94.896905 
L 885.402762 98.278542 
L 884.612159 101.710403 
L 884.01698 105.181496 
L 883.619132 108.680702 
L 883.419889 112.196812 
L 883.419889 115.718563 
L 883.619132 119.234673 
L 884.01698 122.733879 
L 884.612159 126.204972 
L 885.402762 129.636833 
L 886.386256 133.01847 
L 887.559491 136.339049 
L 888.918709 139.587934 
L 890.459556 142.754717 
L 892.177096 145.829255 
L 894.065827 148.801699 
L 896.119699 151.662526 
L 898.332133 154.402574 
L 900.696042 157.013065 
L 903.203854 159.485636 
L 905.847534 161.812367 
L 908.618615 163.985806 
L 911.508221 165.998989 
L 914.507094 167.845469 
L 917.605628 169.519329 
L 920.793899 171.015209 
L 924.061693 172.328317 
L 927.398541 173.454445 
L 930.793757 174.389988 
L 934.236462 175.131948 
L 937.71563 175.677948 
L 941.220116 176.02624 
L 944.738693 176.175707 
L 948.260091 176.125871 
L 951.773029 175.876892 
L 955.266255 175.429567 
L 958.728578 174.785329 
L 962.148909 173.946242 
L 965.516289 172.914993 
L 968.819933 171.694886 
L 972.049259 170.28983 
L 975.193921 168.704325 
L 978.243846 166.943449 
L 981.189265 165.012845 
L 984.020742 162.918695 
L 986.729208 160.667709 
L 989.305986 158.267096 
L 991.742822 155.724547 
L 994.03191 153.048206 
L 996.165918 150.246646 
L 998.138009 147.328842 
L 999.941867 144.30414 
L 1001.571713 141.182229 
L 1003.022327 137.973109 
L 1004.289061 134.687061 
L 1005.367857 131.334611 
L 1006.255261 127.926497 
L 1006.94843 124.473637 
L 1007.445142 120.987091 
L 1007.743807 117.478028 
L 1007.843469 113.957688 
L 1007.843469 113.957688 
" clip-path="url(#p8095eebbca)" style="fill: none; stroke-dasharray: 5.55,2.4; stroke-dashoffset: 0; stroke: #808080; stroke-opacity: 0.5; stroke-width: 1.5"/>
   </g>
   <g id="line2d_80">
    <path d="M 1007.843469 113.957687 
L 1009.71239 110.325796 
L 1010.810447 107.789097 
L 1011.765183 105.170037 
L 1012.556544 102.48013 
L 1013.166171 99.733295 
L 1013.577787 96.945598 
L 1013.777541 94.134944 
L 1013.754304 91.320715 
L 1013.499899 88.523383 
L 1013.009273 85.764082 
L 1012.280608 83.064173 
L 1011.315351 80.444792 
L 1010.118186 77.926402 
L 1008.696928 75.528364 
L 1007.062359 73.268517 
L 1005.227994 71.162799 
L 1003.209797 69.224909 
L 1001.025841 67.466011 
L 998.69593 65.894497 
L 996.241181 64.515809 
L 993.683587 63.33233 
L 991.045562 62.343335 
L 988.349486 61.545016 
L 985.617245 60.930575 
L 982.869803 60.490384 
L 980.126788 60.212202 
L 976.059201 60.066266 
L 972.092948 60.194382 
L 968.267266 60.532178 
L 963.427191 61.19062 
L 950.669766 63.139436 
L 946.812215 63.38536 
L 943.948248 63.370878 
L 940.078521 63.088792 
L 936.053853 62.550614 
L 922.344581 60.46419 
L 918.493313 60.156664 
L 914.507094 60.069906 
L 910.427323 60.267319 
L 907.681448 60.584723 
L 904.935908 61.067427 
L 902.2107 61.727042 
L 899.527057 62.572507 
L 896.907033 63.609886 
L 894.373058 64.84222 
L 891.947483 66.269459 
L 889.652125 67.888447 
L 887.507813 69.692991 
L 885.533956 71.673988 
L 883.748133 73.819616 
L 882.165727 76.115586 
L 880.799594 78.54545 
L 879.659793 81.090953 
L 878.75337 83.732418 
L 878.084207 86.449173 
L 877.652934 89.219983 
L 877.456919 92.023502 
L 877.490315 94.838721 
L 877.744189 97.645402 
L 878.206706 100.424496 
L 878.86338 103.158527 
L 879.697379 105.831937 
L 880.689883 108.431387 
L 881.820478 110.945999 
L 883.727887 114.541601 
L 885.821966 117.912418 
L 888.027346 121.056658 
L 891.017612 124.919065 
L 899.084048 134.992911 
L 901.225801 138.210686 
L 902.645242 140.698195 
L 904.335812 144.19052 
L 905.88207 147.945074 
L 910.92981 160.860864 
L 912.589118 164.349923 
L 914.507094 167.845469 
L 916.717943 171.279947 
L 918.365761 173.499243 
L 920.156565 175.635598 
L 922.090412 177.665891 
L 924.164428 179.56726 
L 926.372836 181.317578 
L 928.707057 182.895898 
L 931.155869 184.282889 
L 933.705633 185.461233 
L 936.34057 186.415989 
L 939.043092 187.134901 
L 941.794172 187.608655 
L 944.573743 187.831074 
L 947.361134 187.799248 
L 950.135504 187.513593 
L 952.876292 186.977845 
L 955.563652 186.19898 
L 958.17888 185.187068 
L 960.704807 183.955063 
L 963.12616 182.518532 
L 965.42988 180.89533 
L 967.605387 179.105231 
L 969.64479 177.16952 
L 971.543032 175.11055 
L 973.29797 172.951292 
L 974.91039 170.714862 
L 977.070568 167.265196 
L 978.942742 163.766262 
L 980.563044 160.284227 
L 982.412853 155.763377 
L 987.103842 143.740716 
L 988.819641 140.277016 
L 990.264166 137.803989 
L 992.443323 134.59375 
L 994.921733 131.377374 
L 1003.583265 120.548008 
L 1005.775225 117.366476 
L 1007.843469 113.957687 
L 1009.71239 110.325796 
L 1010.810447 107.789097 
L 1011.765183 105.170037 
L 1012.556544 102.48013 
L 1013.166171 99.733295 
L 1013.577787 96.945598 
L 1013.777541 94.134944 
L 1013.754304 91.320715 
L 1013.499899 88.523383 
L 1013.009273 85.764082 
L 1012.280608 83.064173 
L 1011.315351 80.444792 
L 1010.118186 77.926402 
L 1008.696928 75.528364 
L 1007.062359 73.268517 
L 1005.227994 71.162799 
L 1003.209797 69.224909 
L 1001.025841 67.466011 
L 998.69593 65.894497 
L 996.241181 64.515809 
L 993.683587 63.33233 
L 991.045562 62.343335 
L 988.349486 61.545016 
L 985.617245 60.930575 
L 982.869803 60.490384 
L 980.126788 60.212202 
L 976.059201 60.066266 
L 972.092948 60.194382 
L 968.267266 60.532178 
L 963.427191 61.19062 
L 950.669766 63.139436 
L 946.812215 63.38536 
L 943.948248 63.370878 
L 940.078521 63.088792 
L 936.053853 62.550614 
L 922.344581 60.46419 
L 918.493313 60.156664 
L 914.507094 60.069906 
L 910.427323 60.267319 
L 907.681448 60.584723 
L 904.935908 61.067427 
L 902.2107 61.727042 
L 899.527057 62.572507 
L 896.907033 63.609886 
L 894.373058 64.84222 
L 891.947483 66.269459 
L 889.652125 67.888447 
L 887.507813 69.692991 
L 885.533956 71.673988 
L 883.748133 73.819616 
L 882.165727 76.115586 
L 880.799594 78.54545 
L 879.659793 81.090953 
L 878.75337 83.732418 
L 878.084207 86.449173 
L 877.652934 89.219983 
L 877.456919 92.023502 
L 877.490315 94.838721 
L 877.744189 97.645402 
L 878.206706 100.424496 
L 878.86338 103.158527 
L 879.697379 105.831937 
L 880.689883 108.431387 
L 881.820478 110.945999 
L 883.727887 114.541601 
L 885.821966 117.912418 
L 888.027346 121.056658 
L 891.017612 124.919065 
L 899.084048 134.992911 
L 901.225801 138.210686 
L 902.645242 140.698195 
L 904.335812 144.19052 
L 905.88207 147.945074 
L 910.92981 160.860864 
L 912.589118 164.349923 
L 914.507094 167.845469 
L 916.717943 171.279947 
L 918.365761 173.499243 
L 920.156565 175.635598 
L 922.090412 177.665891 
L 924.164428 179.56726 
L 926.372836 181.317578 
L 928.707057 182.895898 
L 931.155869 184.282889 
L 933.705633 185.461233 
L 936.34057 186.415989 
L 939.043092 187.134901 
L 941.794172 187.608655 
L 944.573743 187.831074 
L 947.361134 187.799248 
L 950.135504 187.513593 
L 952.876292 186.977845 
L 955.563652 186.19898 
L 958.17888 185.187068 
L 960.704807 183.955063 
L 963.12616 182.518532 
L 965.42988 180.89533 
L 967.605387 179.105231 
L 969.64479 177.16952 
L 971.543032 175.11055 
L 973.29797 172.951292 
L 974.91039 170.714862 
L 977.070568 167.265196 
L 978.942742 163.766262 
L 980.563044 160.284227 
L 982.412853 155.763377 
L 987.103842 143.740716 
L 988.819641 140.277016 
L 990.264166 137.803989 
L 992.443323 134.59375 
L 994.921733 131.377374 
L 1003.583265 120.548008 
L 1005.775225 117.366476 
L 1007.843469 113.957688 
L 1009.71239 110.325796 
L 1010.810447 107.789097 
L 1011.765183 105.170037 
L 1012.556544 102.48013 
L 1013.166171 99.733295 
L 1013.577787 96.945598 
L 1013.777541 94.134944 
L 1013.754304 91.320715 
L 1013.499899 88.523383 
L 1013.009273 85.764082 
L 1012.280608 83.064173 
L 1011.315351 80.444792 
L 1010.118186 77.926402 
L 1008.696928 75.528364 
L 1007.062359 73.268517 
L 1005.227994 71.162799 
L 1003.209797 69.224909 
L 1001.025841 67.466011 
L 998.69593 65.894497 
L 996.241181 64.515809 
L 993.683587 63.33233 
L 991.045562 62.343335 
L 988.349486 61.545016 
L 985.617245 60.930575 
L 982.869803 60.490384 
L 980.126788 60.212202 
L 976.059201 60.066266 
L 972.092948 60.194382 
L 968.267266 60.532178 
L 963.427191 61.19062 
L 950.669766 63.139436 
L 946.812215 63.38536 
L 943.948248 63.370878 
L 940.078521 63.088792 
L 936.053853 62.550614 
L 922.344581 60.46419 
L 918.493313 60.156664 
L 914.507094 60.069906 
L 910.427323 60.267319 
L 907.681448 60.584723 
L 904.935908 61.067427 
L 902.2107 61.727042 
L 899.527057 62.572507 
L 896.907033 63.609886 
L 894.373058 64.84222 
L 891.947483 66.269459 
L 889.652125 67.888447 
L 887.507813 69.692991 
L 885.533956 71.673988 
L 883.748133 73.819616 
L 882.165727 76.115586 
L 880.799594 78.54545 
L 879.659793 81.090953 
L 878.75337 83.732418 
L 878.084207 86.449173 
L 877.652934 89.219983 
L 877.456919 92.023502 
L 877.490315 94.838721 
L 877.744189 97.645402 
L 878.206706 100.424496 
L 878.86338 103.158527 
L 879.697379 105.831937 
L 880.689883 108.431387 
L 881.820478 110.945999 
L 883.727887 114.541601 
L 885.821966 117.912418 
L 888.027346 121.056658 
L 891.017612 124.919065 
L 899.084048 134.992911 
L 901.225801 138.210686 
L 902.645242 140.698195 
L 904.335812 144.19052 
L 905.88207 147.945074 
L 910.92981 160.860864 
L 912.589118 164.349923 
L 914.507094 167.845469 
L 916.717943 171.279947 
L 918.365761 173.499243 
L 920.156565 175.635598 
L 922.090412 177.665891 
L 924.164428 179.56726 
L 926.372836 181.317578 
L 928.707057 182.895898 
L 931.155869 184.282889 
L 933.705633 185.461233 
L 936.34057 186.415989 
L 939.043092 187.134901 
L 941.794172 187.608655 
L 944.573743 187.831074 
L 947.361134 187.799248 
L 950.135504 187.513593 
L 952.876292 186.977845 
L 955.563652 186.19898 
L 958.17888 185.187068 
L 960.704807 183.955063 
L 963.12616 182.518532 
L 965.42988 180.89533 
L 967.605387 179.105231 
L 969.64479 177.16952 
L 971.543032 175.11055 
L 973.29797 172.951292 
L 974.91039 170.714862 
L 977.070568 167.265196 
L 978.942742 163.766262 
L 980.563044 160.284227 
L 982.412853 155.763377 
L 987.103842 143.740716 
L 988.819641 140.277016 
L 990.264166 137.803989 
L 992.443323 134.59375 
L 994.921733 131.377374 
L 1003.583265 120.548008 
L 1005.775225 117.366476 
L 1007.843469 113.957688 
L 1007.843469 113.957688 
" clip-path="url(#p8095eebbca)" style="fill: none; stroke: #ff0000; stroke-width: 3; stroke-linecap: square"/>
   </g>
   <g id="patch_14">
    <path d="M 751.168438 191.738 
L 751.168438 36.177375 
" style="fill: none; stroke: #000000; stroke-width: 0.8; stroke-linejoin: miter; stroke-linecap: square"/>
   </g>
   <g id="patch_15">
    <path d="M 1062.289688 191.738 
L 1062.289688 36.177375 
" style="fill: none; stroke: #000000; stroke-width: 0.8; stroke-linejoin: miter; stroke-linecap: square"/>
   </g>
   <g id="patch_16">
    <path d="M 751.168438 191.738 
L 1062.289688 191.738 
" style="fill: none; stroke: #000000; stroke-width: 0.8; stroke-linejoin: miter; stroke-linecap: square"/>
   </g>
   <g id="patch_17">
    <path d="M 751.168438 36.177375 
L 1062.289688 36.177375 
" style="fill: none; stroke: #000000; stroke-width: 0.8; stroke-linejoin: miter; stroke-linecap: square"/>
   </g>
   <g id="text_47">
    <g id="patch_18">
     <path d="M 771.049719 169.957078 
L 855.735656 169.957078 
Q 858.735656 169.957078 858.735656 166.957078 
L 858.735656 156.916453 
Q 858.735656 153.916453 855.735656 153.916453 
L 771.049719 153.916453 
Q 768.049719 153.916453 768.049719 156.916453 
L 768.049719 166.957078 
Q 768.049719 169.957078 771.049719 169.957078 
z
" style="fill: #ffff00; stroke: #000000; stroke-linejoin: miter"/>
    </g>
    <!-- الشرط: L = nλ -->
    <g transform="translate(771.049719 164.514891) scale(0.1 -0.1)">
     <defs>
      <path id="DejaVuSans-Bold-634" d="M 4951 3746 
L 5419 3746 
L 5419 3277 
L 4951 3277 
L 4951 3746 
z
M 5341 2965 
L 5810 2965 
L 5810 2496 
L 5341 2496 
L 5341 2965 
z
M 4560 2965 
L 5029 2965 
L 5029 2496 
L 4560 2496 
L 4560 2965 
z
M 3241 -125 
Q 3422 200 3422 563 
Q 3422 944 3369 1144 
L 3169 1875 
L 4288 1875 
L 4400 1388 
Q 4450 1156 4538 969 
Q 4622 784 4881 781 
Q 5103 778 5178 947 
Q 5294 1209 5294 1875 
L 6413 1875 
Q 6413 1234 6472 1078 
Q 6584 781 6791 781 
Q 7181 781 7181 1425 
L 7181 2344 
L 8300 2344 
L 8300 1275 
Q 8300 653 8013 300 
Q 7788 22 7347 -53 
Q 7138 -91 6784 -91 
Q 6531 -91 6350 0 
Q 5884 225 5853 528 
Q 5744 113 5313 0 
Q 5088 -56 4869 -56 
Q 4600 -56 4388 225 
Q 4388 -347 4144 -716 
Q 3769 -1281 3034 -1481 
Q 2734 -1563 2272 -1563 
Q 1650 -1563 1322 -1450 
Q 406 -1134 406 -69 
Q 406 544 734 1106 
L 1853 1106 
Q 1516 463 1519 -69 
Q 1522 -566 1969 -694 
Q 2088 -728 2253 -728 
Q 2597 -728 2841 -547 
Q 3119 -338 3241 -125 
z
" transform="scale(0.015625)"/>
      <path id="DejaVuSans-Bold-637" d="M 3631 800 
L 3844 800 
Q 4334 800 4728 956 
Q 5097 1103 5097 1275 
Q 5097 1363 4913 1447 
Q 4747 1516 4594 1516 
Q 4359 1509 4016 1263 
Q 3806 1106 3631 800 
z
M 3841 0 
L 1803 0 
L 450 0 
L 450 800 
L 1500 800 
L 1500 4863 
L 2619 4863 
L 2619 1131 
Q 3050 1672 3544 1988 
Q 4056 2316 4544 2316 
Q 5122 2316 5494 2156 
Q 6216 1847 6216 1244 
Q 6216 584 5641 284 
Q 5097 0 3841 0 
z
" transform="scale(0.015625)"/>
      <path id="DejaVuSans-Bold-3a" d="M 716 3500 
L 1844 3500 
L 1844 2291 
L 716 2291 
L 716 3500 
z
M 716 1209 
L 1844 1209 
L 1844 0 
L 716 0 
L 716 1209 
z
" transform="scale(0.015625)"/>
      <path id="DejaVuSans-Bold-4c" d="M 588 4666 
L 1791 4666 
L 1791 909 
L 3903 909 
L 3903 0 
L 588 0 
L 588 4666 
z
" transform="scale(0.015625)"/>
      <path id="DejaVuSans-Bold-3d" d="M 678 3084 
L 4684 3084 
L 4684 2350 
L 678 2350 
L 678 3084 
z
M 678 1663 
L 4684 1663 
L 4684 922 
L 678 922 
L 678 1663 
z
" transform="scale(0.015625)"/>
      <path id="DejaVuSans-Bold-6e" d="M 4056 2131 
L 4056 0 
L 2931 0 
L 2931 347 
L 2931 1631 
Q 2931 2084 2911 2256 
Q 2891 2428 2841 2509 
Q 2775 2619 2662 2680 
Q 2550 2741 2406 2741 
Q 2056 2741 1856 2470 
Q 1656 2200 1656 1722 
L 1656 0 
L 538 0 
L 538 3500 
L 1656 3500 
L 1656 2988 
Q 1909 3294 2193 3439 
Q 2478 3584 2822 3584 
Q 3428 3584 3742 3212 
Q 4056 2841 4056 2131 
z
" transform="scale(0.015625)"/>
      <path id="DejaVuSans-Bold-3bb" d="M 1544 3188 
L 1350 3713 
Q 1263 3953 1145 4040 
Q 1028 4128 734 4128 
L 384 4128 
L 384 4863 
L 1031 4863 
Q 1600 4863 1908 4622 
Q 2216 4381 2428 3813 
L 3859 0 
L 2741 0 
L 2044 1838 
L 1309 0 
L 191 0 
L 1544 3188 
z
" transform="scale(0.015625)"/>
     </defs>
     <use xlink:href="#DejaVuSans-Bold-627"/>
     <use xlink:href="#DejaVuSans-Bold-644" transform="translate(34.277344 0)"/>
     <use xlink:href="#DejaVuSans-Bold-634" transform="translate(121.044922 0)"/>
     <use xlink:href="#DejaVuSans-Bold-631" transform="translate(259.033203 0)"/>
     <use xlink:href="#DejaVuSans-Bold-637" transform="translate(316.601562 0)"/>
     <use xlink:href="#DejaVuSans-Bold-3a" transform="translate(420.458984 0)"/>
     <use xlink:href="#DejaVuSans-Bold-20" transform="translate(460.449219 0)"/>
     <use xlink:href="#DejaVuSans-Bold-4c" transform="translate(495.263672 0)"/>
     <use xlink:href="#DejaVuSans-Bold-20" transform="translate(558.984375 0)"/>
     <use xlink:href="#DejaVuSans-Bold-3d" transform="translate(593.798828 0)"/>
     <use xlink:href="#DejaVuSans-Bold-20" transform="translate(677.587891 0)"/>
     <use xlink:href="#DejaVuSans-Bold-6e" transform="translate(712.402344 0)"/>
     <use xlink:href="#DejaVuSans-Bold-3bb" transform="translate(783.59375 0)"/>
    </g>
   </g>
   <g id="text_48">
    <!-- ج) محصورة n=3 -->
    <g transform="translate(854.4925 16.305) scale(0.12 -0.12)">
     <defs>
      <path id="DejaVuSans-Bold-635" d="M 3422 563 
Q 3422 844 3263 1406 
L 4294 1406 
Q 4300 1313 4341 1188 
Q 4384 1047 4497 906 
Q 4822 1603 5422 1988 
Q 5934 2316 6422 2316 
Q 7000 2316 7372 2156 
Q 8094 1847 8094 1244 
Q 8094 584 7519 284 
Q 6975 0 5719 0 
L 4941 0 
Q 4750 0 4538 94 
Q 4453 131 4388 225 
Q 4388 -347 4144 -716 
Q 3769 -1281 3034 -1481 
Q 2734 -1563 2272 -1563 
Q 1650 -1563 1322 -1450 
Q 406 -1134 406 -69 
Q 406 544 734 1106 
L 1853 1106 
Q 1516 463 1519 -69 
Q 1522 -566 1969 -694 
Q 2088 -728 2253 -728 
Q 2597 -728 2841 -547 
Q 3119 -338 3241 -125 
Q 3422 200 3422 563 
z
M 5509 800 
L 5722 800 
Q 6213 800 6606 956 
Q 6975 1103 6975 1275 
Q 6975 1363 6791 1447 
Q 6625 1516 6472 1516 
Q 6238 1509 5894 1263 
Q 5684 1106 5509 800 
z
" transform="scale(0.015625)"/>
      <path id="DejaVuSans-Bold-33" d="M 2981 2516 
Q 3453 2394 3698 2092 
Q 3944 1791 3944 1325 
Q 3944 631 3412 270 
Q 2881 -91 1863 -91 
Q 1503 -91 1142 -33 
Q 781 25 428 141 
L 428 1069 
Q 766 900 1098 814 
Q 1431 728 1753 728 
Q 2231 728 2486 893 
Q 2741 1059 2741 1369 
Q 2741 1688 2480 1852 
Q 2219 2016 1709 2016 
L 1228 2016 
L 1228 2791 
L 1734 2791 
Q 2188 2791 2409 2933 
Q 2631 3075 2631 3366 
Q 2631 3634 2415 3781 
Q 2200 3928 1806 3928 
Q 1516 3928 1219 3862 
Q 922 3797 628 3669 
L 628 4550 
Q 984 4650 1334 4700 
Q 1684 4750 2022 4750 
Q 2931 4750 3382 4451 
Q 3834 4153 3834 3553 
Q 3834 3144 3618 2883 
Q 3403 2622 2981 2516 
z
" transform="scale(0.015625)"/>
     </defs>
     <use xlink:href="#DejaVuSans-Bold-62c"/>
     <use xlink:href="#DejaVuSans-Bold-29" transform="translate(72.070312 0)"/>
     <use xlink:href="#DejaVuSans-Bold-20" transform="translate(117.773438 0)"/>
     <use xlink:href="#DejaVuSans-Bold-645" transform="translate(152.587891 0)"/>
     <use xlink:href="#DejaVuSans-Bold-62d" transform="translate(225.878906 0)"/>
     <use xlink:href="#DejaVuSans-Bold-635" transform="translate(297.949219 0)"/>
     <use xlink:href="#DejaVuSans-Bold-648" transform="translate(432.470703 0)"/>
     <use xlink:href="#DejaVuSans-Bold-631" transform="translate(494.628906 0)"/>
     <use xlink:href="#DejaVuSans-Bold-629" transform="translate(552.197266 0)"/>
     <use xlink:href="#DejaVuSans-Bold-20" transform="translate(611.230469 0)"/>
     <use xlink:href="#DejaVuSans-Bold-6e" transform="translate(646.044922 0)"/>
     <use xlink:href="#DejaVuSans-Bold-3d" transform="translate(717.236328 0)"/>
     <use xlink:href="#DejaVuSans-Bold-33" transform="translate(801.025391 0)"/>
    </g>
    <!-- L = 3λ -->
    <g transform="translate(885.729063 30.177375) scale(0.12 -0.12)">
     <use xlink:href="#DejaVuSans-Bold-4c"/>
     <use xlink:href="#DejaVuSans-Bold-20" transform="translate(63.720703 0)"/>
     <use xlink:href="#DejaVuSans-Bold-3d" transform="translate(98.535156 0)"/>
     <use xlink:href="#DejaVuSans-Bold-20" transform="translate(182.324219 0)"/>
     <use xlink:href="#DejaVuSans-Bold-33" transform="translate(217.138672 0)"/>
     <use xlink:href="#DejaVuSans-Bold-3bb" transform="translate(286.71875 0)"/>
    </g>
   </g>
  </g>
 </g>
 <defs>
  <clipPath id="pfcf7160c84">
   <rect x="38.210938" y="51.733438" width="311.12125" height="124.4485"/>
  </clipPath>
  <clipPath id="p5ad7d8f65c">
   <rect x="394.689688" y="36.177375" width="311.12125" height="155.560625"/>
  </clipPath>
  <clipPath id="p8095eebbca">
   <rect x="751.168438" y="36.177375" width="311.12125" height="155.560625"/>
  </clipPath>
 </defs>
</svg>
