<?xml version="1.0" encoding="utf-8" standalone="no"?>
<!DOCTYPE svg PUBLIC "-//W3C//DTD SVG 1.1//EN"
  "http://www.w3.org/Graphics/SVG/1.1/DTD/svg11.dtd">
<svg xmlns:xlink="http://www.w3.org/1999/xlink" width="1072.454688pt" height="229.02425pt" viewBox="0 0 1072.454688 229.02425" xmlns="http://www.w3.org/2000/svg" version="1.1">
 <metadata>
  <rdf:RDF xmlns:dc="http://purl.org/dc/elements/1.1/" xmlns:cc="http://creativecommons.org/ns#" xmlns:rdf="http://www.w3.org/1999/02/22-rdf-syntax-ns#">
   <cc:Work>
    <dc:type rdf:resource="http://purl.org/dc/dcmitype/StillImage"/>
    <dc:date>2025-12-03T15:29:29.164732</dc:date>
    <dc:format>image/svg+xml</dc:format>
    <dc:creator>
     <cc:Agent>
      <dc:title>Matplotlib v3.10.6, https://matplotlib.org/</dc:title>
     </cc:Agent>
    </dc:creator>
   </cc:Work>
  </rdf:RDF>
 </metadata>
 <defs>
  <style type="text/css">*{stroke-linejoin: round; stroke-linecap: butt}</style>
 </defs>
 <g id="figure_1">
  <g id="patch_1">
   <path d="M 0 229.02425 
L 1072.454688 229.02425 
L 1072.454688 0 
L 0 0 
z
" style="fill: #ffffff"/>
  </g>
  <g id="axes_1">
   <g id="patch_2">
    <path d="M 37.848438 175.89675 
L 349.273438 175.89675 
L 349.273438 51.32675 
L 37.848438 51.32675 
z
" style="fill: #ffffff"/>
   </g>
   <g id="patch_3">
    <path d="M 68.990938 150.98275 
L 318.130938 150.98275 
L 318.130938 76.24075 
L 68.990938 76.24075 
L 68.990938 150.98275 
z
" clip-path="url(#pb35b53cbc0)" style="fill: none; stroke: #a52a2a; stroke-width: 2; stroke-linejoin: miter"/>
   </g>
   <g id="matplotlib.axis_1">
    <g id="xtick_1">
     <g id="line2d_1">
      <path d="M 68.990938 175.89675 
L 68.990938 51.32675 
" clip-path="url(#pb35b53cbc0)" style="fill: none; stroke: #b0b0b0; stroke-opacity: 0.3; stroke-width: 0.8; stroke-linecap: square"/>
     </g>
     <g id="line2d_2">
      <defs>
       <path id="ma2c092f8ff" d="M 0 0 
L 0 3.5 
" style="stroke: #000000; stroke-width: 0.8"/>
      </defs>
      <g>
       <use xlink:href="#ma2c092f8ff" x="68.990938" y="175.89675" style="stroke: #000000; stroke-width: 0.8"/>
      </g>
     </g>
     <g id="text_1">
      <!-- 0 -->
      <g transform="translate(65.809687 190.495188) scale(0.1 -0.1)">
       <defs>
        <path id="DejaVuSans-30" d="M 2034 4250 
Q 1547 4250 1301 3770 
Q 1056 3291 1056 2328 
Q 1056 1369 1301 889 
Q 1547 409 2034 409 
Q 2525 409 2770 889 
Q 3016 1369 3016 2328 
Q 3016 3291 2770 3770 
Q 2525 4250 2034 4250 
z
M 2034 4750 
Q 2819 4750 3233 4129 
Q 3647 3509 3647 2328 
Q 3647 1150 3233 529 
Q 2819 -91 2034 -91 
Q 1250 -91 836 529 
Q 422 1150 422 2328 
Q 422 3509 836 4129 
Q 1250 4750 2034 4750 
z
" transform="scale(0.015625)"/>
       </defs>
       <use xlink:href="#DejaVuSans-30"/>
      </g>
     </g>
    </g>
    <g id="xtick_2">
     <g id="line2d_3">
      <path d="M 131.275937 175.89675 
L 131.275937 51.32675 
" clip-path="url(#pb35b53cbc0)" style="fill: none; stroke: #b0b0b0; stroke-opacity: 0.3; stroke-width: 0.8; stroke-linecap: square"/>
     </g>
     <g id="line2d_4">
      <g>
       <use xlink:href="#ma2c092f8ff" x="131.275937" y="175.89675" style="stroke: #000000; stroke-width: 0.8"/>
      </g>
     </g>
     <g id="text_2">
      <!-- 2 -->
      <g transform="translate(128.094687 190.495188) scale(0.1 -0.1)">
       <defs>
        <path id="DejaVuSans-32" d="M 1228 531 
L 3431 531 
L 3431 0 
L 469 0 
L 469 531 
Q 828 903 1448 1529 
Q 2069 2156 2228 2338 
Q 2531 2678 2651 2914 
Q 2772 3150 2772 3378 
Q 2772 3750 2511 3984 
Q 2250 4219 1831 4219 
Q 1534 4219 1204 4116 
Q 875 4013 500 3803 
L 500 4441 
Q 881 4594 1212 4672 
Q 1544 4750 1819 4750 
Q 2544 4750 2975 4387 
Q 3406 4025 3406 3419 
Q 3406 3131 3298 2873 
Q 3191 2616 2906 2266 
Q 2828 2175 2409 1742 
Q 1991 1309 1228 531 
z
" transform="scale(0.015625)"/>
       </defs>
       <use xlink:href="#DejaVuSans-32"/>
      </g>
     </g>
    </g>
    <g id="xtick_3">
     <g id="line2d_5">
      <path d="M 193.560938 175.89675 
L 193.560938 51.32675 
" clip-path="url(#pb35b53cbc0)" style="fill: none; stroke: #b0b0b0; stroke-opacity: 0.3; stroke-width: 0.8; stroke-linecap: square"/>
     </g>
     <g id="line2d_6">
      <g>
       <use xlink:href="#ma2c092f8ff" x="193.560938" y="175.89675" style="stroke: #000000; stroke-width: 0.8"/>
      </g>
     </g>
     <g id="text_3">
      <!-- 4 -->
      <g transform="translate(190.379688 190.495188) scale(0.1 -0.1)">
       <defs>
        <path id="DejaVuSans-34" d="M 2419 4116 
L 825 1625 
L 2419 1625 
L 2419 4116 
z
M 2253 4666 
L 3047 4666 
L 3047 1625 
L 3713 1625 
L 3713 1100 
L 3047 1100 
L 3047 0 
L 2419 0 
L 2419 1100 
L 313 1100 
L 313 1709 
L 2253 4666 
z
" transform="scale(0.015625)"/>
       </defs>
       <use xlink:href="#DejaVuSans-34"/>
      </g>
     </g>
    </g>
    <g id="xtick_4">
     <g id="line2d_7">
      <path d="M 255.845938 175.89675 
L 255.845938 51.32675 
" clip-path="url(#pb35b53cbc0)" style="fill: none; stroke: #b0b0b0; stroke-opacity: 0.3; stroke-width: 0.8; stroke-linecap: square"/>
     </g>
     <g id="line2d_8">
      <g>
       <use xlink:href="#ma2c092f8ff" x="255.845938" y="175.89675" style="stroke: #000000; stroke-width: 0.8"/>
      </g>
     </g>
     <g id="text_4">
      <!-- 6 -->
      <g transform="translate(252.664688 190.495188) scale(0.1 -0.1)">
       <defs>
        <path id="DejaVuSans-36" d="M 2113 2584 
Q 1688 2584 1439 2293 
Q 1191 2003 1191 1497 
Q 1191 994 1439 701 
Q 1688 409 2113 409 
Q 2538 409 2786 701 
Q 3034 994 3034 1497 
Q 3034 2003 2786 2293 
Q 2538 2584 2113 2584 
z
M 3366 4563 
L 3366 3988 
Q 3128 4100 2886 4159 
Q 2644 4219 2406 4219 
Q 1781 4219 1451 3797 
Q 1122 3375 1075 2522 
Q 1259 2794 1537 2939 
Q 1816 3084 2150 3084 
Q 2853 3084 3261 2657 
Q 3669 2231 3669 1497 
Q 3669 778 3244 343 
Q 2819 -91 2113 -91 
Q 1303 -91 875 529 
Q 447 1150 447 2328 
Q 447 3434 972 4092 
Q 1497 4750 2381 4750 
Q 2619 4750 2861 4703 
Q 3103 4656 3366 4563 
z
" transform="scale(0.015625)"/>
       </defs>
       <use xlink:href="#DejaVuSans-36"/>
      </g>
     </g>
    </g>
    <g id="xtick_5">
     <g id="line2d_9">
      <path d="M 318.130938 175.89675 
L 318.130938 51.32675 
" clip-path="url(#pb35b53cbc0)" style="fill: none; stroke: #b0b0b0; stroke-opacity: 0.3; stroke-width: 0.8; stroke-linecap: square"/>
     </g>
     <g id="line2d_10">
      <g>
       <use xlink:href="#ma2c092f8ff" x="318.130938" y="175.89675" style="stroke: #000000; stroke-width: 0.8"/>
      </g>
     </g>
     <g id="text_5">
      <!-- 8 -->
      <g transform="translate(314.949688 190.495188) scale(0.1 -0.1)">
       <defs>
        <path id="DejaVuSans-38" d="M 2034 2216 
Q 1584 2216 1326 1975 
Q 1069 1734 1069 1313 
Q 1069 891 1326 650 
Q 1584 409 2034 409 
Q 2484 409 2743 651 
Q 3003 894 3003 1313 
Q 3003 1734 2745 1975 
Q 2488 2216 2034 2216 
z
M 1403 2484 
Q 997 2584 770 2862 
Q 544 3141 544 3541 
Q 544 4100 942 4425 
Q 1341 4750 2034 4750 
Q 2731 4750 3128 4425 
Q 3525 4100 3525 3541 
Q 3525 3141 3298 2862 
Q 3072 2584 2669 2484 
Q 3125 2378 3379 2068 
Q 3634 1759 3634 1313 
Q 3634 634 3220 271 
Q 2806 -91 2034 -91 
Q 1263 -91 848 271 
Q 434 634 434 1313 
Q 434 1759 690 2068 
Q 947 2378 1403 2484 
z
M 1172 3481 
Q 1172 3119 1398 2916 
Q 1625 2713 2034 2713 
Q 2441 2713 2670 2916 
Q 2900 3119 2900 3481 
Q 2900 3844 2670 4047 
Q 2441 4250 2034 4250 
Q 1625 4250 1398 4047 
Q 1172 3844 1172 3481 
z
" transform="scale(0.015625)"/>
       </defs>
       <use xlink:href="#DejaVuSans-38"/>
      </g>
     </g>
    </g>
    <g id="text_6">
     <!-- 位置 x -->
     <g transform="translate(183.010938 204.173313) scale(0.1 -0.1)">
      <defs>
       <path id="DejaVuSans-4f4d" d="M 319 -1131 
L 319 4513 
L 3519 4513 
L 3519 -1131 
L 319 -1131 
z
M 678 -775 
L 3163 -775 
L 3163 4153 
L 678 4153 
L 678 -775 
z
" transform="scale(0.015625)"/>
       <path id="DejaVuSans-7f6e" d="M 319 -1131 
L 319 4513 
L 3519 4513 
L 3519 -1131 
L 319 -1131 
z
M 678 -775 
L 3163 -775 
L 3163 4153 
L 678 4153 
L 678 -775 
z
" transform="scale(0.015625)"/>
       <path id="DejaVuSans-20" transform="scale(0.015625)"/>
       <path id="DejaVuSans-78" d="M 3513 3500 
L 2247 1797 
L 3578 0 
L 2900 0 
L 1881 1375 
L 863 0 
L 184 0 
L 1544 1831 
L 300 3500 
L 978 3500 
L 1906 2253 
L 2834 3500 
L 3513 3500 
z
" transform="scale(0.015625)"/>
      </defs>
      <use xlink:href="#DejaVuSans-4f4d"/>
      <use xlink:href="#DejaVuSans-7f6e" transform="translate(60.009766 0)"/>
      <use xlink:href="#DejaVuSans-20" transform="translate(120.019531 0)"/>
      <use xlink:href="#DejaVuSans-78" transform="translate(151.806641 0)"/>
     </g>
    </g>
   </g>
   <g id="matplotlib.axis_2">
    <g id="ytick_1">
     <g id="line2d_11">
      <path d="M 37.848438 175.89675 
L 349.273438 175.89675 
" clip-path="url(#pb35b53cbc0)" style="fill: none; stroke: #b0b0b0; stroke-opacity: 0.3; stroke-width: 0.8; stroke-linecap: square"/>
     </g>
     <g id="line2d_12">
      <defs>
       <path id="ma732536043" d="M 0 0 
L -3.5 0 
" style="stroke: #000000; stroke-width: 0.8"/>
      </defs>
      <g>
       <use xlink:href="#ma732536043" x="37.848438" y="175.89675" style="stroke: #000000; stroke-width: 0.8"/>
      </g>
     </g>
     <g id="text_7">
      <!-- -2 -->
      <g transform="translate(20.878125 179.695969) scale(0.1 -0.1)">
       <defs>
        <path id="DejaVuSans-2d" d="M 313 2009 
L 1997 2009 
L 1997 1497 
L 313 1497 
L 313 2009 
z
" transform="scale(0.015625)"/>
       </defs>
       <use xlink:href="#DejaVuSans-2d"/>
       <use xlink:href="#DejaVuSans-32" transform="translate(36.083984 0)"/>
      </g>
     </g>
    </g>
    <g id="ytick_2">
     <g id="line2d_13">
      <path d="M 37.848438 144.75425 
L 349.273438 144.75425 
" clip-path="url(#pb35b53cbc0)" style="fill: none; stroke: #b0b0b0; stroke-opacity: 0.3; stroke-width: 0.8; stroke-linecap: square"/>
     </g>
     <g id="line2d_14">
      <g>
       <use xlink:href="#ma732536043" x="37.848438" y="144.75425" style="stroke: #000000; stroke-width: 0.8"/>
      </g>
     </g>
     <g id="text_8">
      <!-- -1 -->
      <g transform="translate(20.878125 148.553469) scale(0.1 -0.1)">
       <defs>
        <path id="DejaVuSans-31" d="M 794 531 
L 1825 531 
L 1825 4091 
L 703 3866 
L 703 4441 
L 1819 4666 
L 2450 4666 
L 2450 531 
L 3481 531 
L 3481 0 
L 794 0 
L 794 531 
z
" transform="scale(0.015625)"/>
       </defs>
       <use xlink:href="#DejaVuSans-2d"/>
       <use xlink:href="#DejaVuSans-31" transform="translate(36.083984 0)"/>
      </g>
     </g>
    </g>
    <g id="ytick_3">
     <g id="line2d_15">
      <path d="M 37.848438 113.61175 
L 349.273438 113.61175 
" clip-path="url(#pb35b53cbc0)" style="fill: none; stroke: #b0b0b0; stroke-opacity: 0.3; stroke-width: 0.8; stroke-linecap: square"/>
     </g>
     <g id="line2d_16">
      <g>
       <use xlink:href="#ma732536043" x="37.848438" y="113.61175" style="stroke: #000000; stroke-width: 0.8"/>
      </g>
     </g>
     <g id="text_9">
      <!-- 0 -->
      <g transform="translate(24.485938 117.410969) scale(0.1 -0.1)">
       <use xlink:href="#DejaVuSans-30"/>
      </g>
     </g>
    </g>
    <g id="ytick_4">
     <g id="line2d_17">
      <path d="M 37.848438 82.46925 
L 349.273438 82.46925 
" clip-path="url(#pb35b53cbc0)" style="fill: none; stroke: #b0b0b0; stroke-opacity: 0.3; stroke-width: 0.8; stroke-linecap: square"/>
     </g>
     <g id="line2d_18">
      <g>
       <use xlink:href="#ma732536043" x="37.848438" y="82.46925" style="stroke: #000000; stroke-width: 0.8"/>
      </g>
     </g>
     <g id="text_10">
      <!-- 1 -->
      <g transform="translate(24.485938 86.268469) scale(0.1 -0.1)">
       <use xlink:href="#DejaVuSans-31"/>
      </g>
     </g>
    </g>
    <g id="ytick_5">
     <g id="line2d_19">
      <path d="M 37.848438 51.32675 
L 349.273438 51.32675 
" clip-path="url(#pb35b53cbc0)" style="fill: none; stroke: #b0b0b0; stroke-opacity: 0.3; stroke-width: 0.8; stroke-linecap: square"/>
     </g>
     <g id="line2d_20">
      <g>
       <use xlink:href="#ma732536043" x="37.848438" y="51.32675" style="stroke: #000000; stroke-width: 0.8"/>
      </g>
     </g>
     <g id="text_11">
      <!-- 2 -->
      <g transform="translate(24.485938 55.125969) scale(0.1 -0.1)">
       <use xlink:href="#DejaVuSans-32"/>
      </g>
     </g>
    </g>
    <g id="text_12">
     <!-- 振幅 ψ(x) -->
     <g transform="translate(14.798438 131.36175) rotate(-90) scale(0.1 -0.1)">
      <defs>
       <path id="DejaVuSans-632f" d="M 319 -1131 
L 319 4513 
L 3519 4513 
L 3519 -1131 
L 319 -1131 
z
M 678 -775 
L 3163 -775 
L 3163 4153 
L 678 4153 
L 678 -775 
z
" transform="scale(0.015625)"/>
       <path id="DejaVuSans-5e45" d="M 319 -1131 
L 319 4513 
L 3519 4513 
L 3519 -1131 
L 319 -1131 
z
M 678 -775 
L 3163 -775 
L 3163 4153 
L 678 4153 
L 678 -775 
z
" transform="scale(0.015625)"/>
       <path id="DejaVuSans-3c8" d="M 1816 -78 
Q 1094 38 759 341 
Q 350 713 350 1472 
L 350 3500 
L 931 3500 
L 931 1494 
Q 931 922 1197 684 
Q 1428 478 1816 434 
L 1816 3500 
L 2388 3500 
L 2388 438 
Q 2797 481 3006 688 
Q 3272 950 3272 1497 
L 3272 3500 
L 3853 3500 
L 3853 1475 
Q 3853 688 3444 344 
Q 3075 34 2388 -75 
L 2388 -1331 
L 1816 -1331 
L 1816 -78 
z
" transform="scale(0.015625)"/>
       <path id="DejaVuSans-28" d="M 1984 4856 
Q 1566 4138 1362 3434 
Q 1159 2731 1159 2009 
Q 1159 1288 1364 580 
Q 1569 -128 1984 -844 
L 1484 -844 
Q 1016 -109 783 600 
Q 550 1309 550 2009 
Q 550 2706 781 3412 
Q 1013 4119 1484 4856 
L 1984 4856 
z
" transform="scale(0.015625)"/>
       <path id="DejaVuSans-29" d="M 513 4856 
L 1013 4856 
Q 1481 4119 1714 3412 
Q 1947 2706 1947 2009 
Q 1947 1309 1714 600 
Q 1481 -109 1013 -844 
L 513 -844 
Q 928 -128 1133 580 
Q 1338 1288 1338 2009 
Q 1338 2731 1133 3434 
Q 928 4138 513 4856 
z
" transform="scale(0.015625)"/>
      </defs>
      <use xlink:href="#DejaVuSans-632f"/>
      <use xlink:href="#DejaVuSans-5e45" transform="translate(60.009766 0)"/>
      <use xlink:href="#DejaVuSans-20" transform="translate(120.019531 0)"/>
      <use xlink:href="#DejaVuSans-3c8" transform="translate(151.806641 0)"/>
      <use xlink:href="#DejaVuSans-28" transform="translate(217.773438 0)"/>
      <use xlink:href="#DejaVuSans-78" transform="translate(256.787109 0)"/>
      <use xlink:href="#DejaVuSans-29" transform="translate(315.966797 0)"/>
     </g>
    </g>
   </g>
   <g id="line2d_21">
    <path d="M 68.990938 113.61175 
L 78.156623 104.577816 
L 83.156088 99.930005 
L 87.322309 96.320777 
L 91.488529 93.020543 
L 94.821506 90.642676 
L 98.154483 88.527645 
L 101.487459 86.699654 
L 104.820436 85.179621 
L 107.320168 84.252294 
L 109.819901 83.514026 
L 112.319633 82.969569 
L 114.819366 82.622431 
L 117.319098 82.474846 
L 119.81883 82.527764 
L 122.318563 82.780845 
L 124.818295 83.23246 
L 127.318028 83.8797 
L 129.81776 84.718397 
L 132.317493 85.74315 
L 135.650469 87.387336 
L 138.983446 89.331611 
L 142.316422 91.553725 
L 145.649399 94.028251 
L 149.81562 97.432975 
L 153.981841 101.126818 
L 158.981305 105.847829 
L 167.313747 114.09749 
L 176.479432 123.109439 
L 181.478897 127.728184 
L 185.645118 131.304611 
L 189.811339 134.564862 
L 193.144315 136.906048 
L 196.477292 138.980676 
L 199.810269 140.765005 
L 203.143245 142.238617 
L 205.642978 143.129635 
L 208.14271 143.830574 
L 210.642443 144.336922 
L 213.142175 144.645418 
L 215.641907 144.754074 
L 218.14164 144.662192 
L 220.641372 144.370363 
L 223.141105 143.880467 
L 225.640837 143.195657 
L 228.14057 142.320344 
L 230.640302 141.260164 
L 233.973279 139.570987 
L 237.306255 137.584755 
L 240.639232 135.324199 
L 243.972208 132.815185 
L 248.138429 129.373508 
L 252.30465 125.650165 
L 258.137359 120.091733 
L 269.802777 108.497283 
L 276.46873 102.088648 
L 281.468195 97.6121 
L 285.634416 94.191359 
L 288.967392 91.701905 
L 292.300369 89.463168 
L 295.633346 87.500765 
L 298.966322 85.837152 
L 301.466055 84.79711 
L 303.965787 83.942617 
L 306.465519 83.279177 
L 308.965252 82.811061 
L 311.464984 82.541284 
L 313.964717 82.471582 
L 316.464449 82.602406 
L 318.130938 82.800661 
L 318.130938 82.800661 
" clip-path="url(#pb35b53cbc0)" style="fill: none; stroke: #0000ff; stroke-width: 3; stroke-linecap: square"/>
   </g>
   <g id="patch_4">
    <path d="M 37.848438 175.89675 
L 37.848438 51.32675 
" style="fill: none; stroke: #000000; stroke-width: 0.8; stroke-linejoin: miter; stroke-linecap: square"/>
   </g>
   <g id="patch_5">
    <path d="M 349.273438 175.89675 
L 349.273438 51.32675 
" style="fill: none; stroke: #000000; stroke-width: 0.8; stroke-linejoin: miter; stroke-linecap: square"/>
   </g>
   <g id="patch_6">
    <path d="M 37.848438 175.89675 
L 349.273438 175.89675 
" style="fill: none; stroke: #000000; stroke-width: 0.8; stroke-linejoin: miter; stroke-linecap: square"/>
   </g>
   <g id="patch_7">
    <path d="M 37.848438 51.32675 
L 349.273438 51.32675 
" style="fill: none; stroke: #000000; stroke-width: 0.8; stroke-linejoin: miter; stroke-linecap: square"/>
   </g>
   <g id="text_13">
    <!-- a) 自由平面波 -->
    <g transform="translate(166.67625 45.32675) scale(0.12 -0.12)">
     <defs>
      <path id="DejaVuSans-Bold-61" d="M 2106 1575 
Q 1756 1575 1579 1456 
Q 1403 1338 1403 1106 
Q 1403 894 1545 773 
Q 1688 653 1941 653 
Q 2256 653 2472 879 
Q 2688 1106 2688 1447 
L 2688 1575 
L 2106 1575 
z
M 3816 1997 
L 3816 0 
L 2688 0 
L 2688 519 
Q 2463 200 2181 54 
Q 1900 -91 1497 -91 
Q 953 -91 614 226 
Q 275 544 275 1050 
Q 275 1666 698 1953 
Q 1122 2241 2028 2241 
L 2688 2241 
L 2688 2328 
Q 2688 2594 2478 2717 
Q 2269 2841 1825 2841 
Q 1466 2841 1156 2769 
Q 847 2697 581 2553 
L 581 3406 
Q 941 3494 1303 3539 
Q 1666 3584 2028 3584 
Q 2975 3584 3395 3211 
Q 3816 2838 3816 1997 
z
" transform="scale(0.015625)"/>
      <path id="DejaVuSans-Bold-29" d="M 513 -844 
Q 913 -100 1113 609 
Q 1313 1319 1313 2009 
Q 1313 2700 1113 3408 
Q 913 4116 513 4856 
L 1441 4856 
Q 1916 4091 2145 3389 
Q 2375 2688 2375 2003 
Q 2375 1319 2147 623 
Q 1919 -72 1441 -844 
L 513 -844 
z
" transform="scale(0.015625)"/>
      <path id="DejaVuSans-Bold-20" transform="scale(0.015625)"/>
      <path id="DejaVuSans-Bold-81ea" d="M 319 -1131 
L 319 4513 
L 3519 4513 
L 3519 -1131 
L 319 -1131 
z
M 678 -775 
L 3163 -775 
L 3163 4153 
L 678 4153 
L 678 -775 
z
" transform="scale(0.015625)"/>
      <path id="DejaVuSans-Bold-7531" d="M 319 -1131 
L 319 4513 
L 3519 4513 
L 3519 -1131 
L 319 -1131 
z
M 678 -775 
L 3163 -775 
L 3163 4153 
L 678 4153 
L 678 -775 
z
" transform="scale(0.015625)"/>
      <path id="DejaVuSans-Bold-5e73" d="M 319 -1131 
L 319 4513 
L 3519 4513 
L 3519 -1131 
L 319 -1131 
z
M 678 -775 
L 3163 -775 
L 3163 4153 
L 678 4153 
L 678 -775 
z
" transform="scale(0.015625)"/>
      <path id="DejaVuSans-Bold-9762" d="M 319 -1131 
L 319 4513 
L 3519 4513 
L 3519 -1131 
L 319 -1131 
z
M 678 -775 
L 3163 -775 
L 3163 4153 
L 678 4153 
L 678 -775 
z
" transform="scale(0.015625)"/>
      <path id="DejaVuSans-Bold-6ce2" d="M 319 -1131 
L 319 4513 
L 3519 4513 
L 3519 -1131 
L 319 -1131 
z
M 678 -775 
L 3163 -775 
L 3163 4153 
L 678 4153 
L 678 -775 
z
" transform="scale(0.015625)"/>
     </defs>
     <use xlink:href="#DejaVuSans-Bold-61"/>
     <use xlink:href="#DejaVuSans-Bold-29" transform="translate(67.480469 0)"/>
     <use xlink:href="#DejaVuSans-Bold-20" transform="translate(113.183594 0)"/>
     <use xlink:href="#DejaVuSans-Bold-81ea" transform="translate(147.998047 0)"/>
     <use xlink:href="#DejaVuSans-Bold-7531" transform="translate(208.007812 0)"/>
     <use xlink:href="#DejaVuSans-Bold-5e73" transform="translate(268.017578 0)"/>
     <use xlink:href="#DejaVuSans-Bold-9762" transform="translate(328.027344 0)"/>
     <use xlink:href="#DejaVuSans-Bold-6ce2" transform="translate(388.037109 0)"/>
    </g>
   </g>
  </g>
  <g id="axes_2">
   <g id="patch_8">
    <path d="M 394.248438 191.468 
L 705.673437 191.468 
L 705.673437 35.7555 
L 394.248438 35.7555 
z
" style="fill: #ffffff"/>
   </g>
   <g id="matplotlib.axis_3">
    <g id="xtick_6">
     <g id="line2d_22">
      <path d="M 394.248438 191.468 
L 394.248438 35.7555 
" clip-path="url(#pb436a54c89)" style="fill: none; stroke: #b0b0b0; stroke-opacity: 0.3; stroke-width: 0.8; stroke-linecap: square"/>
     </g>
     <g id="line2d_23">
      <g>
       <use xlink:href="#ma2c092f8ff" x="394.248438" y="191.468" style="stroke: #000000; stroke-width: 0.8"/>
      </g>
     </g>
     <g id="text_14">
      <!-- 0 -->
      <g transform="translate(391.067188 206.066438) scale(0.1 -0.1)">
       <use xlink:href="#DejaVuSans-30"/>
      </g>
     </g>
    </g>
    <g id="xtick_7">
     <g id="line2d_24">
      <path d="M 433.176563 191.468 
L 433.176563 35.7555 
" clip-path="url(#pb436a54c89)" style="fill: none; stroke: #b0b0b0; stroke-opacity: 0.3; stroke-width: 0.8; stroke-linecap: square"/>
     </g>
     <g id="line2d_25">
      <g>
       <use xlink:href="#ma2c092f8ff" x="433.176563" y="191.468" style="stroke: #000000; stroke-width: 0.8"/>
      </g>
     </g>
     <g id="text_15">
      <!-- 1 -->
      <g transform="translate(429.995313 206.066438) scale(0.1 -0.1)">
       <use xlink:href="#DejaVuSans-31"/>
      </g>
     </g>
    </g>
    <g id="xtick_8">
     <g id="line2d_26">
      <path d="M 472.104688 191.468 
L 472.104688 35.7555 
" clip-path="url(#pb436a54c89)" style="fill: none; stroke: #b0b0b0; stroke-opacity: 0.3; stroke-width: 0.8; stroke-linecap: square"/>
     </g>
     <g id="line2d_27">
      <g>
       <use xlink:href="#ma2c092f8ff" x="472.104688" y="191.468" style="stroke: #000000; stroke-width: 0.8"/>
      </g>
     </g>
     <g id="text_16">
      <!-- 2 -->
      <g transform="translate(468.923438 206.066438) scale(0.1 -0.1)">
       <use xlink:href="#DejaVuSans-32"/>
      </g>
     </g>
    </g>
    <g id="xtick_9">
     <g id="line2d_28">
      <path d="M 511.032813 191.468 
L 511.032813 35.7555 
" clip-path="url(#pb436a54c89)" style="fill: none; stroke: #b0b0b0; stroke-opacity: 0.3; stroke-width: 0.8; stroke-linecap: square"/>
     </g>
     <g id="line2d_29">
      <g>
       <use xlink:href="#ma2c092f8ff" x="511.032813" y="191.468" style="stroke: #000000; stroke-width: 0.8"/>
      </g>
     </g>
     <g id="text_17">
      <!-- 3 -->
      <g transform="translate(507.851563 206.066438) scale(0.1 -0.1)">
       <defs>
        <path id="DejaVuSans-33" d="M 2597 2516 
Q 3050 2419 3304 2112 
Q 3559 1806 3559 1356 
Q 3559 666 3084 287 
Q 2609 -91 1734 -91 
Q 1441 -91 1130 -33 
Q 819 25 488 141 
L 488 750 
Q 750 597 1062 519 
Q 1375 441 1716 441 
Q 2309 441 2620 675 
Q 2931 909 2931 1356 
Q 2931 1769 2642 2001 
Q 2353 2234 1838 2234 
L 1294 2234 
L 1294 2753 
L 1863 2753 
Q 2328 2753 2575 2939 
Q 2822 3125 2822 3475 
Q 2822 3834 2567 4026 
Q 2313 4219 1838 4219 
Q 1578 4219 1281 4162 
Q 984 4106 628 3988 
L 628 4550 
Q 988 4650 1302 4700 
Q 1616 4750 1894 4750 
Q 2613 4750 3031 4423 
Q 3450 4097 3450 3541 
Q 3450 3153 3228 2886 
Q 3006 2619 2597 2516 
z
" transform="scale(0.015625)"/>
       </defs>
       <use xlink:href="#DejaVuSans-33"/>
      </g>
     </g>
    </g>
    <g id="xtick_10">
     <g id="line2d_30">
      <path d="M 549.960938 191.468 
L 549.960938 35.7555 
" clip-path="url(#pb436a54c89)" style="fill: none; stroke: #b0b0b0; stroke-opacity: 0.3; stroke-width: 0.8; stroke-linecap: square"/>
     </g>
     <g id="line2d_31">
      <g>
       <use xlink:href="#ma2c092f8ff" x="549.960938" y="191.468" style="stroke: #000000; stroke-width: 0.8"/>
      </g>
     </g>
     <g id="text_18">
      <!-- 4 -->
      <g transform="translate(546.779688 206.066438) scale(0.1 -0.1)">
       <use xlink:href="#DejaVuSans-34"/>
      </g>
     </g>
    </g>
    <g id="xtick_11">
     <g id="line2d_32">
      <path d="M 588.889063 191.468 
L 588.889063 35.7555 
" clip-path="url(#pb436a54c89)" style="fill: none; stroke: #b0b0b0; stroke-opacity: 0.3; stroke-width: 0.8; stroke-linecap: square"/>
     </g>
     <g id="line2d_33">
      <g>
       <use xlink:href="#ma2c092f8ff" x="588.889063" y="191.468" style="stroke: #000000; stroke-width: 0.8"/>
      </g>
     </g>
     <g id="text_19">
      <!-- 5 -->
      <g transform="translate(585.707813 206.066438) scale(0.1 -0.1)">
       <defs>
        <path id="DejaVuSans-35" d="M 691 4666 
L 3169 4666 
L 3169 4134 
L 1269 4134 
L 1269 2991 
Q 1406 3038 1543 3061 
Q 1681 3084 1819 3084 
Q 2600 3084 3056 2656 
Q 3513 2228 3513 1497 
Q 3513 744 3044 326 
Q 2575 -91 1722 -91 
Q 1428 -91 1123 -41 
Q 819 9 494 109 
L 494 744 
Q 775 591 1075 516 
Q 1375 441 1709 441 
Q 2250 441 2565 725 
Q 2881 1009 2881 1497 
Q 2881 1984 2565 2268 
Q 2250 2553 1709 2553 
Q 1456 2553 1204 2497 
Q 953 2441 691 2322 
L 691 4666 
z
" transform="scale(0.015625)"/>
       </defs>
       <use xlink:href="#DejaVuSans-35"/>
      </g>
     </g>
    </g>
    <g id="xtick_12">
     <g id="line2d_34">
      <path d="M 627.817188 191.468 
L 627.817188 35.7555 
" clip-path="url(#pb436a54c89)" style="fill: none; stroke: #b0b0b0; stroke-opacity: 0.3; stroke-width: 0.8; stroke-linecap: square"/>
     </g>
     <g id="line2d_35">
      <g>
       <use xlink:href="#ma2c092f8ff" x="627.817188" y="191.468" style="stroke: #000000; stroke-width: 0.8"/>
      </g>
     </g>
     <g id="text_20">
      <!-- 6 -->
      <g transform="translate(624.635938 206.066438) scale(0.1 -0.1)">
       <use xlink:href="#DejaVuSans-36"/>
      </g>
     </g>
    </g>
    <g id="xtick_13">
     <g id="line2d_36">
      <path d="M 666.745312 191.468 
L 666.745312 35.7555 
" clip-path="url(#pb436a54c89)" style="fill: none; stroke: #b0b0b0; stroke-opacity: 0.3; stroke-width: 0.8; stroke-linecap: square"/>
     </g>
     <g id="line2d_37">
      <g>
       <use xlink:href="#ma2c092f8ff" x="666.745312" y="191.468" style="stroke: #000000; stroke-width: 0.8"/>
      </g>
     </g>
     <g id="text_21">
      <!-- 7 -->
      <g transform="translate(663.564062 206.066438) scale(0.1 -0.1)">
       <defs>
        <path id="DejaVuSans-37" d="M 525 4666 
L 3525 4666 
L 3525 4397 
L 1831 0 
L 1172 0 
L 2766 4134 
L 525 4134 
L 525 4666 
z
" transform="scale(0.015625)"/>
       </defs>
       <use xlink:href="#DejaVuSans-37"/>
      </g>
     </g>
    </g>
    <g id="xtick_14">
     <g id="line2d_38">
      <path d="M 705.673437 191.468 
L 705.673437 35.7555 
" clip-path="url(#pb436a54c89)" style="fill: none; stroke: #b0b0b0; stroke-opacity: 0.3; stroke-width: 0.8; stroke-linecap: square"/>
     </g>
     <g id="line2d_39">
      <g>
       <use xlink:href="#ma2c092f8ff" x="705.673437" y="191.468" style="stroke: #000000; stroke-width: 0.8"/>
      </g>
     </g>
     <g id="text_22">
      <!-- 8 -->
      <g transform="translate(702.492188 206.066438) scale(0.1 -0.1)">
       <use xlink:href="#DejaVuSans-38"/>
      </g>
     </g>
    </g>
    <g id="text_23">
     <!-- X 坐标 -->
     <g transform="translate(538.945312 219.744563) scale(0.1 -0.1)">
      <defs>
       <path id="DejaVuSans-58" d="M 403 4666 
L 1081 4666 
L 2241 2931 
L 3406 4666 
L 4084 4666 
L 2584 2425 
L 4184 0 
L 3506 0 
L 2194 1984 
L 872 0 
L 191 0 
L 1856 2491 
L 403 4666 
z
" transform="scale(0.015625)"/>
       <path id="DejaVuSans-5750" d="M 319 -1131 
L 319 4513 
L 3519 4513 
L 3519 -1131 
L 319 -1131 
z
M 678 -775 
L 3163 -775 
L 3163 4153 
L 678 4153 
L 678 -775 
z
" transform="scale(0.015625)"/>
       <path id="DejaVuSans-6807" d="M 319 -1131 
L 319 4513 
L 3519 4513 
L 3519 -1131 
L 319 -1131 
z
M 678 -775 
L 3163 -775 
L 3163 4153 
L 678 4153 
L 678 -775 
z
" transform="scale(0.015625)"/>
      </defs>
      <use xlink:href="#DejaVuSans-58"/>
      <use xlink:href="#DejaVuSans-20" transform="translate(68.505859 0)"/>
      <use xlink:href="#DejaVuSans-5750" transform="translate(100.292969 0)"/>
      <use xlink:href="#DejaVuSans-6807" transform="translate(160.302734 0)"/>
     </g>
    </g>
   </g>
   <g id="matplotlib.axis_4">
    <g id="ytick_6">
     <g id="line2d_40">
      <path d="M 394.248438 191.468 
L 705.673437 191.468 
" clip-path="url(#pb436a54c89)" style="fill: none; stroke: #b0b0b0; stroke-opacity: 0.3; stroke-width: 0.8; stroke-linecap: square"/>
     </g>
     <g id="line2d_41">
      <g>
       <use xlink:href="#ma732536043" x="394.248438" y="191.468" style="stroke: #000000; stroke-width: 0.8"/>
      </g>
     </g>
     <g id="text_24">
      <!-- -2 -->
      <g transform="translate(377.278125 195.267219) scale(0.1 -0.1)">
       <use xlink:href="#DejaVuSans-2d"/>
       <use xlink:href="#DejaVuSans-32" transform="translate(36.083984 0)"/>
      </g>
     </g>
    </g>
    <g id="ytick_7">
     <g id="line2d_42">
      <path d="M 394.248438 152.539875 
L 705.673437 152.539875 
" clip-path="url(#pb436a54c89)" style="fill: none; stroke: #b0b0b0; stroke-opacity: 0.3; stroke-width: 0.8; stroke-linecap: square"/>
     </g>
     <g id="line2d_43">
      <g>
       <use xlink:href="#ma732536043" x="394.248438" y="152.539875" style="stroke: #000000; stroke-width: 0.8"/>
      </g>
     </g>
     <g id="text_25">
      <!-- -1 -->
      <g transform="translate(377.278125 156.339094) scale(0.1 -0.1)">
       <use xlink:href="#DejaVuSans-2d"/>
       <use xlink:href="#DejaVuSans-31" transform="translate(36.083984 0)"/>
      </g>
     </g>
    </g>
    <g id="ytick_8">
     <g id="line2d_44">
      <path d="M 394.248438 113.61175 
L 705.673437 113.61175 
" clip-path="url(#pb436a54c89)" style="fill: none; stroke: #b0b0b0; stroke-opacity: 0.3; stroke-width: 0.8; stroke-linecap: square"/>
     </g>
     <g id="line2d_45">
      <g>
       <use xlink:href="#ma732536043" x="394.248438" y="113.61175" style="stroke: #000000; stroke-width: 0.8"/>
      </g>
     </g>
     <g id="text_26">
      <!-- 0 -->
      <g transform="translate(380.885938 117.410969) scale(0.1 -0.1)">
       <use xlink:href="#DejaVuSans-30"/>
      </g>
     </g>
    </g>
    <g id="ytick_9">
     <g id="line2d_46">
      <path d="M 394.248438 74.683625 
L 705.673437 74.683625 
" clip-path="url(#pb436a54c89)" style="fill: none; stroke: #b0b0b0; stroke-opacity: 0.3; stroke-width: 0.8; stroke-linecap: square"/>
     </g>
     <g id="line2d_47">
      <g>
       <use xlink:href="#ma732536043" x="394.248438" y="74.683625" style="stroke: #000000; stroke-width: 0.8"/>
      </g>
     </g>
     <g id="text_27">
      <!-- 1 -->
      <g transform="translate(380.885938 78.482844) scale(0.1 -0.1)">
       <use xlink:href="#DejaVuSans-31"/>
      </g>
     </g>
    </g>
    <g id="ytick_10">
     <g id="line2d_48">
      <path d="M 394.248438 35.7555 
L 705.673437 35.7555 
" clip-path="url(#pb436a54c89)" style="fill: none; stroke: #b0b0b0; stroke-opacity: 0.3; stroke-width: 0.8; stroke-linecap: square"/>
     </g>
     <g id="line2d_49">
      <g>
       <use xlink:href="#ma732536043" x="394.248438" y="35.7555" style="stroke: #000000; stroke-width: 0.8"/>
      </g>
     </g>
     <g id="text_28">
      <!-- 2 -->
      <g transform="translate(380.885938 39.554719) scale(0.1 -0.1)">
       <use xlink:href="#DejaVuSans-32"/>
      </g>
     </g>
    </g>
    <g id="text_29">
     <!-- Y 坐标 -->
     <g transform="translate(371.198438 124.256281) rotate(-90) scale(0.1 -0.1)">
      <defs>
       <path id="DejaVuSans-59" d="M -13 4666 
L 666 4666 
L 1959 2747 
L 3244 4666 
L 3922 4666 
L 2272 2222 
L 2272 0 
L 1638 0 
L 1638 2222 
L -13 4666 
z
" transform="scale(0.015625)"/>
      </defs>
      <use xlink:href="#DejaVuSans-59"/>
      <use xlink:href="#DejaVuSans-20" transform="translate(61.083984 0)"/>
      <use xlink:href="#DejaVuSans-5750" transform="translate(92.871094 0)"/>
      <use xlink:href="#DejaVuSans-6807" transform="translate(152.880859 0)"/>
     </g>
    </g>
   </g>
   <g id="line2d_50">
    <path d="M 522.71125 113.61175 
L 527.99861 104.771928 
L 536.821296 89.924376 
L 539.878966 85.206194 
L 542.195909 81.957243 
L 544.401494 79.224759 
L 546.499404 77.041384 
L 548.004635 75.776625 
L 549.453493 74.835663 
L 550.847995 74.217802 
L 552.190275 73.918189 
L 553.48259 73.927919 
L 554.727305 74.234193 
L 555.926893 74.82053 
L 557.083929 75.667036 
L 558.201081 76.750719 
L 559.633357 78.519746 
L 561.006412 80.597112 
L 562.65014 83.516044 
L 564.841292 87.934553 
L 568.988684 96.414934 
L 570.443785 98.885864 
L 571.614845 100.531339 
L 572.800569 101.839672 
L 574.008708 102.783513 
L 574.934134 103.242538 
L 575.879668 103.485821 
L 576.848456 103.515455 
L 577.843588 103.337443 
L 578.868096 102.9616 
L 580.284924 102.17652 
L 581.766071 101.105393 
L 584.122695 99.07626 
L 590.356245 93.498991 
L 592.865197 91.666342 
L 594.989656 90.419085 
L 596.654091 89.656996 
L 598.381173 89.07381 
L 600.172295 88.694438 
L 602.028704 88.541168 
L 603.951502 88.633312 
L 605.94164 88.986882 
L 607.99992 89.614318 
L 610.12699 90.524273 
L 612.323344 91.72144 
L 614.589322 93.20645 
L 616.13875 94.354819 
L 616.13875 94.354819 
" clip-path="url(#pb436a54c89)" style="fill: none; stroke: #ffa500; stroke-width: 3; stroke-linecap: square"/>
   </g>
   <g id="patch_9">
    <path d="M 394.248438 191.468 
L 394.248438 35.7555 
" style="fill: none; stroke: #000000; stroke-width: 0.8; stroke-linejoin: miter; stroke-linecap: square"/>
   </g>
   <g id="patch_10">
    <path d="M 705.673437 191.468 
L 705.673437 35.7555 
" style="fill: none; stroke: #000000; stroke-width: 0.8; stroke-linejoin: miter; stroke-linecap: square"/>
   </g>
   <g id="patch_11">
    <path d="M 394.248438 191.468 
L 705.673437 191.468 
" style="fill: none; stroke: #000000; stroke-width: 0.8; stroke-linejoin: miter; stroke-linecap: square"/>
   </g>
   <g id="patch_12">
    <path d="M 394.248438 35.7555 
L 705.673437 35.7555 
" style="fill: none; stroke: #000000; stroke-width: 0.8; stroke-linejoin: miter; stroke-linecap: square"/>
   </g>
   <g id="text_30">
    <!-- b) 过渡 -->
    <g transform="translate(533.633438 29.7555) scale(0.12 -0.12)">
     <defs>
      <path id="DejaVuSans-Bold-62" d="M 2400 722 
Q 2759 722 2948 984 
Q 3138 1247 3138 1747 
Q 3138 2247 2948 2509 
Q 2759 2772 2400 2772 
Q 2041 2772 1848 2508 
Q 1656 2244 1656 1747 
Q 1656 1250 1848 986 
Q 2041 722 2400 722 
z
M 1656 2988 
Q 1888 3294 2169 3439 
Q 2450 3584 2816 3584 
Q 3463 3584 3878 3070 
Q 4294 2556 4294 1747 
Q 4294 938 3878 423 
Q 3463 -91 2816 -91 
Q 2450 -91 2169 54 
Q 1888 200 1656 506 
L 1656 0 
L 538 0 
L 538 4863 
L 1656 4863 
L 1656 2988 
z
" transform="scale(0.015625)"/>
      <path id="DejaVuSans-Bold-8fc7" d="M 319 -1131 
L 319 4513 
L 3519 4513 
L 3519 -1131 
L 319 -1131 
z
M 678 -775 
L 3163 -775 
L 3163 4153 
L 678 4153 
L 678 -775 
z
" transform="scale(0.015625)"/>
      <path id="DejaVuSans-Bold-6e21" d="M 319 -1131 
L 319 4513 
L 3519 4513 
L 3519 -1131 
L 319 -1131 
z
M 678 -775 
L 3163 -775 
L 3163 4153 
L 678 4153 
L 678 -775 
z
" transform="scale(0.015625)"/>
     </defs>
     <use xlink:href="#DejaVuSans-Bold-62"/>
     <use xlink:href="#DejaVuSans-Bold-29" transform="translate(71.582031 0)"/>
     <use xlink:href="#DejaVuSans-Bold-20" transform="translate(117.285156 0)"/>
     <use xlink:href="#DejaVuSans-Bold-8fc7" transform="translate(152.099609 0)"/>
     <use xlink:href="#DejaVuSans-Bold-6e21" transform="translate(212.109375 0)"/>
    </g>
   </g>
  </g>
  <g id="axes_3">
   <g id="patch_13">
    <path d="M 750.648438 191.468 
L 1062.073438 191.468 
L 1062.073438 35.7555 
L 750.648438 35.7555 
z
" style="fill: #ffffff"/>
   </g>
   <g id="matplotlib.axis_5">
    <g id="xtick_15">
     <g id="line2d_51">
      <path d="M 750.648438 191.468 
L 750.648438 35.7555 
" clip-path="url(#pe4c2acf544)" style="fill: none; stroke: #b0b0b0; stroke-opacity: 0.3; stroke-width: 0.8; stroke-linecap: square"/>
     </g>
     <g id="line2d_52">
      <g>
       <use xlink:href="#ma2c092f8ff" x="750.648438" y="191.468" style="stroke: #000000; stroke-width: 0.8"/>
      </g>
     </g>
     <g id="text_31">
      <!-- 0 -->
      <g transform="translate(747.467188 206.066438) scale(0.1 -0.1)">
       <use xlink:href="#DejaVuSans-30"/>
      </g>
     </g>
    </g>
    <g id="xtick_16">
     <g id="line2d_53">
      <path d="M 789.576563 191.468 
L 789.576563 35.7555 
" clip-path="url(#pe4c2acf544)" style="fill: none; stroke: #b0b0b0; stroke-opacity: 0.3; stroke-width: 0.8; stroke-linecap: square"/>
     </g>
     <g id="line2d_54">
      <g>
       <use xlink:href="#ma2c092f8ff" x="789.576563" y="191.468" style="stroke: #000000; stroke-width: 0.8"/>
      </g>
     </g>
     <g id="text_32">
      <!-- 1 -->
      <g transform="translate(786.395313 206.066438) scale(0.1 -0.1)">
       <use xlink:href="#DejaVuSans-31"/>
      </g>
     </g>
    </g>
    <g id="xtick_17">
     <g id="line2d_55">
      <path d="M 828.504688 191.468 
L 828.504688 35.7555 
" clip-path="url(#pe4c2acf544)" style="fill: none; stroke: #b0b0b0; stroke-opacity: 0.3; stroke-width: 0.8; stroke-linecap: square"/>
     </g>
     <g id="line2d_56">
      <g>
       <use xlink:href="#ma2c092f8ff" x="828.504688" y="191.468" style="stroke: #000000; stroke-width: 0.8"/>
      </g>
     </g>
     <g id="text_33">
      <!-- 2 -->
      <g transform="translate(825.323438 206.066438) scale(0.1 -0.1)">
       <use xlink:href="#DejaVuSans-32"/>
      </g>
     </g>
    </g>
    <g id="xtick_18">
     <g id="line2d_57">
      <path d="M 867.432813 191.468 
L 867.432813 35.7555 
" clip-path="url(#pe4c2acf544)" style="fill: none; stroke: #b0b0b0; stroke-opacity: 0.3; stroke-width: 0.8; stroke-linecap: square"/>
     </g>
     <g id="line2d_58">
      <g>
       <use xlink:href="#ma2c092f8ff" x="867.432813" y="191.468" style="stroke: #000000; stroke-width: 0.8"/>
      </g>
     </g>
     <g id="text_34">
      <!-- 3 -->
      <g transform="translate(864.251563 206.066438) scale(0.1 -0.1)">
       <use xlink:href="#DejaVuSans-33"/>
      </g>
     </g>
    </g>
    <g id="xtick_19">
     <g id="line2d_59">
      <path d="M 906.360938 191.468 
L 906.360938 35.7555 
" clip-path="url(#pe4c2acf544)" style="fill: none; stroke: #b0b0b0; stroke-opacity: 0.3; stroke-width: 0.8; stroke-linecap: square"/>
     </g>
     <g id="line2d_60">
      <g>
       <use xlink:href="#ma2c092f8ff" x="906.360938" y="191.468" style="stroke: #000000; stroke-width: 0.8"/>
      </g>
     </g>
     <g id="text_35">
      <!-- 4 -->
      <g transform="translate(903.179688 206.066438) scale(0.1 -0.1)">
       <use xlink:href="#DejaVuSans-34"/>
      </g>
     </g>
    </g>
    <g id="xtick_20">
     <g id="line2d_61">
      <path d="M 945.289063 191.468 
L 945.289063 35.7555 
" clip-path="url(#pe4c2acf544)" style="fill: none; stroke: #b0b0b0; stroke-opacity: 0.3; stroke-width: 0.8; stroke-linecap: square"/>
     </g>
     <g id="line2d_62">
      <g>
       <use xlink:href="#ma2c092f8ff" x="945.289063" y="191.468" style="stroke: #000000; stroke-width: 0.8"/>
      </g>
     </g>
     <g id="text_36">
      <!-- 5 -->
      <g transform="translate(942.107813 206.066438) scale(0.1 -0.1)">
       <use xlink:href="#DejaVuSans-35"/>
      </g>
     </g>
    </g>
    <g id="xtick_21">
     <g id="line2d_63">
      <path d="M 984.217188 191.468 
L 984.217188 35.7555 
" clip-path="url(#pe4c2acf544)" style="fill: none; stroke: #b0b0b0; stroke-opacity: 0.3; stroke-width: 0.8; stroke-linecap: square"/>
     </g>
     <g id="line2d_64">
      <g>
       <use xlink:href="#ma2c092f8ff" x="984.217188" y="191.468" style="stroke: #000000; stroke-width: 0.8"/>
      </g>
     </g>
     <g id="text_37">
      <!-- 6 -->
      <g transform="translate(981.035938 206.066438) scale(0.1 -0.1)">
       <use xlink:href="#DejaVuSans-36"/>
      </g>
     </g>
    </g>
    <g id="xtick_22">
     <g id="line2d_65">
      <path d="M 1023.145313 191.468 
L 1023.145313 35.7555 
" clip-path="url(#pe4c2acf544)" style="fill: none; stroke: #b0b0b0; stroke-opacity: 0.3; stroke-width: 0.8; stroke-linecap: square"/>
     </g>
     <g id="line2d_66">
      <g>
       <use xlink:href="#ma2c092f8ff" x="1023.145313" y="191.468" style="stroke: #000000; stroke-width: 0.8"/>
      </g>
     </g>
     <g id="text_38">
      <!-- 7 -->
      <g transform="translate(1019.964063 206.066438) scale(0.1 -0.1)">
       <use xlink:href="#DejaVuSans-37"/>
      </g>
     </g>
    </g>
    <g id="xtick_23">
     <g id="line2d_67">
      <path d="M 1062.073438 191.468 
L 1062.073438 35.7555 
" clip-path="url(#pe4c2acf544)" style="fill: none; stroke: #b0b0b0; stroke-opacity: 0.3; stroke-width: 0.8; stroke-linecap: square"/>
     </g>
     <g id="line2d_68">
      <g>
       <use xlink:href="#ma2c092f8ff" x="1062.073438" y="191.468" style="stroke: #000000; stroke-width: 0.8"/>
      </g>
     </g>
     <g id="text_39">
      <!-- 8 -->
      <g transform="translate(1058.892188 206.066438) scale(0.1 -0.1)">
       <use xlink:href="#DejaVuSans-38"/>
      </g>
     </g>
    </g>
    <g id="text_40">
     <!-- X 坐标 -->
     <g transform="translate(895.345313 219.744563) scale(0.1 -0.1)">
      <use xlink:href="#DejaVuSans-58"/>
      <use xlink:href="#DejaVuSans-20" transform="translate(68.505859 0)"/>
      <use xlink:href="#DejaVuSans-5750" transform="translate(100.292969 0)"/>
      <use xlink:href="#DejaVuSans-6807" transform="translate(160.302734 0)"/>
     </g>
    </g>
   </g>
   <g id="matplotlib.axis_6">
    <g id="ytick_11">
     <g id="line2d_69">
      <path d="M 750.648438 191.468 
L 1062.073438 191.468 
" clip-path="url(#pe4c2acf544)" style="fill: none; stroke: #b0b0b0; stroke-opacity: 0.3; stroke-width: 0.8; stroke-linecap: square"/>
     </g>
     <g id="line2d_70">
      <g>
       <use xlink:href="#ma732536043" x="750.648438" y="191.468" style="stroke: #000000; stroke-width: 0.8"/>
      </g>
     </g>
     <g id="text_41">
      <!-- -2 -->
      <g transform="translate(733.678125 195.267219) scale(0.1 -0.1)">
       <use xlink:href="#DejaVuSans-2d"/>
       <use xlink:href="#DejaVuSans-32" transform="translate(36.083984 0)"/>
      </g>
     </g>
    </g>
    <g id="ytick_12">
     <g id="line2d_71">
      <path d="M 750.648438 152.539875 
L 1062.073438 152.539875 
" clip-path="url(#pe4c2acf544)" style="fill: none; stroke: #b0b0b0; stroke-opacity: 0.3; stroke-width: 0.8; stroke-linecap: square"/>
     </g>
     <g id="line2d_72">
      <g>
       <use xlink:href="#ma732536043" x="750.648438" y="152.539875" style="stroke: #000000; stroke-width: 0.8"/>
      </g>
     </g>
     <g id="text_42">
      <!-- -1 -->
      <g transform="translate(733.678125 156.339094) scale(0.1 -0.1)">
       <use xlink:href="#DejaVuSans-2d"/>
       <use xlink:href="#DejaVuSans-31" transform="translate(36.083984 0)"/>
      </g>
     </g>
    </g>
    <g id="ytick_13">
     <g id="line2d_73">
      <path d="M 750.648438 113.61175 
L 1062.073438 113.61175 
" clip-path="url(#pe4c2acf544)" style="fill: none; stroke: #b0b0b0; stroke-opacity: 0.3; stroke-width: 0.8; stroke-linecap: square"/>
     </g>
     <g id="line2d_74">
      <g>
       <use xlink:href="#ma732536043" x="750.648438" y="113.61175" style="stroke: #000000; stroke-width: 0.8"/>
      </g>
     </g>
     <g id="text_43">
      <!-- 0 -->
      <g transform="translate(737.285938 117.410969) scale(0.1 -0.1)">
       <use xlink:href="#DejaVuSans-30"/>
      </g>
     </g>
    </g>
    <g id="ytick_14">
     <g id="line2d_75">
      <path d="M 750.648438 74.683625 
L 1062.073438 74.683625 
" clip-path="url(#pe4c2acf544)" style="fill: none; stroke: #b0b0b0; stroke-opacity: 0.3; stroke-width: 0.8; stroke-linecap: square"/>
     </g>
     <g id="line2d_76">
      <g>
       <use xlink:href="#ma732536043" x="750.648438" y="74.683625" style="stroke: #000000; stroke-width: 0.8"/>
      </g>
     </g>
     <g id="text_44">
      <!-- 1 -->
      <g transform="translate(737.285938 78.482844) scale(0.1 -0.1)">
       <use xlink:href="#DejaVuSans-31"/>
      </g>
     </g>
    </g>
    <g id="ytick_15">
     <g id="line2d_77">
      <path d="M 750.648438 35.7555 
L 1062.073438 35.7555 
" clip-path="url(#pe4c2acf544)" style="fill: none; stroke: #b0b0b0; stroke-opacity: 0.3; stroke-width: 0.8; stroke-linecap: square"/>
     </g>
     <g id="line2d_78">
      <g>
       <use xlink:href="#ma732536043" x="750.648438" y="35.7555" style="stroke: #000000; stroke-width: 0.8"/>
      </g>
     </g>
     <g id="text_45">
      <!-- 2 -->
      <g transform="translate(737.285938 39.554719) scale(0.1 -0.1)">
       <use xlink:href="#DejaVuSans-32"/>
      </g>
     </g>
    </g>
    <g id="text_46">
     <!-- Y 坐标 -->
     <g transform="translate(727.598438 124.256281) rotate(-90) scale(0.1 -0.1)">
      <use xlink:href="#DejaVuSans-59"/>
      <use xlink:href="#DejaVuSans-20" transform="translate(61.083984 0)"/>
      <use xlink:href="#DejaVuSans-5750" transform="translate(92.871094 0)"/>
      <use xlink:href="#DejaVuSans-6807" transform="translate(152.880859 0)"/>
     </g>
    </g>
   </g>
   <g id="line2d_79">
    <path d="M 1007.574063 113.61175 
L 1007.474304 110.087973 
L 1007.175347 106.575484 
L 1006.678149 103.085534 
L 1005.984304 99.629303 
L 1005.096034 96.217861 
L 1004.016184 92.862138 
L 1002.748214 89.572882 
L 1001.296184 86.360629 
L 999.664747 83.23567 
L 997.859127 80.208015 
L 995.885111 77.287362 
L 993.749019 74.483067 
L 991.457696 71.804114 
L 989.018481 69.259082 
L 986.439188 66.856125 
L 983.728078 64.602941 
L 980.893836 62.506747 
L 977.945542 60.574258 
L 974.892639 58.811663 
L 971.744906 57.22461 
L 968.512428 55.818182 
L 965.205559 54.596884 
L 961.83489 53.564628 
L 958.411221 52.724722 
L 954.945517 52.079855 
L 951.448881 51.632093 
L 947.932513 51.382871 
L 944.407677 51.332986 
L 940.885665 51.4826 
L 937.377758 51.831231 
L 933.895193 52.377765 
L 930.449126 53.120449 
L 927.050596 54.056905 
L 923.71049 55.184133 
L 920.439506 56.498523 
L 917.248122 57.995863 
L 914.146563 59.671358 
L 911.144762 61.51964 
L 908.252335 63.534789 
L 905.478548 65.710349 
L 902.832287 68.039352 
L 900.322027 70.514338 
L 897.95581 73.127377 
L 895.741216 75.8701 
L 893.685339 78.73372 
L 891.794764 81.709066 
L 890.075547 84.786606 
L 888.533196 87.956481 
L 887.172651 91.208537 
L 885.99827 94.532358 
L 885.013816 97.917296 
L 884.222441 101.352509 
L 883.626682 104.826991 
L 883.228445 108.329613 
L 883.029007 111.849156 
L 883.029007 115.374344 
L 883.228445 118.893887 
L 883.626682 122.396509 
L 884.222441 125.870991 
L 885.013816 129.306204 
L 885.99827 132.691142 
L 887.172651 136.014963 
L 888.533196 139.267019 
L 890.075547 142.436894 
L 891.794764 145.514434 
L 893.685339 148.48978 
L 895.741216 151.3534 
L 897.95581 154.096123 
L 900.322027 156.709162 
L 902.832287 159.184148 
L 905.478548 161.513151 
L 908.252335 163.688711 
L 911.144762 165.70386 
L 914.146563 167.552142 
L 917.248122 169.227637 
L 920.439506 170.724977 
L 923.71049 172.039367 
L 927.050596 173.166595 
L 930.449126 174.103051 
L 933.895193 174.845735 
L 937.377758 175.392269 
L 940.885665 175.7409 
L 944.407677 175.890514 
L 947.932513 175.840629 
L 951.448881 175.591407 
L 954.945517 175.143645 
L 958.411221 174.498778 
L 961.83489 173.658872 
L 965.205559 172.626616 
L 968.512428 171.405318 
L 971.744906 169.99889 
L 974.892639 168.411837 
L 977.945542 166.649242 
L 980.893836 164.716753 
L 983.728078 162.620559 
L 986.439188 160.367375 
L 989.018481 157.964418 
L 991.457696 155.419386 
L 993.749019 152.740433 
L 995.885111 149.936138 
L 997.859127 147.015485 
L 999.664747 143.98783 
L 1001.296184 140.862871 
L 1002.748214 137.650618 
L 1004.016184 134.361362 
L 1005.096034 131.005639 
L 1005.984304 127.594197 
L 1006.678149 124.137966 
L 1007.175347 120.648016 
L 1007.474304 117.135527 
L 1007.574063 113.61175 
L 1007.474304 110.087973 
L 1007.175347 106.575484 
L 1006.678149 103.085534 
L 1005.984304 99.629303 
L 1005.096034 96.217861 
L 1004.016184 92.862138 
L 1002.748214 89.572882 
L 1001.296184 86.360629 
L 999.664747 83.23567 
L 997.859127 80.208015 
L 995.885111 77.287362 
L 993.749019 74.483067 
L 991.457696 71.804114 
L 989.018481 69.259082 
L 986.439188 66.856125 
L 983.728078 64.602941 
L 980.893836 62.506747 
L 977.945542 60.574258 
L 974.892639 58.811663 
L 971.744906 57.22461 
L 968.512428 55.818182 
L 965.205559 54.596884 
L 961.83489 53.564628 
L 958.411221 52.724722 
L 954.945517 52.079855 
L 951.448881 51.632093 
L 947.932513 51.382871 
L 944.407677 51.332986 
L 940.885665 51.4826 
L 937.377758 51.831231 
L 933.895193 52.377765 
L 930.449126 53.120449 
L 927.050596 54.056905 
L 923.71049 55.184133 
L 920.439506 56.498523 
L 917.248122 57.995863 
L 914.146563 59.671358 
L 911.144762 61.51964 
L 908.252335 63.534789 
L 905.478548 65.710349 
L 902.832287 68.039352 
L 900.322027 70.514338 
L 897.95581 73.127377 
L 895.741216 75.8701 
L 893.685339 78.73372 
L 891.794764 81.709066 
L 890.075547 84.786606 
L 888.533196 87.956481 
L 887.172651 91.208537 
L 885.99827 94.532358 
L 885.013816 97.917296 
L 884.222441 101.352509 
L 883.626682 104.826991 
L 883.228445 108.329613 
L 883.029007 111.849156 
L 883.029007 115.374344 
L 883.228445 118.893887 
L 883.626682 122.396509 
L 884.222441 125.870991 
L 885.013816 129.306204 
L 885.99827 132.691142 
L 887.172651 136.014963 
L 888.533196 139.267019 
L 890.075547 142.436894 
L 891.794764 145.514434 
L 893.685339 148.48978 
L 895.741216 151.3534 
L 897.95581 154.096123 
L 900.322027 156.709162 
L 902.832287 159.184148 
L 905.478548 161.513151 
L 908.252335 163.688711 
L 911.144762 165.70386 
L 914.146562 167.552142 
L 917.248122 169.227637 
L 920.439506 170.724977 
L 923.71049 172.039367 
L 927.050596 173.166595 
L 930.449126 174.103051 
L 933.895193 174.845735 
L 937.377758 175.392269 
L 940.885665 175.7409 
L 944.407677 175.890514 
L 947.932513 175.840629 
L 951.448881 175.591407 
L 954.945517 175.143645 
L 958.411221 174.498778 
L 961.83489 173.658872 
L 965.205559 172.626616 
L 968.512428 171.405318 
L 971.744906 169.99889 
L 974.892639 168.411837 
L 977.945542 166.649242 
L 980.893836 164.716753 
L 983.728078 162.620559 
L 986.439188 160.367375 
L 989.018481 157.964418 
L 991.457696 155.419386 
L 993.749019 152.740433 
L 995.885111 149.936138 
L 997.859127 147.015485 
L 999.664747 143.98783 
L 1001.296184 140.862871 
L 1002.748214 137.650618 
L 1004.016184 134.361362 
L 1005.096034 131.005639 
L 1005.984304 127.594197 
L 1006.678149 124.137966 
L 1007.175347 120.648016 
L 1007.474304 117.135527 
L 1007.574063 113.61175 
L 1007.474304 110.087973 
L 1007.175347 106.575484 
L 1006.678149 103.085534 
L 1005.984304 99.629303 
L 1005.096034 96.217861 
L 1004.016184 92.862138 
L 1002.748214 89.572882 
L 1001.296184 86.360629 
L 999.664747 83.23567 
L 997.859127 80.208015 
L 995.885111 77.287362 
L 993.749019 74.483067 
L 991.457696 71.804114 
L 989.018481 69.259082 
L 986.439188 66.856125 
L 983.728078 64.602941 
L 980.893836 62.506747 
L 977.945542 60.574258 
L 974.892639 58.811663 
L 971.744906 57.22461 
L 968.512428 55.818182 
L 965.205559 54.596884 
L 961.83489 53.564628 
L 958.411221 52.724722 
L 954.945517 52.079855 
L 951.448881 51.632093 
L 947.932513 51.382871 
L 944.407677 51.332986 
L 940.885665 51.4826 
L 937.377758 51.831231 
L 933.895193 52.377765 
L 930.449126 53.120449 
L 927.050596 54.056905 
L 923.71049 55.184133 
L 920.439506 56.498523 
L 917.248122 57.995863 
L 914.146563 59.671358 
L 911.144762 61.51964 
L 908.252335 63.534789 
L 905.478548 65.710349 
L 902.832287 68.039352 
L 900.322027 70.514338 
L 897.95581 73.127377 
L 895.741216 75.8701 
L 893.685339 78.73372 
L 891.794764 81.709066 
L 890.075547 84.786606 
L 888.533196 87.956481 
L 887.172651 91.208537 
L 885.99827 94.532358 
L 885.013816 97.917296 
L 884.222441 101.352509 
L 883.626682 104.826991 
L 883.228445 108.329613 
L 883.029007 111.849156 
L 883.029007 115.374344 
L 883.228445 118.893887 
L 883.626682 122.396509 
L 884.222441 125.870991 
L 885.013816 129.306204 
L 885.99827 132.691142 
L 887.172651 136.014963 
L 888.533196 139.267019 
L 890.075547 142.436894 
L 891.794764 145.514434 
L 893.685339 148.48978 
L 895.741216 151.3534 
L 897.95581 154.096123 
L 900.322027 156.709162 
L 902.832287 159.184148 
L 905.478548 161.513151 
L 908.252335 163.688711 
L 911.144762 165.70386 
L 914.146562 167.552142 
L 917.248122 169.227637 
L 920.439506 170.724977 
L 923.71049 172.039367 
L 927.050596 173.166595 
L 930.449126 174.103051 
L 933.895193 174.845735 
L 937.377758 175.392269 
L 940.885665 175.7409 
L 944.407677 175.890514 
L 947.932513 175.840629 
L 951.448881 175.591407 
L 954.945517 175.143645 
L 958.411221 174.498778 
L 961.83489 173.658872 
L 965.205559 172.626616 
L 968.512428 171.405318 
L 971.744906 169.99889 
L 974.892639 168.411837 
L 977.945542 166.649242 
L 980.893836 164.716753 
L 983.728078 162.620559 
L 986.439188 160.367375 
L 989.018481 157.964418 
L 991.457696 155.419386 
L 993.749019 152.740433 
L 995.885111 149.936138 
L 997.859127 147.015485 
L 999.664747 143.98783 
L 1001.296184 140.862871 
L 1002.748214 137.650618 
L 1004.016184 134.361362 
L 1005.096034 131.005639 
L 1005.984304 127.594197 
L 1006.678149 124.137966 
L 1007.175347 120.648016 
L 1007.474304 117.135527 
L 1007.574063 113.61175 
L 1007.574063 113.61175 
" clip-path="url(#pe4c2acf544)" style="fill: none; stroke-dasharray: 5.55,2.4; stroke-dashoffset: 0; stroke: #808080; stroke-opacity: 0.5; stroke-width: 1.5"/>
   </g>
   <g id="line2d_80">
    <path d="M 1007.574063 113.61175 
L 1009.444808 109.976313 
L 1010.543937 107.437137 
L 1011.499606 104.81552 
L 1012.29174 102.122987 
L 1012.901961 99.37347 
L 1013.313979 96.583052 
L 1013.513929 93.769653 
L 1013.490669 90.952677 
L 1013.236015 88.152613 
L 1012.74491 85.390619 
L 1012.015534 82.688074 
L 1011.049335 80.066135 
L 1009.851001 77.545287 
L 1008.428355 75.144908 
L 1006.79219 72.882854 
L 1004.956034 70.77508 
L 1002.935867 68.835299 
L 1000.749779 67.074683 
L 998.417593 65.501635 
L 995.960447 64.121601 
L 993.400356 62.936967 
L 990.759756 61.947006 
L 988.061047 61.147907 
L 985.326139 60.532867 
L 982.576015 60.092246 
L 979.830321 59.813792 
L 975.758763 59.667713 
L 971.788638 59.795955 
L 967.959221 60.13408 
L 963.114421 60.793166 
L 950.344541 62.743884 
L 946.483224 62.990049 
L 943.61646 62.975553 
L 939.742955 62.693191 
L 935.714358 62.154488 
L 921.991701 60.066027 
L 918.136674 59.7582 
L 914.146563 59.671358 
L 910.062809 59.868963 
L 907.314253 60.186677 
L 904.566032 60.669852 
L 901.838164 61.330111 
L 899.151901 62.176402 
L 896.529319 63.214793 
L 893.992869 64.448331 
L 891.564926 65.876963 
L 889.267327 67.497532 
L 887.120922 69.303838 
L 885.145138 71.286769 
L 883.357572 73.434491 
L 881.77362 75.732703 
L 880.406154 78.164939 
L 879.26524 80.712927 
L 878.357933 83.356972 
L 877.688116 86.076379 
L 877.256422 88.849894 
L 877.060215 91.65615 
L 877.093644 94.474118 
L 877.347766 97.283539 
L 877.810735 100.065346 
L 878.46805 102.802046 
L 879.302863 105.478066 
L 880.296336 108.080054 
L 881.428035 110.597121 
L 883.337306 114.196233 
L 885.433429 117.570342 
L 887.640963 120.717651 
L 890.634148 124.583829 
L 898.708459 134.66751 
L 900.852303 137.888427 
L 902.27313 140.378365 
L 903.965351 143.874099 
L 905.513119 147.632319 
L 910.565787 160.560718 
L 912.226714 164.053183 
L 914.146563 167.552142 
L 916.359571 170.989974 
L 918.008997 173.211436 
L 919.801549 175.349877 
L 921.737284 177.382152 
L 923.813325 179.285378 
L 926.02389 181.037405 
L 928.360389 182.617266 
L 930.811592 184.00561 
L 933.363845 185.185105 
L 936.001355 186.140793 
L 938.706516 186.860407 
L 941.460281 187.334624 
L 944.242566 187.55726 
L 947.032679 187.525403 
L 949.809757 187.239469 
L 952.553221 186.703198 
L 955.243205 185.923573 
L 957.860986 184.910673 
L 960.389379 183.677465 
L 962.813096 182.239531 
L 965.119065 180.614744 
L 967.296696 178.822898 
L 969.338091 176.885297 
L 971.238185 174.824317 
L 972.994836 172.66295 
L 974.608831 170.424337 
L 976.771118 166.971303 
L 978.64512 163.468953 
L 980.267004 159.983518 
L 982.118619 155.458255 
L 986.814187 143.423856 
L 988.531661 139.956774 
L 989.977597 137.481333 
L 992.158882 134.26796 
L 994.639711 131.048443 
L 1003.3097 120.208505 
L 1005.503799 117.023867 
L 1007.574063 113.61175 
L 1009.444808 109.976313 
L 1010.543937 107.437137 
L 1011.499606 104.81552 
L 1012.29174 102.122987 
L 1012.901961 99.37347 
L 1013.313979 96.583052 
L 1013.513929 93.769653 
L 1013.490669 90.952677 
L 1013.236015 88.152613 
L 1012.74491 85.390619 
L 1012.015534 82.688074 
L 1011.049335 80.066135 
L 1009.851001 77.545287 
L 1008.428355 75.144908 
L 1006.79219 72.882854 
L 1004.956034 70.77508 
L 1002.935867 68.835299 
L 1000.749779 67.074683 
L 998.417593 65.501635 
L 995.960447 64.121601 
L 993.400356 62.936967 
L 990.759756 61.947006 
L 988.061047 61.147907 
L 985.326139 60.532867 
L 982.576015 60.092246 
L 979.830321 59.813792 
L 975.758763 59.667713 
L 971.788638 59.795955 
L 967.959221 60.13408 
L 963.114421 60.793166 
L 950.344541 62.743884 
L 946.483224 62.990049 
L 943.61646 62.975553 
L 939.742955 62.693191 
L 935.714358 62.154488 
L 921.991701 60.066027 
L 918.136674 59.7582 
L 914.146563 59.671358 
L 910.062809 59.868963 
L 907.314253 60.186677 
L 904.566032 60.669852 
L 901.838164 61.330111 
L 899.151901 62.176402 
L 896.529319 63.214793 
L 893.992869 64.448331 
L 891.564926 65.876963 
L 889.267327 67.497532 
L 887.120922 69.303838 
L 885.145138 71.286769 
L 883.357572 73.434491 
L 881.77362 75.732703 
L 880.406154 78.164939 
L 879.26524 80.712927 
L 878.357933 83.356972 
L 877.688116 86.076379 
L 877.256422 88.849894 
L 877.060215 91.65615 
L 877.093644 94.474118 
L 877.347766 97.283539 
L 877.810735 100.065346 
L 878.46805 102.802046 
L 879.302863 105.478066 
L 880.296336 108.080054 
L 881.428035 110.597121 
L 883.337306 114.196233 
L 885.433429 117.570342 
L 887.640963 120.717651 
L 890.634148 124.583829 
L 898.708459 134.66751 
L 900.852303 137.888427 
L 902.27313 140.378365 
L 903.965351 143.874099 
L 905.513119 147.632319 
L 910.565787 160.560718 
L 912.226714 164.053183 
L 914.146563 167.552142 
L 916.359571 170.989974 
L 918.008997 173.211436 
L 919.801549 175.349877 
L 921.737284 177.382152 
L 923.813325 179.285378 
L 926.02389 181.037405 
L 928.360389 182.617266 
L 930.811592 184.00561 
L 933.363845 185.185105 
L 936.001355 186.140793 
L 938.706516 186.860407 
L 941.460281 187.334624 
L 944.242566 187.55726 
L 947.032679 187.525403 
L 949.809757 187.239469 
L 952.553221 186.703198 
L 955.243205 185.923573 
L 957.860986 184.910673 
L 960.389379 183.677465 
L 962.813096 182.239531 
L 965.119065 180.614744 
L 967.296696 178.822898 
L 969.338091 176.885297 
L 971.238185 174.824317 
L 972.994836 172.66295 
L 974.608831 170.424337 
L 976.771118 166.971303 
L 978.64512 163.468953 
L 980.267004 159.983518 
L 982.118619 155.458255 
L 986.814187 143.423856 
L 988.531661 139.956774 
L 989.977597 137.481333 
L 992.158882 134.26796 
L 994.639711 131.048443 
L 1003.3097 120.208505 
L 1005.503799 117.023867 
L 1007.574063 113.61175 
L 1009.444808 109.976313 
L 1010.543937 107.437137 
L 1011.499606 104.81552 
L 1012.29174 102.122987 
L 1012.901961 99.37347 
L 1013.313979 96.583052 
L 1013.513929 93.769653 
L 1013.490669 90.952677 
L 1013.236015 88.152613 
L 1012.74491 85.390619 
L 1012.015534 82.688074 
L 1011.049335 80.066135 
L 1009.851001 77.545287 
L 1008.428355 75.144908 
L 1006.79219 72.882854 
L 1004.956034 70.77508 
L 1002.935867 68.835299 
L 1000.749779 67.074683 
L 998.417593 65.501635 
L 995.960447 64.121601 
L 993.400356 62.936967 
L 990.759756 61.947006 
L 988.061047 61.147907 
L 985.326139 60.532867 
L 982.576015 60.092246 
L 979.830321 59.813792 
L 975.758763 59.667713 
L 971.788638 59.795955 
L 967.959221 60.13408 
L 963.114421 60.793166 
L 950.344541 62.743884 
L 946.483224 62.990049 
L 943.61646 62.975553 
L 939.742955 62.693191 
L 935.714358 62.154488 
L 921.991701 60.066027 
L 918.136674 59.7582 
L 914.146563 59.671358 
L 910.062809 59.868963 
L 907.314253 60.186677 
L 904.566032 60.669852 
L 901.838164 61.330111 
L 899.151901 62.176402 
L 896.529319 63.214793 
L 893.992869 64.448331 
L 891.564926 65.876963 
L 889.267327 67.497532 
L 887.120922 69.303838 
L 885.145138 71.286769 
L 883.357572 73.434491 
L 881.77362 75.732703 
L 880.406154 78.164939 
L 879.26524 80.712927 
L 878.357933 83.356972 
L 877.688116 86.076379 
L 877.256422 88.849894 
L 877.060215 91.65615 
L 877.093644 94.474118 
L 877.347766 97.283539 
L 877.810735 100.065346 
L 878.46805 102.802046 
L 879.302863 105.478066 
L 880.296336 108.080054 
L 881.428035 110.597121 
L 883.337306 114.196233 
L 885.433429 117.570342 
L 887.640963 120.717651 
L 890.634148 124.583829 
L 898.708459 134.66751 
L 900.852303 137.888427 
L 902.27313 140.378365 
L 903.965351 143.874099 
L 905.513119 147.632319 
L 910.565787 160.560718 
L 912.226714 164.053183 
L 914.146562 167.552142 
L 916.359571 170.989974 
L 918.008997 173.211436 
L 919.801549 175.349877 
L 921.737284 177.382152 
L 923.813325 179.285378 
L 926.02389 181.037405 
L 928.360389 182.617266 
L 930.811592 184.00561 
L 933.363845 185.185105 
L 936.001355 186.140793 
L 938.706516 186.860407 
L 941.460281 187.334624 
L 944.242566 187.55726 
L 947.032679 187.525403 
L 949.809757 187.239469 
L 952.553221 186.703198 
L 955.243205 185.923573 
L 957.860986 184.910673 
L 960.389379 183.677465 
L 962.813096 182.239531 
L 965.119065 180.614744 
L 967.296696 178.822898 
L 969.338091 176.885297 
L 971.238185 174.824317 
L 972.994836 172.66295 
L 974.608831 170.424337 
L 976.771118 166.971303 
L 978.64512 163.468953 
L 980.267004 159.983518 
L 982.118619 155.458255 
L 986.814187 143.423856 
L 988.531661 139.956774 
L 989.977597 137.481333 
L 992.158882 134.26796 
L 994.639711 131.048443 
L 1003.3097 120.208505 
L 1005.503799 117.023867 
L 1007.574063 113.61175 
L 1007.574063 113.61175 
" clip-path="url(#pe4c2acf544)" style="fill: none; stroke: #ff0000; stroke-width: 3; stroke-linecap: square"/>
   </g>
   <g id="patch_14">
    <path d="M 750.648438 191.468 
L 750.648438 35.7555 
" style="fill: none; stroke: #000000; stroke-width: 0.8; stroke-linejoin: miter; stroke-linecap: square"/>
   </g>
   <g id="patch_15">
    <path d="M 1062.073438 191.468 
L 1062.073438 35.7555 
" style="fill: none; stroke: #000000; stroke-width: 0.8; stroke-linejoin: miter; stroke-linecap: square"/>
   </g>
   <g id="patch_16">
    <path d="M 750.648438 191.468 
L 1062.073438 191.468 
" style="fill: none; stroke: #000000; stroke-width: 0.8; stroke-linejoin: miter; stroke-linecap: square"/>
   </g>
   <g id="patch_17">
    <path d="M 750.648438 35.7555 
L 1062.073438 35.7555 
" style="fill: none; stroke: #000000; stroke-width: 0.8; stroke-linejoin: miter; stroke-linecap: square"/>
   </g>
   <g id="text_47">
    <g id="patch_18">
     <path d="M 785.611563 169.298 
L 840.255313 169.298 
Q 843.255313 169.298 843.255313 166.298 
L 843.255313 156.619875 
Q 843.255313 153.619875 840.255313 153.619875 
L 785.611563 153.619875 
Q 782.611563 153.619875 782.611563 156.619875 
L 782.611563 166.298 
Q 782.611563 169.298 785.611563 169.298 
z
" style="fill: #ffff00; stroke: #000000; stroke-linejoin: miter"/>
    </g>
    <!-- 条件: L = nλ -->
    <g transform="translate(785.611563 164.218313) scale(0.1 -0.1)">
     <defs>
      <path id="DejaVuSans-Bold-6761" d="M 319 -1131 
L 319 4513 
L 3519 4513 
L 3519 -1131 
L 319 -1131 
z
M 678 -775 
L 3163 -775 
L 3163 4153 
L 678 4153 
L 678 -775 
z
" transform="scale(0.015625)"/>
      <path id="DejaVuSans-Bold-4ef6" d="M 319 -1131 
L 319 4513 
L 3519 4513 
L 3519 -1131 
L 319 -1131 
z
M 678 -775 
L 3163 -775 
L 3163 4153 
L 678 4153 
L 678 -775 
z
" transform="scale(0.015625)"/>
      <path id="DejaVuSans-Bold-3a" d="M 716 3500 
L 1844 3500 
L 1844 2291 
L 716 2291 
L 716 3500 
z
M 716 1209 
L 1844 1209 
L 1844 0 
L 716 0 
L 716 1209 
z
" transform="scale(0.015625)"/>
      <path id="DejaVuSans-Bold-4c" d="M 588 4666 
L 1791 4666 
L 1791 909 
L 3903 909 
L 3903 0 
L 588 0 
L 588 4666 
z
" transform="scale(0.015625)"/>
      <path id="DejaVuSans-Bold-3d" d="M 678 3084 
L 4684 3084 
L 4684 2350 
L 678 2350 
L 678 3084 
z
M 678 1663 
L 4684 1663 
L 4684 922 
L 678 922 
L 678 1663 
z
" transform="scale(0.015625)"/>
      <path id="DejaVuSans-Bold-6e" d="M 4056 2131 
L 4056 0 
L 2931 0 
L 2931 347 
L 2931 1631 
Q 2931 2084 2911 2256 
Q 2891 2428 2841 2509 
Q 2775 2619 2662 2680 
Q 2550 2741 2406 2741 
Q 2056 2741 1856 2470 
Q 1656 2200 1656 1722 
L 1656 0 
L 538 0 
L 538 3500 
L 1656 3500 
L 1656 2988 
Q 1909 3294 2193 3439 
Q 2478 3584 2822 3584 
Q 3428 3584 3742 3212 
Q 4056 2841 4056 2131 
z
" transform="scale(0.015625)"/>
      <path id="DejaVuSans-Bold-3bb" d="M 1544 3188 
L 1350 3713 
Q 1263 3953 1145 4040 
Q 1028 4128 734 4128 
L 384 4128 
L 384 4863 
L 1031 4863 
Q 1600 4863 1908 4622 
Q 2216 4381 2428 3813 
L 3859 0 
L 2741 0 
L 2044 1838 
L 1309 0 
L 191 0 
L 1544 3188 
z
" transform="scale(0.015625)"/>
     </defs>
     <use xlink:href="#DejaVuSans-Bold-6761"/>
     <use xlink:href="#DejaVuSans-Bold-4ef6" transform="translate(60.009766 0)"/>
     <use xlink:href="#DejaVuSans-Bold-3a" transform="translate(120.019531 0)"/>
     <use xlink:href="#DejaVuSans-Bold-20" transform="translate(160.009766 0)"/>
     <use xlink:href="#DejaVuSans-Bold-4c" transform="translate(194.824219 0)"/>
     <use xlink:href="#DejaVuSans-Bold-20" transform="translate(258.544922 0)"/>
     <use xlink:href="#DejaVuSans-Bold-3d" transform="translate(293.359375 0)"/>
     <use xlink:href="#DejaVuSans-Bold-20" transform="translate(377.148438 0)"/>
     <use xlink:href="#DejaVuSans-Bold-6e" transform="translate(411.962891 0)"/>
     <use xlink:href="#DejaVuSans-Bold-3bb" transform="translate(483.154297 0)"/>
    </g>
   </g>
   <g id="text_48">
    <!-- c) 已约束 n=3 -->
    <g transform="translate(871.607813 16.318125) scale(0.12 -0.12)">
     <defs>
      <path id="DejaVuSans-Bold-63" d="M 3366 3391 
L 3366 2478 
Q 3138 2634 2908 2709 
Q 2678 2784 2431 2784 
Q 1963 2784 1702 2511 
Q 1441 2238 1441 1747 
Q 1441 1256 1702 982 
Q 1963 709 2431 709 
Q 2694 709 2930 787 
Q 3166 866 3366 1019 
L 3366 103 
Q 3103 6 2833 -42 
Q 2563 -91 2291 -91 
Q 1344 -91 809 395 
Q 275 881 275 1747 
Q 275 2613 809 3098 
Q 1344 3584 2291 3584 
Q 2566 3584 2833 3536 
Q 3100 3488 3366 3391 
z
" transform="scale(0.015625)"/>
      <path id="DejaVuSans-Bold-5df2" d="M 319 -1131 
L 319 4513 
L 3519 4513 
L 3519 -1131 
L 319 -1131 
z
M 678 -775 
L 3163 -775 
L 3163 4153 
L 678 4153 
L 678 -775 
z
" transform="scale(0.015625)"/>
      <path id="DejaVuSans-Bold-7ea6" d="M 319 -1131 
L 319 4513 
L 3519 4513 
L 3519 -1131 
L 319 -1131 
z
M 678 -775 
L 3163 -775 
L 3163 4153 
L 678 4153 
L 678 -775 
z
" transform="scale(0.015625)"/>
      <path id="DejaVuSans-Bold-675f" d="M 319 -1131 
L 319 4513 
L 3519 4513 
L 3519 -1131 
L 319 -1131 
z
M 678 -775 
L 3163 -775 
L 3163 4153 
L 678 4153 
L 678 -775 
z
" transform="scale(0.015625)"/>
      <path id="DejaVuSans-Bold-33" d="M 2981 2516 
Q 3453 2394 3698 2092 
Q 3944 1791 3944 1325 
Q 3944 631 3412 270 
Q 2881 -91 1863 -91 
Q 1503 -91 1142 -33 
Q 781 25 428 141 
L 428 1069 
Q 766 900 1098 814 
Q 1431 728 1753 728 
Q 2231 728 2486 893 
Q 2741 1059 2741 1369 
Q 2741 1688 2480 1852 
Q 2219 2016 1709 2016 
L 1228 2016 
L 1228 2791 
L 1734 2791 
Q 2188 2791 2409 2933 
Q 2631 3075 2631 3366 
Q 2631 3634 2415 3781 
Q 2200 3928 1806 3928 
Q 1516 3928 1219 3862 
Q 922 3797 628 3669 
L 628 4550 
Q 984 4650 1334 4700 
Q 1684 4750 2022 4750 
Q 2931 4750 3382 4451 
Q 3834 4153 3834 3553 
Q 3834 3144 3618 2883 
Q 3403 2622 2981 2516 
z
" transform="scale(0.015625)"/>
     </defs>
     <use xlink:href="#DejaVuSans-Bold-63"/>
     <use xlink:href="#DejaVuSans-Bold-29" transform="translate(59.277344 0)"/>
     <use xlink:href="#DejaVuSans-Bold-20" transform="translate(104.980469 0)"/>
     <use xlink:href="#DejaVuSans-Bold-5df2" transform="translate(139.794922 0)"/>
     <use xlink:href="#DejaVuSans-Bold-7ea6" transform="translate(199.804688 0)"/>
     <use xlink:href="#DejaVuSans-Bold-675f" transform="translate(259.814453 0)"/>
     <use xlink:href="#DejaVuSans-Bold-20" transform="translate(319.824219 0)"/>
     <use xlink:href="#DejaVuSans-Bold-6e" transform="translate(354.638672 0)"/>
     <use xlink:href="#DejaVuSans-Bold-3d" transform="translate(425.830078 0)"/>
     <use xlink:href="#DejaVuSans-Bold-33" transform="translate(509.619141 0)"/>
    </g>
    <!-- L = 3λ -->
    <g transform="translate(885.360938 29.7555) scale(0.12 -0.12)">
     <use xlink:href="#DejaVuSans-Bold-4c"/>
     <use xlink:href="#DejaVuSans-Bold-20" transform="translate(63.720703 0)"/>
     <use xlink:href="#DejaVuSans-Bold-3d" transform="translate(98.535156 0)"/>
     <use xlink:href="#DejaVuSans-Bold-20" transform="translate(182.324219 0)"/>
     <use xlink:href="#DejaVuSans-Bold-33" transform="translate(217.138672 0)"/>
     <use xlink:href="#DejaVuSans-Bold-3bb" transform="translate(286.71875 0)"/>
    </g>
   </g>
  </g>
 </g>
 <defs>
  <clipPath id="pb35b53cbc0">
   <rect x="37.848438" y="51.32675" width="311.425" height="124.57"/>
  </clipPath>
  <clipPath id="pb436a54c89">
   <rect x="394.248438" y="35.7555" width="311.425" height="155.7125"/>
  </clipPath>
  <clipPath id="pe4c2acf544">
   <rect x="750.648438" y="35.7555" width="311.425" height="155.7125"/>
  </clipPath>
 </defs>
</svg>
