<?xml version="1.0" encoding="utf-8" standalone="no"?>
<!DOCTYPE svg PUBLIC "-//W3C//DTD SVG 1.1//EN"
  "http://www.w3.org/Graphics/SVG/1.1/DTD/svg11.dtd">
<svg xmlns:xlink="http://www.w3.org/1999/xlink" width="1072.454688pt" height="229.118pt" viewBox="0 0 1072.454688 229.118" xmlns="http://www.w3.org/2000/svg" version="1.1">
 <metadata>
  <rdf:RDF xmlns:dc="http://purl.org/dc/elements/1.1/" xmlns:cc="http://creativecommons.org/ns#" xmlns:rdf="http://www.w3.org/1999/02/22-rdf-syntax-ns#">
   <cc:Work>
    <dc:type rdf:resource="http://purl.org/dc/dcmitype/StillImage"/>
    <dc:date>2025-12-03T16:16:59.372231</dc:date>
    <dc:format>image/svg+xml</dc:format>
    <dc:creator>
     <cc:Agent>
      <dc:title>Matplotlib v3.10.6, https://matplotlib.org/</dc:title>
     </cc:Agent>
    </dc:creator>
   </cc:Work>
  </rdf:RDF>
 </metadata>
 <defs>
  <style type="text/css">*{stroke-linejoin: round; stroke-linecap: butt}</style>
 </defs>
 <g id="figure_1">
  <g id="patch_1">
   <path d="M 0 229.118 
L 1072.454688 229.118 
L 1072.454688 -0 
L 0 -0 
z
" style="fill: #ffffff"/>
  </g>
  <g id="axes_1">
   <g id="patch_2">
    <path d="M 37.848438 175.9905 
L 349.273438 175.9905 
L 349.273438 51.4205 
L 37.848438 51.4205 
z
" style="fill: #ffffff"/>
   </g>
   <g id="patch_3">
    <path d="M 68.990938 151.0765 
L 318.130938 151.0765 
L 318.130938 76.3345 
L 68.990938 76.3345 
L 68.990938 151.0765 
z
" clip-path="url(#p577bd058eb)" style="fill: none; stroke: #a52a2a; stroke-width: 2; stroke-linejoin: miter"/>
   </g>
   <g id="matplotlib.axis_1">
    <g id="xtick_1">
     <g id="line2d_1">
      <path d="M 68.990938 175.9905 
L 68.990938 51.4205 
" clip-path="url(#p577bd058eb)" style="fill: none; stroke: #b0b0b0; stroke-opacity: 0.3; stroke-width: 0.8; stroke-linecap: square"/>
     </g>
     <g id="line2d_2">
      <defs>
       <path id="m22cc74e24d" d="M 0 0 
L 0 3.5 
" style="stroke: #000000; stroke-width: 0.8"/>
      </defs>
      <g>
       <use xlink:href="#m22cc74e24d" x="68.990938" y="175.9905" style="stroke: #000000; stroke-width: 0.8"/>
      </g>
     </g>
     <g id="text_1">
      <!-- 0 -->
      <g transform="translate(65.809687 190.588938) scale(0.1 -0.1)">
       <defs>
        <path id="DejaVuSans-30" d="M 2034 4250 
Q 1547 4250 1301 3770 
Q 1056 3291 1056 2328 
Q 1056 1369 1301 889 
Q 1547 409 2034 409 
Q 2525 409 2770 889 
Q 3016 1369 3016 2328 
Q 3016 3291 2770 3770 
Q 2525 4250 2034 4250 
z
M 2034 4750 
Q 2819 4750 3233 4129 
Q 3647 3509 3647 2328 
Q 3647 1150 3233 529 
Q 2819 -91 2034 -91 
Q 1250 -91 836 529 
Q 422 1150 422 2328 
Q 422 3509 836 4129 
Q 1250 4750 2034 4750 
z
" transform="scale(0.015625)"/>
       </defs>
       <use xlink:href="#DejaVuSans-30"/>
      </g>
     </g>
    </g>
    <g id="xtick_2">
     <g id="line2d_3">
      <path d="M 131.275937 175.9905 
L 131.275937 51.4205 
" clip-path="url(#p577bd058eb)" style="fill: none; stroke: #b0b0b0; stroke-opacity: 0.3; stroke-width: 0.8; stroke-linecap: square"/>
     </g>
     <g id="line2d_4">
      <g>
       <use xlink:href="#m22cc74e24d" x="131.275937" y="175.9905" style="stroke: #000000; stroke-width: 0.8"/>
      </g>
     </g>
     <g id="text_2">
      <!-- 2 -->
      <g transform="translate(128.094687 190.588938) scale(0.1 -0.1)">
       <defs>
        <path id="DejaVuSans-32" d="M 1228 531 
L 3431 531 
L 3431 0 
L 469 0 
L 469 531 
Q 828 903 1448 1529 
Q 2069 2156 2228 2338 
Q 2531 2678 2651 2914 
Q 2772 3150 2772 3378 
Q 2772 3750 2511 3984 
Q 2250 4219 1831 4219 
Q 1534 4219 1204 4116 
Q 875 4013 500 3803 
L 500 4441 
Q 881 4594 1212 4672 
Q 1544 4750 1819 4750 
Q 2544 4750 2975 4387 
Q 3406 4025 3406 3419 
Q 3406 3131 3298 2873 
Q 3191 2616 2906 2266 
Q 2828 2175 2409 1742 
Q 1991 1309 1228 531 
z
" transform="scale(0.015625)"/>
       </defs>
       <use xlink:href="#DejaVuSans-32"/>
      </g>
     </g>
    </g>
    <g id="xtick_3">
     <g id="line2d_5">
      <path d="M 193.560938 175.9905 
L 193.560938 51.4205 
" clip-path="url(#p577bd058eb)" style="fill: none; stroke: #b0b0b0; stroke-opacity: 0.3; stroke-width: 0.8; stroke-linecap: square"/>
     </g>
     <g id="line2d_6">
      <g>
       <use xlink:href="#m22cc74e24d" x="193.560938" y="175.9905" style="stroke: #000000; stroke-width: 0.8"/>
      </g>
     </g>
     <g id="text_3">
      <!-- 4 -->
      <g transform="translate(190.379688 190.588938) scale(0.1 -0.1)">
       <defs>
        <path id="DejaVuSans-34" d="M 2419 4116 
L 825 1625 
L 2419 1625 
L 2419 4116 
z
M 2253 4666 
L 3047 4666 
L 3047 1625 
L 3713 1625 
L 3713 1100 
L 3047 1100 
L 3047 0 
L 2419 0 
L 2419 1100 
L 313 1100 
L 313 1709 
L 2253 4666 
z
" transform="scale(0.015625)"/>
       </defs>
       <use xlink:href="#DejaVuSans-34"/>
      </g>
     </g>
    </g>
    <g id="xtick_4">
     <g id="line2d_7">
      <path d="M 255.845938 175.9905 
L 255.845938 51.4205 
" clip-path="url(#p577bd058eb)" style="fill: none; stroke: #b0b0b0; stroke-opacity: 0.3; stroke-width: 0.8; stroke-linecap: square"/>
     </g>
     <g id="line2d_8">
      <g>
       <use xlink:href="#m22cc74e24d" x="255.845938" y="175.9905" style="stroke: #000000; stroke-width: 0.8"/>
      </g>
     </g>
     <g id="text_4">
      <!-- 6 -->
      <g transform="translate(252.664688 190.588938) scale(0.1 -0.1)">
       <defs>
        <path id="DejaVuSans-36" d="M 2113 2584 
Q 1688 2584 1439 2293 
Q 1191 2003 1191 1497 
Q 1191 994 1439 701 
Q 1688 409 2113 409 
Q 2538 409 2786 701 
Q 3034 994 3034 1497 
Q 3034 2003 2786 2293 
Q 2538 2584 2113 2584 
z
M 3366 4563 
L 3366 3988 
Q 3128 4100 2886 4159 
Q 2644 4219 2406 4219 
Q 1781 4219 1451 3797 
Q 1122 3375 1075 2522 
Q 1259 2794 1537 2939 
Q 1816 3084 2150 3084 
Q 2853 3084 3261 2657 
Q 3669 2231 3669 1497 
Q 3669 778 3244 343 
Q 2819 -91 2113 -91 
Q 1303 -91 875 529 
Q 447 1150 447 2328 
Q 447 3434 972 4092 
Q 1497 4750 2381 4750 
Q 2619 4750 2861 4703 
Q 3103 4656 3366 4563 
z
" transform="scale(0.015625)"/>
       </defs>
       <use xlink:href="#DejaVuSans-36"/>
      </g>
     </g>
    </g>
    <g id="xtick_5">
     <g id="line2d_9">
      <path d="M 318.130938 175.9905 
L 318.130938 51.4205 
" clip-path="url(#p577bd058eb)" style="fill: none; stroke: #b0b0b0; stroke-opacity: 0.3; stroke-width: 0.8; stroke-linecap: square"/>
     </g>
     <g id="line2d_10">
      <g>
       <use xlink:href="#m22cc74e24d" x="318.130938" y="175.9905" style="stroke: #000000; stroke-width: 0.8"/>
      </g>
     </g>
     <g id="text_5">
      <!-- 8 -->
      <g transform="translate(314.949688 190.588938) scale(0.1 -0.1)">
       <defs>
        <path id="DejaVuSans-38" d="M 2034 2216 
Q 1584 2216 1326 1975 
Q 1069 1734 1069 1313 
Q 1069 891 1326 650 
Q 1584 409 2034 409 
Q 2484 409 2743 651 
Q 3003 894 3003 1313 
Q 3003 1734 2745 1975 
Q 2488 2216 2034 2216 
z
M 1403 2484 
Q 997 2584 770 2862 
Q 544 3141 544 3541 
Q 544 4100 942 4425 
Q 1341 4750 2034 4750 
Q 2731 4750 3128 4425 
Q 3525 4100 3525 3541 
Q 3525 3141 3298 2862 
Q 3072 2584 2669 2484 
Q 3125 2378 3379 2068 
Q 3634 1759 3634 1313 
Q 3634 634 3220 271 
Q 2806 -91 2034 -91 
Q 1263 -91 848 271 
Q 434 634 434 1313 
Q 434 1759 690 2068 
Q 947 2378 1403 2484 
z
M 1172 3481 
Q 1172 3119 1398 2916 
Q 1625 2713 2034 2713 
Q 2441 2713 2670 2916 
Q 2900 3119 2900 3481 
Q 2900 3844 2670 4047 
Q 2441 4250 2034 4250 
Q 1625 4250 1398 4047 
Q 1172 3844 1172 3481 
z
" transform="scale(0.015625)"/>
       </defs>
       <use xlink:href="#DejaVuSans-38"/>
      </g>
     </g>
    </g>
    <g id="text_6">
     <!-- Position x -->
     <g transform="translate(169.548438 204.267063) scale(0.1 -0.1)">
      <defs>
       <path id="DejaVuSans-50" d="M 1259 4147 
L 1259 2394 
L 2053 2394 
Q 2494 2394 2734 2622 
Q 2975 2850 2975 3272 
Q 2975 3691 2734 3919 
Q 2494 4147 2053 4147 
L 1259 4147 
z
M 628 4666 
L 2053 4666 
Q 2838 4666 3239 4311 
Q 3641 3956 3641 3272 
Q 3641 2581 3239 2228 
Q 2838 1875 2053 1875 
L 1259 1875 
L 1259 0 
L 628 0 
L 628 4666 
z
" transform="scale(0.015625)"/>
       <path id="DejaVuSans-6f" d="M 1959 3097 
Q 1497 3097 1228 2736 
Q 959 2375 959 1747 
Q 959 1119 1226 758 
Q 1494 397 1959 397 
Q 2419 397 2687 759 
Q 2956 1122 2956 1747 
Q 2956 2369 2687 2733 
Q 2419 3097 1959 3097 
z
M 1959 3584 
Q 2709 3584 3137 3096 
Q 3566 2609 3566 1747 
Q 3566 888 3137 398 
Q 2709 -91 1959 -91 
Q 1206 -91 779 398 
Q 353 888 353 1747 
Q 353 2609 779 3096 
Q 1206 3584 1959 3584 
z
" transform="scale(0.015625)"/>
       <path id="DejaVuSans-73" d="M 2834 3397 
L 2834 2853 
Q 2591 2978 2328 3040 
Q 2066 3103 1784 3103 
Q 1356 3103 1142 2972 
Q 928 2841 928 2578 
Q 928 2378 1081 2264 
Q 1234 2150 1697 2047 
L 1894 2003 
Q 2506 1872 2764 1633 
Q 3022 1394 3022 966 
Q 3022 478 2636 193 
Q 2250 -91 1575 -91 
Q 1294 -91 989 -36 
Q 684 19 347 128 
L 347 722 
Q 666 556 975 473 
Q 1284 391 1588 391 
Q 1994 391 2212 530 
Q 2431 669 2431 922 
Q 2431 1156 2273 1281 
Q 2116 1406 1581 1522 
L 1381 1569 
Q 847 1681 609 1914 
Q 372 2147 372 2553 
Q 372 3047 722 3315 
Q 1072 3584 1716 3584 
Q 2034 3584 2315 3537 
Q 2597 3491 2834 3397 
z
" transform="scale(0.015625)"/>
       <path id="DejaVuSans-69" d="M 603 3500 
L 1178 3500 
L 1178 0 
L 603 0 
L 603 3500 
z
M 603 4863 
L 1178 4863 
L 1178 4134 
L 603 4134 
L 603 4863 
z
" transform="scale(0.015625)"/>
       <path id="DejaVuSans-74" d="M 1172 4494 
L 1172 3500 
L 2356 3500 
L 2356 3053 
L 1172 3053 
L 1172 1153 
Q 1172 725 1289 603 
Q 1406 481 1766 481 
L 2356 481 
L 2356 0 
L 1766 0 
Q 1100 0 847 248 
Q 594 497 594 1153 
L 594 3053 
L 172 3053 
L 172 3500 
L 594 3500 
L 594 4494 
L 1172 4494 
z
" transform="scale(0.015625)"/>
       <path id="DejaVuSans-6e" d="M 3513 2113 
L 3513 0 
L 2938 0 
L 2938 2094 
Q 2938 2591 2744 2837 
Q 2550 3084 2163 3084 
Q 1697 3084 1428 2787 
Q 1159 2491 1159 1978 
L 1159 0 
L 581 0 
L 581 3500 
L 1159 3500 
L 1159 2956 
Q 1366 3272 1645 3428 
Q 1925 3584 2291 3584 
Q 2894 3584 3203 3211 
Q 3513 2838 3513 2113 
z
" transform="scale(0.015625)"/>
       <path id="DejaVuSans-20" transform="scale(0.015625)"/>
       <path id="DejaVuSans-78" d="M 3513 3500 
L 2247 1797 
L 3578 0 
L 2900 0 
L 1881 1375 
L 863 0 
L 184 0 
L 1544 1831 
L 300 3500 
L 978 3500 
L 1906 2253 
L 2834 3500 
L 3513 3500 
z
" transform="scale(0.015625)"/>
      </defs>
      <use xlink:href="#DejaVuSans-50"/>
      <use xlink:href="#DejaVuSans-6f" transform="translate(56.677734 0)"/>
      <use xlink:href="#DejaVuSans-73" transform="translate(117.859375 0)"/>
      <use xlink:href="#DejaVuSans-69" transform="translate(169.958984 0)"/>
      <use xlink:href="#DejaVuSans-74" transform="translate(197.742188 0)"/>
      <use xlink:href="#DejaVuSans-69" transform="translate(236.951172 0)"/>
      <use xlink:href="#DejaVuSans-6f" transform="translate(264.734375 0)"/>
      <use xlink:href="#DejaVuSans-6e" transform="translate(325.916016 0)"/>
      <use xlink:href="#DejaVuSans-20" transform="translate(389.294922 0)"/>
      <use xlink:href="#DejaVuSans-78" transform="translate(421.082031 0)"/>
     </g>
    </g>
   </g>
   <g id="matplotlib.axis_2">
    <g id="ytick_1">
     <g id="line2d_11">
      <path d="M 37.848438 175.9905 
L 349.273438 175.9905 
" clip-path="url(#p577bd058eb)" style="fill: none; stroke: #b0b0b0; stroke-opacity: 0.3; stroke-width: 0.8; stroke-linecap: square"/>
     </g>
     <g id="line2d_12">
      <defs>
       <path id="ma1bef280a1" d="M 0 0 
L -3.5 0 
" style="stroke: #000000; stroke-width: 0.8"/>
      </defs>
      <g>
       <use xlink:href="#ma1bef280a1" x="37.848438" y="175.9905" style="stroke: #000000; stroke-width: 0.8"/>
      </g>
     </g>
     <g id="text_7">
      <!-- -2 -->
      <g transform="translate(20.878125 179.789719) scale(0.1 -0.1)">
       <defs>
        <path id="DejaVuSans-2d" d="M 313 2009 
L 1997 2009 
L 1997 1497 
L 313 1497 
L 313 2009 
z
" transform="scale(0.015625)"/>
       </defs>
       <use xlink:href="#DejaVuSans-2d"/>
       <use xlink:href="#DejaVuSans-32" transform="translate(36.083984 0)"/>
      </g>
     </g>
    </g>
    <g id="ytick_2">
     <g id="line2d_13">
      <path d="M 37.848438 144.848 
L 349.273438 144.848 
" clip-path="url(#p577bd058eb)" style="fill: none; stroke: #b0b0b0; stroke-opacity: 0.3; stroke-width: 0.8; stroke-linecap: square"/>
     </g>
     <g id="line2d_14">
      <g>
       <use xlink:href="#ma1bef280a1" x="37.848438" y="144.848" style="stroke: #000000; stroke-width: 0.8"/>
      </g>
     </g>
     <g id="text_8">
      <!-- -1 -->
      <g transform="translate(20.878125 148.647219) scale(0.1 -0.1)">
       <defs>
        <path id="DejaVuSans-31" d="M 794 531 
L 1825 531 
L 1825 4091 
L 703 3866 
L 703 4441 
L 1819 4666 
L 2450 4666 
L 2450 531 
L 3481 531 
L 3481 0 
L 794 0 
L 794 531 
z
" transform="scale(0.015625)"/>
       </defs>
       <use xlink:href="#DejaVuSans-2d"/>
       <use xlink:href="#DejaVuSans-31" transform="translate(36.083984 0)"/>
      </g>
     </g>
    </g>
    <g id="ytick_3">
     <g id="line2d_15">
      <path d="M 37.848438 113.7055 
L 349.273438 113.7055 
" clip-path="url(#p577bd058eb)" style="fill: none; stroke: #b0b0b0; stroke-opacity: 0.3; stroke-width: 0.8; stroke-linecap: square"/>
     </g>
     <g id="line2d_16">
      <g>
       <use xlink:href="#ma1bef280a1" x="37.848438" y="113.7055" style="stroke: #000000; stroke-width: 0.8"/>
      </g>
     </g>
     <g id="text_9">
      <!-- 0 -->
      <g transform="translate(24.485938 117.504719) scale(0.1 -0.1)">
       <use xlink:href="#DejaVuSans-30"/>
      </g>
     </g>
    </g>
    <g id="ytick_4">
     <g id="line2d_17">
      <path d="M 37.848438 82.563 
L 349.273438 82.563 
" clip-path="url(#p577bd058eb)" style="fill: none; stroke: #b0b0b0; stroke-opacity: 0.3; stroke-width: 0.8; stroke-linecap: square"/>
     </g>
     <g id="line2d_18">
      <g>
       <use xlink:href="#ma1bef280a1" x="37.848438" y="82.563" style="stroke: #000000; stroke-width: 0.8"/>
      </g>
     </g>
     <g id="text_10">
      <!-- 1 -->
      <g transform="translate(24.485938 86.362219) scale(0.1 -0.1)">
       <use xlink:href="#DejaVuSans-31"/>
      </g>
     </g>
    </g>
    <g id="ytick_5">
     <g id="line2d_19">
      <path d="M 37.848438 51.4205 
L 349.273438 51.4205 
" clip-path="url(#p577bd058eb)" style="fill: none; stroke: #b0b0b0; stroke-opacity: 0.3; stroke-width: 0.8; stroke-linecap: square"/>
     </g>
     <g id="line2d_20">
      <g>
       <use xlink:href="#ma1bef280a1" x="37.848438" y="51.4205" style="stroke: #000000; stroke-width: 0.8"/>
      </g>
     </g>
     <g id="text_11">
      <!-- 2 -->
      <g transform="translate(24.485938 55.219719) scale(0.1 -0.1)">
       <use xlink:href="#DejaVuSans-32"/>
      </g>
     </g>
    </g>
    <g id="text_12">
     <!-- Amplitude ψ(x) -->
     <g transform="translate(14.798438 151.076594) rotate(-90) scale(0.1 -0.1)">
      <defs>
       <path id="DejaVuSans-41" d="M 2188 4044 
L 1331 1722 
L 3047 1722 
L 2188 4044 
z
M 1831 4666 
L 2547 4666 
L 4325 0 
L 3669 0 
L 3244 1197 
L 1141 1197 
L 716 0 
L 50 0 
L 1831 4666 
z
" transform="scale(0.015625)"/>
       <path id="DejaVuSans-6d" d="M 3328 2828 
Q 3544 3216 3844 3400 
Q 4144 3584 4550 3584 
Q 5097 3584 5394 3201 
Q 5691 2819 5691 2113 
L 5691 0 
L 5113 0 
L 5113 2094 
Q 5113 2597 4934 2840 
Q 4756 3084 4391 3084 
Q 3944 3084 3684 2787 
Q 3425 2491 3425 1978 
L 3425 0 
L 2847 0 
L 2847 2094 
Q 2847 2600 2669 2842 
Q 2491 3084 2119 3084 
Q 1678 3084 1418 2786 
Q 1159 2488 1159 1978 
L 1159 0 
L 581 0 
L 581 3500 
L 1159 3500 
L 1159 2956 
Q 1356 3278 1631 3431 
Q 1906 3584 2284 3584 
Q 2666 3584 2933 3390 
Q 3200 3197 3328 2828 
z
" transform="scale(0.015625)"/>
       <path id="DejaVuSans-70" d="M 1159 525 
L 1159 -1331 
L 581 -1331 
L 581 3500 
L 1159 3500 
L 1159 2969 
Q 1341 3281 1617 3432 
Q 1894 3584 2278 3584 
Q 2916 3584 3314 3078 
Q 3713 2572 3713 1747 
Q 3713 922 3314 415 
Q 2916 -91 2278 -91 
Q 1894 -91 1617 61 
Q 1341 213 1159 525 
z
M 3116 1747 
Q 3116 2381 2855 2742 
Q 2594 3103 2138 3103 
Q 1681 3103 1420 2742 
Q 1159 2381 1159 1747 
Q 1159 1113 1420 752 
Q 1681 391 2138 391 
Q 2594 391 2855 752 
Q 3116 1113 3116 1747 
z
" transform="scale(0.015625)"/>
       <path id="DejaVuSans-6c" d="M 603 4863 
L 1178 4863 
L 1178 0 
L 603 0 
L 603 4863 
z
" transform="scale(0.015625)"/>
       <path id="DejaVuSans-75" d="M 544 1381 
L 544 3500 
L 1119 3500 
L 1119 1403 
Q 1119 906 1312 657 
Q 1506 409 1894 409 
Q 2359 409 2629 706 
Q 2900 1003 2900 1516 
L 2900 3500 
L 3475 3500 
L 3475 0 
L 2900 0 
L 2900 538 
Q 2691 219 2414 64 
Q 2138 -91 1772 -91 
Q 1169 -91 856 284 
Q 544 659 544 1381 
z
M 1991 3584 
L 1991 3584 
z
" transform="scale(0.015625)"/>
       <path id="DejaVuSans-64" d="M 2906 2969 
L 2906 4863 
L 3481 4863 
L 3481 0 
L 2906 0 
L 2906 525 
Q 2725 213 2448 61 
Q 2172 -91 1784 -91 
Q 1150 -91 751 415 
Q 353 922 353 1747 
Q 353 2572 751 3078 
Q 1150 3584 1784 3584 
Q 2172 3584 2448 3432 
Q 2725 3281 2906 2969 
z
M 947 1747 
Q 947 1113 1208 752 
Q 1469 391 1925 391 
Q 2381 391 2643 752 
Q 2906 1113 2906 1747 
Q 2906 2381 2643 2742 
Q 2381 3103 1925 3103 
Q 1469 3103 1208 2742 
Q 947 2381 947 1747 
z
" transform="scale(0.015625)"/>
       <path id="DejaVuSans-65" d="M 3597 1894 
L 3597 1613 
L 953 1613 
Q 991 1019 1311 708 
Q 1631 397 2203 397 
Q 2534 397 2845 478 
Q 3156 559 3463 722 
L 3463 178 
Q 3153 47 2828 -22 
Q 2503 -91 2169 -91 
Q 1331 -91 842 396 
Q 353 884 353 1716 
Q 353 2575 817 3079 
Q 1281 3584 2069 3584 
Q 2775 3584 3186 3129 
Q 3597 2675 3597 1894 
z
M 3022 2063 
Q 3016 2534 2758 2815 
Q 2500 3097 2075 3097 
Q 1594 3097 1305 2825 
Q 1016 2553 972 2059 
L 3022 2063 
z
" transform="scale(0.015625)"/>
       <path id="DejaVuSans-3c8" d="M 1816 -78 
Q 1094 38 759 341 
Q 350 713 350 1472 
L 350 3500 
L 931 3500 
L 931 1494 
Q 931 922 1197 684 
Q 1428 478 1816 434 
L 1816 3500 
L 2388 3500 
L 2388 438 
Q 2797 481 3006 688 
Q 3272 950 3272 1497 
L 3272 3500 
L 3853 3500 
L 3853 1475 
Q 3853 688 3444 344 
Q 3075 34 2388 -75 
L 2388 -1331 
L 1816 -1331 
L 1816 -78 
z
" transform="scale(0.015625)"/>
       <path id="DejaVuSans-28" d="M 1984 4856 
Q 1566 4138 1362 3434 
Q 1159 2731 1159 2009 
Q 1159 1288 1364 580 
Q 1569 -128 1984 -844 
L 1484 -844 
Q 1016 -109 783 600 
Q 550 1309 550 2009 
Q 550 2706 781 3412 
Q 1013 4119 1484 4856 
L 1984 4856 
z
" transform="scale(0.015625)"/>
       <path id="DejaVuSans-29" d="M 513 4856 
L 1013 4856 
Q 1481 4119 1714 3412 
Q 1947 2706 1947 2009 
Q 1947 1309 1714 600 
Q 1481 -109 1013 -844 
L 513 -844 
Q 928 -128 1133 580 
Q 1338 1288 1338 2009 
Q 1338 2731 1133 3434 
Q 928 4138 513 4856 
z
" transform="scale(0.015625)"/>
      </defs>
      <use xlink:href="#DejaVuSans-41"/>
      <use xlink:href="#DejaVuSans-6d" transform="translate(68.408203 0)"/>
      <use xlink:href="#DejaVuSans-70" transform="translate(165.820312 0)"/>
      <use xlink:href="#DejaVuSans-6c" transform="translate(229.296875 0)"/>
      <use xlink:href="#DejaVuSans-69" transform="translate(257.080078 0)"/>
      <use xlink:href="#DejaVuSans-74" transform="translate(284.863281 0)"/>
      <use xlink:href="#DejaVuSans-75" transform="translate(324.072266 0)"/>
      <use xlink:href="#DejaVuSans-64" transform="translate(387.451172 0)"/>
      <use xlink:href="#DejaVuSans-65" transform="translate(450.927734 0)"/>
      <use xlink:href="#DejaVuSans-20" transform="translate(512.451172 0)"/>
      <use xlink:href="#DejaVuSans-3c8" transform="translate(544.238281 0)"/>
      <use xlink:href="#DejaVuSans-28" transform="translate(610.205078 0)"/>
      <use xlink:href="#DejaVuSans-78" transform="translate(649.21875 0)"/>
      <use xlink:href="#DejaVuSans-29" transform="translate(708.398438 0)"/>
     </g>
    </g>
   </g>
   <g id="line2d_21">
    <path d="M 68.990938 113.7055 
L 78.156623 104.671566 
L 83.156088 100.023755 
L 87.322309 96.414527 
L 91.488529 93.114293 
L 94.821506 90.736426 
L 98.154483 88.621395 
L 101.487459 86.793404 
L 104.820436 85.273371 
L 107.320168 84.346044 
L 109.819901 83.607776 
L 112.319633 83.063319 
L 114.819366 82.716181 
L 117.319098 82.568596 
L 119.81883 82.621514 
L 122.318563 82.874595 
L 124.818295 83.32621 
L 127.318028 83.97345 
L 129.81776 84.812147 
L 132.317493 85.8369 
L 135.650469 87.481086 
L 138.983446 89.425361 
L 142.316422 91.647475 
L 145.649399 94.122001 
L 149.81562 97.526725 
L 153.981841 101.220568 
L 158.981305 105.941579 
L 167.313747 114.19124 
L 176.479432 123.203189 
L 181.478897 127.821934 
L 185.645118 131.398361 
L 189.811339 134.658612 
L 193.144315 136.999798 
L 196.477292 139.074426 
L 199.810269 140.858755 
L 203.143245 142.332367 
L 205.642978 143.223385 
L 208.14271 143.924324 
L 210.642443 144.430672 
L 213.142175 144.739168 
L 215.641907 144.847824 
L 218.14164 144.755942 
L 220.641372 144.464113 
L 223.141105 143.974217 
L 225.640837 143.289407 
L 228.14057 142.414094 
L 230.640302 141.353914 
L 233.973279 139.664737 
L 237.306255 137.678505 
L 240.639232 135.417949 
L 243.972208 132.908935 
L 248.138429 129.467258 
L 252.30465 125.743915 
L 258.137359 120.185483 
L 269.802777 108.591033 
L 276.46873 102.182398 
L 281.468195 97.70585 
L 285.634416 94.285109 
L 288.967392 91.795655 
L 292.300369 89.556918 
L 295.633346 87.594515 
L 298.966322 85.930902 
L 301.466055 84.89086 
L 303.965787 84.036367 
L 306.465519 83.372927 
L 308.965252 82.904811 
L 311.464984 82.635034 
L 313.964717 82.565332 
L 316.464449 82.696156 
L 318.130938 82.894411 
L 318.130938 82.894411 
" clip-path="url(#p577bd058eb)" style="fill: none; stroke: #0000ff; stroke-width: 3; stroke-linecap: square"/>
   </g>
   <g id="patch_4">
    <path d="M 37.848438 175.9905 
L 37.848438 51.4205 
" style="fill: none; stroke: #000000; stroke-width: 0.8; stroke-linejoin: miter; stroke-linecap: square"/>
   </g>
   <g id="patch_5">
    <path d="M 349.273438 175.9905 
L 349.273438 51.4205 
" style="fill: none; stroke: #000000; stroke-width: 0.8; stroke-linejoin: miter; stroke-linecap: square"/>
   </g>
   <g id="patch_6">
    <path d="M 37.848438 175.9905 
L 349.273438 175.9905 
" style="fill: none; stroke: #000000; stroke-width: 0.8; stroke-linejoin: miter; stroke-linecap: square"/>
   </g>
   <g id="patch_7">
    <path d="M 37.848438 51.4205 
L 349.273438 51.4205 
" style="fill: none; stroke: #000000; stroke-width: 0.8; stroke-linejoin: miter; stroke-linecap: square"/>
   </g>
   <g id="text_13">
    <!-- a) Freie ebene Welle -->
    <g transform="translate(124.20375 45.4205) scale(0.12 -0.12)">
     <defs>
      <path id="DejaVuSans-Bold-61" d="M 2106 1575 
Q 1756 1575 1579 1456 
Q 1403 1338 1403 1106 
Q 1403 894 1545 773 
Q 1688 653 1941 653 
Q 2256 653 2472 879 
Q 2688 1106 2688 1447 
L 2688 1575 
L 2106 1575 
z
M 3816 1997 
L 3816 0 
L 2688 0 
L 2688 519 
Q 2463 200 2181 54 
Q 1900 -91 1497 -91 
Q 953 -91 614 226 
Q 275 544 275 1050 
Q 275 1666 698 1953 
Q 1122 2241 2028 2241 
L 2688 2241 
L 2688 2328 
Q 2688 2594 2478 2717 
Q 2269 2841 1825 2841 
Q 1466 2841 1156 2769 
Q 847 2697 581 2553 
L 581 3406 
Q 941 3494 1303 3539 
Q 1666 3584 2028 3584 
Q 2975 3584 3395 3211 
Q 3816 2838 3816 1997 
z
" transform="scale(0.015625)"/>
      <path id="DejaVuSans-Bold-29" d="M 513 -844 
Q 913 -100 1113 609 
Q 1313 1319 1313 2009 
Q 1313 2700 1113 3408 
Q 913 4116 513 4856 
L 1441 4856 
Q 1916 4091 2145 3389 
Q 2375 2688 2375 2003 
Q 2375 1319 2147 623 
Q 1919 -72 1441 -844 
L 513 -844 
z
" transform="scale(0.015625)"/>
      <path id="DejaVuSans-Bold-20" transform="scale(0.015625)"/>
      <path id="DejaVuSans-Bold-46" d="M 588 4666 
L 3834 4666 
L 3834 3756 
L 1791 3756 
L 1791 2888 
L 3713 2888 
L 3713 1978 
L 1791 1978 
L 1791 0 
L 588 0 
L 588 4666 
z
" transform="scale(0.015625)"/>
      <path id="DejaVuSans-Bold-72" d="M 3138 2547 
Q 2991 2616 2845 2648 
Q 2700 2681 2553 2681 
Q 2122 2681 1889 2404 
Q 1656 2128 1656 1613 
L 1656 0 
L 538 0 
L 538 3500 
L 1656 3500 
L 1656 2925 
Q 1872 3269 2151 3426 
Q 2431 3584 2822 3584 
Q 2878 3584 2943 3579 
Q 3009 3575 3134 3559 
L 3138 2547 
z
" transform="scale(0.015625)"/>
      <path id="DejaVuSans-Bold-65" d="M 4031 1759 
L 4031 1441 
L 1416 1441 
Q 1456 1047 1700 850 
Q 1944 653 2381 653 
Q 2734 653 3104 758 
Q 3475 863 3866 1075 
L 3866 213 
Q 3469 63 3072 -14 
Q 2675 -91 2278 -91 
Q 1328 -91 801 392 
Q 275 875 275 1747 
Q 275 2603 792 3093 
Q 1309 3584 2216 3584 
Q 3041 3584 3536 3087 
Q 4031 2591 4031 1759 
z
M 2881 2131 
Q 2881 2450 2695 2645 
Q 2509 2841 2209 2841 
Q 1884 2841 1681 2658 
Q 1478 2475 1428 2131 
L 2881 2131 
z
" transform="scale(0.015625)"/>
      <path id="DejaVuSans-Bold-69" d="M 538 3500 
L 1656 3500 
L 1656 0 
L 538 0 
L 538 3500 
z
M 538 4863 
L 1656 4863 
L 1656 3950 
L 538 3950 
L 538 4863 
z
" transform="scale(0.015625)"/>
      <path id="DejaVuSans-Bold-62" d="M 2400 722 
Q 2759 722 2948 984 
Q 3138 1247 3138 1747 
Q 3138 2247 2948 2509 
Q 2759 2772 2400 2772 
Q 2041 2772 1848 2508 
Q 1656 2244 1656 1747 
Q 1656 1250 1848 986 
Q 2041 722 2400 722 
z
M 1656 2988 
Q 1888 3294 2169 3439 
Q 2450 3584 2816 3584 
Q 3463 3584 3878 3070 
Q 4294 2556 4294 1747 
Q 4294 938 3878 423 
Q 3463 -91 2816 -91 
Q 2450 -91 2169 54 
Q 1888 200 1656 506 
L 1656 0 
L 538 0 
L 538 4863 
L 1656 4863 
L 1656 2988 
z
" transform="scale(0.015625)"/>
      <path id="DejaVuSans-Bold-6e" d="M 4056 2131 
L 4056 0 
L 2931 0 
L 2931 347 
L 2931 1631 
Q 2931 2084 2911 2256 
Q 2891 2428 2841 2509 
Q 2775 2619 2662 2680 
Q 2550 2741 2406 2741 
Q 2056 2741 1856 2470 
Q 1656 2200 1656 1722 
L 1656 0 
L 538 0 
L 538 3500 
L 1656 3500 
L 1656 2988 
Q 1909 3294 2193 3439 
Q 2478 3584 2822 3584 
Q 3428 3584 3742 3212 
Q 4056 2841 4056 2131 
z
" transform="scale(0.015625)"/>
      <path id="DejaVuSans-Bold-57" d="M 191 4666 
L 1344 4666 
L 2150 1275 
L 2950 4666 
L 4109 4666 
L 4909 1275 
L 5716 4666 
L 6859 4666 
L 5759 0 
L 4372 0 
L 3525 3547 
L 2688 0 
L 1300 0 
L 191 4666 
z
" transform="scale(0.015625)"/>
      <path id="DejaVuSans-Bold-6c" d="M 538 4863 
L 1656 4863 
L 1656 0 
L 538 0 
L 538 4863 
z
" transform="scale(0.015625)"/>
     </defs>
     <use xlink:href="#DejaVuSans-Bold-61"/>
     <use xlink:href="#DejaVuSans-Bold-29" transform="translate(67.480469 0)"/>
     <use xlink:href="#DejaVuSans-Bold-20" transform="translate(113.183594 0)"/>
     <use xlink:href="#DejaVuSans-Bold-46" transform="translate(147.998047 0)"/>
     <use xlink:href="#DejaVuSans-Bold-72" transform="translate(209.933594 0)"/>
     <use xlink:href="#DejaVuSans-Bold-65" transform="translate(259.25 0)"/>
     <use xlink:href="#DejaVuSans-Bold-69" transform="translate(327.072266 0)"/>
     <use xlink:href="#DejaVuSans-Bold-65" transform="translate(361.349609 0)"/>
     <use xlink:href="#DejaVuSans-Bold-20" transform="translate(429.171875 0)"/>
     <use xlink:href="#DejaVuSans-Bold-65" transform="translate(463.986328 0)"/>
     <use xlink:href="#DejaVuSans-Bold-62" transform="translate(531.808594 0)"/>
     <use xlink:href="#DejaVuSans-Bold-65" transform="translate(603.390625 0)"/>
     <use xlink:href="#DejaVuSans-Bold-6e" transform="translate(671.212891 0)"/>
     <use xlink:href="#DejaVuSans-Bold-65" transform="translate(742.404297 0)"/>
     <use xlink:href="#DejaVuSans-Bold-20" transform="translate(810.226562 0)"/>
     <use xlink:href="#DejaVuSans-Bold-57" transform="translate(845.041016 0)"/>
     <use xlink:href="#DejaVuSans-Bold-65" transform="translate(951.71875 0)"/>
     <use xlink:href="#DejaVuSans-Bold-6c" transform="translate(1019.541016 0)"/>
     <use xlink:href="#DejaVuSans-Bold-6c" transform="translate(1053.818359 0)"/>
     <use xlink:href="#DejaVuSans-Bold-65" transform="translate(1088.095703 0)"/>
    </g>
   </g>
  </g>
  <g id="axes_2">
   <g id="patch_8">
    <path d="M 394.248438 191.56175 
L 705.673437 191.56175 
L 705.673437 35.84925 
L 394.248438 35.84925 
z
" style="fill: #ffffff"/>
   </g>
   <g id="matplotlib.axis_3">
    <g id="xtick_6">
     <g id="line2d_22">
      <path d="M 394.248438 191.56175 
L 394.248438 35.84925 
" clip-path="url(#pa4c4479671)" style="fill: none; stroke: #b0b0b0; stroke-opacity: 0.3; stroke-width: 0.8; stroke-linecap: square"/>
     </g>
     <g id="line2d_23">
      <g>
       <use xlink:href="#m22cc74e24d" x="394.248438" y="191.56175" style="stroke: #000000; stroke-width: 0.8"/>
      </g>
     </g>
     <g id="text_14">
      <!-- 0 -->
      <g transform="translate(391.067188 206.160188) scale(0.1 -0.1)">
       <use xlink:href="#DejaVuSans-30"/>
      </g>
     </g>
    </g>
    <g id="xtick_7">
     <g id="line2d_24">
      <path d="M 433.176563 191.56175 
L 433.176563 35.84925 
" clip-path="url(#pa4c4479671)" style="fill: none; stroke: #b0b0b0; stroke-opacity: 0.3; stroke-width: 0.8; stroke-linecap: square"/>
     </g>
     <g id="line2d_25">
      <g>
       <use xlink:href="#m22cc74e24d" x="433.176563" y="191.56175" style="stroke: #000000; stroke-width: 0.8"/>
      </g>
     </g>
     <g id="text_15">
      <!-- 1 -->
      <g transform="translate(429.995313 206.160188) scale(0.1 -0.1)">
       <use xlink:href="#DejaVuSans-31"/>
      </g>
     </g>
    </g>
    <g id="xtick_8">
     <g id="line2d_26">
      <path d="M 472.104688 191.56175 
L 472.104688 35.84925 
" clip-path="url(#pa4c4479671)" style="fill: none; stroke: #b0b0b0; stroke-opacity: 0.3; stroke-width: 0.8; stroke-linecap: square"/>
     </g>
     <g id="line2d_27">
      <g>
       <use xlink:href="#m22cc74e24d" x="472.104688" y="191.56175" style="stroke: #000000; stroke-width: 0.8"/>
      </g>
     </g>
     <g id="text_16">
      <!-- 2 -->
      <g transform="translate(468.923438 206.160188) scale(0.1 -0.1)">
       <use xlink:href="#DejaVuSans-32"/>
      </g>
     </g>
    </g>
    <g id="xtick_9">
     <g id="line2d_28">
      <path d="M 511.032813 191.56175 
L 511.032813 35.84925 
" clip-path="url(#pa4c4479671)" style="fill: none; stroke: #b0b0b0; stroke-opacity: 0.3; stroke-width: 0.8; stroke-linecap: square"/>
     </g>
     <g id="line2d_29">
      <g>
       <use xlink:href="#m22cc74e24d" x="511.032813" y="191.56175" style="stroke: #000000; stroke-width: 0.8"/>
      </g>
     </g>
     <g id="text_17">
      <!-- 3 -->
      <g transform="translate(507.851563 206.160188) scale(0.1 -0.1)">
       <defs>
        <path id="DejaVuSans-33" d="M 2597 2516 
Q 3050 2419 3304 2112 
Q 3559 1806 3559 1356 
Q 3559 666 3084 287 
Q 2609 -91 1734 -91 
Q 1441 -91 1130 -33 
Q 819 25 488 141 
L 488 750 
Q 750 597 1062 519 
Q 1375 441 1716 441 
Q 2309 441 2620 675 
Q 2931 909 2931 1356 
Q 2931 1769 2642 2001 
Q 2353 2234 1838 2234 
L 1294 2234 
L 1294 2753 
L 1863 2753 
Q 2328 2753 2575 2939 
Q 2822 3125 2822 3475 
Q 2822 3834 2567 4026 
Q 2313 4219 1838 4219 
Q 1578 4219 1281 4162 
Q 984 4106 628 3988 
L 628 4550 
Q 988 4650 1302 4700 
Q 1616 4750 1894 4750 
Q 2613 4750 3031 4423 
Q 3450 4097 3450 3541 
Q 3450 3153 3228 2886 
Q 3006 2619 2597 2516 
z
" transform="scale(0.015625)"/>
       </defs>
       <use xlink:href="#DejaVuSans-33"/>
      </g>
     </g>
    </g>
    <g id="xtick_10">
     <g id="line2d_30">
      <path d="M 549.960938 191.56175 
L 549.960938 35.84925 
" clip-path="url(#pa4c4479671)" style="fill: none; stroke: #b0b0b0; stroke-opacity: 0.3; stroke-width: 0.8; stroke-linecap: square"/>
     </g>
     <g id="line2d_31">
      <g>
       <use xlink:href="#m22cc74e24d" x="549.960938" y="191.56175" style="stroke: #000000; stroke-width: 0.8"/>
      </g>
     </g>
     <g id="text_18">
      <!-- 4 -->
      <g transform="translate(546.779688 206.160188) scale(0.1 -0.1)">
       <use xlink:href="#DejaVuSans-34"/>
      </g>
     </g>
    </g>
    <g id="xtick_11">
     <g id="line2d_32">
      <path d="M 588.889063 191.56175 
L 588.889063 35.84925 
" clip-path="url(#pa4c4479671)" style="fill: none; stroke: #b0b0b0; stroke-opacity: 0.3; stroke-width: 0.8; stroke-linecap: square"/>
     </g>
     <g id="line2d_33">
      <g>
       <use xlink:href="#m22cc74e24d" x="588.889063" y="191.56175" style="stroke: #000000; stroke-width: 0.8"/>
      </g>
     </g>
     <g id="text_19">
      <!-- 5 -->
      <g transform="translate(585.707813 206.160188) scale(0.1 -0.1)">
       <defs>
        <path id="DejaVuSans-35" d="M 691 4666 
L 3169 4666 
L 3169 4134 
L 1269 4134 
L 1269 2991 
Q 1406 3038 1543 3061 
Q 1681 3084 1819 3084 
Q 2600 3084 3056 2656 
Q 3513 2228 3513 1497 
Q 3513 744 3044 326 
Q 2575 -91 1722 -91 
Q 1428 -91 1123 -41 
Q 819 9 494 109 
L 494 744 
Q 775 591 1075 516 
Q 1375 441 1709 441 
Q 2250 441 2565 725 
Q 2881 1009 2881 1497 
Q 2881 1984 2565 2268 
Q 2250 2553 1709 2553 
Q 1456 2553 1204 2497 
Q 953 2441 691 2322 
L 691 4666 
z
" transform="scale(0.015625)"/>
       </defs>
       <use xlink:href="#DejaVuSans-35"/>
      </g>
     </g>
    </g>
    <g id="xtick_12">
     <g id="line2d_34">
      <path d="M 627.817188 191.56175 
L 627.817188 35.84925 
" clip-path="url(#pa4c4479671)" style="fill: none; stroke: #b0b0b0; stroke-opacity: 0.3; stroke-width: 0.8; stroke-linecap: square"/>
     </g>
     <g id="line2d_35">
      <g>
       <use xlink:href="#m22cc74e24d" x="627.817188" y="191.56175" style="stroke: #000000; stroke-width: 0.8"/>
      </g>
     </g>
     <g id="text_20">
      <!-- 6 -->
      <g transform="translate(624.635938 206.160188) scale(0.1 -0.1)">
       <use xlink:href="#DejaVuSans-36"/>
      </g>
     </g>
    </g>
    <g id="xtick_13">
     <g id="line2d_36">
      <path d="M 666.745312 191.56175 
L 666.745312 35.84925 
" clip-path="url(#pa4c4479671)" style="fill: none; stroke: #b0b0b0; stroke-opacity: 0.3; stroke-width: 0.8; stroke-linecap: square"/>
     </g>
     <g id="line2d_37">
      <g>
       <use xlink:href="#m22cc74e24d" x="666.745312" y="191.56175" style="stroke: #000000; stroke-width: 0.8"/>
      </g>
     </g>
     <g id="text_21">
      <!-- 7 -->
      <g transform="translate(663.564062 206.160188) scale(0.1 -0.1)">
       <defs>
        <path id="DejaVuSans-37" d="M 525 4666 
L 3525 4666 
L 3525 4397 
L 1831 0 
L 1172 0 
L 2766 4134 
L 525 4134 
L 525 4666 
z
" transform="scale(0.015625)"/>
       </defs>
       <use xlink:href="#DejaVuSans-37"/>
      </g>
     </g>
    </g>
    <g id="xtick_14">
     <g id="line2d_38">
      <path d="M 705.673437 191.56175 
L 705.673437 35.84925 
" clip-path="url(#pa4c4479671)" style="fill: none; stroke: #b0b0b0; stroke-opacity: 0.3; stroke-width: 0.8; stroke-linecap: square"/>
     </g>
     <g id="line2d_39">
      <g>
       <use xlink:href="#m22cc74e24d" x="705.673437" y="191.56175" style="stroke: #000000; stroke-width: 0.8"/>
      </g>
     </g>
     <g id="text_22">
      <!-- 8 -->
      <g transform="translate(702.492188 206.160188) scale(0.1 -0.1)">
       <use xlink:href="#DejaVuSans-38"/>
      </g>
     </g>
    </g>
    <g id="text_23">
     <!-- X-Koordinate -->
     <g transform="translate(518.033594 219.838313) scale(0.1 -0.1)">
      <defs>
       <path id="DejaVuSans-58" d="M 403 4666 
L 1081 4666 
L 2241 2931 
L 3406 4666 
L 4084 4666 
L 2584 2425 
L 4184 0 
L 3506 0 
L 2194 1984 
L 872 0 
L 191 0 
L 1856 2491 
L 403 4666 
z
" transform="scale(0.015625)"/>
       <path id="DejaVuSans-4b" d="M 628 4666 
L 1259 4666 
L 1259 2694 
L 3353 4666 
L 4166 4666 
L 1850 2491 
L 4331 0 
L 3500 0 
L 1259 2247 
L 1259 0 
L 628 0 
L 628 4666 
z
" transform="scale(0.015625)"/>
       <path id="DejaVuSans-72" d="M 2631 2963 
Q 2534 3019 2420 3045 
Q 2306 3072 2169 3072 
Q 1681 3072 1420 2755 
Q 1159 2438 1159 1844 
L 1159 0 
L 581 0 
L 581 3500 
L 1159 3500 
L 1159 2956 
Q 1341 3275 1631 3429 
Q 1922 3584 2338 3584 
Q 2397 3584 2469 3576 
Q 2541 3569 2628 3553 
L 2631 2963 
z
" transform="scale(0.015625)"/>
       <path id="DejaVuSans-61" d="M 2194 1759 
Q 1497 1759 1228 1600 
Q 959 1441 959 1056 
Q 959 750 1161 570 
Q 1363 391 1709 391 
Q 2188 391 2477 730 
Q 2766 1069 2766 1631 
L 2766 1759 
L 2194 1759 
z
M 3341 1997 
L 3341 0 
L 2766 0 
L 2766 531 
Q 2569 213 2275 61 
Q 1981 -91 1556 -91 
Q 1019 -91 701 211 
Q 384 513 384 1019 
Q 384 1609 779 1909 
Q 1175 2209 1959 2209 
L 2766 2209 
L 2766 2266 
Q 2766 2663 2505 2880 
Q 2244 3097 1772 3097 
Q 1472 3097 1187 3025 
Q 903 2953 641 2809 
L 641 3341 
Q 956 3463 1253 3523 
Q 1550 3584 1831 3584 
Q 2591 3584 2966 3190 
Q 3341 2797 3341 1997 
z
" transform="scale(0.015625)"/>
      </defs>
      <use xlink:href="#DejaVuSans-58"/>
      <use xlink:href="#DejaVuSans-2d" transform="translate(63.505859 0)"/>
      <use xlink:href="#DejaVuSans-4b" transform="translate(99.589844 0)"/>
      <use xlink:href="#DejaVuSans-6f" transform="translate(160.166016 0)"/>
      <use xlink:href="#DejaVuSans-6f" transform="translate(221.347656 0)"/>
      <use xlink:href="#DejaVuSans-72" transform="translate(282.529297 0)"/>
      <use xlink:href="#DejaVuSans-64" transform="translate(321.892578 0)"/>
      <use xlink:href="#DejaVuSans-69" transform="translate(385.369141 0)"/>
      <use xlink:href="#DejaVuSans-6e" transform="translate(413.152344 0)"/>
      <use xlink:href="#DejaVuSans-61" transform="translate(476.53125 0)"/>
      <use xlink:href="#DejaVuSans-74" transform="translate(537.810547 0)"/>
      <use xlink:href="#DejaVuSans-65" transform="translate(577.019531 0)"/>
     </g>
    </g>
   </g>
   <g id="matplotlib.axis_4">
    <g id="ytick_6">
     <g id="line2d_40">
      <path d="M 394.248438 191.56175 
L 705.673437 191.56175 
" clip-path="url(#pa4c4479671)" style="fill: none; stroke: #b0b0b0; stroke-opacity: 0.3; stroke-width: 0.8; stroke-linecap: square"/>
     </g>
     <g id="line2d_41">
      <g>
       <use xlink:href="#ma1bef280a1" x="394.248438" y="191.56175" style="stroke: #000000; stroke-width: 0.8"/>
      </g>
     </g>
     <g id="text_24">
      <!-- -2 -->
      <g transform="translate(377.278125 195.360969) scale(0.1 -0.1)">
       <use xlink:href="#DejaVuSans-2d"/>
       <use xlink:href="#DejaVuSans-32" transform="translate(36.083984 0)"/>
      </g>
     </g>
    </g>
    <g id="ytick_7">
     <g id="line2d_42">
      <path d="M 394.248438 152.633625 
L 705.673437 152.633625 
" clip-path="url(#pa4c4479671)" style="fill: none; stroke: #b0b0b0; stroke-opacity: 0.3; stroke-width: 0.8; stroke-linecap: square"/>
     </g>
     <g id="line2d_43">
      <g>
       <use xlink:href="#ma1bef280a1" x="394.248438" y="152.633625" style="stroke: #000000; stroke-width: 0.8"/>
      </g>
     </g>
     <g id="text_25">
      <!-- -1 -->
      <g transform="translate(377.278125 156.432844) scale(0.1 -0.1)">
       <use xlink:href="#DejaVuSans-2d"/>
       <use xlink:href="#DejaVuSans-31" transform="translate(36.083984 0)"/>
      </g>
     </g>
    </g>
    <g id="ytick_8">
     <g id="line2d_44">
      <path d="M 394.248438 113.7055 
L 705.673437 113.7055 
" clip-path="url(#pa4c4479671)" style="fill: none; stroke: #b0b0b0; stroke-opacity: 0.3; stroke-width: 0.8; stroke-linecap: square"/>
     </g>
     <g id="line2d_45">
      <g>
       <use xlink:href="#ma1bef280a1" x="394.248438" y="113.7055" style="stroke: #000000; stroke-width: 0.8"/>
      </g>
     </g>
     <g id="text_26">
      <!-- 0 -->
      <g transform="translate(380.885938 117.504719) scale(0.1 -0.1)">
       <use xlink:href="#DejaVuSans-30"/>
      </g>
     </g>
    </g>
    <g id="ytick_9">
     <g id="line2d_46">
      <path d="M 394.248438 74.777375 
L 705.673437 74.777375 
" clip-path="url(#pa4c4479671)" style="fill: none; stroke: #b0b0b0; stroke-opacity: 0.3; stroke-width: 0.8; stroke-linecap: square"/>
     </g>
     <g id="line2d_47">
      <g>
       <use xlink:href="#ma1bef280a1" x="394.248438" y="74.777375" style="stroke: #000000; stroke-width: 0.8"/>
      </g>
     </g>
     <g id="text_27">
      <!-- 1 -->
      <g transform="translate(380.885938 78.576594) scale(0.1 -0.1)">
       <use xlink:href="#DejaVuSans-31"/>
      </g>
     </g>
    </g>
    <g id="ytick_10">
     <g id="line2d_48">
      <path d="M 394.248438 35.84925 
L 705.673437 35.84925 
" clip-path="url(#pa4c4479671)" style="fill: none; stroke: #b0b0b0; stroke-opacity: 0.3; stroke-width: 0.8; stroke-linecap: square"/>
     </g>
     <g id="line2d_49">
      <g>
       <use xlink:href="#ma1bef280a1" x="394.248438" y="35.84925" style="stroke: #000000; stroke-width: 0.8"/>
      </g>
     </g>
     <g id="text_28">
      <!-- 2 -->
      <g transform="translate(380.885938 39.648469) scale(0.1 -0.1)">
       <use xlink:href="#DejaVuSans-32"/>
      </g>
     </g>
    </g>
    <g id="text_29">
     <!-- Y-Koordinate -->
     <g transform="translate(371.198438 144.918) rotate(-90) scale(0.1 -0.1)">
      <defs>
       <path id="DejaVuSans-59" d="M -13 4666 
L 666 4666 
L 1959 2747 
L 3244 4666 
L 3922 4666 
L 2272 2222 
L 2272 0 
L 1638 0 
L 1638 2222 
L -13 4666 
z
" transform="scale(0.015625)"/>
      </defs>
      <use xlink:href="#DejaVuSans-59"/>
      <use xlink:href="#DejaVuSans-2d" transform="translate(49.208984 0)"/>
      <use xlink:href="#DejaVuSans-4b" transform="translate(85.292969 0)"/>
      <use xlink:href="#DejaVuSans-6f" transform="translate(145.869141 0)"/>
      <use xlink:href="#DejaVuSans-6f" transform="translate(207.050781 0)"/>
      <use xlink:href="#DejaVuSans-72" transform="translate(268.232422 0)"/>
      <use xlink:href="#DejaVuSans-64" transform="translate(307.595703 0)"/>
      <use xlink:href="#DejaVuSans-69" transform="translate(371.072266 0)"/>
      <use xlink:href="#DejaVuSans-6e" transform="translate(398.855469 0)"/>
      <use xlink:href="#DejaVuSans-61" transform="translate(462.234375 0)"/>
      <use xlink:href="#DejaVuSans-74" transform="translate(523.513672 0)"/>
      <use xlink:href="#DejaVuSans-65" transform="translate(562.722656 0)"/>
     </g>
    </g>
   </g>
   <g id="line2d_50">
    <path d="M 522.71125 113.7055 
L 527.99861 104.865678 
L 536.821296 90.018126 
L 539.878966 85.299944 
L 542.195909 82.050993 
L 544.401494 79.318509 
L 546.499404 77.135134 
L 548.004635 75.870375 
L 549.453493 74.929413 
L 550.847995 74.311552 
L 552.190275 74.011939 
L 553.48259 74.021669 
L 554.727305 74.327943 
L 555.926893 74.91428 
L 557.083929 75.760786 
L 558.201081 76.844469 
L 559.633357 78.613496 
L 561.006412 80.690862 
L 562.65014 83.609794 
L 564.841292 88.028303 
L 568.988684 96.508684 
L 570.443785 98.979614 
L 571.614845 100.625089 
L 572.800569 101.933422 
L 574.008708 102.877263 
L 574.934134 103.336288 
L 575.879668 103.579571 
L 576.848456 103.609205 
L 577.843588 103.431193 
L 578.868096 103.05535 
L 580.284924 102.27027 
L 581.766071 101.199143 
L 584.122695 99.17001 
L 590.356245 93.592741 
L 592.865197 91.760092 
L 594.989656 90.512835 
L 596.654091 89.750746 
L 598.381173 89.16756 
L 600.172295 88.788188 
L 602.028704 88.634918 
L 603.951502 88.727062 
L 605.94164 89.080632 
L 607.99992 89.708068 
L 610.12699 90.618023 
L 612.323344 91.81519 
L 614.589322 93.3002 
L 616.13875 94.448569 
L 616.13875 94.448569 
" clip-path="url(#pa4c4479671)" style="fill: none; stroke: #ffa500; stroke-width: 3; stroke-linecap: square"/>
   </g>
   <g id="patch_9">
    <path d="M 394.248438 191.56175 
L 394.248438 35.84925 
" style="fill: none; stroke: #000000; stroke-width: 0.8; stroke-linejoin: miter; stroke-linecap: square"/>
   </g>
   <g id="patch_10">
    <path d="M 705.673437 191.56175 
L 705.673437 35.84925 
" style="fill: none; stroke: #000000; stroke-width: 0.8; stroke-linejoin: miter; stroke-linecap: square"/>
   </g>
   <g id="patch_11">
    <path d="M 394.248438 191.56175 
L 705.673437 191.56175 
" style="fill: none; stroke: #000000; stroke-width: 0.8; stroke-linejoin: miter; stroke-linecap: square"/>
   </g>
   <g id="patch_12">
    <path d="M 394.248438 35.84925 
L 705.673437 35.84925 
" style="fill: none; stroke: #000000; stroke-width: 0.8; stroke-linejoin: miter; stroke-linecap: square"/>
   </g>
   <g id="text_30">
    <!-- b) Übergang -->
    <g transform="translate(507.730313 29.84925) scale(0.12 -0.12)">
     <defs>
      <path id="DejaVuSans-Bold-dc" d="M 588 4666 
L 1791 4666 
L 1791 1869 
Q 1791 1291 1980 1042 
Q 2169 794 2597 794 
Q 3028 794 3217 1042 
Q 3406 1291 3406 1869 
L 3406 4666 
L 4609 4666 
L 4609 1869 
Q 4609 878 4112 393 
Q 3616 -91 2597 -91 
Q 1581 -91 1084 393 
Q 588 878 588 1869 
L 588 4666 
z
M 1616 5921 
L 2350 5921 
L 2350 5152 
L 1616 5152 
L 1616 5921 
z
M 2850 5921 
L 3584 5921 
L 3584 5152 
L 2850 5152 
L 2850 5921 
z
" transform="scale(0.015625)"/>
      <path id="DejaVuSans-Bold-67" d="M 2919 594 
Q 2688 288 2409 144 
Q 2131 0 1766 0 
Q 1125 0 706 504 
Q 288 1009 288 1791 
Q 288 2575 706 3076 
Q 1125 3578 1766 3578 
Q 2131 3578 2409 3434 
Q 2688 3291 2919 2981 
L 2919 3500 
L 4044 3500 
L 4044 353 
Q 4044 -491 3511 -936 
Q 2978 -1381 1966 -1381 
Q 1638 -1381 1331 -1331 
Q 1025 -1281 716 -1178 
L 716 -306 
Q 1009 -475 1290 -558 
Q 1572 -641 1856 -641 
Q 2406 -641 2662 -400 
Q 2919 -159 2919 353 
L 2919 594 
z
M 2181 2772 
Q 1834 2772 1640 2515 
Q 1447 2259 1447 1791 
Q 1447 1309 1634 1061 
Q 1822 813 2181 813 
Q 2531 813 2725 1069 
Q 2919 1325 2919 1791 
Q 2919 2259 2725 2515 
Q 2531 2772 2181 2772 
z
" transform="scale(0.015625)"/>
     </defs>
     <use xlink:href="#DejaVuSans-Bold-62"/>
     <use xlink:href="#DejaVuSans-Bold-29" transform="translate(71.582031 0)"/>
     <use xlink:href="#DejaVuSans-Bold-20" transform="translate(117.285156 0)"/>
     <use xlink:href="#DejaVuSans-Bold-dc" transform="translate(152.099609 0)"/>
     <use xlink:href="#DejaVuSans-Bold-62" transform="translate(233.300781 0)"/>
     <use xlink:href="#DejaVuSans-Bold-65" transform="translate(304.882812 0)"/>
     <use xlink:href="#DejaVuSans-Bold-72" transform="translate(372.705078 0)"/>
     <use xlink:href="#DejaVuSans-Bold-67" transform="translate(422.021484 0)"/>
     <use xlink:href="#DejaVuSans-Bold-61" transform="translate(493.603516 0)"/>
     <use xlink:href="#DejaVuSans-Bold-6e" transform="translate(561.083984 0)"/>
     <use xlink:href="#DejaVuSans-Bold-67" transform="translate(632.275391 0)"/>
    </g>
   </g>
  </g>
  <g id="axes_3">
   <g id="patch_13">
    <path d="M 750.648438 191.56175 
L 1062.073438 191.56175 
L 1062.073438 35.84925 
L 750.648438 35.84925 
z
" style="fill: #ffffff"/>
   </g>
   <g id="matplotlib.axis_5">
    <g id="xtick_15">
     <g id="line2d_51">
      <path d="M 750.648438 191.56175 
L 750.648438 35.84925 
" clip-path="url(#p2ab44d0298)" style="fill: none; stroke: #b0b0b0; stroke-opacity: 0.3; stroke-width: 0.8; stroke-linecap: square"/>
     </g>
     <g id="line2d_52">
      <g>
       <use xlink:href="#m22cc74e24d" x="750.648438" y="191.56175" style="stroke: #000000; stroke-width: 0.8"/>
      </g>
     </g>
     <g id="text_31">
      <!-- 0 -->
      <g transform="translate(747.467188 206.160188) scale(0.1 -0.1)">
       <use xlink:href="#DejaVuSans-30"/>
      </g>
     </g>
    </g>
    <g id="xtick_16">
     <g id="line2d_53">
      <path d="M 789.576563 191.56175 
L 789.576563 35.84925 
" clip-path="url(#p2ab44d0298)" style="fill: none; stroke: #b0b0b0; stroke-opacity: 0.3; stroke-width: 0.8; stroke-linecap: square"/>
     </g>
     <g id="line2d_54">
      <g>
       <use xlink:href="#m22cc74e24d" x="789.576563" y="191.56175" style="stroke: #000000; stroke-width: 0.8"/>
      </g>
     </g>
     <g id="text_32">
      <!-- 1 -->
      <g transform="translate(786.395313 206.160188) scale(0.1 -0.1)">
       <use xlink:href="#DejaVuSans-31"/>
      </g>
     </g>
    </g>
    <g id="xtick_17">
     <g id="line2d_55">
      <path d="M 828.504688 191.56175 
L 828.504688 35.84925 
" clip-path="url(#p2ab44d0298)" style="fill: none; stroke: #b0b0b0; stroke-opacity: 0.3; stroke-width: 0.8; stroke-linecap: square"/>
     </g>
     <g id="line2d_56">
      <g>
       <use xlink:href="#m22cc74e24d" x="828.504688" y="191.56175" style="stroke: #000000; stroke-width: 0.8"/>
      </g>
     </g>
     <g id="text_33">
      <!-- 2 -->
      <g transform="translate(825.323438 206.160188) scale(0.1 -0.1)">
       <use xlink:href="#DejaVuSans-32"/>
      </g>
     </g>
    </g>
    <g id="xtick_18">
     <g id="line2d_57">
      <path d="M 867.432813 191.56175 
L 867.432813 35.84925 
" clip-path="url(#p2ab44d0298)" style="fill: none; stroke: #b0b0b0; stroke-opacity: 0.3; stroke-width: 0.8; stroke-linecap: square"/>
     </g>
     <g id="line2d_58">
      <g>
       <use xlink:href="#m22cc74e24d" x="867.432813" y="191.56175" style="stroke: #000000; stroke-width: 0.8"/>
      </g>
     </g>
     <g id="text_34">
      <!-- 3 -->
      <g transform="translate(864.251563 206.160188) scale(0.1 -0.1)">
       <use xlink:href="#DejaVuSans-33"/>
      </g>
     </g>
    </g>
    <g id="xtick_19">
     <g id="line2d_59">
      <path d="M 906.360938 191.56175 
L 906.360938 35.84925 
" clip-path="url(#p2ab44d0298)" style="fill: none; stroke: #b0b0b0; stroke-opacity: 0.3; stroke-width: 0.8; stroke-linecap: square"/>
     </g>
     <g id="line2d_60">
      <g>
       <use xlink:href="#m22cc74e24d" x="906.360938" y="191.56175" style="stroke: #000000; stroke-width: 0.8"/>
      </g>
     </g>
     <g id="text_35">
      <!-- 4 -->
      <g transform="translate(903.179688 206.160188) scale(0.1 -0.1)">
       <use xlink:href="#DejaVuSans-34"/>
      </g>
     </g>
    </g>
    <g id="xtick_20">
     <g id="line2d_61">
      <path d="M 945.289063 191.56175 
L 945.289063 35.84925 
" clip-path="url(#p2ab44d0298)" style="fill: none; stroke: #b0b0b0; stroke-opacity: 0.3; stroke-width: 0.8; stroke-linecap: square"/>
     </g>
     <g id="line2d_62">
      <g>
       <use xlink:href="#m22cc74e24d" x="945.289063" y="191.56175" style="stroke: #000000; stroke-width: 0.8"/>
      </g>
     </g>
     <g id="text_36">
      <!-- 5 -->
      <g transform="translate(942.107813 206.160188) scale(0.1 -0.1)">
       <use xlink:href="#DejaVuSans-35"/>
      </g>
     </g>
    </g>
    <g id="xtick_21">
     <g id="line2d_63">
      <path d="M 984.217188 191.56175 
L 984.217188 35.84925 
" clip-path="url(#p2ab44d0298)" style="fill: none; stroke: #b0b0b0; stroke-opacity: 0.3; stroke-width: 0.8; stroke-linecap: square"/>
     </g>
     <g id="line2d_64">
      <g>
       <use xlink:href="#m22cc74e24d" x="984.217188" y="191.56175" style="stroke: #000000; stroke-width: 0.8"/>
      </g>
     </g>
     <g id="text_37">
      <!-- 6 -->
      <g transform="translate(981.035938 206.160188) scale(0.1 -0.1)">
       <use xlink:href="#DejaVuSans-36"/>
      </g>
     </g>
    </g>
    <g id="xtick_22">
     <g id="line2d_65">
      <path d="M 1023.145313 191.56175 
L 1023.145313 35.84925 
" clip-path="url(#p2ab44d0298)" style="fill: none; stroke: #b0b0b0; stroke-opacity: 0.3; stroke-width: 0.8; stroke-linecap: square"/>
     </g>
     <g id="line2d_66">
      <g>
       <use xlink:href="#m22cc74e24d" x="1023.145313" y="191.56175" style="stroke: #000000; stroke-width: 0.8"/>
      </g>
     </g>
     <g id="text_38">
      <!-- 7 -->
      <g transform="translate(1019.964063 206.160188) scale(0.1 -0.1)">
       <use xlink:href="#DejaVuSans-37"/>
      </g>
     </g>
    </g>
    <g id="xtick_23">
     <g id="line2d_67">
      <path d="M 1062.073438 191.56175 
L 1062.073438 35.84925 
" clip-path="url(#p2ab44d0298)" style="fill: none; stroke: #b0b0b0; stroke-opacity: 0.3; stroke-width: 0.8; stroke-linecap: square"/>
     </g>
     <g id="line2d_68">
      <g>
       <use xlink:href="#m22cc74e24d" x="1062.073438" y="191.56175" style="stroke: #000000; stroke-width: 0.8"/>
      </g>
     </g>
     <g id="text_39">
      <!-- 8 -->
      <g transform="translate(1058.892188 206.160188) scale(0.1 -0.1)">
       <use xlink:href="#DejaVuSans-38"/>
      </g>
     </g>
    </g>
    <g id="text_40">
     <!-- X-Koordinate -->
     <g transform="translate(874.433594 219.838313) scale(0.1 -0.1)">
      <use xlink:href="#DejaVuSans-58"/>
      <use xlink:href="#DejaVuSans-2d" transform="translate(63.505859 0)"/>
      <use xlink:href="#DejaVuSans-4b" transform="translate(99.589844 0)"/>
      <use xlink:href="#DejaVuSans-6f" transform="translate(160.166016 0)"/>
      <use xlink:href="#DejaVuSans-6f" transform="translate(221.347656 0)"/>
      <use xlink:href="#DejaVuSans-72" transform="translate(282.529297 0)"/>
      <use xlink:href="#DejaVuSans-64" transform="translate(321.892578 0)"/>
      <use xlink:href="#DejaVuSans-69" transform="translate(385.369141 0)"/>
      <use xlink:href="#DejaVuSans-6e" transform="translate(413.152344 0)"/>
      <use xlink:href="#DejaVuSans-61" transform="translate(476.53125 0)"/>
      <use xlink:href="#DejaVuSans-74" transform="translate(537.810547 0)"/>
      <use xlink:href="#DejaVuSans-65" transform="translate(577.019531 0)"/>
     </g>
    </g>
   </g>
   <g id="matplotlib.axis_6">
    <g id="ytick_11">
     <g id="line2d_69">
      <path d="M 750.648438 191.56175 
L 1062.073438 191.56175 
" clip-path="url(#p2ab44d0298)" style="fill: none; stroke: #b0b0b0; stroke-opacity: 0.3; stroke-width: 0.8; stroke-linecap: square"/>
     </g>
     <g id="line2d_70">
      <g>
       <use xlink:href="#ma1bef280a1" x="750.648438" y="191.56175" style="stroke: #000000; stroke-width: 0.8"/>
      </g>
     </g>
     <g id="text_41">
      <!-- -2 -->
      <g transform="translate(733.678125 195.360969) scale(0.1 -0.1)">
       <use xlink:href="#DejaVuSans-2d"/>
       <use xlink:href="#DejaVuSans-32" transform="translate(36.083984 0)"/>
      </g>
     </g>
    </g>
    <g id="ytick_12">
     <g id="line2d_71">
      <path d="M 750.648438 152.633625 
L 1062.073438 152.633625 
" clip-path="url(#p2ab44d0298)" style="fill: none; stroke: #b0b0b0; stroke-opacity: 0.3; stroke-width: 0.8; stroke-linecap: square"/>
     </g>
     <g id="line2d_72">
      <g>
       <use xlink:href="#ma1bef280a1" x="750.648438" y="152.633625" style="stroke: #000000; stroke-width: 0.8"/>
      </g>
     </g>
     <g id="text_42">
      <!-- -1 -->
      <g transform="translate(733.678125 156.432844) scale(0.1 -0.1)">
       <use xlink:href="#DejaVuSans-2d"/>
       <use xlink:href="#DejaVuSans-31" transform="translate(36.083984 0)"/>
      </g>
     </g>
    </g>
    <g id="ytick_13">
     <g id="line2d_73">
      <path d="M 750.648438 113.7055 
L 1062.073438 113.7055 
" clip-path="url(#p2ab44d0298)" style="fill: none; stroke: #b0b0b0; stroke-opacity: 0.3; stroke-width: 0.8; stroke-linecap: square"/>
     </g>
     <g id="line2d_74">
      <g>
       <use xlink:href="#ma1bef280a1" x="750.648438" y="113.7055" style="stroke: #000000; stroke-width: 0.8"/>
      </g>
     </g>
     <g id="text_43">
      <!-- 0 -->
      <g transform="translate(737.285938 117.504719) scale(0.1 -0.1)">
       <use xlink:href="#DejaVuSans-30"/>
      </g>
     </g>
    </g>
    <g id="ytick_14">
     <g id="line2d_75">
      <path d="M 750.648438 74.777375 
L 1062.073438 74.777375 
" clip-path="url(#p2ab44d0298)" style="fill: none; stroke: #b0b0b0; stroke-opacity: 0.3; stroke-width: 0.8; stroke-linecap: square"/>
     </g>
     <g id="line2d_76">
      <g>
       <use xlink:href="#ma1bef280a1" x="750.648438" y="74.777375" style="stroke: #000000; stroke-width: 0.8"/>
      </g>
     </g>
     <g id="text_44">
      <!-- 1 -->
      <g transform="translate(737.285938 78.576594) scale(0.1 -0.1)">
       <use xlink:href="#DejaVuSans-31"/>
      </g>
     </g>
    </g>
    <g id="ytick_15">
     <g id="line2d_77">
      <path d="M 750.648438 35.84925 
L 1062.073438 35.84925 
" clip-path="url(#p2ab44d0298)" style="fill: none; stroke: #b0b0b0; stroke-opacity: 0.3; stroke-width: 0.8; stroke-linecap: square"/>
     </g>
     <g id="line2d_78">
      <g>
       <use xlink:href="#ma1bef280a1" x="750.648438" y="35.84925" style="stroke: #000000; stroke-width: 0.8"/>
      </g>
     </g>
     <g id="text_45">
      <!-- 2 -->
      <g transform="translate(737.285938 39.648469) scale(0.1 -0.1)">
       <use xlink:href="#DejaVuSans-32"/>
      </g>
     </g>
    </g>
    <g id="text_46">
     <!-- Y-Koordinate -->
     <g transform="translate(727.598438 144.918) rotate(-90) scale(0.1 -0.1)">
      <use xlink:href="#DejaVuSans-59"/>
      <use xlink:href="#DejaVuSans-2d" transform="translate(49.208984 0)"/>
      <use xlink:href="#DejaVuSans-4b" transform="translate(85.292969 0)"/>
      <use xlink:href="#DejaVuSans-6f" transform="translate(145.869141 0)"/>
      <use xlink:href="#DejaVuSans-6f" transform="translate(207.050781 0)"/>
      <use xlink:href="#DejaVuSans-72" transform="translate(268.232422 0)"/>
      <use xlink:href="#DejaVuSans-64" transform="translate(307.595703 0)"/>
      <use xlink:href="#DejaVuSans-69" transform="translate(371.072266 0)"/>
      <use xlink:href="#DejaVuSans-6e" transform="translate(398.855469 0)"/>
      <use xlink:href="#DejaVuSans-61" transform="translate(462.234375 0)"/>
      <use xlink:href="#DejaVuSans-74" transform="translate(523.513672 0)"/>
      <use xlink:href="#DejaVuSans-65" transform="translate(562.722656 0)"/>
     </g>
    </g>
   </g>
   <g id="line2d_79">
    <path d="M 1007.574063 113.7055 
L 1007.474304 110.181723 
L 1007.175347 106.669234 
L 1006.678149 103.179284 
L 1005.984304 99.723053 
L 1005.096034 96.311611 
L 1004.016184 92.955888 
L 1002.748214 89.666632 
L 1001.296184 86.454379 
L 999.664747 83.32942 
L 997.859127 80.301765 
L 995.885111 77.381112 
L 993.749019 74.576817 
L 991.457696 71.897864 
L 989.018481 69.352832 
L 986.439188 66.949875 
L 983.728078 64.696691 
L 980.893836 62.600497 
L 977.945542 60.668008 
L 974.892639 58.905413 
L 971.744906 57.31836 
L 968.512428 55.911932 
L 965.205559 54.690634 
L 961.83489 53.658378 
L 958.411221 52.818472 
L 954.945517 52.173605 
L 951.448881 51.725843 
L 947.932513 51.476621 
L 944.407677 51.426736 
L 940.885665 51.57635 
L 937.377758 51.924981 
L 933.895193 52.471515 
L 930.449126 53.214199 
L 927.050596 54.150655 
L 923.71049 55.277883 
L 920.439506 56.592273 
L 917.248122 58.089613 
L 914.146563 59.765108 
L 911.144762 61.61339 
L 908.252335 63.628539 
L 905.478548 65.804099 
L 902.832287 68.133102 
L 900.322027 70.608088 
L 897.95581 73.221127 
L 895.741216 75.96385 
L 893.685339 78.82747 
L 891.794764 81.802816 
L 890.075547 84.880356 
L 888.533196 88.050231 
L 887.172651 91.302287 
L 885.99827 94.626108 
L 885.013816 98.011046 
L 884.222441 101.446259 
L 883.626682 104.920741 
L 883.228445 108.423363 
L 883.029007 111.942906 
L 883.029007 115.468094 
L 883.228445 118.987637 
L 883.626682 122.490259 
L 884.222441 125.964741 
L 885.013816 129.399954 
L 885.99827 132.784892 
L 887.172651 136.108713 
L 888.533196 139.360769 
L 890.075547 142.530644 
L 891.794764 145.608184 
L 893.685339 148.58353 
L 895.741216 151.44715 
L 897.95581 154.189873 
L 900.322027 156.802912 
L 902.832287 159.277898 
L 905.478548 161.606901 
L 908.252335 163.782461 
L 911.144762 165.79761 
L 914.146563 167.645892 
L 917.248122 169.321387 
L 920.439506 170.818727 
L 923.71049 172.133117 
L 927.050596 173.260345 
L 930.449126 174.196801 
L 933.895193 174.939485 
L 937.377758 175.486019 
L 940.885665 175.83465 
L 944.407677 175.984264 
L 947.932513 175.934379 
L 951.448881 175.685157 
L 954.945517 175.237395 
L 958.411221 174.592528 
L 961.83489 173.752622 
L 965.205559 172.720366 
L 968.512428 171.499068 
L 971.744906 170.09264 
L 974.892639 168.505587 
L 977.945542 166.742992 
L 980.893836 164.810503 
L 983.728078 162.714309 
L 986.439188 160.461125 
L 989.018481 158.058168 
L 991.457696 155.513136 
L 993.749019 152.834183 
L 995.885111 150.029888 
L 997.859127 147.109235 
L 999.664747 144.08158 
L 1001.296184 140.956621 
L 1002.748214 137.744368 
L 1004.016184 134.455112 
L 1005.096034 131.099389 
L 1005.984304 127.687947 
L 1006.678149 124.231716 
L 1007.175347 120.741766 
L 1007.474304 117.229277 
L 1007.574063 113.7055 
L 1007.474304 110.181723 
L 1007.175347 106.669234 
L 1006.678149 103.179284 
L 1005.984304 99.723053 
L 1005.096034 96.311611 
L 1004.016184 92.955888 
L 1002.748214 89.666632 
L 1001.296184 86.454379 
L 999.664747 83.32942 
L 997.859127 80.301765 
L 995.885111 77.381112 
L 993.749019 74.576817 
L 991.457696 71.897864 
L 989.018481 69.352832 
L 986.439188 66.949875 
L 983.728078 64.696691 
L 980.893836 62.600497 
L 977.945542 60.668008 
L 974.892639 58.905413 
L 971.744906 57.31836 
L 968.512428 55.911932 
L 965.205559 54.690634 
L 961.83489 53.658378 
L 958.411221 52.818472 
L 954.945517 52.173605 
L 951.448881 51.725843 
L 947.932513 51.476621 
L 944.407677 51.426736 
L 940.885665 51.57635 
L 937.377758 51.924981 
L 933.895193 52.471515 
L 930.449126 53.214199 
L 927.050596 54.150655 
L 923.71049 55.277883 
L 920.439506 56.592273 
L 917.248122 58.089613 
L 914.146563 59.765108 
L 911.144762 61.61339 
L 908.252335 63.628539 
L 905.478548 65.804099 
L 902.832287 68.133102 
L 900.322027 70.608088 
L 897.95581 73.221127 
L 895.741216 75.96385 
L 893.685339 78.82747 
L 891.794764 81.802816 
L 890.075547 84.880356 
L 888.533196 88.050231 
L 887.172651 91.302287 
L 885.99827 94.626108 
L 885.013816 98.011046 
L 884.222441 101.446259 
L 883.626682 104.920741 
L 883.228445 108.423363 
L 883.029007 111.942906 
L 883.029007 115.468094 
L 883.228445 118.987637 
L 883.626682 122.490259 
L 884.222441 125.964741 
L 885.013816 129.399954 
L 885.99827 132.784892 
L 887.172651 136.108713 
L 888.533196 139.360769 
L 890.075547 142.530644 
L 891.794764 145.608184 
L 893.685339 148.58353 
L 895.741216 151.44715 
L 897.95581 154.189873 
L 900.322027 156.802912 
L 902.832287 159.277898 
L 905.478548 161.606901 
L 908.252335 163.782461 
L 911.144762 165.79761 
L 914.146562 167.645892 
L 917.248122 169.321387 
L 920.439506 170.818727 
L 923.71049 172.133117 
L 927.050596 173.260345 
L 930.449126 174.196801 
L 933.895193 174.939485 
L 937.377758 175.486019 
L 940.885665 175.83465 
L 944.407677 175.984264 
L 947.932513 175.934379 
L 951.448881 175.685157 
L 954.945517 175.237395 
L 958.411221 174.592528 
L 961.83489 173.752622 
L 965.205559 172.720366 
L 968.512428 171.499068 
L 971.744906 170.09264 
L 974.892639 168.505587 
L 977.945542 166.742992 
L 980.893836 164.810503 
L 983.728078 162.714309 
L 986.439188 160.461125 
L 989.018481 158.058168 
L 991.457696 155.513136 
L 993.749019 152.834183 
L 995.885111 150.029888 
L 997.859127 147.109235 
L 999.664747 144.08158 
L 1001.296184 140.956621 
L 1002.748214 137.744368 
L 1004.016184 134.455112 
L 1005.096034 131.099389 
L 1005.984304 127.687947 
L 1006.678149 124.231716 
L 1007.175347 120.741766 
L 1007.474304 117.229277 
L 1007.574063 113.7055 
L 1007.474304 110.181723 
L 1007.175347 106.669234 
L 1006.678149 103.179284 
L 1005.984304 99.723053 
L 1005.096034 96.311611 
L 1004.016184 92.955888 
L 1002.748214 89.666632 
L 1001.296184 86.454379 
L 999.664747 83.32942 
L 997.859127 80.301765 
L 995.885111 77.381112 
L 993.749019 74.576817 
L 991.457696 71.897864 
L 989.018481 69.352832 
L 986.439188 66.949875 
L 983.728078 64.696691 
L 980.893836 62.600497 
L 977.945542 60.668008 
L 974.892639 58.905413 
L 971.744906 57.31836 
L 968.512428 55.911932 
L 965.205559 54.690634 
L 961.83489 53.658378 
L 958.411221 52.818472 
L 954.945517 52.173605 
L 951.448881 51.725843 
L 947.932513 51.476621 
L 944.407677 51.426736 
L 940.885665 51.57635 
L 937.377758 51.924981 
L 933.895193 52.471515 
L 930.449126 53.214199 
L 927.050596 54.150655 
L 923.71049 55.277883 
L 920.439506 56.592273 
L 917.248122 58.089613 
L 914.146563 59.765108 
L 911.144762 61.61339 
L 908.252335 63.628539 
L 905.478548 65.804099 
L 902.832287 68.133102 
L 900.322027 70.608088 
L 897.95581 73.221127 
L 895.741216 75.96385 
L 893.685339 78.82747 
L 891.794764 81.802816 
L 890.075547 84.880356 
L 888.533196 88.050231 
L 887.172651 91.302287 
L 885.99827 94.626108 
L 885.013816 98.011046 
L 884.222441 101.446259 
L 883.626682 104.920741 
L 883.228445 108.423363 
L 883.029007 111.942906 
L 883.029007 115.468094 
L 883.228445 118.987637 
L 883.626682 122.490259 
L 884.222441 125.964741 
L 885.013816 129.399954 
L 885.99827 132.784892 
L 887.172651 136.108713 
L 888.533196 139.360769 
L 890.075547 142.530644 
L 891.794764 145.608184 
L 893.685339 148.58353 
L 895.741216 151.44715 
L 897.95581 154.189873 
L 900.322027 156.802912 
L 902.832287 159.277898 
L 905.478548 161.606901 
L 908.252335 163.782461 
L 911.144762 165.79761 
L 914.146562 167.645892 
L 917.248122 169.321387 
L 920.439506 170.818727 
L 923.71049 172.133117 
L 927.050596 173.260345 
L 930.449126 174.196801 
L 933.895193 174.939485 
L 937.377758 175.486019 
L 940.885665 175.83465 
L 944.407677 175.984264 
L 947.932513 175.934379 
L 951.448881 175.685157 
L 954.945517 175.237395 
L 958.411221 174.592528 
L 961.83489 173.752622 
L 965.205559 172.720366 
L 968.512428 171.499068 
L 971.744906 170.09264 
L 974.892639 168.505587 
L 977.945542 166.742992 
L 980.893836 164.810503 
L 983.728078 162.714309 
L 986.439188 160.461125 
L 989.018481 158.058168 
L 991.457696 155.513136 
L 993.749019 152.834183 
L 995.885111 150.029888 
L 997.859127 147.109235 
L 999.664747 144.08158 
L 1001.296184 140.956621 
L 1002.748214 137.744368 
L 1004.016184 134.455112 
L 1005.096034 131.099389 
L 1005.984304 127.687947 
L 1006.678149 124.231716 
L 1007.175347 120.741766 
L 1007.474304 117.229277 
L 1007.574063 113.7055 
L 1007.574063 113.7055 
" clip-path="url(#p2ab44d0298)" style="fill: none; stroke-dasharray: 5.55,2.4; stroke-dashoffset: 0; stroke: #808080; stroke-opacity: 0.5; stroke-width: 1.5"/>
   </g>
   <g id="line2d_80">
    <path d="M 1007.574063 113.7055 
L 1009.444808 110.070063 
L 1010.543937 107.530887 
L 1011.499606 104.90927 
L 1012.29174 102.216737 
L 1012.901961 99.46722 
L 1013.313979 96.676802 
L 1013.513929 93.863403 
L 1013.490669 91.046427 
L 1013.236015 88.246363 
L 1012.74491 85.484369 
L 1012.015534 82.781824 
L 1011.049335 80.159885 
L 1009.851001 77.639037 
L 1008.428355 75.238658 
L 1006.79219 72.976604 
L 1004.956034 70.86883 
L 1002.935867 68.929049 
L 1000.749779 67.168433 
L 998.417593 65.595385 
L 995.960447 64.215351 
L 993.400356 63.030717 
L 990.759756 62.040756 
L 988.061047 61.241657 
L 985.326139 60.626617 
L 982.576015 60.185996 
L 979.830321 59.907542 
L 975.758763 59.761463 
L 971.788638 59.889705 
L 967.959221 60.22783 
L 963.114421 60.886916 
L 950.344541 62.837634 
L 946.483224 63.083799 
L 943.61646 63.069303 
L 939.742955 62.786941 
L 935.714358 62.248238 
L 921.991701 60.159777 
L 918.136674 59.85195 
L 914.146563 59.765108 
L 910.062809 59.962713 
L 907.314253 60.280427 
L 904.566032 60.763602 
L 901.838164 61.423861 
L 899.151901 62.270152 
L 896.529319 63.308543 
L 893.992869 64.542081 
L 891.564926 65.970713 
L 889.267327 67.591282 
L 887.120922 69.397588 
L 885.145138 71.380519 
L 883.357572 73.528241 
L 881.77362 75.826453 
L 880.406154 78.258689 
L 879.26524 80.806677 
L 878.357933 83.450722 
L 877.688116 86.170129 
L 877.256422 88.943644 
L 877.060215 91.7499 
L 877.093644 94.567868 
L 877.347766 97.377289 
L 877.810735 100.159096 
L 878.46805 102.895796 
L 879.302863 105.571816 
L 880.296336 108.173804 
L 881.428035 110.690871 
L 883.337306 114.289983 
L 885.433429 117.664092 
L 887.640963 120.811401 
L 890.634148 124.677579 
L 898.708459 134.76126 
L 900.852303 137.982177 
L 902.27313 140.472115 
L 903.965351 143.967849 
L 905.513119 147.726069 
L 910.565787 160.654468 
L 912.226714 164.146933 
L 914.146563 167.645892 
L 916.359571 171.083724 
L 918.008997 173.305186 
L 919.801549 175.443627 
L 921.737284 177.475902 
L 923.813325 179.379128 
L 926.02389 181.131155 
L 928.360389 182.711016 
L 930.811592 184.09936 
L 933.363845 185.278855 
L 936.001355 186.234543 
L 938.706516 186.954157 
L 941.460281 187.428374 
L 944.242566 187.65101 
L 947.032679 187.619153 
L 949.809757 187.333219 
L 952.553221 186.796948 
L 955.243205 186.017323 
L 957.860986 185.004423 
L 960.389379 183.771215 
L 962.813096 182.333281 
L 965.119065 180.708494 
L 967.296696 178.916648 
L 969.338091 176.979047 
L 971.238185 174.918067 
L 972.994836 172.7567 
L 974.608831 170.518087 
L 976.771118 167.065053 
L 978.64512 163.562703 
L 980.267004 160.077268 
L 982.118619 155.552005 
L 986.814187 143.517606 
L 988.531661 140.050524 
L 989.977597 137.575083 
L 992.158882 134.36171 
L 994.639711 131.142193 
L 1003.3097 120.302255 
L 1005.503799 117.117617 
L 1007.574063 113.7055 
L 1009.444808 110.070063 
L 1010.543937 107.530887 
L 1011.499606 104.90927 
L 1012.29174 102.216737 
L 1012.901961 99.46722 
L 1013.313979 96.676802 
L 1013.513929 93.863403 
L 1013.490669 91.046427 
L 1013.236015 88.246363 
L 1012.74491 85.484369 
L 1012.015534 82.781824 
L 1011.049335 80.159885 
L 1009.851001 77.639037 
L 1008.428355 75.238658 
L 1006.79219 72.976604 
L 1004.956034 70.86883 
L 1002.935867 68.929049 
L 1000.749779 67.168433 
L 998.417593 65.595385 
L 995.960447 64.215351 
L 993.400356 63.030717 
L 990.759756 62.040756 
L 988.061047 61.241657 
L 985.326139 60.626617 
L 982.576015 60.185996 
L 979.830321 59.907542 
L 975.758763 59.761463 
L 971.788638 59.889705 
L 967.959221 60.22783 
L 963.114421 60.886916 
L 950.344541 62.837634 
L 946.483224 63.083799 
L 943.61646 63.069303 
L 939.742955 62.786941 
L 935.714358 62.248238 
L 921.991701 60.159777 
L 918.136674 59.85195 
L 914.146563 59.765108 
L 910.062809 59.962713 
L 907.314253 60.280427 
L 904.566032 60.763602 
L 901.838164 61.423861 
L 899.151901 62.270152 
L 896.529319 63.308543 
L 893.992869 64.542081 
L 891.564926 65.970713 
L 889.267327 67.591282 
L 887.120922 69.397588 
L 885.145138 71.380519 
L 883.357572 73.528241 
L 881.77362 75.826453 
L 880.406154 78.258689 
L 879.26524 80.806677 
L 878.357933 83.450722 
L 877.688116 86.170129 
L 877.256422 88.943644 
L 877.060215 91.7499 
L 877.093644 94.567868 
L 877.347766 97.377289 
L 877.810735 100.159096 
L 878.46805 102.895796 
L 879.302863 105.571816 
L 880.296336 108.173804 
L 881.428035 110.690871 
L 883.337306 114.289983 
L 885.433429 117.664092 
L 887.640963 120.811401 
L 890.634148 124.677579 
L 898.708459 134.76126 
L 900.852303 137.982177 
L 902.27313 140.472115 
L 903.965351 143.967849 
L 905.513119 147.726069 
L 910.565787 160.654468 
L 912.226714 164.146933 
L 914.146563 167.645892 
L 916.359571 171.083724 
L 918.008997 173.305186 
L 919.801549 175.443627 
L 921.737284 177.475902 
L 923.813325 179.379128 
L 926.02389 181.131155 
L 928.360389 182.711016 
L 930.811592 184.09936 
L 933.363845 185.278855 
L 936.001355 186.234543 
L 938.706516 186.954157 
L 941.460281 187.428374 
L 944.242566 187.65101 
L 947.032679 187.619153 
L 949.809757 187.333219 
L 952.553221 186.796948 
L 955.243205 186.017323 
L 957.860986 185.004423 
L 960.389379 183.771215 
L 962.813096 182.333281 
L 965.119065 180.708494 
L 967.296696 178.916648 
L 969.338091 176.979047 
L 971.238185 174.918067 
L 972.994836 172.7567 
L 974.608831 170.518087 
L 976.771118 167.065053 
L 978.64512 163.562703 
L 980.267004 160.077268 
L 982.118619 155.552005 
L 986.814187 143.517606 
L 988.531661 140.050524 
L 989.977597 137.575083 
L 992.158882 134.36171 
L 994.639711 131.142193 
L 1003.3097 120.302255 
L 1005.503799 117.117617 
L 1007.574063 113.7055 
L 1009.444808 110.070063 
L 1010.543937 107.530887 
L 1011.499606 104.90927 
L 1012.29174 102.216737 
L 1012.901961 99.46722 
L 1013.313979 96.676802 
L 1013.513929 93.863403 
L 1013.490669 91.046427 
L 1013.236015 88.246363 
L 1012.74491 85.484369 
L 1012.015534 82.781824 
L 1011.049335 80.159885 
L 1009.851001 77.639037 
L 1008.428355 75.238658 
L 1006.79219 72.976604 
L 1004.956034 70.86883 
L 1002.935867 68.929049 
L 1000.749779 67.168433 
L 998.417593 65.595385 
L 995.960447 64.215351 
L 993.400356 63.030717 
L 990.759756 62.040756 
L 988.061047 61.241657 
L 985.326139 60.626617 
L 982.576015 60.185996 
L 979.830321 59.907542 
L 975.758763 59.761463 
L 971.788638 59.889705 
L 967.959221 60.22783 
L 963.114421 60.886916 
L 950.344541 62.837634 
L 946.483224 63.083799 
L 943.61646 63.069303 
L 939.742955 62.786941 
L 935.714358 62.248238 
L 921.991701 60.159777 
L 918.136674 59.85195 
L 914.146563 59.765108 
L 910.062809 59.962713 
L 907.314253 60.280427 
L 904.566032 60.763602 
L 901.838164 61.423861 
L 899.151901 62.270152 
L 896.529319 63.308543 
L 893.992869 64.542081 
L 891.564926 65.970713 
L 889.267327 67.591282 
L 887.120922 69.397588 
L 885.145138 71.380519 
L 883.357572 73.528241 
L 881.77362 75.826453 
L 880.406154 78.258689 
L 879.26524 80.806677 
L 878.357933 83.450722 
L 877.688116 86.170129 
L 877.256422 88.943644 
L 877.060215 91.7499 
L 877.093644 94.567868 
L 877.347766 97.377289 
L 877.810735 100.159096 
L 878.46805 102.895796 
L 879.302863 105.571816 
L 880.296336 108.173804 
L 881.428035 110.690871 
L 883.337306 114.289983 
L 885.433429 117.664092 
L 887.640963 120.811401 
L 890.634148 124.677579 
L 898.708459 134.76126 
L 900.852303 137.982177 
L 902.27313 140.472115 
L 903.965351 143.967849 
L 905.513119 147.726069 
L 910.565787 160.654468 
L 912.226714 164.146933 
L 914.146562 167.645892 
L 916.359571 171.083724 
L 918.008997 173.305186 
L 919.801549 175.443627 
L 921.737284 177.475902 
L 923.813325 179.379128 
L 926.02389 181.131155 
L 928.360389 182.711016 
L 930.811592 184.09936 
L 933.363845 185.278855 
L 936.001355 186.234543 
L 938.706516 186.954157 
L 941.460281 187.428374 
L 944.242566 187.65101 
L 947.032679 187.619153 
L 949.809757 187.333219 
L 952.553221 186.796948 
L 955.243205 186.017323 
L 957.860986 185.004423 
L 960.389379 183.771215 
L 962.813096 182.333281 
L 965.119065 180.708494 
L 967.296696 178.916648 
L 969.338091 176.979047 
L 971.238185 174.918067 
L 972.994836 172.7567 
L 974.608831 170.518087 
L 976.771118 167.065053 
L 978.64512 163.562703 
L 980.267004 160.077268 
L 982.118619 155.552005 
L 986.814187 143.517606 
L 988.531661 140.050524 
L 989.977597 137.575083 
L 992.158882 134.36171 
L 994.639711 131.142193 
L 1003.3097 120.302255 
L 1005.503799 117.117617 
L 1007.574063 113.7055 
L 1007.574063 113.7055 
" clip-path="url(#p2ab44d0298)" style="fill: none; stroke: #ff0000; stroke-width: 3; stroke-linecap: square"/>
   </g>
   <g id="patch_14">
    <path d="M 750.648438 191.56175 
L 750.648438 35.84925 
" style="fill: none; stroke: #000000; stroke-width: 0.8; stroke-linejoin: miter; stroke-linecap: square"/>
   </g>
   <g id="patch_15">
    <path d="M 1062.073438 191.56175 
L 1062.073438 35.84925 
" style="fill: none; stroke: #000000; stroke-width: 0.8; stroke-linejoin: miter; stroke-linecap: square"/>
   </g>
   <g id="patch_16">
    <path d="M 750.648438 191.56175 
L 1062.073438 191.56175 
" style="fill: none; stroke: #000000; stroke-width: 0.8; stroke-linejoin: miter; stroke-linecap: square"/>
   </g>
   <g id="patch_17">
    <path d="M 750.648438 35.84925 
L 1062.073438 35.84925 
" style="fill: none; stroke: #000000; stroke-width: 0.8; stroke-linejoin: miter; stroke-linecap: square"/>
   </g>
   <g id="text_47">
    <g id="patch_18">
     <path d="M 757.738906 169.39175 
L 868.127969 169.39175 
Q 871.127969 169.39175 871.127969 166.39175 
L 871.127969 156.713625 
Q 871.127969 153.713625 868.127969 153.713625 
L 757.738906 153.713625 
Q 754.738906 153.713625 754.738906 156.713625 
L 754.738906 166.39175 
Q 754.738906 169.39175 757.738906 169.39175 
z
" style="fill: #ffff00; stroke: #000000; stroke-linejoin: miter"/>
    </g>
    <!-- BEDINGUNG: L = nλ -->
    <g transform="translate(757.738906 164.312063) scale(0.1 -0.1)">
     <defs>
      <path id="DejaVuSans-Bold-42" d="M 2456 2859 
Q 2741 2859 2887 2984 
Q 3034 3109 3034 3353 
Q 3034 3594 2887 3720 
Q 2741 3847 2456 3847 
L 1791 3847 
L 1791 2859 
L 2456 2859 
z
M 2497 819 
Q 2859 819 3042 972 
Q 3225 1125 3225 1434 
Q 3225 1738 3044 1889 
Q 2863 2041 2497 2041 
L 1791 2041 
L 1791 819 
L 2497 819 
z
M 3616 2497 
Q 4003 2384 4215 2081 
Q 4428 1778 4428 1338 
Q 4428 663 3972 331 
Q 3516 0 2584 0 
L 588 0 
L 588 4666 
L 2394 4666 
Q 3366 4666 3802 4372 
Q 4238 4078 4238 3431 
Q 4238 3091 4078 2852 
Q 3919 2613 3616 2497 
z
" transform="scale(0.015625)"/>
      <path id="DejaVuSans-Bold-45" d="M 588 4666 
L 3834 4666 
L 3834 3756 
L 1791 3756 
L 1791 2888 
L 3713 2888 
L 3713 1978 
L 1791 1978 
L 1791 909 
L 3903 909 
L 3903 0 
L 588 0 
L 588 4666 
z
" transform="scale(0.015625)"/>
      <path id="DejaVuSans-Bold-44" d="M 1791 3756 
L 1791 909 
L 2222 909 
Q 2959 909 3348 1275 
Q 3738 1641 3738 2338 
Q 3738 3031 3350 3393 
Q 2963 3756 2222 3756 
L 1791 3756 
z
M 588 4666 
L 1856 4666 
Q 2919 4666 3439 4514 
Q 3959 4363 4331 4000 
Q 4659 3684 4818 3271 
Q 4978 2859 4978 2338 
Q 4978 1809 4818 1395 
Q 4659 981 4331 666 
Q 3956 303 3431 151 
Q 2906 0 1856 0 
L 588 0 
L 588 4666 
z
" transform="scale(0.015625)"/>
      <path id="DejaVuSans-Bold-49" d="M 588 4666 
L 1791 4666 
L 1791 0 
L 588 0 
L 588 4666 
z
" transform="scale(0.015625)"/>
      <path id="DejaVuSans-Bold-4e" d="M 588 4666 
L 1931 4666 
L 3628 1466 
L 3628 4666 
L 4769 4666 
L 4769 0 
L 3425 0 
L 1728 3200 
L 1728 0 
L 588 0 
L 588 4666 
z
" transform="scale(0.015625)"/>
      <path id="DejaVuSans-Bold-47" d="M 4781 347 
Q 4331 128 3847 18 
Q 3363 -91 2847 -91 
Q 1681 -91 1000 561 
Q 319 1213 319 2328 
Q 319 3456 1012 4103 
Q 1706 4750 2913 4750 
Q 3378 4750 3804 4662 
Q 4231 4575 4609 4403 
L 4609 3438 
Q 4219 3659 3833 3768 
Q 3447 3878 3059 3878 
Q 2341 3878 1952 3476 
Q 1563 3075 1563 2328 
Q 1563 1588 1938 1184 
Q 2313 781 3003 781 
Q 3191 781 3352 804 
Q 3513 828 3641 878 
L 3641 1784 
L 2906 1784 
L 2906 2591 
L 4781 2591 
L 4781 347 
z
" transform="scale(0.015625)"/>
      <path id="DejaVuSans-Bold-55" d="M 588 4666 
L 1791 4666 
L 1791 1869 
Q 1791 1291 1980 1042 
Q 2169 794 2597 794 
Q 3028 794 3217 1042 
Q 3406 1291 3406 1869 
L 3406 4666 
L 4609 4666 
L 4609 1869 
Q 4609 878 4112 393 
Q 3616 -91 2597 -91 
Q 1581 -91 1084 393 
Q 588 878 588 1869 
L 588 4666 
z
" transform="scale(0.015625)"/>
      <path id="DejaVuSans-Bold-3a" d="M 716 3500 
L 1844 3500 
L 1844 2291 
L 716 2291 
L 716 3500 
z
M 716 1209 
L 1844 1209 
L 1844 0 
L 716 0 
L 716 1209 
z
" transform="scale(0.015625)"/>
      <path id="DejaVuSans-Bold-4c" d="M 588 4666 
L 1791 4666 
L 1791 909 
L 3903 909 
L 3903 0 
L 588 0 
L 588 4666 
z
" transform="scale(0.015625)"/>
      <path id="DejaVuSans-Bold-3d" d="M 678 3084 
L 4684 3084 
L 4684 2350 
L 678 2350 
L 678 3084 
z
M 678 1663 
L 4684 1663 
L 4684 922 
L 678 922 
L 678 1663 
z
" transform="scale(0.015625)"/>
      <path id="DejaVuSans-Bold-3bb" d="M 1544 3188 
L 1350 3713 
Q 1263 3953 1145 4040 
Q 1028 4128 734 4128 
L 384 4128 
L 384 4863 
L 1031 4863 
Q 1600 4863 1908 4622 
Q 2216 4381 2428 3813 
L 3859 0 
L 2741 0 
L 2044 1838 
L 1309 0 
L 191 0 
L 1544 3188 
z
" transform="scale(0.015625)"/>
     </defs>
     <use xlink:href="#DejaVuSans-Bold-42"/>
     <use xlink:href="#DejaVuSans-Bold-45" transform="translate(76.220703 0)"/>
     <use xlink:href="#DejaVuSans-Bold-44" transform="translate(144.53125 0)"/>
     <use xlink:href="#DejaVuSans-Bold-49" transform="translate(227.539062 0)"/>
     <use xlink:href="#DejaVuSans-Bold-4e" transform="translate(264.746094 0)"/>
     <use xlink:href="#DejaVuSans-Bold-47" transform="translate(348.4375 0)"/>
     <use xlink:href="#DejaVuSans-Bold-55" transform="translate(430.517578 0)"/>
     <use xlink:href="#DejaVuSans-Bold-4e" transform="translate(511.71875 0)"/>
     <use xlink:href="#DejaVuSans-Bold-47" transform="translate(595.410156 0)"/>
     <use xlink:href="#DejaVuSans-Bold-3a" transform="translate(677.490234 0)"/>
     <use xlink:href="#DejaVuSans-Bold-20" transform="translate(717.480469 0)"/>
     <use xlink:href="#DejaVuSans-Bold-4c" transform="translate(752.294922 0)"/>
     <use xlink:href="#DejaVuSans-Bold-20" transform="translate(816.015625 0)"/>
     <use xlink:href="#DejaVuSans-Bold-3d" transform="translate(850.830078 0)"/>
     <use xlink:href="#DejaVuSans-Bold-20" transform="translate(934.619141 0)"/>
     <use xlink:href="#DejaVuSans-Bold-6e" transform="translate(969.433594 0)"/>
     <use xlink:href="#DejaVuSans-Bold-3bb" transform="translate(1040.625 0)"/>
    </g>
   </g>
   <g id="text_48">
    <!-- c) Eingeschlossen n=3 -->
    <g transform="translate(830.558438 16.318125) scale(0.12 -0.12)">
     <defs>
      <path id="DejaVuSans-Bold-63" d="M 3366 3391 
L 3366 2478 
Q 3138 2634 2908 2709 
Q 2678 2784 2431 2784 
Q 1963 2784 1702 2511 
Q 1441 2238 1441 1747 
Q 1441 1256 1702 982 
Q 1963 709 2431 709 
Q 2694 709 2930 787 
Q 3166 866 3366 1019 
L 3366 103 
Q 3103 6 2833 -42 
Q 2563 -91 2291 -91 
Q 1344 -91 809 395 
Q 275 881 275 1747 
Q 275 2613 809 3098 
Q 1344 3584 2291 3584 
Q 2566 3584 2833 3536 
Q 3100 3488 3366 3391 
z
" transform="scale(0.015625)"/>
      <path id="DejaVuSans-Bold-73" d="M 3272 3391 
L 3272 2541 
Q 2913 2691 2578 2766 
Q 2244 2841 1947 2841 
Q 1628 2841 1473 2761 
Q 1319 2681 1319 2516 
Q 1319 2381 1436 2309 
Q 1553 2238 1856 2203 
L 2053 2175 
Q 2913 2066 3209 1816 
Q 3506 1566 3506 1031 
Q 3506 472 3093 190 
Q 2681 -91 1863 -91 
Q 1516 -91 1145 -36 
Q 775 19 384 128 
L 384 978 
Q 719 816 1070 734 
Q 1422 653 1784 653 
Q 2113 653 2278 743 
Q 2444 834 2444 1013 
Q 2444 1163 2330 1236 
Q 2216 1309 1875 1350 
L 1678 1375 
Q 931 1469 631 1722 
Q 331 1975 331 2491 
Q 331 3047 712 3315 
Q 1094 3584 1881 3584 
Q 2191 3584 2531 3537 
Q 2872 3491 3272 3391 
z
" transform="scale(0.015625)"/>
      <path id="DejaVuSans-Bold-68" d="M 4056 2131 
L 4056 0 
L 2931 0 
L 2931 347 
L 2931 1625 
Q 2931 2084 2911 2256 
Q 2891 2428 2841 2509 
Q 2775 2619 2662 2680 
Q 2550 2741 2406 2741 
Q 2056 2741 1856 2470 
Q 1656 2200 1656 1722 
L 1656 0 
L 538 0 
L 538 4863 
L 1656 4863 
L 1656 2988 
Q 1909 3294 2193 3439 
Q 2478 3584 2822 3584 
Q 3428 3584 3742 3212 
Q 4056 2841 4056 2131 
z
" transform="scale(0.015625)"/>
      <path id="DejaVuSans-Bold-6f" d="M 2203 2784 
Q 1831 2784 1636 2517 
Q 1441 2250 1441 1747 
Q 1441 1244 1636 976 
Q 1831 709 2203 709 
Q 2569 709 2762 976 
Q 2956 1244 2956 1747 
Q 2956 2250 2762 2517 
Q 2569 2784 2203 2784 
z
M 2203 3584 
Q 3106 3584 3614 3096 
Q 4122 2609 4122 1747 
Q 4122 884 3614 396 
Q 3106 -91 2203 -91 
Q 1297 -91 786 396 
Q 275 884 275 1747 
Q 275 2609 786 3096 
Q 1297 3584 2203 3584 
z
" transform="scale(0.015625)"/>
      <path id="DejaVuSans-Bold-33" d="M 2981 2516 
Q 3453 2394 3698 2092 
Q 3944 1791 3944 1325 
Q 3944 631 3412 270 
Q 2881 -91 1863 -91 
Q 1503 -91 1142 -33 
Q 781 25 428 141 
L 428 1069 
Q 766 900 1098 814 
Q 1431 728 1753 728 
Q 2231 728 2486 893 
Q 2741 1059 2741 1369 
Q 2741 1688 2480 1852 
Q 2219 2016 1709 2016 
L 1228 2016 
L 1228 2791 
L 1734 2791 
Q 2188 2791 2409 2933 
Q 2631 3075 2631 3366 
Q 2631 3634 2415 3781 
Q 2200 3928 1806 3928 
Q 1516 3928 1219 3862 
Q 922 3797 628 3669 
L 628 4550 
Q 984 4650 1334 4700 
Q 1684 4750 2022 4750 
Q 2931 4750 3382 4451 
Q 3834 4153 3834 3553 
Q 3834 3144 3618 2883 
Q 3403 2622 2981 2516 
z
" transform="scale(0.015625)"/>
     </defs>
     <use xlink:href="#DejaVuSans-Bold-63"/>
     <use xlink:href="#DejaVuSans-Bold-29" transform="translate(59.277344 0)"/>
     <use xlink:href="#DejaVuSans-Bold-20" transform="translate(104.980469 0)"/>
     <use xlink:href="#DejaVuSans-Bold-45" transform="translate(139.794922 0)"/>
     <use xlink:href="#DejaVuSans-Bold-69" transform="translate(208.105469 0)"/>
     <use xlink:href="#DejaVuSans-Bold-6e" transform="translate(242.382812 0)"/>
     <use xlink:href="#DejaVuSans-Bold-67" transform="translate(313.574219 0)"/>
     <use xlink:href="#DejaVuSans-Bold-65" transform="translate(385.15625 0)"/>
     <use xlink:href="#DejaVuSans-Bold-73" transform="translate(452.978516 0)"/>
     <use xlink:href="#DejaVuSans-Bold-63" transform="translate(512.5 0)"/>
     <use xlink:href="#DejaVuSans-Bold-68" transform="translate(571.777344 0)"/>
     <use xlink:href="#DejaVuSans-Bold-6c" transform="translate(642.96875 0)"/>
     <use xlink:href="#DejaVuSans-Bold-6f" transform="translate(677.246094 0)"/>
     <use xlink:href="#DejaVuSans-Bold-73" transform="translate(745.947266 0)"/>
     <use xlink:href="#DejaVuSans-Bold-73" transform="translate(805.46875 0)"/>
     <use xlink:href="#DejaVuSans-Bold-65" transform="translate(864.990234 0)"/>
     <use xlink:href="#DejaVuSans-Bold-6e" transform="translate(932.8125 0)"/>
     <use xlink:href="#DejaVuSans-Bold-20" transform="translate(1004.003906 0)"/>
     <use xlink:href="#DejaVuSans-Bold-6e" transform="translate(1038.818359 0)"/>
     <use xlink:href="#DejaVuSans-Bold-3d" transform="translate(1110.009766 0)"/>
     <use xlink:href="#DejaVuSans-Bold-33" transform="translate(1193.798828 0)"/>
    </g>
    <!-- L = 3λ -->
    <g transform="translate(885.360938 29.84925) scale(0.12 -0.12)">
     <use xlink:href="#DejaVuSans-Bold-4c"/>
     <use xlink:href="#DejaVuSans-Bold-20" transform="translate(63.720703 0)"/>
     <use xlink:href="#DejaVuSans-Bold-3d" transform="translate(98.535156 0)"/>
     <use xlink:href="#DejaVuSans-Bold-20" transform="translate(182.324219 0)"/>
     <use xlink:href="#DejaVuSans-Bold-33" transform="translate(217.138672 0)"/>
     <use xlink:href="#DejaVuSans-Bold-3bb" transform="translate(286.71875 0)"/>
    </g>
   </g>
  </g>
 </g>
 <defs>
  <clipPath id="p577bd058eb">
   <rect x="37.848438" y="51.4205" width="311.425" height="124.57"/>
  </clipPath>
  <clipPath id="pa4c4479671">
   <rect x="394.248438" y="35.84925" width="311.425" height="155.7125"/>
  </clipPath>
  <clipPath id="p2ab44d0298">
   <rect x="750.648438" y="35.84925" width="311.425" height="155.7125"/>
  </clipPath>
 </defs>
</svg>
