<?xml version="1.0" encoding="utf-8" standalone="no"?>
<!DOCTYPE svg PUBLIC "-//W3C//DTD SVG 1.1//EN"
  "http://www.w3.org/Graphics/SVG/1.1/DTD/svg11.dtd">
<svg xmlns:xlink="http://www.w3.org/1999/xlink" width="720pt" height="432pt" viewBox="0 0 720 432" xmlns="http://www.w3.org/2000/svg" version="1.1">
 <metadata>
  <rdf:RDF xmlns:dc="http://purl.org/dc/elements/1.1/" xmlns:cc="http://creativecommons.org/ns#" xmlns:rdf="http://www.w3.org/1999/02/22-rdf-syntax-ns#">
   <cc:Work>
    <dc:type rdf:resource="http://purl.org/dc/dcmitype/StillImage"/>
    <dc:date>2025-12-03T16:17:55.762836</dc:date>
    <dc:format>image/svg+xml</dc:format>
    <dc:creator>
     <cc:Agent>
      <dc:title>Matplotlib v3.10.6, https://matplotlib.org/</dc:title>
     </cc:Agent>
    </dc:creator>
   </cc:Work>
  </rdf:RDF>
 </metadata>
 <defs>
  <style type="text/css">*{stroke-linejoin: round; stroke-linecap: butt}</style>
 </defs>
 <g id="figure_1">
  <g id="patch_1">
   <path d="M 0 432 
L 720 432 
L 720 0 
L 0 0 
z
" style="fill: #f0f0f0"/>
  </g>
  <g id="axes_1">
   <g id="patch_2">
    <path d="M 48.51875 384.010082 
L 660.69 384.010082 
L 660.69 43.6425 
L 48.51875 43.6425 
z
" style="fill: #ffffff"/>
   </g>
   <g id="FillBetweenPolyCollection_1">
    <path d="M 89.330167 -599.274044 
L 89.330167 762.196285 
L 211.764417 762.196285 
L 211.764417 -599.274044 
L 211.764417 -599.274044 
L 89.330167 -599.274044 
z
" clip-path="url(#p5f86f2bae0)" style="fill: #377eb8; fill-opacity: 0.3; stroke: #377eb8; stroke-opacity: 0.3"/>
   </g>
   <g id="FillBetweenPolyCollection_2">
    <defs>
     <path id="m842ea5781a" d="M 293.38725 -261.94498 
L 293.38725 -198.409698 
L 415.8215 -198.409698 
L 415.8215 -261.94498 
L 415.8215 -261.94498 
L 293.38725 -261.94498 
z
" style="stroke: #4daf4a; stroke-opacity: 0.4"/>
    </defs>
    <g clip-path="url(#p5f86f2bae0)">
     <use xlink:href="#m842ea5781a" x="0" y="432" style="fill: #4daf4a; fill-opacity: 0.4; stroke: #4daf4a; stroke-opacity: 0.4"/>
    </g>
   </g>
   <g id="FillBetweenPolyCollection_3">
    <defs>
     <path id="mc080c70caa" d="M 497.444333 -231.115241 
L 497.444333 -229.708388 
L 619.878583 -229.708388 
L 619.878583 -231.115241 
L 619.878583 -231.115241 
L 497.444333 -231.115241 
z
" style="stroke: #e41a1c; stroke-opacity: 0.6"/>
    </defs>
    <g clip-path="url(#p5f86f2bae0)">
     <use xlink:href="#mc080c70caa" x="0" y="432" style="fill: #e41a1c; fill-opacity: 0.6; stroke: #e41a1c; stroke-opacity: 0.6"/>
    </g>
   </g>
   <g id="matplotlib.axis_1">
    <g id="xtick_1">
     <g id="line2d_1">
      <path d="M 150.547292 384.010082 
L 150.547292 43.6425 
" clip-path="url(#p5f86f2bae0)" style="fill: none; stroke: #b0b0b0; stroke-opacity: 0.3; stroke-width: 0.5; stroke-linecap: square"/>
     </g>
     <g id="line2d_2">
      <defs>
       <path id="maf5b76673c" d="M 0 0 
L 0 3.5 
" style="stroke: #000000; stroke-width: 0.8"/>
      </defs>
      <g>
       <use xlink:href="#maf5b76673c" x="150.547292" y="384.010082" style="stroke: #000000; stroke-width: 0.8"/>
      </g>
     </g>
     <g id="text_1">
      <!-- ميكانيكا الكم -->
      <g transform="translate(113.120632 418.766792) rotate(-15) scale(0.1 -0.1)">
       <defs>
        <path id="DejaVuSans-645" d="M 1906 922 
Q 2288 791 2525 791 
Q 2663 791 2728 859 
Q 2894 1038 2894 1219 
Q 2894 1294 2875 1356 
Q 2809 1631 2625 1684 
Q 2500 1722 2356 1722 
Q 2172 1722 2088 1638 
Q 1875 1425 1875 1213 
Q 1875 1088 1906 922 
z
M 1531 484 
Q 1375 572 1141 328 
Q 1063 247 1063 0 
L 1063 -1538 
L 438 -1538 
L 438 0 
Q 438 541 813 859 
Q 1016 1031 1297 1031 
Q 1291 1163 1291 1288 
Q 1291 1750 1797 2163 
Q 2038 2359 2325 2359 
Q 2566 2359 2813 2247 
Q 3381 1988 3469 1466 
Q 3494 1325 3494 1150 
Q 3494 694 3188 491 
Q 2813 241 2538 241 
Q 1981 234 1531 484 
z
" transform="scale(0.015625)"/>
        <path id="DejaVuSans-64a" d="M 4269 38 
Q 3950 -494 2878 -722 
Q 2325 -841 1950 -841 
Q 1547 -841 1322 -759 
Q 406 -434 406 381 
Q 406 747 603 1100 
L 1178 1100 
Q 972 691 975 381 
Q 981 -78 1494 -219 
Q 1797 -300 1988 -281 
Q 2381 -247 2784 -172 
Q 3338 -69 3600 181 
Q 3784 356 3784 522 
Q 3784 753 3391 844 
Q 3184 891 2828 1034 
Q 2619 1119 2438 1278 
Q 2238 1456 2234 1816 
Q 2234 2284 2828 2516 
Q 3125 2631 3450 2631 
Q 3775 2631 4075 2500 
Q 4516 2309 4600 1769 
L 4025 1769 
Q 3984 1959 3778 2063 
Q 3653 2125 3438 2131 
Q 3194 2138 3000 2016 
Q 2813 1897 2813 1791 
Q 2813 1619 3203 1488 
Q 3978 1228 4156 1028 
Q 4397 763 4403 484 
Q 4406 272 4269 38 
z
M 2341 -1067 
L 2810 -1067 
L 2810 -1536 
L 2341 -1536 
L 2341 -1067 
z
M 1560 -1067 
L 2029 -1067 
L 2029 -1536 
L 1560 -1536 
L 1560 -1067 
z
" transform="scale(0.015625)"/>
        <path id="DejaVuSans-643" d="M 3050 3547 
L 3050 3291 
Q 2819 3278 2700 3234 
Q 2450 3141 2450 3038 
Q 2450 2950 2494 2894 
Q 2531 2844 2744 2813 
Q 3063 2766 3063 2491 
Q 3063 2147 2788 2016 
Q 2531 1894 2288 1894 
Q 2081 1894 1906 1928 
L 1906 2203 
Q 2119 2172 2259 2172 
Q 2447 2172 2625 2253 
Q 2813 2334 2813 2428 
Q 2813 2547 2569 2600 
Q 2338 2650 2281 2738 
Q 2181 2884 2184 3028 
Q 2191 3281 2425 3400 
Q 2691 3534 3050 3547 
z
M 3809 878 
Q 4047 1106 4047 1909 
L 4047 4863 
L 4622 4863 
L 4622 1909 
Q 4622 888 4278 503 
Q 3813 -19 3122 -116 
Q 2697 -175 2328 -172 
Q 1681 -166 1366 -72 
Q 450 203 450 813 
Q 450 1047 500 1213 
L 1075 1213 
Q 1031 1031 1031 894 
Q 1038 606 1538 463 
Q 1916 353 2313 353 
Q 2750 353 3028 438 
Q 3503 584 3809 878 
z
" transform="scale(0.015625)"/>
        <path id="DejaVuSans-627" d="M 603 4863 
L 1178 4863 
L 1178 0 
L 603 0 
L 603 4863 
z
" transform="scale(0.015625)"/>
        <path id="DejaVuSans-646" d="M 4225 975 
Q 4225 434 3913 -122 
Q 3569 -738 2791 -950 
Q 2488 -1034 2238 -1034 
Q 1825 -1034 1484 -919 
Q 459 -588 459 525 
Q 459 1259 606 1513 
L 1181 1513 
Q 1028 1063 1028 525 
Q 1028 -216 1656 -378 
Q 1947 -453 2238 -453 
Q 2475 -453 2697 -391 
Q 3300 -225 3538 469 
Q 3644 775 3644 1075 
Q 3644 1650 3325 2344 
L 3900 2344 
Q 4225 1856 4225 975 
z
M 1800 2965 
L 2269 2965 
L 2269 2496 
L 1800 2496 
L 1800 2965 
z
" transform="scale(0.015625)"/>
        <path id="DejaVuSans-20" transform="scale(0.015625)"/>
        <path id="DejaVuSans-644" d="M 3256 228 
Q 3500 622 3500 1331 
L 3500 4863 
L 4075 4863 
L 4075 1331 
Q 4075 341 3769 -109 
Q 3391 -663 2575 -869 
Q 2156 -975 1891 -975 
Q 1594 -975 1366 -906 
Q 453 -619 450 234 
Q 447 666 647 953 
L 1222 953 
Q 1019 594 1019 234 
Q 1019 -172 1538 -366 
Q 1663 -416 1891 -416 
Q 2141 -416 2481 -309 
Q 3025 -144 3256 228 
z
" transform="scale(0.015625)"/>
       </defs>
       <use xlink:href="#DejaVuSans-645"/>
       <use xlink:href="#DejaVuSans-64a" transform="translate(61.914062 0)"/>
       <use xlink:href="#DejaVuSans-643" transform="translate(140.185547 0)"/>
       <use xlink:href="#DejaVuSans-627" transform="translate(222.607422 0)"/>
       <use xlink:href="#DejaVuSans-646" transform="translate(250.390625 0)"/>
       <use xlink:href="#DejaVuSans-64a" transform="translate(323.828125 0)"/>
       <use xlink:href="#DejaVuSans-643" transform="translate(402.099609 0)"/>
       <use xlink:href="#DejaVuSans-627" transform="translate(484.521484 0)"/>
       <use xlink:href="#DejaVuSans-20" transform="translate(512.304688 0)"/>
       <use xlink:href="#DejaVuSans-627" transform="translate(544.091797 0)"/>
       <use xlink:href="#DejaVuSans-644" transform="translate(571.875 0)"/>
       <use xlink:href="#DejaVuSans-643" transform="translate(644.53125 0)"/>
       <use xlink:href="#DejaVuSans-645" transform="translate(726.953125 0)"/>
      </g>
     </g>
    </g>
    <g id="xtick_2">
     <g id="line2d_3">
      <path d="M 354.604375 384.010082 
L 354.604375 43.6425 
" clip-path="url(#p5f86f2bae0)" style="fill: none; stroke: #b0b0b0; stroke-opacity: 0.3; stroke-width: 0.5; stroke-linecap: square"/>
     </g>
     <g id="line2d_4">
      <g>
       <use xlink:href="#maf5b76673c" x="354.604375" y="384.010082" style="stroke: #000000; stroke-width: 0.8"/>
      </g>
     </g>
     <g id="text_2">
      <!-- LHC تجريبي -->
      <g transform="translate(321.915297 416.04243) rotate(-15) scale(0.1 -0.1)">
       <defs>
        <path id="DejaVuSans-4c" d="M 628 4666 
L 1259 4666 
L 1259 531 
L 3531 531 
L 3531 0 
L 628 0 
L 628 4666 
z
" transform="scale(0.015625)"/>
        <path id="DejaVuSans-48" d="M 628 4666 
L 1259 4666 
L 1259 2753 
L 3553 2753 
L 3553 4666 
L 4184 4666 
L 4184 0 
L 3553 0 
L 3553 2222 
L 1259 2222 
L 1259 0 
L 628 0 
L 628 4666 
z
" transform="scale(0.015625)"/>
        <path id="DejaVuSans-43" d="M 4122 4306 
L 4122 3641 
Q 3803 3938 3442 4084 
Q 3081 4231 2675 4231 
Q 1875 4231 1450 3742 
Q 1025 3253 1025 2328 
Q 1025 1406 1450 917 
Q 1875 428 2675 428 
Q 3081 428 3442 575 
Q 3803 722 4122 1019 
L 4122 359 
Q 3791 134 3420 21 
Q 3050 -91 2638 -91 
Q 1578 -91 968 557 
Q 359 1206 359 2328 
Q 359 3453 968 4101 
Q 1578 4750 2638 4750 
Q 3056 4750 3426 4639 
Q 3797 4528 4122 4306 
z
" transform="scale(0.015625)"/>
        <path id="DejaVuSans-62a" d="M 5488 2091 
Q 5534 1809 5534 1591 
Q 5534 1169 5297 853 
Q 4897 319 3906 119 
Q 3016 -63 2438 -63 
Q 1841 -63 1438 56 
Q 406 359 406 1197 
Q 406 1628 603 1916 
L 1178 1916 
Q 975 1622 975 1197 
Q 975 806 1609 597 
Q 1934 491 2406 491 
Q 2984 491 3813 669 
Q 4609 838 4819 1191 
Q 4991 1481 4991 1716 
Q 4991 1900 4913 2091 
L 5488 2091 
z
M 2965 2517 
L 3434 2517 
L 3434 2048 
L 2965 2048 
L 2965 2517 
z
M 2184 2517 
L 2653 2517 
L 2653 2048 
L 2184 2048 
L 2184 2517 
z
" transform="scale(0.015625)"/>
        <path id="DejaVuSans-62c" d="M 491 2522 
Q 1353 2719 1963 2719 
Q 2875 2719 3488 2550 
L 3488 2069 
Q 2569 2069 1897 1547 
Q 1197 1003 1197 188 
Q 1197 -234 1428 -534 
Q 1825 -1047 2859 -1047 
Q 3463 -1047 4125 -678 
L 4125 -1253 
Q 3656 -1563 2875 -1563 
Q 1569 -1563 1041 -956 
Q 631 -488 631 213 
Q 631 1019 1294 1716 
Q 1594 2031 2022 2194 
Q 1706 2194 1209 2134 
Q 816 2088 491 1947 
L 491 2522 
z
M 2424 533 
L 2893 533 
L 2893 64 
L 2424 64 
L 2424 533 
z
" transform="scale(0.015625)"/>
        <path id="DejaVuSans-631" d="M 2109 494 
Q 2141 675 2141 900 
Q 2141 1294 1975 1719 
L 2550 1719 
Q 2706 1350 2706 938 
Q 2706 681 2681 488 
Q 2538 -606 1628 -1091 
Q 741 -1563 -266 -1563 
L -266 -988 
Q 684 -988 1319 -588 
Q 2000 -156 2109 494 
z
" transform="scale(0.015625)"/>
        <path id="DejaVuSans-628" d="M 5488 2091 
Q 5534 1809 5534 1591 
Q 5534 1169 5297 853 
Q 4897 319 3906 119 
Q 3016 -63 2438 -63 
Q 1841 -63 1438 56 
Q 406 359 406 1197 
Q 406 1628 603 1916 
L 1178 1916 
Q 975 1622 975 1197 
Q 975 806 1609 597 
Q 1934 491 2406 491 
Q 2984 491 3813 669 
Q 4609 838 4819 1191 
Q 4991 1481 4991 1716 
Q 4991 1900 4913 2091 
L 5488 2091 
z
M 2576 -619 
L 3045 -619 
L 3045 -1088 
L 2576 -1088 
L 2576 -619 
z
" transform="scale(0.015625)"/>
       </defs>
       <use xlink:href="#DejaVuSans-4c"/>
       <use xlink:href="#DejaVuSans-48" transform="translate(55.712891 0)"/>
       <use xlink:href="#DejaVuSans-43" transform="translate(130.908203 0)"/>
       <use xlink:href="#DejaVuSans-20" transform="translate(200.732422 0)"/>
       <use xlink:href="#DejaVuSans-62a" transform="translate(232.519531 0)"/>
       <use xlink:href="#DejaVuSans-62c" transform="translate(326.660156 0)"/>
       <use xlink:href="#DejaVuSans-631" transform="translate(391.210938 0)"/>
       <use xlink:href="#DejaVuSans-64a" transform="translate(439.501953 0)"/>
       <use xlink:href="#DejaVuSans-628" transform="translate(517.773438 0)"/>
       <use xlink:href="#DejaVuSans-64a" transform="translate(611.914062 0)"/>
      </g>
     </g>
    </g>
    <g id="xtick_3">
     <g id="line2d_5">
      <path d="M 558.661458 384.010082 
L 558.661458 43.6425 
" clip-path="url(#p5f86f2bae0)" style="fill: none; stroke: #b0b0b0; stroke-opacity: 0.3; stroke-width: 0.5; stroke-linecap: square"/>
     </g>
     <g id="line2d_6">
      <g>
       <use xlink:href="#maf5b76673c" x="558.661458" y="384.010082" style="stroke: #000000; stroke-width: 0.8"/>
      </g>
     </g>
     <g id="text_3">
      <!-- Einstein-VED -->
      <g transform="translate(528.604863 414.839618) rotate(-15) scale(0.1 -0.1)">
       <defs>
        <path id="DejaVuSans-45" d="M 628 4666 
L 3578 4666 
L 3578 4134 
L 1259 4134 
L 1259 2753 
L 3481 2753 
L 3481 2222 
L 1259 2222 
L 1259 531 
L 3634 531 
L 3634 0 
L 628 0 
L 628 4666 
z
" transform="scale(0.015625)"/>
        <path id="DejaVuSans-69" d="M 603 3500 
L 1178 3500 
L 1178 0 
L 603 0 
L 603 3500 
z
M 603 4863 
L 1178 4863 
L 1178 4134 
L 603 4134 
L 603 4863 
z
" transform="scale(0.015625)"/>
        <path id="DejaVuSans-6e" d="M 3513 2113 
L 3513 0 
L 2938 0 
L 2938 2094 
Q 2938 2591 2744 2837 
Q 2550 3084 2163 3084 
Q 1697 3084 1428 2787 
Q 1159 2491 1159 1978 
L 1159 0 
L 581 0 
L 581 3500 
L 1159 3500 
L 1159 2956 
Q 1366 3272 1645 3428 
Q 1925 3584 2291 3584 
Q 2894 3584 3203 3211 
Q 3513 2838 3513 2113 
z
" transform="scale(0.015625)"/>
        <path id="DejaVuSans-73" d="M 2834 3397 
L 2834 2853 
Q 2591 2978 2328 3040 
Q 2066 3103 1784 3103 
Q 1356 3103 1142 2972 
Q 928 2841 928 2578 
Q 928 2378 1081 2264 
Q 1234 2150 1697 2047 
L 1894 2003 
Q 2506 1872 2764 1633 
Q 3022 1394 3022 966 
Q 3022 478 2636 193 
Q 2250 -91 1575 -91 
Q 1294 -91 989 -36 
Q 684 19 347 128 
L 347 722 
Q 666 556 975 473 
Q 1284 391 1588 391 
Q 1994 391 2212 530 
Q 2431 669 2431 922 
Q 2431 1156 2273 1281 
Q 2116 1406 1581 1522 
L 1381 1569 
Q 847 1681 609 1914 
Q 372 2147 372 2553 
Q 372 3047 722 3315 
Q 1072 3584 1716 3584 
Q 2034 3584 2315 3537 
Q 2597 3491 2834 3397 
z
" transform="scale(0.015625)"/>
        <path id="DejaVuSans-74" d="M 1172 4494 
L 1172 3500 
L 2356 3500 
L 2356 3053 
L 1172 3053 
L 1172 1153 
Q 1172 725 1289 603 
Q 1406 481 1766 481 
L 2356 481 
L 2356 0 
L 1766 0 
Q 1100 0 847 248 
Q 594 497 594 1153 
L 594 3053 
L 172 3053 
L 172 3500 
L 594 3500 
L 594 4494 
L 1172 4494 
z
" transform="scale(0.015625)"/>
        <path id="DejaVuSans-65" d="M 3597 1894 
L 3597 1613 
L 953 1613 
Q 991 1019 1311 708 
Q 1631 397 2203 397 
Q 2534 397 2845 478 
Q 3156 559 3463 722 
L 3463 178 
Q 3153 47 2828 -22 
Q 2503 -91 2169 -91 
Q 1331 -91 842 396 
Q 353 884 353 1716 
Q 353 2575 817 3079 
Q 1281 3584 2069 3584 
Q 2775 3584 3186 3129 
Q 3597 2675 3597 1894 
z
M 3022 2063 
Q 3016 2534 2758 2815 
Q 2500 3097 2075 3097 
Q 1594 3097 1305 2825 
Q 1016 2553 972 2059 
L 3022 2063 
z
" transform="scale(0.015625)"/>
        <path id="DejaVuSans-2d" d="M 313 2009 
L 1997 2009 
L 1997 1497 
L 313 1497 
L 313 2009 
z
" transform="scale(0.015625)"/>
        <path id="DejaVuSans-56" d="M 1831 0 
L 50 4666 
L 709 4666 
L 2188 738 
L 3669 4666 
L 4325 4666 
L 2547 0 
L 1831 0 
z
" transform="scale(0.015625)"/>
        <path id="DejaVuSans-44" d="M 1259 4147 
L 1259 519 
L 2022 519 
Q 2988 519 3436 956 
Q 3884 1394 3884 2338 
Q 3884 3275 3436 3711 
Q 2988 4147 2022 4147 
L 1259 4147 
z
M 628 4666 
L 1925 4666 
Q 3281 4666 3915 4102 
Q 4550 3538 4550 2338 
Q 4550 1131 3912 565 
Q 3275 0 1925 0 
L 628 0 
L 628 4666 
z
" transform="scale(0.015625)"/>
       </defs>
       <use xlink:href="#DejaVuSans-45"/>
       <use xlink:href="#DejaVuSans-69" transform="translate(63.183594 0)"/>
       <use xlink:href="#DejaVuSans-6e" transform="translate(90.966797 0)"/>
       <use xlink:href="#DejaVuSans-73" transform="translate(154.345703 0)"/>
       <use xlink:href="#DejaVuSans-74" transform="translate(206.445312 0)"/>
       <use xlink:href="#DejaVuSans-65" transform="translate(245.654297 0)"/>
       <use xlink:href="#DejaVuSans-69" transform="translate(307.177734 0)"/>
       <use xlink:href="#DejaVuSans-6e" transform="translate(334.960938 0)"/>
       <use xlink:href="#DejaVuSans-2d" transform="translate(398.339844 0)"/>
       <use xlink:href="#DejaVuSans-56" transform="translate(428.548828 0)"/>
       <use xlink:href="#DejaVuSans-45" transform="translate(496.957031 0)"/>
       <use xlink:href="#DejaVuSans-44" transform="translate(560.140625 0)"/>
      </g>
     </g>
    </g>
   </g>
   <g id="matplotlib.axis_2">
    <g id="ytick_1">
     <g id="line2d_7">
      <path d="M 48.51875 384.010082 
L 660.69 384.010082 
" clip-path="url(#p5f86f2bae0)" style="fill: none; stroke: #b0b0b0; stroke-opacity: 0.3; stroke-width: 0.5; stroke-linecap: square"/>
     </g>
     <g id="line2d_8">
      <defs>
       <path id="m43aa0ad6d3" d="M 0 0 
L -3.5 0 
" style="stroke: #000000; stroke-width: 0.8"/>
      </defs>
      <g>
       <use xlink:href="#m43aa0ad6d3" x="48.51875" y="384.010082" style="stroke: #000000; stroke-width: 0.8"/>
      </g>
     </g>
     <g id="text_4">
      <!-- 0.6 -->
      <g transform="translate(25.615625 387.809301) scale(0.1 -0.1)">
       <defs>
        <path id="DejaVuSans-30" d="M 2034 4250 
Q 1547 4250 1301 3770 
Q 1056 3291 1056 2328 
Q 1056 1369 1301 889 
Q 1547 409 2034 409 
Q 2525 409 2770 889 
Q 3016 1369 3016 2328 
Q 3016 3291 2770 3770 
Q 2525 4250 2034 4250 
z
M 2034 4750 
Q 2819 4750 3233 4129 
Q 3647 3509 3647 2328 
Q 3647 1150 3233 529 
Q 2819 -91 2034 -91 
Q 1250 -91 836 529 
Q 422 1150 422 2328 
Q 422 3509 836 4129 
Q 1250 4750 2034 4750 
z
" transform="scale(0.015625)"/>
        <path id="DejaVuSans-2e" d="M 684 794 
L 1344 794 
L 1344 0 
L 684 0 
L 684 794 
z
" transform="scale(0.015625)"/>
        <path id="DejaVuSans-36" d="M 2113 2584 
Q 1688 2584 1439 2293 
Q 1191 2003 1191 1497 
Q 1191 994 1439 701 
Q 1688 409 2113 409 
Q 2538 409 2786 701 
Q 3034 994 3034 1497 
Q 3034 2003 2786 2293 
Q 2538 2584 2113 2584 
z
M 3366 4563 
L 3366 3988 
Q 3128 4100 2886 4159 
Q 2644 4219 2406 4219 
Q 1781 4219 1451 3797 
Q 1122 3375 1075 2522 
Q 1259 2794 1537 2939 
Q 1816 3084 2150 3084 
Q 2853 3084 3261 2657 
Q 3669 2231 3669 1497 
Q 3669 778 3244 343 
Q 2819 -91 2113 -91 
Q 1303 -91 875 529 
Q 447 1150 447 2328 
Q 447 3434 972 4092 
Q 1497 4750 2381 4750 
Q 2619 4750 2861 4703 
Q 3103 4656 3366 4563 
z
" transform="scale(0.015625)"/>
       </defs>
       <use xlink:href="#DejaVuSans-30"/>
       <use xlink:href="#DejaVuSans-2e" transform="translate(63.623047 0)"/>
       <use xlink:href="#DejaVuSans-36" transform="translate(95.410156 0)"/>
      </g>
     </g>
    </g>
    <g id="ytick_2">
     <g id="line2d_9">
      <path d="M 48.51875 308.372842 
L 660.69 308.372842 
" clip-path="url(#p5f86f2bae0)" style="fill: none; stroke: #b0b0b0; stroke-opacity: 0.3; stroke-width: 0.5; stroke-linecap: square"/>
     </g>
     <g id="line2d_10">
      <g>
       <use xlink:href="#m43aa0ad6d3" x="48.51875" y="308.372842" style="stroke: #000000; stroke-width: 0.8"/>
      </g>
     </g>
     <g id="text_5">
      <!-- 0.7 -->
      <g transform="translate(25.615625 312.172061) scale(0.1 -0.1)">
       <defs>
        <path id="DejaVuSans-37" d="M 525 4666 
L 3525 4666 
L 3525 4397 
L 1831 0 
L 1172 0 
L 2766 4134 
L 525 4134 
L 525 4666 
z
" transform="scale(0.015625)"/>
       </defs>
       <use xlink:href="#DejaVuSans-30"/>
       <use xlink:href="#DejaVuSans-2e" transform="translate(63.623047 0)"/>
       <use xlink:href="#DejaVuSans-37" transform="translate(95.410156 0)"/>
      </g>
     </g>
    </g>
    <g id="ytick_3">
     <g id="line2d_11">
      <path d="M 48.51875 232.735601 
L 660.69 232.735601 
" clip-path="url(#p5f86f2bae0)" style="fill: none; stroke: #b0b0b0; stroke-opacity: 0.3; stroke-width: 0.5; stroke-linecap: square"/>
     </g>
     <g id="line2d_12">
      <g>
       <use xlink:href="#m43aa0ad6d3" x="48.51875" y="232.735601" style="stroke: #000000; stroke-width: 0.8"/>
      </g>
     </g>
     <g id="text_6">
      <!-- 0.8 -->
      <g transform="translate(25.615625 236.53482) scale(0.1 -0.1)">
       <defs>
        <path id="DejaVuSans-38" d="M 2034 2216 
Q 1584 2216 1326 1975 
Q 1069 1734 1069 1313 
Q 1069 891 1326 650 
Q 1584 409 2034 409 
Q 2484 409 2743 651 
Q 3003 894 3003 1313 
Q 3003 1734 2745 1975 
Q 2488 2216 2034 2216 
z
M 1403 2484 
Q 997 2584 770 2862 
Q 544 3141 544 3541 
Q 544 4100 942 4425 
Q 1341 4750 2034 4750 
Q 2731 4750 3128 4425 
Q 3525 4100 3525 3541 
Q 3525 3141 3298 2862 
Q 3072 2584 2669 2484 
Q 3125 2378 3379 2068 
Q 3634 1759 3634 1313 
Q 3634 634 3220 271 
Q 2806 -91 2034 -91 
Q 1263 -91 848 271 
Q 434 634 434 1313 
Q 434 1759 690 2068 
Q 947 2378 1403 2484 
z
M 1172 3481 
Q 1172 3119 1398 2916 
Q 1625 2713 2034 2713 
Q 2441 2713 2670 2916 
Q 2900 3119 2900 3481 
Q 2900 3844 2670 4047 
Q 2441 4250 2034 4250 
Q 1625 4250 1398 4047 
Q 1172 3844 1172 3481 
z
" transform="scale(0.015625)"/>
       </defs>
       <use xlink:href="#DejaVuSans-30"/>
       <use xlink:href="#DejaVuSans-2e" transform="translate(63.623047 0)"/>
       <use xlink:href="#DejaVuSans-38" transform="translate(95.410156 0)"/>
      </g>
     </g>
    </g>
    <g id="ytick_4">
     <g id="line2d_13">
      <path d="M 48.51875 157.098361 
L 660.69 157.098361 
" clip-path="url(#p5f86f2bae0)" style="fill: none; stroke: #b0b0b0; stroke-opacity: 0.3; stroke-width: 0.5; stroke-linecap: square"/>
     </g>
     <g id="line2d_14">
      <g>
       <use xlink:href="#m43aa0ad6d3" x="48.51875" y="157.098361" style="stroke: #000000; stroke-width: 0.8"/>
      </g>
     </g>
     <g id="text_7">
      <!-- 0.9 -->
      <g transform="translate(25.615625 160.89758) scale(0.1 -0.1)">
       <defs>
        <path id="DejaVuSans-39" d="M 703 97 
L 703 672 
Q 941 559 1184 500 
Q 1428 441 1663 441 
Q 2288 441 2617 861 
Q 2947 1281 2994 2138 
Q 2813 1869 2534 1725 
Q 2256 1581 1919 1581 
Q 1219 1581 811 2004 
Q 403 2428 403 3163 
Q 403 3881 828 4315 
Q 1253 4750 1959 4750 
Q 2769 4750 3195 4129 
Q 3622 3509 3622 2328 
Q 3622 1225 3098 567 
Q 2575 -91 1691 -91 
Q 1453 -91 1209 -44 
Q 966 3 703 97 
z
M 1959 2075 
Q 2384 2075 2632 2365 
Q 2881 2656 2881 3163 
Q 2881 3666 2632 3958 
Q 2384 4250 1959 4250 
Q 1534 4250 1286 3958 
Q 1038 3666 1038 3163 
Q 1038 2656 1286 2365 
Q 1534 2075 1959 2075 
z
" transform="scale(0.015625)"/>
       </defs>
       <use xlink:href="#DejaVuSans-30"/>
       <use xlink:href="#DejaVuSans-2e" transform="translate(63.623047 0)"/>
       <use xlink:href="#DejaVuSans-39" transform="translate(95.410156 0)"/>
      </g>
     </g>
    </g>
    <g id="ytick_5">
     <g id="line2d_15">
      <path d="M 48.51875 81.46112 
L 660.69 81.46112 
" clip-path="url(#p5f86f2bae0)" style="fill: none; stroke: #b0b0b0; stroke-opacity: 0.3; stroke-width: 0.5; stroke-linecap: square"/>
     </g>
     <g id="line2d_16">
      <g>
       <use xlink:href="#m43aa0ad6d3" x="48.51875" y="81.46112" style="stroke: #000000; stroke-width: 0.8"/>
      </g>
     </g>
     <g id="text_8">
      <!-- 1.0 -->
      <g transform="translate(25.615625 85.260339) scale(0.1 -0.1)">
       <defs>
        <path id="DejaVuSans-31" d="M 794 531 
L 1825 531 
L 1825 4091 
L 703 3866 
L 703 4441 
L 1819 4666 
L 2450 4666 
L 2450 531 
L 3481 531 
L 3481 0 
L 794 0 
L 794 531 
z
" transform="scale(0.015625)"/>
       </defs>
       <use xlink:href="#DejaVuSans-31"/>
       <use xlink:href="#DejaVuSans-2e" transform="translate(63.623047 0)"/>
       <use xlink:href="#DejaVuSans-30" transform="translate(95.410156 0)"/>
      </g>
     </g>
    </g>
    <g id="text_9">
     <!-- نصف قطر البروتون (فيمتو متر) -->
     <g transform="translate(19.173438 317.91926) rotate(-90) scale(0.1 -0.1)">
      <defs>
       <path id="DejaVuSans-Bold-646" d="M 2112 2901 
L 2581 2901 
L 2581 2432 
L 2112 2432 
L 2112 2901 
z
M 4988 975 
Q 4991 434 4675 -122 
Q 4284 -809 3553 -950 
Q 3000 -1056 2563 -1056 
Q 1963 -1056 1484 -919 
Q 394 -609 394 525 
Q 394 963 519 1513 
L 1638 1513 
Q 1506 1013 1506 597 
Q 1506 41 2134 -191 
Q 2306 -253 2550 -253 
Q 2725 -253 2916 -203 
Q 3581 -34 3756 469 
Q 3859 766 3859 1138 
Q 3859 1650 3544 2344 
L 4663 2344 
Q 4984 1831 4988 975 
z
" transform="scale(0.015625)"/>
       <path id="DejaVuSans-Bold-635" d="M 3422 563 
Q 3422 844 3263 1406 
L 4294 1406 
Q 4300 1313 4341 1188 
Q 4384 1047 4497 906 
Q 4822 1603 5422 1988 
Q 5934 2316 6422 2316 
Q 7000 2316 7372 2156 
Q 8094 1847 8094 1244 
Q 8094 584 7519 284 
Q 6975 0 5719 0 
L 4941 0 
Q 4750 0 4538 94 
Q 4453 131 4388 225 
Q 4388 -347 4144 -716 
Q 3769 -1281 3034 -1481 
Q 2734 -1563 2272 -1563 
Q 1650 -1563 1322 -1450 
Q 406 -1134 406 -69 
Q 406 544 734 1106 
L 1853 1106 
Q 1516 463 1519 -69 
Q 1522 -566 1969 -694 
Q 2088 -728 2253 -728 
Q 2597 -728 2841 -547 
Q 3119 -338 3241 -125 
Q 3422 200 3422 563 
z
M 5509 800 
L 5722 800 
Q 6213 800 6606 956 
Q 6975 1103 6975 1275 
Q 6975 1363 6791 1447 
Q 6625 1516 6472 1516 
Q 6238 1509 5894 1263 
Q 5684 1106 5509 800 
z
" transform="scale(0.015625)"/>
       <path id="DejaVuSans-Bold-641" d="M 5160 3989 
L 5629 3989 
L 5629 3520 
L 5160 3520 
L 5160 3989 
z
M 5634 1847 
Q 5747 1934 5747 2053 
Q 5747 2238 5591 2328 
Q 5503 2378 5369 2375 
Q 5222 2375 5134 2284 
Q 5053 2203 5053 2050 
Q 5053 1925 5163 1834 
Q 5231 1778 5381 1778 
Q 5544 1778 5634 1847 
z
M 5609 1106 
Q 5438 1044 5228 1044 
Q 4534 1056 4241 1313 
Q 3934 1575 3934 1988 
Q 3934 2150 3959 2288 
Q 4038 2788 4500 2966 
Q 4841 3097 5319 3100 
Q 6056 3100 6378 2922 
Q 6631 2781 6822 2269 
Q 6925 1991 6925 1450 
Q 6925 869 6572 478 
Q 6275 150 5647 31 
Q 4669 -153 3106 -153 
Q 1556 -156 1438 -128 
Q 406 113 406 981 
Q 406 1331 603 1700 
L 1722 1700 
Q 1494 1278 1563 1125 
Q 1706 806 2153 728 
Q 2572 650 3184 650 
Q 3909 650 4772 797 
Q 5494 919 5609 1106 
z
" transform="scale(0.015625)"/>
       <path id="DejaVuSans-Bold-20" transform="scale(0.015625)"/>
       <path id="DejaVuSans-Bold-642" d="M 3909 4053 
L 4378 4053 
L 4378 3584 
L 3909 3584 
L 3909 4053 
z
M 3128 4053 
L 3597 4053 
L 3597 3584 
L 3128 3584 
L 3128 4053 
z
M 3988 1847 
Q 4100 1934 4100 2053 
Q 4100 2238 3944 2328 
Q 3856 2378 3722 2375 
Q 3575 2375 3488 2284 
Q 3406 2203 3406 2050 
Q 3406 1925 3516 1834 
Q 3584 1778 3734 1778 
Q 3897 1778 3988 1847 
z
M 2047 -575 
Q 2725 -575 3216 -269 
Q 4169 344 4169 1200 
Q 3938 1044 3581 1044 
Q 2900 1044 2594 1313 
Q 2288 1575 2288 1988 
Q 2288 2150 2313 2288 
Q 2391 2788 2853 2966 
Q 3194 3097 3672 3100 
Q 4409 3100 4731 2922 
Q 4984 2781 5175 2269 
Q 5278 1991 5278 1450 
Q 5278 806 5091 375 
Q 4766 -372 4028 -881 
Q 3313 -1375 2031 -1375 
Q 991 -1372 575 -775 
Q 334 -431 334 113 
Q 334 675 591 1350 
L 1709 1350 
Q 1444 772 1434 288 
Q 1431 131 1469 -63 
Q 1563 -572 2047 -575 
z
" transform="scale(0.015625)"/>
       <path id="DejaVuSans-Bold-637" d="M 3631 800 
L 3844 800 
Q 4334 800 4728 956 
Q 5097 1103 5097 1275 
Q 5097 1363 4913 1447 
Q 4747 1516 4594 1516 
Q 4359 1509 4016 1263 
Q 3806 1106 3631 800 
z
M 3841 0 
L 1803 0 
L 450 0 
L 450 800 
L 1500 800 
L 1500 4863 
L 2619 4863 
L 2619 1131 
Q 3050 1672 3544 1988 
Q 4056 2316 4544 2316 
Q 5122 2316 5494 2156 
Q 6216 1847 6216 1244 
Q 6216 584 5641 284 
Q 5097 0 3841 0 
z
" transform="scale(0.015625)"/>
       <path id="DejaVuSans-Bold-631" d="M 1916 0 
Q 2144 322 2138 888 
Q 2138 1341 1975 1719 
L 3094 1719 
Q 3250 1250 3250 888 
Q 3250 59 2975 -350 
Q 2578 -941 1881 -1247 
Q 1163 -1563 -266 -1563 
L -266 -763 
Q 700 -763 1188 -550 
Q 1663 -347 1916 0 
z
" transform="scale(0.015625)"/>
       <path id="DejaVuSans-Bold-627" d="M 538 4863 
L 1656 4863 
L 1656 0 
L 538 0 
L 538 4863 
z
" transform="scale(0.015625)"/>
       <path id="DejaVuSans-Bold-644" d="M 3616 228 
Q 3859 531 3859 1331 
L 3859 4863 
L 4978 4863 
L 4978 1331 
Q 4978 341 4672 -109 
Q 4309 -641 3478 -869 
Q 2381 -1169 1366 -906 
Q 453 -669 450 234 
Q 447 666 647 953 
L 1766 953 
Q 1544 634 1563 234 
Q 1578 -122 2081 -228 
Q 2488 -313 2922 -172 
Q 3425 -9 3616 228 
z
" transform="scale(0.015625)"/>
       <path id="DejaVuSans-Bold-628" d="M 2816 -491 
L 3285 -491 
L 3285 -960 
L 2816 -960 
L 2816 -491 
z
M 5894 2091 
Q 6050 1291 5703 853 
Q 5347 409 4644 216 
Q 3763 -25 2563 -31 
Q 1831 -34 1438 56 
Q 409 297 406 1197 
Q 403 1628 603 1916 
L 1722 1916 
Q 1563 1622 1563 1341 
Q 1563 1056 2153 850 
Q 2378 772 2641 772 
Q 3281 772 3769 919 
Q 4525 1141 4681 1416 
Q 4881 1769 4775 2091 
L 5894 2091 
z
" transform="scale(0.015625)"/>
       <path id="DejaVuSans-Bold-648" d="M 3503 488 
Q 3503 -150 3225 -600 
Q 2934 -1072 2247 -1303 
Q 1478 -1563 -263 -1563 
L -263 -763 
Q 484 -788 1022 -703 
Q 1578 -613 1838 -447 
Q 2153 -247 2234 0 
Q 2134 0 1825 6 
Q 1128 22 838 275 
Q 531 538 531 950 
Q 531 1113 556 1250 
Q 644 1753 1097 1928 
Q 1438 2059 1916 2063 
Q 2603 2063 2931 1884 
Q 3259 1706 3419 1231 
Q 3503 975 3503 488 
z
M 2344 1016 
Q 2325 1144 2178 1266 
Q 2088 1341 1966 1338 
Q 1834 1334 1744 1244 
Q 1650 1150 1650 1063 
Q 1650 922 1759 863 
Q 1872 803 1978 803 
L 2359 803 
Q 2359 925 2344 1016 
z
" transform="scale(0.015625)"/>
       <path id="DejaVuSans-Bold-62a" d="M 3205 2645 
L 3674 2645 
L 3674 2176 
L 3205 2176 
L 3205 2645 
z
M 2424 2645 
L 2893 2645 
L 2893 2176 
L 2424 2176 
L 2424 2645 
z
M 5894 2091 
Q 6050 1291 5703 853 
Q 5347 409 4644 216 
Q 3763 -25 2563 -31 
Q 1831 -34 1438 56 
Q 409 297 406 1197 
Q 403 1628 603 1916 
L 1722 1916 
Q 1563 1622 1563 1341 
Q 1563 1056 2153 850 
Q 2378 772 2641 772 
Q 3281 772 3769 919 
Q 4525 1141 4681 1416 
Q 4881 1769 4775 2091 
L 5894 2091 
z
" transform="scale(0.015625)"/>
       <path id="DejaVuSans-Bold-28" d="M 2413 -844 
L 1484 -844 
Q 1006 -72 778 623 
Q 550 1319 550 2003 
Q 550 2688 779 3389 
Q 1009 4091 1484 4856 
L 2413 4856 
Q 2013 4116 1813 3408 
Q 1613 2700 1613 2009 
Q 1613 1319 1811 609 
Q 2009 -100 2413 -844 
z
" transform="scale(0.015625)"/>
       <path id="DejaVuSans-Bold-64a" d="M 2813 -1067 
L 3282 -1067 
L 3282 -1536 
L 2813 -1536 
L 2813 -1067 
z
M 2032 -1067 
L 2501 -1067 
L 2501 -1536 
L 2032 -1536 
L 2032 -1067 
z
M 5125 203 
Q 4847 -288 3588 -556 
Q 2972 -684 2538 -684 
Q 1584 -688 1322 -594 
Q 409 -263 406 547 
Q 403 978 603 1266 
L 1722 1266 
Q 1503 950 1519 547 
Q 1528 303 1925 169 
Q 2084 116 2475 116 
Q 2934 116 3350 225 
Q 4122 431 4128 725 
Q 4131 1025 3744 1156 
Q 3184 1347 3181 1347 
Q 2953 1447 2791 1591 
Q 2591 1769 2588 2128 
Q 2581 2653 3181 2828 
Q 3619 2956 4063 2956 
Q 4603 2956 4931 2813 
Q 5441 2591 5525 2022 
L 4531 2022 
Q 4463 2238 4103 2234 
Q 3819 2231 3747 2141 
Q 3666 2038 3669 2006 
Q 3678 1894 4059 1800 
Q 4734 1634 5013 1284 
Q 5250 984 5253 675 
Q 5256 441 5125 203 
z
" transform="scale(0.015625)"/>
       <path id="DejaVuSans-Bold-645" d="M 3088 1084 
Q 3194 1156 3194 1244 
Q 3194 1372 3122 1444 
Q 3084 1481 2984 1544 
Q 2950 1569 2825 1563 
Q 2725 1556 2675 1497 
Q 2584 1400 2584 1238 
Q 2584 1150 2616 1069 
Q 2697 1025 2881 1025 
Q 3003 1025 3088 1084 
z
M 1797 434 
Q 1728 491 1613 278 
Q 1556 178 1556 0 
L 1556 -1563 
L 438 -1563 
L 438 0 
Q 438 697 813 913 
Q 1278 1178 1563 1216 
L 1556 1288 
Q 1556 1750 2063 2163 
Q 2303 2359 2800 2359 
Q 3294 2359 3541 2247 
Q 4125 1981 4197 1466 
Q 4222 1300 4222 1150 
Q 4222 706 3916 491 
Q 3541 225 2922 225 
Q 2053 225 1797 434 
z
" transform="scale(0.015625)"/>
       <path id="DejaVuSans-Bold-29" d="M 513 -844 
Q 913 -100 1113 609 
Q 1313 1319 1313 2009 
Q 1313 2700 1113 3408 
Q 913 4116 513 4856 
L 1441 4856 
Q 1916 4091 2145 3389 
Q 2375 2688 2375 2003 
Q 2375 1319 2147 623 
Q 1919 -72 1441 -844 
L 513 -844 
z
" transform="scale(0.015625)"/>
      </defs>
      <use xlink:href="#DejaVuSans-Bold-646"/>
      <use xlink:href="#DejaVuSans-Bold-635" transform="translate(85.351562 0)"/>
      <use xlink:href="#DejaVuSans-Bold-641" transform="translate(219.873047 0)"/>
      <use xlink:href="#DejaVuSans-Bold-20" transform="translate(336.035156 0)"/>
      <use xlink:href="#DejaVuSans-Bold-642" transform="translate(370.849609 0)"/>
      <use xlink:href="#DejaVuSans-Bold-637" transform="translate(460.253906 0)"/>
      <use xlink:href="#DejaVuSans-Bold-631" transform="translate(564.111328 0)"/>
      <use xlink:href="#DejaVuSans-Bold-20" transform="translate(621.679688 0)"/>
      <use xlink:href="#DejaVuSans-Bold-627" transform="translate(656.494141 0)"/>
      <use xlink:href="#DejaVuSans-Bold-644" transform="translate(690.771484 0)"/>
      <use xlink:href="#DejaVuSans-Bold-628" transform="translate(777.539062 0)"/>
      <use xlink:href="#DejaVuSans-Bold-631" transform="translate(878.027344 0)"/>
      <use xlink:href="#DejaVuSans-Bold-648" transform="translate(935.595703 0)"/>
      <use xlink:href="#DejaVuSans-Bold-62a" transform="translate(997.753906 0)"/>
      <use xlink:href="#DejaVuSans-Bold-648" transform="translate(1098.242188 0)"/>
      <use xlink:href="#DejaVuSans-Bold-646" transform="translate(1160.400391 0)"/>
      <use xlink:href="#DejaVuSans-Bold-20" transform="translate(1245.751953 0)"/>
      <use xlink:href="#DejaVuSans-Bold-28" transform="translate(1280.566406 0)"/>
      <use xlink:href="#DejaVuSans-Bold-641" transform="translate(1326.269531 0)"/>
      <use xlink:href="#DejaVuSans-Bold-64a" transform="translate(1442.431641 0)"/>
      <use xlink:href="#DejaVuSans-Bold-645" transform="translate(1534.082031 0)"/>
      <use xlink:href="#DejaVuSans-Bold-62a" transform="translate(1607.373047 0)"/>
      <use xlink:href="#DejaVuSans-Bold-648" transform="translate(1707.861328 0)"/>
      <use xlink:href="#DejaVuSans-Bold-20" transform="translate(1770.019531 0)"/>
      <use xlink:href="#DejaVuSans-Bold-645" transform="translate(1804.833984 0)"/>
      <use xlink:href="#DejaVuSans-Bold-62a" transform="translate(1878.125 0)"/>
      <use xlink:href="#DejaVuSans-Bold-631" transform="translate(1978.613281 0)"/>
      <use xlink:href="#DejaVuSans-Bold-29" transform="translate(2036.181641 0)"/>
     </g>
    </g>
   </g>
   <g id="LineCollection_1">
    <path d="M 89.330167 81.46112 
L 211.764417 81.46112 
" clip-path="url(#p5f86f2bae0)" style="fill: none; stroke-dasharray: 7.4,3.2; stroke-dashoffset: 0; stroke: #377eb8; stroke-width: 2"/>
   </g>
   <g id="LineCollection_2">
    <path d="M 293.38725 201.822661 
L 415.8215 201.822661 
" clip-path="url(#p5f86f2bae0)" style="fill: none; stroke-dasharray: 7.4,3.2; stroke-dashoffset: 0; stroke: #4daf4a; stroke-width: 2"/>
   </g>
   <g id="LineCollection_3">
    <path d="M 497.444333 201.588186 
L 619.878583 201.588186 
" clip-path="url(#p5f86f2bae0)" style="fill: none; stroke: #e41a1c; stroke-width: 3"/>
   </g>
   <g id="patch_3">
    <path d="M 48.51875 384.010082 
L 48.51875 43.6425 
" style="fill: none; stroke: #000000; stroke-width: 0.8; stroke-linejoin: miter; stroke-linecap: square"/>
   </g>
   <g id="patch_4">
    <path d="M 660.69 384.010082 
L 660.69 43.6425 
" style="fill: none; stroke: #000000; stroke-width: 0.8; stroke-linejoin: miter; stroke-linecap: square"/>
   </g>
   <g id="patch_5">
    <path d="M 48.51875 384.010082 
L 660.69 384.010082 
" style="fill: none; stroke: #000000; stroke-width: 0.8; stroke-linejoin: miter; stroke-linecap: square"/>
   </g>
   <g id="patch_6">
    <path d="M 48.51875 43.6425 
L 660.69 43.6425 
" style="fill: none; stroke: #000000; stroke-width: 0.8; stroke-linejoin: miter; stroke-linecap: square"/>
   </g>
   <g id="text_10">
    <g id="patch_7">
     <path d="M 415.8215 354.893441 
L 686.885563 354.893441 
Q 689.885563 354.893441 689.885563 351.893441 
L 689.885563 315.936566 
Q 689.885563 312.936566 686.885563 312.936566 
L 415.8215 312.936566 
Q 412.8215 312.936566 412.8215 315.936566 
L 412.8215 351.893441 
Q 412.8215 354.893441 415.8215 354.893441 
z
" style="fill: #ffebee; opacity: 0.9; stroke: #e41a1c; stroke-width: 2; stroke-linejoin: miter"/>
    </g>
    <!-- Einstein-VED: حتمي geometric model of -->
    <g transform="translate(415.8215 323.535003) scale(0.1 -0.1)">
     <defs>
      <path id="DejaVuSans-Bold-45" d="M 588 4666 
L 3834 4666 
L 3834 3756 
L 1791 3756 
L 1791 2888 
L 3713 2888 
L 3713 1978 
L 1791 1978 
L 1791 909 
L 3903 909 
L 3903 0 
L 588 0 
L 588 4666 
z
" transform="scale(0.015625)"/>
      <path id="DejaVuSans-Bold-69" d="M 538 3500 
L 1656 3500 
L 1656 0 
L 538 0 
L 538 3500 
z
M 538 4863 
L 1656 4863 
L 1656 3950 
L 538 3950 
L 538 4863 
z
" transform="scale(0.015625)"/>
      <path id="DejaVuSans-Bold-6e" d="M 4056 2131 
L 4056 0 
L 2931 0 
L 2931 347 
L 2931 1631 
Q 2931 2084 2911 2256 
Q 2891 2428 2841 2509 
Q 2775 2619 2662 2680 
Q 2550 2741 2406 2741 
Q 2056 2741 1856 2470 
Q 1656 2200 1656 1722 
L 1656 0 
L 538 0 
L 538 3500 
L 1656 3500 
L 1656 2988 
Q 1909 3294 2193 3439 
Q 2478 3584 2822 3584 
Q 3428 3584 3742 3212 
Q 4056 2841 4056 2131 
z
" transform="scale(0.015625)"/>
      <path id="DejaVuSans-Bold-73" d="M 3272 3391 
L 3272 2541 
Q 2913 2691 2578 2766 
Q 2244 2841 1947 2841 
Q 1628 2841 1473 2761 
Q 1319 2681 1319 2516 
Q 1319 2381 1436 2309 
Q 1553 2238 1856 2203 
L 2053 2175 
Q 2913 2066 3209 1816 
Q 3506 1566 3506 1031 
Q 3506 472 3093 190 
Q 2681 -91 1863 -91 
Q 1516 -91 1145 -36 
Q 775 19 384 128 
L 384 978 
Q 719 816 1070 734 
Q 1422 653 1784 653 
Q 2113 653 2278 743 
Q 2444 834 2444 1013 
Q 2444 1163 2330 1236 
Q 2216 1309 1875 1350 
L 1678 1375 
Q 931 1469 631 1722 
Q 331 1975 331 2491 
Q 331 3047 712 3315 
Q 1094 3584 1881 3584 
Q 2191 3584 2531 3537 
Q 2872 3491 3272 3391 
z
" transform="scale(0.015625)"/>
      <path id="DejaVuSans-Bold-74" d="M 1759 4494 
L 1759 3500 
L 2913 3500 
L 2913 2700 
L 1759 2700 
L 1759 1216 
Q 1759 972 1856 886 
Q 1953 800 2241 800 
L 2816 800 
L 2816 0 
L 1856 0 
Q 1194 0 917 276 
Q 641 553 641 1216 
L 641 2700 
L 84 2700 
L 84 3500 
L 641 3500 
L 641 4494 
L 1759 4494 
z
" transform="scale(0.015625)"/>
      <path id="DejaVuSans-Bold-65" d="M 4031 1759 
L 4031 1441 
L 1416 1441 
Q 1456 1047 1700 850 
Q 1944 653 2381 653 
Q 2734 653 3104 758 
Q 3475 863 3866 1075 
L 3866 213 
Q 3469 63 3072 -14 
Q 2675 -91 2278 -91 
Q 1328 -91 801 392 
Q 275 875 275 1747 
Q 275 2603 792 3093 
Q 1309 3584 2216 3584 
Q 3041 3584 3536 3087 
Q 4031 2591 4031 1759 
z
M 2881 2131 
Q 2881 2450 2695 2645 
Q 2509 2841 2209 2841 
Q 1884 2841 1681 2658 
Q 1478 2475 1428 2131 
L 2881 2131 
z
" transform="scale(0.015625)"/>
      <path id="DejaVuSans-Bold-2d" d="M 347 2297 
L 2309 2297 
L 2309 1388 
L 347 1388 
L 347 2297 
z
" transform="scale(0.015625)"/>
      <path id="DejaVuSans-Bold-56" d="M 31 4666 
L 1241 4666 
L 2478 1222 
L 3713 4666 
L 4922 4666 
L 3194 0 
L 1759 0 
L 31 4666 
z
" transform="scale(0.015625)"/>
      <path id="DejaVuSans-Bold-44" d="M 1791 3756 
L 1791 909 
L 2222 909 
Q 2959 909 3348 1275 
Q 3738 1641 3738 2338 
Q 3738 3031 3350 3393 
Q 2963 3756 2222 3756 
L 1791 3756 
z
M 588 4666 
L 1856 4666 
Q 2919 4666 3439 4514 
Q 3959 4363 4331 4000 
Q 4659 3684 4818 3271 
Q 4978 2859 4978 2338 
Q 4978 1809 4818 1395 
Q 4659 981 4331 666 
Q 3956 303 3431 151 
Q 2906 0 1856 0 
L 588 0 
L 588 4666 
z
" transform="scale(0.015625)"/>
      <path id="DejaVuSans-Bold-3a" d="M 716 3500 
L 1844 3500 
L 1844 2291 
L 716 2291 
L 716 3500 
z
M 716 1209 
L 1844 1209 
L 1844 0 
L 716 0 
L 716 1209 
z
" transform="scale(0.015625)"/>
      <path id="DejaVuSans-Bold-62d" d="M 3969 1800 
Q 2922 1859 2313 1369 
Q 1678 859 1678 234 
Q 1678 -144 2000 -475 
Q 2281 -763 3022 -763 
Q 3963 -763 4606 -284 
L 4606 -1144 
Q 4094 -1563 3038 -1563 
Q 1672 -1559 1047 -941 
Q 559 -459 559 234 
Q 559 794 997 1328 
Q 1316 1719 1934 1963 
Q 1672 1972 1209 1909 
Q 788 1850 491 1722 
L 491 2522 
Q 1338 2719 1963 2719 
Q 3063 2719 3969 2600 
L 3969 1800 
z
" transform="scale(0.015625)"/>
      <path id="DejaVuSans-Bold-67" d="M 2919 594 
Q 2688 288 2409 144 
Q 2131 0 1766 0 
Q 1125 0 706 504 
Q 288 1009 288 1791 
Q 288 2575 706 3076 
Q 1125 3578 1766 3578 
Q 2131 3578 2409 3434 
Q 2688 3291 2919 2981 
L 2919 3500 
L 4044 3500 
L 4044 353 
Q 4044 -491 3511 -936 
Q 2978 -1381 1966 -1381 
Q 1638 -1381 1331 -1331 
Q 1025 -1281 716 -1178 
L 716 -306 
Q 1009 -475 1290 -558 
Q 1572 -641 1856 -641 
Q 2406 -641 2662 -400 
Q 2919 -159 2919 353 
L 2919 594 
z
M 2181 2772 
Q 1834 2772 1640 2515 
Q 1447 2259 1447 1791 
Q 1447 1309 1634 1061 
Q 1822 813 2181 813 
Q 2531 813 2725 1069 
Q 2919 1325 2919 1791 
Q 2919 2259 2725 2515 
Q 2531 2772 2181 2772 
z
" transform="scale(0.015625)"/>
      <path id="DejaVuSans-Bold-6f" d="M 2203 2784 
Q 1831 2784 1636 2517 
Q 1441 2250 1441 1747 
Q 1441 1244 1636 976 
Q 1831 709 2203 709 
Q 2569 709 2762 976 
Q 2956 1244 2956 1747 
Q 2956 2250 2762 2517 
Q 2569 2784 2203 2784 
z
M 2203 3584 
Q 3106 3584 3614 3096 
Q 4122 2609 4122 1747 
Q 4122 884 3614 396 
Q 3106 -91 2203 -91 
Q 1297 -91 786 396 
Q 275 884 275 1747 
Q 275 2609 786 3096 
Q 1297 3584 2203 3584 
z
" transform="scale(0.015625)"/>
      <path id="DejaVuSans-Bold-6d" d="M 3781 2919 
Q 3994 3244 4286 3414 
Q 4578 3584 4928 3584 
Q 5531 3584 5847 3212 
Q 6163 2841 6163 2131 
L 6163 0 
L 5038 0 
L 5038 1825 
Q 5041 1866 5042 1909 
Q 5044 1953 5044 2034 
Q 5044 2406 4934 2573 
Q 4825 2741 4581 2741 
Q 4263 2741 4089 2478 
Q 3916 2216 3909 1719 
L 3909 0 
L 2784 0 
L 2784 1825 
Q 2784 2406 2684 2573 
Q 2584 2741 2328 2741 
Q 2006 2741 1831 2477 
Q 1656 2213 1656 1722 
L 1656 0 
L 531 0 
L 531 3500 
L 1656 3500 
L 1656 2988 
Q 1863 3284 2130 3434 
Q 2397 3584 2719 3584 
Q 3081 3584 3359 3409 
Q 3638 3234 3781 2919 
z
" transform="scale(0.015625)"/>
      <path id="DejaVuSans-Bold-72" d="M 3138 2547 
Q 2991 2616 2845 2648 
Q 2700 2681 2553 2681 
Q 2122 2681 1889 2404 
Q 1656 2128 1656 1613 
L 1656 0 
L 538 0 
L 538 3500 
L 1656 3500 
L 1656 2925 
Q 1872 3269 2151 3426 
Q 2431 3584 2822 3584 
Q 2878 3584 2943 3579 
Q 3009 3575 3134 3559 
L 3138 2547 
z
" transform="scale(0.015625)"/>
      <path id="DejaVuSans-Bold-63" d="M 3366 3391 
L 3366 2478 
Q 3138 2634 2908 2709 
Q 2678 2784 2431 2784 
Q 1963 2784 1702 2511 
Q 1441 2238 1441 1747 
Q 1441 1256 1702 982 
Q 1963 709 2431 709 
Q 2694 709 2930 787 
Q 3166 866 3366 1019 
L 3366 103 
Q 3103 6 2833 -42 
Q 2563 -91 2291 -91 
Q 1344 -91 809 395 
Q 275 881 275 1747 
Q 275 2613 809 3098 
Q 1344 3584 2291 3584 
Q 2566 3584 2833 3536 
Q 3100 3488 3366 3391 
z
" transform="scale(0.015625)"/>
      <path id="DejaVuSans-Bold-64" d="M 2919 2988 
L 2919 4863 
L 4044 4863 
L 4044 0 
L 2919 0 
L 2919 506 
Q 2688 197 2409 53 
Q 2131 -91 1766 -91 
Q 1119 -91 703 423 
Q 288 938 288 1747 
Q 288 2556 703 3070 
Q 1119 3584 1766 3584 
Q 2128 3584 2408 3439 
Q 2688 3294 2919 2988 
z
M 2181 722 
Q 2541 722 2730 984 
Q 2919 1247 2919 1747 
Q 2919 2247 2730 2509 
Q 2541 2772 2181 2772 
Q 1825 2772 1636 2509 
Q 1447 2247 1447 1747 
Q 1447 1247 1636 984 
Q 1825 722 2181 722 
z
" transform="scale(0.015625)"/>
      <path id="DejaVuSans-Bold-6c" d="M 538 4863 
L 1656 4863 
L 1656 0 
L 538 0 
L 538 4863 
z
" transform="scale(0.015625)"/>
      <path id="DejaVuSans-Bold-66" d="M 2841 4863 
L 2841 4128 
L 2222 4128 
Q 1984 4128 1890 4042 
Q 1797 3956 1797 3744 
L 1797 3500 
L 2753 3500 
L 2753 2700 
L 1797 2700 
L 1797 0 
L 678 0 
L 678 2700 
L 122 2700 
L 122 3500 
L 678 3500 
L 678 3744 
Q 678 4316 997 4589 
Q 1316 4863 1984 4863 
L 2841 4863 
z
" transform="scale(0.015625)"/>
     </defs>
     <use xlink:href="#DejaVuSans-Bold-45"/>
     <use xlink:href="#DejaVuSans-Bold-69" transform="translate(68.310547 0)"/>
     <use xlink:href="#DejaVuSans-Bold-6e" transform="translate(102.587891 0)"/>
     <use xlink:href="#DejaVuSans-Bold-73" transform="translate(173.779297 0)"/>
     <use xlink:href="#DejaVuSans-Bold-74" transform="translate(233.300781 0)"/>
     <use xlink:href="#DejaVuSans-Bold-65" transform="translate(281.103516 0)"/>
     <use xlink:href="#DejaVuSans-Bold-69" transform="translate(348.925781 0)"/>
     <use xlink:href="#DejaVuSans-Bold-6e" transform="translate(383.203125 0)"/>
     <use xlink:href="#DejaVuSans-Bold-2d" transform="translate(454.394531 0)"/>
     <use xlink:href="#DejaVuSans-Bold-56" transform="translate(488.648438 0)"/>
     <use xlink:href="#DejaVuSans-Bold-45" transform="translate(566.041016 0)"/>
     <use xlink:href="#DejaVuSans-Bold-44" transform="translate(634.351562 0)"/>
     <use xlink:href="#DejaVuSans-Bold-3a" transform="translate(717.359375 0)"/>
     <use xlink:href="#DejaVuSans-Bold-20" transform="translate(757.349609 0)"/>
     <use xlink:href="#DejaVuSans-Bold-62d" transform="translate(792.164062 0)"/>
     <use xlink:href="#DejaVuSans-Bold-62a" transform="translate(864.234375 0)"/>
     <use xlink:href="#DejaVuSans-Bold-645" transform="translate(964.722656 0)"/>
     <use xlink:href="#DejaVuSans-Bold-64a" transform="translate(1038.013672 0)"/>
     <use xlink:href="#DejaVuSans-Bold-20" transform="translate(1129.664062 0)"/>
     <use xlink:href="#DejaVuSans-Bold-67" transform="translate(1164.478516 0)"/>
     <use xlink:href="#DejaVuSans-Bold-65" transform="translate(1236.060547 0)"/>
     <use xlink:href="#DejaVuSans-Bold-6f" transform="translate(1303.882812 0)"/>
     <use xlink:href="#DejaVuSans-Bold-6d" transform="translate(1372.583984 0)"/>
     <use xlink:href="#DejaVuSans-Bold-65" transform="translate(1476.783203 0)"/>
     <use xlink:href="#DejaVuSans-Bold-74" transform="translate(1544.605469 0)"/>
     <use xlink:href="#DejaVuSans-Bold-72" transform="translate(1592.408203 0)"/>
     <use xlink:href="#DejaVuSans-Bold-69" transform="translate(1641.724609 0)"/>
     <use xlink:href="#DejaVuSans-Bold-63" transform="translate(1676.001953 0)"/>
     <use xlink:href="#DejaVuSans-Bold-20" transform="translate(1735.279297 0)"/>
     <use xlink:href="#DejaVuSans-Bold-6d" transform="translate(1770.09375 0)"/>
     <use xlink:href="#DejaVuSans-Bold-6f" transform="translate(1874.292969 0)"/>
     <use xlink:href="#DejaVuSans-Bold-64" transform="translate(1942.994141 0)"/>
     <use xlink:href="#DejaVuSans-Bold-65" transform="translate(2014.576172 0)"/>
     <use xlink:href="#DejaVuSans-Bold-6c" transform="translate(2082.398438 0)"/>
     <use xlink:href="#DejaVuSans-Bold-20" transform="translate(2116.675781 0)"/>
     <use xlink:href="#DejaVuSans-Bold-6f" transform="translate(2151.490234 0)"/>
     <use xlink:href="#DejaVuSans-Bold-66" transform="translate(2220.191406 0)"/>
    </g>
    <!-- proton.  نصف القطر مشتق من 4 أطوال موجية -->
    <g transform="translate(415.8215 337.890941) scale(0.1 -0.1)">
     <defs>
      <path id="DejaVuSans-Bold-70" d="M 1656 506 
L 1656 -1331 
L 538 -1331 
L 538 3500 
L 1656 3500 
L 1656 2988 
Q 1888 3294 2169 3439 
Q 2450 3584 2816 3584 
Q 3463 3584 3878 3070 
Q 4294 2556 4294 1747 
Q 4294 938 3878 423 
Q 3463 -91 2816 -91 
Q 2450 -91 2169 54 
Q 1888 200 1656 506 
z
M 2400 2772 
Q 2041 2772 1848 2508 
Q 1656 2244 1656 1747 
Q 1656 1250 1848 986 
Q 2041 722 2400 722 
Q 2759 722 2948 984 
Q 3138 1247 3138 1747 
Q 3138 2247 2948 2509 
Q 2759 2772 2400 2772 
z
" transform="scale(0.015625)"/>
      <path id="DejaVuSans-Bold-2e" d="M 653 1209 
L 1778 1209 
L 1778 0 
L 653 0 
L 653 1209 
z
" transform="scale(0.015625)"/>
      <path id="DejaVuSans-Bold-634" d="M 4951 3746 
L 5419 3746 
L 5419 3277 
L 4951 3277 
L 4951 3746 
z
M 5341 2965 
L 5810 2965 
L 5810 2496 
L 5341 2496 
L 5341 2965 
z
M 4560 2965 
L 5029 2965 
L 5029 2496 
L 4560 2496 
L 4560 2965 
z
M 3241 -125 
Q 3422 200 3422 563 
Q 3422 944 3369 1144 
L 3169 1875 
L 4288 1875 
L 4400 1388 
Q 4450 1156 4538 969 
Q 4622 784 4881 781 
Q 5103 778 5178 947 
Q 5294 1209 5294 1875 
L 6413 1875 
Q 6413 1234 6472 1078 
Q 6584 781 6791 781 
Q 7181 781 7181 1425 
L 7181 2344 
L 8300 2344 
L 8300 1275 
Q 8300 653 8013 300 
Q 7788 22 7347 -53 
Q 7138 -91 6784 -91 
Q 6531 -91 6350 0 
Q 5884 225 5853 528 
Q 5744 113 5313 0 
Q 5088 -56 4869 -56 
Q 4600 -56 4388 225 
Q 4388 -347 4144 -716 
Q 3769 -1281 3034 -1481 
Q 2734 -1563 2272 -1563 
Q 1650 -1563 1322 -1450 
Q 406 -1134 406 -69 
Q 406 544 734 1106 
L 1853 1106 
Q 1516 463 1519 -69 
Q 1522 -566 1969 -694 
Q 2088 -728 2253 -728 
Q 2597 -728 2841 -547 
Q 3119 -338 3241 -125 
z
" transform="scale(0.015625)"/>
      <path id="DejaVuSans-Bold-34" d="M 2356 3675 
L 1038 1722 
L 2356 1722 
L 2356 3675 
z
M 2156 4666 
L 3494 4666 
L 3494 1722 
L 4159 1722 
L 4159 850 
L 3494 850 
L 3494 0 
L 2356 0 
L 2356 850 
L 288 850 
L 288 1881 
L 2156 4666 
z
" transform="scale(0.015625)"/>
      <path id="DejaVuSans-Bold-623" d="M 502 5335 
L 746 5391 
Q 577 5429 527 5532 
Q 477 5638 477 5763 
Q 486 6095 652 6229 
Q 802 6354 1211 6354 
Q 1418 6354 1611 6285 
L 1611 5895 
Q 1393 5957 1211 5957 
Q 1080 5957 1021 5929 
Q 930 5885 930 5735 
Q 930 5573 1127 5523 
Q 1202 5504 1296 5520 
L 1636 5582 
L 1636 5179 
L 502 4938 
L 502 5335 
z
M 538 4863 
L 1656 4863 
L 1656 0 
L 538 0 
L 538 4863 
z
" transform="scale(0.015625)"/>
      <path id="DejaVuSans-Bold-62c" d="M 2888 597 
L 3357 597 
L 3357 128 
L 2888 128 
L 2888 597 
z
M 3969 1800 
Q 2922 1859 2313 1369 
Q 1678 859 1678 234 
Q 1678 -144 2000 -475 
Q 2281 -763 3022 -763 
Q 3963 -763 4606 -284 
L 4606 -1144 
Q 4094 -1563 3038 -1563 
Q 1672 -1559 1047 -941 
Q 559 -459 559 234 
Q 559 794 997 1328 
Q 1316 1719 1934 1963 
Q 1672 1972 1209 1909 
Q 788 1850 491 1722 
L 491 2522 
Q 1338 2719 1963 2719 
Q 3063 2719 3969 2600 
L 3969 1800 
z
" transform="scale(0.015625)"/>
      <path id="DejaVuSans-Bold-629" d="M 1717 3285 
L 2186 3285 
L 2186 2816 
L 1717 2816 
L 1717 3285 
z
M 936 3285 
L 1405 3285 
L 1405 2816 
L 936 2816 
L 936 3285 
z
M 1781 1500 
Q 1516 1500 1469 1366 
Q 1422 1228 1425 984 
Q 1428 772 1609 669 
Q 1709 613 1881 613 
Q 2006 613 2134 694 
Q 2338 825 2338 966 
Q 2338 1097 2191 1250 
Q 1956 1500 1781 1500 
z
M 1669 2294 
Q 2353 2294 3016 1794 
Q 3463 1456 3456 944 
Q 3450 413 2994 84 
Q 2619 -184 1884 -188 
Q 1347 -188 909 -59 
Q 313 119 306 906 
Q 303 1472 422 1716 
Q 706 2294 1669 2294 
z
" transform="scale(0.015625)"/>
     </defs>
     <use xlink:href="#DejaVuSans-Bold-70"/>
     <use xlink:href="#DejaVuSans-Bold-72" transform="translate(71.582031 0)"/>
     <use xlink:href="#DejaVuSans-Bold-6f" transform="translate(120.898438 0)"/>
     <use xlink:href="#DejaVuSans-Bold-74" transform="translate(189.599609 0)"/>
     <use xlink:href="#DejaVuSans-Bold-6f" transform="translate(237.402344 0)"/>
     <use xlink:href="#DejaVuSans-Bold-6e" transform="translate(306.103516 0)"/>
     <use xlink:href="#DejaVuSans-Bold-2e" transform="translate(377.294922 0)"/>
     <use xlink:href="#DejaVuSans-Bold-20" transform="translate(415.283203 0)"/>
     <use xlink:href="#DejaVuSans-Bold-20" transform="translate(450.097656 0)"/>
     <use xlink:href="#DejaVuSans-Bold-646" transform="translate(484.912109 0)"/>
     <use xlink:href="#DejaVuSans-Bold-635" transform="translate(570.263672 0)"/>
     <use xlink:href="#DejaVuSans-Bold-641" transform="translate(704.785156 0)"/>
     <use xlink:href="#DejaVuSans-Bold-20" transform="translate(820.947266 0)"/>
     <use xlink:href="#DejaVuSans-Bold-627" transform="translate(855.761719 0)"/>
     <use xlink:href="#DejaVuSans-Bold-644" transform="translate(890.039062 0)"/>
     <use xlink:href="#DejaVuSans-Bold-642" transform="translate(976.806641 0)"/>
     <use xlink:href="#DejaVuSans-Bold-637" transform="translate(1066.210938 0)"/>
     <use xlink:href="#DejaVuSans-Bold-631" transform="translate(1170.068359 0)"/>
     <use xlink:href="#DejaVuSans-Bold-20" transform="translate(1227.636719 0)"/>
     <use xlink:href="#DejaVuSans-Bold-645" transform="translate(1262.451172 0)"/>
     <use xlink:href="#DejaVuSans-Bold-634" transform="translate(1335.742188 0)"/>
     <use xlink:href="#DejaVuSans-Bold-62a" transform="translate(1473.730469 0)"/>
     <use xlink:href="#DejaVuSans-Bold-642" transform="translate(1574.21875 0)"/>
     <use xlink:href="#DejaVuSans-Bold-20" transform="translate(1663.623047 0)"/>
     <use xlink:href="#DejaVuSans-Bold-645" transform="translate(1698.4375 0)"/>
     <use xlink:href="#DejaVuSans-Bold-646" transform="translate(1771.728516 0)"/>
     <use xlink:href="#DejaVuSans-Bold-20" transform="translate(1857.080078 0)"/>
     <use xlink:href="#DejaVuSans-Bold-34" transform="translate(1891.894531 0)"/>
     <use xlink:href="#DejaVuSans-Bold-20" transform="translate(1961.474609 0)"/>
     <use xlink:href="#DejaVuSans-Bold-623" transform="translate(1996.289062 0)"/>
     <use xlink:href="#DejaVuSans-Bold-637" transform="translate(2030.566406 0)"/>
     <use xlink:href="#DejaVuSans-Bold-648" transform="translate(2134.423828 0)"/>
     <use xlink:href="#DejaVuSans-Bold-627" transform="translate(2196.582031 0)"/>
     <use xlink:href="#DejaVuSans-Bold-644" transform="translate(2230.859375 0)"/>
     <use xlink:href="#DejaVuSans-Bold-20" transform="translate(2317.626953 0)"/>
     <use xlink:href="#DejaVuSans-Bold-645" transform="translate(2352.441406 0)"/>
     <use xlink:href="#DejaVuSans-Bold-648" transform="translate(2425.732422 0)"/>
     <use xlink:href="#DejaVuSans-Bold-62c" transform="translate(2487.890625 0)"/>
     <use xlink:href="#DejaVuSans-Bold-64a" transform="translate(2559.960938 0)"/>
     <use xlink:href="#DejaVuSans-Bold-629" transform="translate(2651.611328 0)"/>
    </g>
    <!-- للحبس. -->
    <g transform="translate(415.8215 349.451253) scale(0.1 -0.1)">
     <defs>
      <path id="DejaVuSans-Bold-633" d="M 3241 -125 
Q 3422 200 3422 563 
Q 3422 944 3369 1144 
L 3169 1875 
L 4288 1875 
L 4400 1388 
Q 4450 1156 4538 969 
Q 4622 784 4881 781 
Q 5103 778 5178 947 
Q 5294 1209 5294 1875 
L 6413 1875 
Q 6413 1234 6472 1078 
Q 6584 781 6791 781 
Q 7181 781 7181 1425 
L 7181 2344 
L 8300 2344 
L 8300 1275 
Q 8300 653 8013 300 
Q 7788 22 7347 -53 
Q 7138 -91 6784 -91 
Q 6531 -91 6350 0 
Q 5884 225 5853 528 
Q 5744 113 5313 0 
Q 5088 -56 4869 -56 
Q 4600 -56 4388 225 
Q 4388 -347 4144 -716 
Q 3769 -1281 3034 -1481 
Q 2734 -1563 2272 -1563 
Q 1650 -1563 1322 -1450 
Q 406 -1134 406 -69 
Q 406 544 734 1106 
L 1853 1106 
Q 1516 463 1519 -69 
Q 1522 -566 1969 -694 
Q 2088 -728 2253 -728 
Q 2597 -728 2841 -547 
Q 3119 -338 3241 -125 
z
" transform="scale(0.015625)"/>
     </defs>
     <use xlink:href="#DejaVuSans-Bold-644"/>
     <use xlink:href="#DejaVuSans-Bold-644" transform="translate(86.767578 0)"/>
     <use xlink:href="#DejaVuSans-Bold-62d" transform="translate(173.535156 0)"/>
     <use xlink:href="#DejaVuSans-Bold-628" transform="translate(245.605469 0)"/>
     <use xlink:href="#DejaVuSans-Bold-633" transform="translate(346.09375 0)"/>
     <use xlink:href="#DejaVuSans-Bold-2e" transform="translate(484.082031 0)"/>
    </g>
   </g>
   <g id="text_11">
    <!-- تقديرات نصف قطر البروتون -->
    <g transform="translate(228.202969 21.458062) scale(0.14 -0.14)">
     <defs>
      <path id="DejaVuSans-Bold-62f" d="M 1222 694 
Q 1769 838 1847 1091 
Q 1931 1363 1703 1797 
Q 1509 2175 1025 2656 
L 2178 2656 
Q 2584 2144 2672 1984 
Q 3075 1272 2828 638 
Q 2597 47 1453 -97 
Q 850 -172 391 0 
L 391 797 
Q 881 606 1222 694 
z
" transform="scale(0.015625)"/>
     </defs>
     <use xlink:href="#DejaVuSans-Bold-62a"/>
     <use xlink:href="#DejaVuSans-Bold-642" transform="translate(100.488281 0)"/>
     <use xlink:href="#DejaVuSans-Bold-62f" transform="translate(189.892578 0)"/>
     <use xlink:href="#DejaVuSans-Bold-64a" transform="translate(241.210938 0)"/>
     <use xlink:href="#DejaVuSans-Bold-631" transform="translate(332.861328 0)"/>
     <use xlink:href="#DejaVuSans-Bold-627" transform="translate(390.429688 0)"/>
     <use xlink:href="#DejaVuSans-Bold-62a" transform="translate(424.707031 0)"/>
     <use xlink:href="#DejaVuSans-Bold-20" transform="translate(525.195312 0)"/>
     <use xlink:href="#DejaVuSans-Bold-646" transform="translate(560.009766 0)"/>
     <use xlink:href="#DejaVuSans-Bold-635" transform="translate(645.361328 0)"/>
     <use xlink:href="#DejaVuSans-Bold-641" transform="translate(779.882812 0)"/>
     <use xlink:href="#DejaVuSans-Bold-20" transform="translate(896.044922 0)"/>
     <use xlink:href="#DejaVuSans-Bold-642" transform="translate(930.859375 0)"/>
     <use xlink:href="#DejaVuSans-Bold-637" transform="translate(1020.263672 0)"/>
     <use xlink:href="#DejaVuSans-Bold-631" transform="translate(1124.121094 0)"/>
     <use xlink:href="#DejaVuSans-Bold-20" transform="translate(1181.689453 0)"/>
     <use xlink:href="#DejaVuSans-Bold-627" transform="translate(1216.503906 0)"/>
     <use xlink:href="#DejaVuSans-Bold-644" transform="translate(1250.78125 0)"/>
     <use xlink:href="#DejaVuSans-Bold-628" transform="translate(1337.548828 0)"/>
     <use xlink:href="#DejaVuSans-Bold-631" transform="translate(1438.037109 0)"/>
     <use xlink:href="#DejaVuSans-Bold-648" transform="translate(1495.605469 0)"/>
     <use xlink:href="#DejaVuSans-Bold-62a" transform="translate(1557.763672 0)"/>
     <use xlink:href="#DejaVuSans-Bold-648" transform="translate(1658.251953 0)"/>
     <use xlink:href="#DejaVuSans-Bold-646" transform="translate(1720.410156 0)"/>
    </g>
    <!-- مع نطاقات ±3σ -->
    <g transform="translate(292.293438 37.6425) scale(0.14 -0.14)">
     <defs>
      <path id="DejaVuSans-Bold-639" d="M 938 1103 
Q 1088 1275 1231 1356 
Q 1075 1369 925 1463 
Q 647 1638 650 2141 
Q 653 2609 1359 3116 
Q 1731 3381 3016 3331 
L 3016 2531 
Q 2288 2550 2044 2431 
Q 1753 2291 1753 2041 
Q 1753 1888 1903 1800 
Q 2047 1713 2441 1859 
Q 2906 2031 3728 2088 
L 3728 1288 
Q 2594 1128 2219 875 
Q 1678 506 1678 78 
Q 1678 -244 2000 -522 
Q 2281 -766 3022 -763 
Q 3963 -763 4606 -284 
L 4606 -1144 
Q 4094 -1563 3038 -1563 
Q 1559 -1559 1050 -1056 
Q 559 -575 559 0 
Q 559 669 938 1103 
z
" transform="scale(0.015625)"/>
      <path id="DejaVuSans-Bold-b1" d="M 3053 4013 
L 3053 2906 
L 4684 2906 
L 4684 2169 
L 3053 2169 
L 3053 1063 
L 2309 1063 
L 2309 2169 
L 678 2169 
L 678 2906 
L 2309 2906 
L 2309 4013 
L 3053 4013 
z
M 678 744 
L 4684 744 
L 4684 0 
L 678 0 
L 678 744 
z
" transform="scale(0.015625)"/>
      <path id="DejaVuSans-Bold-33" d="M 2981 2516 
Q 3453 2394 3698 2092 
Q 3944 1791 3944 1325 
Q 3944 631 3412 270 
Q 2881 -91 1863 -91 
Q 1503 -91 1142 -33 
Q 781 25 428 141 
L 428 1069 
Q 766 900 1098 814 
Q 1431 728 1753 728 
Q 2231 728 2486 893 
Q 2741 1059 2741 1369 
Q 2741 1688 2480 1852 
Q 2219 2016 1709 2016 
L 1228 2016 
L 1228 2791 
L 1734 2791 
Q 2188 2791 2409 2933 
Q 2631 3075 2631 3366 
Q 2631 3634 2415 3781 
Q 2200 3928 1806 3928 
Q 1516 3928 1219 3862 
Q 922 3797 628 3669 
L 628 4550 
Q 984 4650 1334 4700 
Q 1684 4750 2022 4750 
Q 2931 4750 3382 4451 
Q 3834 4153 3834 3553 
Q 3834 3144 3618 2883 
Q 3403 2622 2981 2516 
z
" transform="scale(0.015625)"/>
      <path id="DejaVuSans-Bold-3c3" d="M 2200 2784 
Q 1831 2784 1636 2517 
Q 1441 2250 1441 1747 
Q 1441 1244 1636 976 
Q 1831 709 2200 709 
Q 2569 709 2762 976 
Q 2956 1244 2956 1747 
Q 2956 2250 2762 2517 
Q 2569 2784 2200 2784 
z
M 4650 2700 
L 3916 2700 
Q 4122 2291 4122 1747 
Q 4122 884 3614 396 
Q 3106 -91 2203 -91 
Q 1297 -91 786 396 
Q 275 884 275 1747 
Q 275 2609 788 3097 
Q 1209 3500 2203 3500 
L 4650 3500 
L 4650 2700 
z
" transform="scale(0.015625)"/>
     </defs>
     <use xlink:href="#DejaVuSans-Bold-645"/>
     <use xlink:href="#DejaVuSans-Bold-639" transform="translate(73.291016 0)"/>
     <use xlink:href="#DejaVuSans-Bold-20" transform="translate(141.601562 0)"/>
     <use xlink:href="#DejaVuSans-Bold-646" transform="translate(176.416016 0)"/>
     <use xlink:href="#DejaVuSans-Bold-637" transform="translate(261.767578 0)"/>
     <use xlink:href="#DejaVuSans-Bold-627" transform="translate(365.625 0)"/>
     <use xlink:href="#DejaVuSans-Bold-642" transform="translate(399.902344 0)"/>
     <use xlink:href="#DejaVuSans-Bold-627" transform="translate(489.306641 0)"/>
     <use xlink:href="#DejaVuSans-Bold-62a" transform="translate(523.583984 0)"/>
     <use xlink:href="#DejaVuSans-Bold-20" transform="translate(624.072266 0)"/>
     <use xlink:href="#DejaVuSans-Bold-b1" transform="translate(658.886719 0)"/>
     <use xlink:href="#DejaVuSans-Bold-33" transform="translate(742.675781 0)"/>
     <use xlink:href="#DejaVuSans-Bold-3c3" transform="translate(812.255859 0)"/>
    </g>
   </g>
   <g id="PathCollection_1">
    <defs>
     <path id="C0_0_ecb7fdf502" d="M 0 5.477226 
C 1.452577 5.477226 2.845856 4.900111 3.872983 3.872983 
C 4.900111 2.845856 5.477226 1.452577 5.477226 -0 
C 5.477226 -1.452577 4.900111 -2.845856 3.872983 -3.872983 
C 2.845856 -4.900111 1.452577 -5.477226 0 -5.477226 
C -1.452577 -5.477226 -2.845856 -4.900111 -3.872983 -3.872983 
C -4.900111 -2.845856 -5.477226 -1.452577 -5.477226 0 
C -5.477226 1.452577 -4.900111 2.845856 -3.872983 3.872983 
C -2.845856 4.900111 -1.452577 5.477226 0 5.477226 
z
"/>
    </defs>
    <g clip-path="url(#p5f86f2bae0)">
     <use xlink:href="#C0_0_ecb7fdf502" x="150.547292" y="81.46112" style="fill: #377eb8; stroke: #000000"/>
    </g>
    <g clip-path="url(#p5f86f2bae0)">
     <use xlink:href="#C0_0_ecb7fdf502" x="354.604375" y="201.822661" style="fill: #4daf4a; stroke: #000000"/>
    </g>
    <g clip-path="url(#p5f86f2bae0)">
     <use xlink:href="#C0_0_ecb7fdf502" x="558.661458" y="201.588186" style="fill: #e41a1c; stroke: #000000"/>
    </g>
   </g>
   <g id="legend_1">
    <g id="patch_8">
     <path d="M 521.543125 96.764375 
L 653.69 96.764375 
Q 655.69 96.764375 655.69 94.764375 
L 655.69 50.6425 
Q 655.69 48.6425 653.69 48.6425 
L 521.543125 48.6425 
Q 519.543125 48.6425 519.543125 50.6425 
L 519.543125 94.764375 
Q 519.543125 96.764375 521.543125 96.764375 
z
" style="fill: #ffffff; opacity: 0.9; stroke: #cccccc; stroke-linejoin: miter"/>
    </g>
    <g id="patch_9">
     <path d="M 523.543125 60.240937 
L 543.543125 60.240937 
L 543.543125 53.240937 
L 523.543125 53.240937 
z
" style="fill: #377eb8; fill-opacity: 0.3; stroke: #377eb8; stroke-opacity: 0.3; stroke-linejoin: miter"/>
    </g>
    <g id="text_12">
     <!-- MC: احتمالي -->
     <g transform="translate(551.543125 60.240937) scale(0.1 -0.1)">
      <defs>
       <path id="DejaVuSans-4d" d="M 628 4666 
L 1569 4666 
L 2759 1491 
L 3956 4666 
L 4897 4666 
L 4897 0 
L 4281 0 
L 4281 4097 
L 3078 897 
L 2444 897 
L 1241 4097 
L 1241 0 
L 628 0 
L 628 4666 
z
" transform="scale(0.015625)"/>
       <path id="DejaVuSans-3a" d="M 750 794 
L 1409 794 
L 1409 0 
L 750 0 
L 750 794 
z
M 750 3309 
L 1409 3309 
L 1409 2516 
L 750 2516 
L 750 3309 
z
" transform="scale(0.015625)"/>
       <path id="DejaVuSans-62d" d="M 491 2522 
Q 1353 2719 1963 2719 
Q 2875 2719 3488 2550 
L 3488 2069 
Q 2569 2069 1897 1547 
Q 1197 1003 1197 188 
Q 1197 -234 1428 -534 
Q 1825 -1047 2859 -1047 
Q 3463 -1047 4125 -678 
L 4125 -1253 
Q 3656 -1563 2875 -1563 
Q 1569 -1563 1041 -956 
Q 631 -488 631 213 
Q 631 1019 1294 1716 
Q 1594 2031 2022 2194 
Q 1706 2194 1209 2134 
Q 816 2088 491 1947 
L 491 2522 
z
" transform="scale(0.015625)"/>
      </defs>
      <use xlink:href="#DejaVuSans-4d"/>
      <use xlink:href="#DejaVuSans-43" transform="translate(86.279297 0)"/>
      <use xlink:href="#DejaVuSans-3a" transform="translate(156.103516 0)"/>
      <use xlink:href="#DejaVuSans-20" transform="translate(189.794922 0)"/>
      <use xlink:href="#DejaVuSans-627" transform="translate(221.582031 0)"/>
      <use xlink:href="#DejaVuSans-62d" transform="translate(249.365234 0)"/>
      <use xlink:href="#DejaVuSans-62a" transform="translate(313.916016 0)"/>
      <use xlink:href="#DejaVuSans-645" transform="translate(408.056641 0)"/>
      <use xlink:href="#DejaVuSans-627" transform="translate(469.970703 0)"/>
      <use xlink:href="#DejaVuSans-644" transform="translate(497.753906 0)"/>
      <use xlink:href="#DejaVuSans-64a" transform="translate(570.410156 0)"/>
     </g>
    </g>
    <g id="patch_10">
     <path d="M 523.543125 75.281562 
L 543.543125 75.281562 
L 543.543125 68.281562 
L 523.543125 68.281562 
z
" style="fill: #4daf4a; fill-opacity: 0.4; stroke: #4daf4a; stroke-opacity: 0.4; stroke-linejoin: miter"/>
    </g>
    <g id="text_13">
     <!-- LHC: تجريبي -->
     <g transform="translate(551.543125 75.281562) scale(0.1 -0.1)">
      <use xlink:href="#DejaVuSans-4c"/>
      <use xlink:href="#DejaVuSans-48" transform="translate(55.712891 0)"/>
      <use xlink:href="#DejaVuSans-43" transform="translate(130.908203 0)"/>
      <use xlink:href="#DejaVuSans-3a" transform="translate(200.732422 0)"/>
      <use xlink:href="#DejaVuSans-20" transform="translate(234.423828 0)"/>
      <use xlink:href="#DejaVuSans-62a" transform="translate(266.210938 0)"/>
      <use xlink:href="#DejaVuSans-62c" transform="translate(360.351562 0)"/>
      <use xlink:href="#DejaVuSans-631" transform="translate(424.902344 0)"/>
      <use xlink:href="#DejaVuSans-64a" transform="translate(473.193359 0)"/>
      <use xlink:href="#DejaVuSans-628" transform="translate(551.464844 0)"/>
      <use xlink:href="#DejaVuSans-64a" transform="translate(645.605469 0)"/>
     </g>
    </g>
    <g id="patch_11">
     <path d="M 523.543125 90.322187 
L 543.543125 90.322187 
L 543.543125 83.322187 
L 523.543125 83.322187 
z
" style="fill: #e41a1c; fill-opacity: 0.6; stroke: #e41a1c; stroke-opacity: 0.6; stroke-linejoin: miter"/>
    </g>
    <g id="text_14">
     <!-- Einstein-VED: حتمي -->
     <g transform="translate(551.543125 90.322187) scale(0.1 -0.1)">
      <use xlink:href="#DejaVuSans-45"/>
      <use xlink:href="#DejaVuSans-69" transform="translate(63.183594 0)"/>
      <use xlink:href="#DejaVuSans-6e" transform="translate(90.966797 0)"/>
      <use xlink:href="#DejaVuSans-73" transform="translate(154.345703 0)"/>
      <use xlink:href="#DejaVuSans-74" transform="translate(206.445312 0)"/>
      <use xlink:href="#DejaVuSans-65" transform="translate(245.654297 0)"/>
      <use xlink:href="#DejaVuSans-69" transform="translate(307.177734 0)"/>
      <use xlink:href="#DejaVuSans-6e" transform="translate(334.960938 0)"/>
      <use xlink:href="#DejaVuSans-2d" transform="translate(398.339844 0)"/>
      <use xlink:href="#DejaVuSans-56" transform="translate(428.548828 0)"/>
      <use xlink:href="#DejaVuSans-45" transform="translate(496.957031 0)"/>
      <use xlink:href="#DejaVuSans-44" transform="translate(560.140625 0)"/>
      <use xlink:href="#DejaVuSans-3a" transform="translate(637.142578 0)"/>
      <use xlink:href="#DejaVuSans-20" transform="translate(670.833984 0)"/>
      <use xlink:href="#DejaVuSans-62d" transform="translate(702.621094 0)"/>
      <use xlink:href="#DejaVuSans-62a" transform="translate(767.171875 0)"/>
      <use xlink:href="#DejaVuSans-645" transform="translate(861.3125 0)"/>
      <use xlink:href="#DejaVuSans-64a" transform="translate(923.226562 0)"/>
     </g>
    </g>
   </g>
  </g>
 </g>
 <defs>
  <clipPath id="p5f86f2bae0">
   <rect x="48.51875" y="43.6425" width="612.17125" height="340.367582"/>
  </clipPath>
 </defs>
</svg>
