<?xml version="1.0" encoding="utf-8" standalone="no"?>
<!DOCTYPE svg PUBLIC "-//W3C//DTD SVG 1.1//EN"
  "http://www.w3.org/Graphics/SVG/1.1/DTD/svg11.dtd">
<svg xmlns:xlink="http://www.w3.org/1999/xlink" width="1072.494688pt" height="228.96425pt" viewBox="0 0 1072.494688 228.96425" xmlns="http://www.w3.org/2000/svg" version="1.1">
 <metadata>
  <rdf:RDF xmlns:dc="http://purl.org/dc/elements/1.1/" xmlns:cc="http://creativecommons.org/ns#" xmlns:rdf="http://www.w3.org/1999/02/22-rdf-syntax-ns#">
   <cc:Work>
    <dc:type rdf:resource="http://purl.org/dc/dcmitype/StillImage"/>
    <dc:date>2025-12-03T16:19:44.419514</dc:date>
    <dc:format>image/svg+xml</dc:format>
    <dc:creator>
     <cc:Agent>
      <dc:title>Matplotlib v3.10.6, https://matplotlib.org/</dc:title>
     </cc:Agent>
    </dc:creator>
   </cc:Work>
  </rdf:RDF>
 </metadata>
 <defs>
  <style type="text/css">*{stroke-linejoin: round; stroke-linecap: butt}</style>
 </defs>
 <g id="figure_1">
  <g id="patch_1">
   <path d="M 0 228.96425 
L 1072.494688 228.96425 
L 1072.494688 -0 
L 0 -0 
z
" style="fill: #ffffff"/>
  </g>
  <g id="axes_1">
   <g id="patch_2">
    <path d="M 38.248438 175.84275 
L 349.553437 175.84275 
L 349.553437 51.32075 
L 38.248438 51.32075 
z
" style="fill: #ffffff"/>
   </g>
   <g id="patch_3">
    <path d="M 69.378938 150.93835 
L 318.422937 150.93835 
L 318.422937 76.22515 
L 69.378938 76.22515 
L 69.378938 150.93835 
z
" clip-path="url(#p59c1f9a62d)" style="fill: none; stroke: #a52a2a; stroke-width: 2; stroke-linejoin: miter"/>
   </g>
   <g id="matplotlib.axis_1">
    <g id="xtick_1">
     <g id="line2d_1">
      <path d="M 69.378938 175.84275 
L 69.378938 51.32075 
" clip-path="url(#p59c1f9a62d)" style="fill: none; stroke: #b0b0b0; stroke-opacity: 0.3; stroke-width: 0.8; stroke-linecap: square"/>
     </g>
     <g id="line2d_2">
      <defs>
       <path id="m7e75f918fc" d="M 0 0 
L 0 3.5 
" style="stroke: #000000; stroke-width: 0.8"/>
      </defs>
      <g>
       <use xlink:href="#m7e75f918fc" x="69.378938" y="175.84275" style="stroke: #000000; stroke-width: 0.8"/>
      </g>
     </g>
     <g id="text_1">
      <!-- 0 -->
      <g transform="translate(66.197688 190.441188) scale(0.1 -0.1)">
       <defs>
        <path id="DejaVuSans-30" d="M 2034 4250 
Q 1547 4250 1301 3770 
Q 1056 3291 1056 2328 
Q 1056 1369 1301 889 
Q 1547 409 2034 409 
Q 2525 409 2770 889 
Q 3016 1369 3016 2328 
Q 3016 3291 2770 3770 
Q 2525 4250 2034 4250 
z
M 2034 4750 
Q 2819 4750 3233 4129 
Q 3647 3509 3647 2328 
Q 3647 1150 3233 529 
Q 2819 -91 2034 -91 
Q 1250 -91 836 529 
Q 422 1150 422 2328 
Q 422 3509 836 4129 
Q 1250 4750 2034 4750 
z
" transform="scale(0.015625)"/>
       </defs>
       <use xlink:href="#DejaVuSans-30"/>
      </g>
     </g>
    </g>
    <g id="xtick_2">
     <g id="line2d_3">
      <path d="M 131.639938 175.84275 
L 131.639938 51.32075 
" clip-path="url(#p59c1f9a62d)" style="fill: none; stroke: #b0b0b0; stroke-opacity: 0.3; stroke-width: 0.8; stroke-linecap: square"/>
     </g>
     <g id="line2d_4">
      <g>
       <use xlink:href="#m7e75f918fc" x="131.639938" y="175.84275" style="stroke: #000000; stroke-width: 0.8"/>
      </g>
     </g>
     <g id="text_2">
      <!-- 2 -->
      <g transform="translate(128.458687 190.441188) scale(0.1 -0.1)">
       <defs>
        <path id="DejaVuSans-32" d="M 1228 531 
L 3431 531 
L 3431 0 
L 469 0 
L 469 531 
Q 828 903 1448 1529 
Q 2069 2156 2228 2338 
Q 2531 2678 2651 2914 
Q 2772 3150 2772 3378 
Q 2772 3750 2511 3984 
Q 2250 4219 1831 4219 
Q 1534 4219 1204 4116 
Q 875 4013 500 3803 
L 500 4441 
Q 881 4594 1212 4672 
Q 1544 4750 1819 4750 
Q 2544 4750 2975 4387 
Q 3406 4025 3406 3419 
Q 3406 3131 3298 2873 
Q 3191 2616 2906 2266 
Q 2828 2175 2409 1742 
Q 1991 1309 1228 531 
z
" transform="scale(0.015625)"/>
       </defs>
       <use xlink:href="#DejaVuSans-32"/>
      </g>
     </g>
    </g>
    <g id="xtick_3">
     <g id="line2d_5">
      <path d="M 193.900937 175.84275 
L 193.900937 51.32075 
" clip-path="url(#p59c1f9a62d)" style="fill: none; stroke: #b0b0b0; stroke-opacity: 0.3; stroke-width: 0.8; stroke-linecap: square"/>
     </g>
     <g id="line2d_6">
      <g>
       <use xlink:href="#m7e75f918fc" x="193.900937" y="175.84275" style="stroke: #000000; stroke-width: 0.8"/>
      </g>
     </g>
     <g id="text_3">
      <!-- 4 -->
      <g transform="translate(190.719687 190.441188) scale(0.1 -0.1)">
       <defs>
        <path id="DejaVuSans-34" d="M 2419 4116 
L 825 1625 
L 2419 1625 
L 2419 4116 
z
M 2253 4666 
L 3047 4666 
L 3047 1625 
L 3713 1625 
L 3713 1100 
L 3047 1100 
L 3047 0 
L 2419 0 
L 2419 1100 
L 313 1100 
L 313 1709 
L 2253 4666 
z
" transform="scale(0.015625)"/>
       </defs>
       <use xlink:href="#DejaVuSans-34"/>
      </g>
     </g>
    </g>
    <g id="xtick_4">
     <g id="line2d_7">
      <path d="M 256.161938 175.84275 
L 256.161938 51.32075 
" clip-path="url(#p59c1f9a62d)" style="fill: none; stroke: #b0b0b0; stroke-opacity: 0.3; stroke-width: 0.8; stroke-linecap: square"/>
     </g>
     <g id="line2d_8">
      <g>
       <use xlink:href="#m7e75f918fc" x="256.161938" y="175.84275" style="stroke: #000000; stroke-width: 0.8"/>
      </g>
     </g>
     <g id="text_4">
      <!-- 6 -->
      <g transform="translate(252.980688 190.441188) scale(0.1 -0.1)">
       <defs>
        <path id="DejaVuSans-36" d="M 2113 2584 
Q 1688 2584 1439 2293 
Q 1191 2003 1191 1497 
Q 1191 994 1439 701 
Q 1688 409 2113 409 
Q 2538 409 2786 701 
Q 3034 994 3034 1497 
Q 3034 2003 2786 2293 
Q 2538 2584 2113 2584 
z
M 3366 4563 
L 3366 3988 
Q 3128 4100 2886 4159 
Q 2644 4219 2406 4219 
Q 1781 4219 1451 3797 
Q 1122 3375 1075 2522 
Q 1259 2794 1537 2939 
Q 1816 3084 2150 3084 
Q 2853 3084 3261 2657 
Q 3669 2231 3669 1497 
Q 3669 778 3244 343 
Q 2819 -91 2113 -91 
Q 1303 -91 875 529 
Q 447 1150 447 2328 
Q 447 3434 972 4092 
Q 1497 4750 2381 4750 
Q 2619 4750 2861 4703 
Q 3103 4656 3366 4563 
z
" transform="scale(0.015625)"/>
       </defs>
       <use xlink:href="#DejaVuSans-36"/>
      </g>
     </g>
    </g>
    <g id="xtick_5">
     <g id="line2d_9">
      <path d="M 318.422937 175.84275 
L 318.422937 51.32075 
" clip-path="url(#p59c1f9a62d)" style="fill: none; stroke: #b0b0b0; stroke-opacity: 0.3; stroke-width: 0.8; stroke-linecap: square"/>
     </g>
     <g id="line2d_10">
      <g>
       <use xlink:href="#m7e75f918fc" x="318.422937" y="175.84275" style="stroke: #000000; stroke-width: 0.8"/>
      </g>
     </g>
     <g id="text_5">
      <!-- 8 -->
      <g transform="translate(315.241688 190.441188) scale(0.1 -0.1)">
       <defs>
        <path id="DejaVuSans-38" d="M 2034 2216 
Q 1584 2216 1326 1975 
Q 1069 1734 1069 1313 
Q 1069 891 1326 650 
Q 1584 409 2034 409 
Q 2484 409 2743 651 
Q 3003 894 3003 1313 
Q 3003 1734 2745 1975 
Q 2488 2216 2034 2216 
z
M 1403 2484 
Q 997 2584 770 2862 
Q 544 3141 544 3541 
Q 544 4100 942 4425 
Q 1341 4750 2034 4750 
Q 2731 4750 3128 4425 
Q 3525 4100 3525 3541 
Q 3525 3141 3298 2862 
Q 3072 2584 2669 2484 
Q 3125 2378 3379 2068 
Q 3634 1759 3634 1313 
Q 3634 634 3220 271 
Q 2806 -91 2034 -91 
Q 1263 -91 848 271 
Q 434 634 434 1313 
Q 434 1759 690 2068 
Q 947 2378 1403 2484 
z
M 1172 3481 
Q 1172 3119 1398 2916 
Q 1625 2713 2034 2713 
Q 2441 2713 2670 2916 
Q 2900 3119 2900 3481 
Q 2900 3844 2670 4047 
Q 2441 4250 2034 4250 
Q 1625 4250 1398 4047 
Q 1172 3844 1172 3481 
z
" transform="scale(0.015625)"/>
       </defs>
       <use xlink:href="#DejaVuSans-38"/>
      </g>
     </g>
    </g>
    <g id="text_6">
     <!-- Poloha x -->
     <g transform="translate(172.778281 204.119313) scale(0.1 -0.1)">
      <defs>
       <path id="DejaVuSans-50" d="M 1259 4147 
L 1259 2394 
L 2053 2394 
Q 2494 2394 2734 2622 
Q 2975 2850 2975 3272 
Q 2975 3691 2734 3919 
Q 2494 4147 2053 4147 
L 1259 4147 
z
M 628 4666 
L 2053 4666 
Q 2838 4666 3239 4311 
Q 3641 3956 3641 3272 
Q 3641 2581 3239 2228 
Q 2838 1875 2053 1875 
L 1259 1875 
L 1259 0 
L 628 0 
L 628 4666 
z
" transform="scale(0.015625)"/>
       <path id="DejaVuSans-6f" d="M 1959 3097 
Q 1497 3097 1228 2736 
Q 959 2375 959 1747 
Q 959 1119 1226 758 
Q 1494 397 1959 397 
Q 2419 397 2687 759 
Q 2956 1122 2956 1747 
Q 2956 2369 2687 2733 
Q 2419 3097 1959 3097 
z
M 1959 3584 
Q 2709 3584 3137 3096 
Q 3566 2609 3566 1747 
Q 3566 888 3137 398 
Q 2709 -91 1959 -91 
Q 1206 -91 779 398 
Q 353 888 353 1747 
Q 353 2609 779 3096 
Q 1206 3584 1959 3584 
z
" transform="scale(0.015625)"/>
       <path id="DejaVuSans-6c" d="M 603 4863 
L 1178 4863 
L 1178 0 
L 603 0 
L 603 4863 
z
" transform="scale(0.015625)"/>
       <path id="DejaVuSans-68" d="M 3513 2113 
L 3513 0 
L 2938 0 
L 2938 2094 
Q 2938 2591 2744 2837 
Q 2550 3084 2163 3084 
Q 1697 3084 1428 2787 
Q 1159 2491 1159 1978 
L 1159 0 
L 581 0 
L 581 4863 
L 1159 4863 
L 1159 2956 
Q 1366 3272 1645 3428 
Q 1925 3584 2291 3584 
Q 2894 3584 3203 3211 
Q 3513 2838 3513 2113 
z
" transform="scale(0.015625)"/>
       <path id="DejaVuSans-61" d="M 2194 1759 
Q 1497 1759 1228 1600 
Q 959 1441 959 1056 
Q 959 750 1161 570 
Q 1363 391 1709 391 
Q 2188 391 2477 730 
Q 2766 1069 2766 1631 
L 2766 1759 
L 2194 1759 
z
M 3341 1997 
L 3341 0 
L 2766 0 
L 2766 531 
Q 2569 213 2275 61 
Q 1981 -91 1556 -91 
Q 1019 -91 701 211 
Q 384 513 384 1019 
Q 384 1609 779 1909 
Q 1175 2209 1959 2209 
L 2766 2209 
L 2766 2266 
Q 2766 2663 2505 2880 
Q 2244 3097 1772 3097 
Q 1472 3097 1187 3025 
Q 903 2953 641 2809 
L 641 3341 
Q 956 3463 1253 3523 
Q 1550 3584 1831 3584 
Q 2591 3584 2966 3190 
Q 3341 2797 3341 1997 
z
" transform="scale(0.015625)"/>
       <path id="DejaVuSans-20" transform="scale(0.015625)"/>
       <path id="DejaVuSans-78" d="M 3513 3500 
L 2247 1797 
L 3578 0 
L 2900 0 
L 1881 1375 
L 863 0 
L 184 0 
L 1544 1831 
L 300 3500 
L 978 3500 
L 1906 2253 
L 2834 3500 
L 3513 3500 
z
" transform="scale(0.015625)"/>
      </defs>
      <use xlink:href="#DejaVuSans-50"/>
      <use xlink:href="#DejaVuSans-6f" transform="translate(56.677734 0)"/>
      <use xlink:href="#DejaVuSans-6c" transform="translate(117.859375 0)"/>
      <use xlink:href="#DejaVuSans-6f" transform="translate(145.642578 0)"/>
      <use xlink:href="#DejaVuSans-68" transform="translate(206.824219 0)"/>
      <use xlink:href="#DejaVuSans-61" transform="translate(270.203125 0)"/>
      <use xlink:href="#DejaVuSans-20" transform="translate(331.482422 0)"/>
      <use xlink:href="#DejaVuSans-78" transform="translate(363.269531 0)"/>
     </g>
    </g>
   </g>
   <g id="matplotlib.axis_2">
    <g id="ytick_1">
     <g id="line2d_11">
      <path d="M 38.248438 175.84275 
L 349.553437 175.84275 
" clip-path="url(#p59c1f9a62d)" style="fill: none; stroke: #b0b0b0; stroke-opacity: 0.3; stroke-width: 0.8; stroke-linecap: square"/>
     </g>
     <g id="line2d_12">
      <defs>
       <path id="m898d120dae" d="M 0 0 
L -3.5 0 
" style="stroke: #000000; stroke-width: 0.8"/>
      </defs>
      <g>
       <use xlink:href="#m898d120dae" x="38.248438" y="175.84275" style="stroke: #000000; stroke-width: 0.8"/>
      </g>
     </g>
     <g id="text_7">
      <!-- -2 -->
      <g transform="translate(21.278125 179.641969) scale(0.1 -0.1)">
       <defs>
        <path id="DejaVuSans-2d" d="M 313 2009 
L 1997 2009 
L 1997 1497 
L 313 1497 
L 313 2009 
z
" transform="scale(0.015625)"/>
       </defs>
       <use xlink:href="#DejaVuSans-2d"/>
       <use xlink:href="#DejaVuSans-32" transform="translate(36.083984 0)"/>
      </g>
     </g>
    </g>
    <g id="ytick_2">
     <g id="line2d_13">
      <path d="M 38.248438 144.71225 
L 349.553437 144.71225 
" clip-path="url(#p59c1f9a62d)" style="fill: none; stroke: #b0b0b0; stroke-opacity: 0.3; stroke-width: 0.8; stroke-linecap: square"/>
     </g>
     <g id="line2d_14">
      <g>
       <use xlink:href="#m898d120dae" x="38.248438" y="144.71225" style="stroke: #000000; stroke-width: 0.8"/>
      </g>
     </g>
     <g id="text_8">
      <!-- -1 -->
      <g transform="translate(21.278125 148.511469) scale(0.1 -0.1)">
       <defs>
        <path id="DejaVuSans-31" d="M 794 531 
L 1825 531 
L 1825 4091 
L 703 3866 
L 703 4441 
L 1819 4666 
L 2450 4666 
L 2450 531 
L 3481 531 
L 3481 0 
L 794 0 
L 794 531 
z
" transform="scale(0.015625)"/>
       </defs>
       <use xlink:href="#DejaVuSans-2d"/>
       <use xlink:href="#DejaVuSans-31" transform="translate(36.083984 0)"/>
      </g>
     </g>
    </g>
    <g id="ytick_3">
     <g id="line2d_15">
      <path d="M 38.248438 113.58175 
L 349.553437 113.58175 
" clip-path="url(#p59c1f9a62d)" style="fill: none; stroke: #b0b0b0; stroke-opacity: 0.3; stroke-width: 0.8; stroke-linecap: square"/>
     </g>
     <g id="line2d_16">
      <g>
       <use xlink:href="#m898d120dae" x="38.248438" y="113.58175" style="stroke: #000000; stroke-width: 0.8"/>
      </g>
     </g>
     <g id="text_9">
      <!-- 0 -->
      <g transform="translate(24.885938 117.380969) scale(0.1 -0.1)">
       <use xlink:href="#DejaVuSans-30"/>
      </g>
     </g>
    </g>
    <g id="ytick_4">
     <g id="line2d_17">
      <path d="M 38.248438 82.45125 
L 349.553437 82.45125 
" clip-path="url(#p59c1f9a62d)" style="fill: none; stroke: #b0b0b0; stroke-opacity: 0.3; stroke-width: 0.8; stroke-linecap: square"/>
     </g>
     <g id="line2d_18">
      <g>
       <use xlink:href="#m898d120dae" x="38.248438" y="82.45125" style="stroke: #000000; stroke-width: 0.8"/>
      </g>
     </g>
     <g id="text_10">
      <!-- 1 -->
      <g transform="translate(24.885938 86.250469) scale(0.1 -0.1)">
       <use xlink:href="#DejaVuSans-31"/>
      </g>
     </g>
    </g>
    <g id="ytick_5">
     <g id="line2d_19">
      <path d="M 38.248438 51.32075 
L 349.553437 51.32075 
" clip-path="url(#p59c1f9a62d)" style="fill: none; stroke: #b0b0b0; stroke-opacity: 0.3; stroke-width: 0.8; stroke-linecap: square"/>
     </g>
     <g id="line2d_20">
      <g>
       <use xlink:href="#m898d120dae" x="38.248438" y="51.32075" style="stroke: #000000; stroke-width: 0.8"/>
      </g>
     </g>
     <g id="text_11">
      <!-- 2 -->
      <g transform="translate(24.885938 55.119969) scale(0.1 -0.1)">
       <use xlink:href="#DejaVuSans-32"/>
      </g>
     </g>
    </g>
    <g id="text_12">
     <!-- Amplitúda ψ(x) -->
     <g transform="translate(15.198438 150.940344) rotate(-90) scale(0.1 -0.1)">
      <defs>
       <path id="DejaVuSans-41" d="M 2188 4044 
L 1331 1722 
L 3047 1722 
L 2188 4044 
z
M 1831 4666 
L 2547 4666 
L 4325 0 
L 3669 0 
L 3244 1197 
L 1141 1197 
L 716 0 
L 50 0 
L 1831 4666 
z
" transform="scale(0.015625)"/>
       <path id="DejaVuSans-6d" d="M 3328 2828 
Q 3544 3216 3844 3400 
Q 4144 3584 4550 3584 
Q 5097 3584 5394 3201 
Q 5691 2819 5691 2113 
L 5691 0 
L 5113 0 
L 5113 2094 
Q 5113 2597 4934 2840 
Q 4756 3084 4391 3084 
Q 3944 3084 3684 2787 
Q 3425 2491 3425 1978 
L 3425 0 
L 2847 0 
L 2847 2094 
Q 2847 2600 2669 2842 
Q 2491 3084 2119 3084 
Q 1678 3084 1418 2786 
Q 1159 2488 1159 1978 
L 1159 0 
L 581 0 
L 581 3500 
L 1159 3500 
L 1159 2956 
Q 1356 3278 1631 3431 
Q 1906 3584 2284 3584 
Q 2666 3584 2933 3390 
Q 3200 3197 3328 2828 
z
" transform="scale(0.015625)"/>
       <path id="DejaVuSans-70" d="M 1159 525 
L 1159 -1331 
L 581 -1331 
L 581 3500 
L 1159 3500 
L 1159 2969 
Q 1341 3281 1617 3432 
Q 1894 3584 2278 3584 
Q 2916 3584 3314 3078 
Q 3713 2572 3713 1747 
Q 3713 922 3314 415 
Q 2916 -91 2278 -91 
Q 1894 -91 1617 61 
Q 1341 213 1159 525 
z
M 3116 1747 
Q 3116 2381 2855 2742 
Q 2594 3103 2138 3103 
Q 1681 3103 1420 2742 
Q 1159 2381 1159 1747 
Q 1159 1113 1420 752 
Q 1681 391 2138 391 
Q 2594 391 2855 752 
Q 3116 1113 3116 1747 
z
" transform="scale(0.015625)"/>
       <path id="DejaVuSans-69" d="M 603 3500 
L 1178 3500 
L 1178 0 
L 603 0 
L 603 3500 
z
M 603 4863 
L 1178 4863 
L 1178 4134 
L 603 4134 
L 603 4863 
z
" transform="scale(0.015625)"/>
       <path id="DejaVuSans-74" d="M 1172 4494 
L 1172 3500 
L 2356 3500 
L 2356 3053 
L 1172 3053 
L 1172 1153 
Q 1172 725 1289 603 
Q 1406 481 1766 481 
L 2356 481 
L 2356 0 
L 1766 0 
Q 1100 0 847 248 
Q 594 497 594 1153 
L 594 3053 
L 172 3053 
L 172 3500 
L 594 3500 
L 594 4494 
L 1172 4494 
z
" transform="scale(0.015625)"/>
       <path id="DejaVuSans-fa" d="M 544 1381 
L 544 3500 
L 1119 3500 
L 1119 1403 
Q 1119 906 1312 657 
Q 1506 409 1894 409 
Q 2359 409 2629 706 
Q 2900 1003 2900 1516 
L 2900 3500 
L 3475 3500 
L 3475 0 
L 2900 0 
L 2900 538 
Q 2691 219 2414 64 
Q 2138 -91 1772 -91 
Q 1169 -91 856 284 
Q 544 659 544 1381 
z
M 1991 3584 
L 1991 3584 
z
M 2418 5119 
L 3040 5119 
L 2022 3944 
L 1543 3944 
L 2418 5119 
z
" transform="scale(0.015625)"/>
       <path id="DejaVuSans-64" d="M 2906 2969 
L 2906 4863 
L 3481 4863 
L 3481 0 
L 2906 0 
L 2906 525 
Q 2725 213 2448 61 
Q 2172 -91 1784 -91 
Q 1150 -91 751 415 
Q 353 922 353 1747 
Q 353 2572 751 3078 
Q 1150 3584 1784 3584 
Q 2172 3584 2448 3432 
Q 2725 3281 2906 2969 
z
M 947 1747 
Q 947 1113 1208 752 
Q 1469 391 1925 391 
Q 2381 391 2643 752 
Q 2906 1113 2906 1747 
Q 2906 2381 2643 2742 
Q 2381 3103 1925 3103 
Q 1469 3103 1208 2742 
Q 947 2381 947 1747 
z
" transform="scale(0.015625)"/>
       <path id="DejaVuSans-3c8" d="M 1816 -78 
Q 1094 38 759 341 
Q 350 713 350 1472 
L 350 3500 
L 931 3500 
L 931 1494 
Q 931 922 1197 684 
Q 1428 478 1816 434 
L 1816 3500 
L 2388 3500 
L 2388 438 
Q 2797 481 3006 688 
Q 3272 950 3272 1497 
L 3272 3500 
L 3853 3500 
L 3853 1475 
Q 3853 688 3444 344 
Q 3075 34 2388 -75 
L 2388 -1331 
L 1816 -1331 
L 1816 -78 
z
" transform="scale(0.015625)"/>
       <path id="DejaVuSans-28" d="M 1984 4856 
Q 1566 4138 1362 3434 
Q 1159 2731 1159 2009 
Q 1159 1288 1364 580 
Q 1569 -128 1984 -844 
L 1484 -844 
Q 1016 -109 783 600 
Q 550 1309 550 2009 
Q 550 2706 781 3412 
Q 1013 4119 1484 4856 
L 1984 4856 
z
" transform="scale(0.015625)"/>
       <path id="DejaVuSans-29" d="M 513 4856 
L 1013 4856 
Q 1481 4119 1714 3412 
Q 1947 2706 1947 2009 
Q 1947 1309 1714 600 
Q 1481 -109 1013 -844 
L 513 -844 
Q 928 -128 1133 580 
Q 1338 1288 1338 2009 
Q 1338 2731 1133 3434 
Q 928 4138 513 4856 
z
" transform="scale(0.015625)"/>
      </defs>
      <use xlink:href="#DejaVuSans-41"/>
      <use xlink:href="#DejaVuSans-6d" transform="translate(68.408203 0)"/>
      <use xlink:href="#DejaVuSans-70" transform="translate(165.820312 0)"/>
      <use xlink:href="#DejaVuSans-6c" transform="translate(229.296875 0)"/>
      <use xlink:href="#DejaVuSans-69" transform="translate(257.080078 0)"/>
      <use xlink:href="#DejaVuSans-74" transform="translate(284.863281 0)"/>
      <use xlink:href="#DejaVuSans-fa" transform="translate(324.072266 0)"/>
      <use xlink:href="#DejaVuSans-64" transform="translate(387.451172 0)"/>
      <use xlink:href="#DejaVuSans-61" transform="translate(450.927734 0)"/>
      <use xlink:href="#DejaVuSans-20" transform="translate(512.207031 0)"/>
      <use xlink:href="#DejaVuSans-3c8" transform="translate(543.994141 0)"/>
      <use xlink:href="#DejaVuSans-28" transform="translate(609.960938 0)"/>
      <use xlink:href="#DejaVuSans-78" transform="translate(648.974609 0)"/>
      <use xlink:href="#DejaVuSans-29" transform="translate(708.154297 0)"/>
     </g>
    </g>
   </g>
   <g id="line2d_21">
    <path d="M 69.378938 113.58175 
L 78.541091 104.551297 
L 83.53863 99.905277 
L 87.703245 96.29744 
L 91.867861 92.998477 
L 95.199553 90.621526 
L 98.531245 88.507311 
L 101.862938 86.680024 
L 105.19463 85.160576 
L 107.693399 84.233607 
L 110.192168 83.495623 
L 112.690938 82.951377 
L 115.189707 82.604372 
L 117.688476 82.456843 
L 120.187245 82.509741 
L 122.686014 82.762725 
L 125.184784 83.214166 
L 127.683553 83.861156 
L 130.182322 84.69953 
L 132.681091 85.723889 
L 136.012784 87.367441 
L 139.344476 89.310967 
L 142.676168 91.532225 
L 146.007861 94.005797 
L 150.172476 97.409209 
L 154.337091 101.101629 
L 159.33463 105.82082 
L 167.663861 114.067303 
L 176.826014 123.07578 
L 181.823553 127.692745 
L 185.988168 131.267793 
L 190.152784 134.526788 
L 193.484476 136.867073 
L 196.816168 138.940901 
L 200.147861 140.724542 
L 203.479553 142.197586 
L 205.978322 143.088261 
L 208.477091 143.78893 
L 210.975861 144.295083 
L 213.47463 144.60346 
L 215.973399 144.712074 
L 218.472168 144.620228 
L 220.970938 144.328511 
L 223.469707 143.838803 
L 225.968476 143.154258 
L 228.467245 142.279282 
L 230.966014 141.219511 
L 234.297707 139.530984 
L 237.629399 137.545518 
L 240.961091 135.285832 
L 244.292784 132.777785 
L 248.457399 129.337435 
L 252.622014 125.615526 
L 258.452476 120.059236 
L 270.113399 108.469254 
L 276.776784 102.063088 
L 281.774322 97.588265 
L 285.938937 94.168842 
L 289.27063 91.680348 
L 292.602322 89.442473 
L 295.934014 87.480826 
L 299.265707 85.817854 
L 301.764476 84.778213 
L 304.263245 83.92405 
L 306.762014 83.260865 
L 309.260784 82.79293 
L 311.759553 82.523256 
L 314.258322 82.453582 
L 316.757091 82.584354 
L 318.422937 82.782533 
L 318.422937 82.782533 
" clip-path="url(#p59c1f9a62d)" style="fill: none; stroke: #0000ff; stroke-width: 3; stroke-linecap: square"/>
   </g>
   <g id="patch_4">
    <path d="M 38.248438 175.84275 
L 38.248438 51.32075 
" style="fill: none; stroke: #000000; stroke-width: 0.8; stroke-linejoin: miter; stroke-linecap: square"/>
   </g>
   <g id="patch_5">
    <path d="M 349.553437 175.84275 
L 349.553437 51.32075 
" style="fill: none; stroke: #000000; stroke-width: 0.8; stroke-linejoin: miter; stroke-linecap: square"/>
   </g>
   <g id="patch_6">
    <path d="M 38.248438 175.84275 
L 349.553437 175.84275 
" style="fill: none; stroke: #000000; stroke-width: 0.8; stroke-linejoin: miter; stroke-linecap: square"/>
   </g>
   <g id="patch_7">
    <path d="M 38.248438 51.32075 
L 349.553437 51.32075 
" style="fill: none; stroke: #000000; stroke-width: 0.8; stroke-linejoin: miter; stroke-linecap: square"/>
   </g>
   <g id="text_13">
    <!-- a) Voľná rovinná vlna -->
    <g transform="translate(121.28125 45.32075) scale(0.12 -0.12)">
     <defs>
      <path id="DejaVuSans-Bold-61" d="M 2106 1575 
Q 1756 1575 1579 1456 
Q 1403 1338 1403 1106 
Q 1403 894 1545 773 
Q 1688 653 1941 653 
Q 2256 653 2472 879 
Q 2688 1106 2688 1447 
L 2688 1575 
L 2106 1575 
z
M 3816 1997 
L 3816 0 
L 2688 0 
L 2688 519 
Q 2463 200 2181 54 
Q 1900 -91 1497 -91 
Q 953 -91 614 226 
Q 275 544 275 1050 
Q 275 1666 698 1953 
Q 1122 2241 2028 2241 
L 2688 2241 
L 2688 2328 
Q 2688 2594 2478 2717 
Q 2269 2841 1825 2841 
Q 1466 2841 1156 2769 
Q 847 2697 581 2553 
L 581 3406 
Q 941 3494 1303 3539 
Q 1666 3584 2028 3584 
Q 2975 3584 3395 3211 
Q 3816 2838 3816 1997 
z
" transform="scale(0.015625)"/>
      <path id="DejaVuSans-Bold-29" d="M 513 -844 
Q 913 -100 1113 609 
Q 1313 1319 1313 2009 
Q 1313 2700 1113 3408 
Q 913 4116 513 4856 
L 1441 4856 
Q 1916 4091 2145 3389 
Q 2375 2688 2375 2003 
Q 2375 1319 2147 623 
Q 1919 -72 1441 -844 
L 513 -844 
z
" transform="scale(0.015625)"/>
      <path id="DejaVuSans-Bold-20" transform="scale(0.015625)"/>
      <path id="DejaVuSans-Bold-56" d="M 31 4666 
L 1241 4666 
L 2478 1222 
L 3713 4666 
L 4922 4666 
L 3194 0 
L 1759 0 
L 31 4666 
z
" transform="scale(0.015625)"/>
      <path id="DejaVuSans-Bold-6f" d="M 2203 2784 
Q 1831 2784 1636 2517 
Q 1441 2250 1441 1747 
Q 1441 1244 1636 976 
Q 1831 709 2203 709 
Q 2569 709 2762 976 
Q 2956 1244 2956 1747 
Q 2956 2250 2762 2517 
Q 2569 2784 2203 2784 
z
M 2203 3584 
Q 3106 3584 3614 3096 
Q 4122 2609 4122 1747 
Q 4122 884 3614 396 
Q 3106 -91 2203 -91 
Q 1297 -91 786 396 
Q 275 884 275 1747 
Q 275 2609 786 3096 
Q 1297 3584 2203 3584 
z
" transform="scale(0.015625)"/>
      <path id="DejaVuSans-Bold-13e" d="M 2183 4863 
L 3067 4863 
L 2545 3688 
L 1933 3688 
L 2183 4863 
z
M 538 4863 
L 1656 4863 
L 1656 0 
L 538 0 
L 538 4863 
z
" transform="scale(0.015625)"/>
      <path id="DejaVuSans-Bold-6e" d="M 4056 2131 
L 4056 0 
L 2931 0 
L 2931 347 
L 2931 1631 
Q 2931 2084 2911 2256 
Q 2891 2428 2841 2509 
Q 2775 2619 2662 2680 
Q 2550 2741 2406 2741 
Q 2056 2741 1856 2470 
Q 1656 2200 1656 1722 
L 1656 0 
L 538 0 
L 538 3500 
L 1656 3500 
L 1656 2988 
Q 1909 3294 2193 3439 
Q 2478 3584 2822 3584 
Q 3428 3584 3742 3212 
Q 4056 2841 4056 2131 
z
" transform="scale(0.015625)"/>
      <path id="DejaVuSans-Bold-e1" d="M 2106 1575 
Q 1756 1575 1579 1456 
Q 1403 1338 1403 1106 
Q 1403 894 1545 773 
Q 1688 653 1941 653 
Q 2256 653 2472 879 
Q 2688 1106 2688 1447 
L 2688 1575 
L 2106 1575 
z
M 3816 1997 
L 3816 0 
L 2688 0 
L 2688 519 
Q 2463 200 2181 54 
Q 1900 -91 1497 -91 
Q 953 -91 614 226 
Q 275 544 275 1050 
Q 275 1666 698 1953 
Q 1122 2241 2028 2241 
L 2688 2241 
L 2688 2328 
Q 2688 2594 2478 2717 
Q 2269 2841 1825 2841 
Q 1466 2841 1156 2769 
Q 847 2697 581 2553 
L 581 3406 
Q 941 3494 1303 3539 
Q 1666 3584 2028 3584 
Q 2975 3584 3395 3211 
Q 3816 2838 3816 1997 
z
M 2606 5119 
L 3490 5119 
L 2337 3944 
L 1725 3944 
L 2606 5119 
z
" transform="scale(0.015625)"/>
      <path id="DejaVuSans-Bold-72" d="M 3138 2547 
Q 2991 2616 2845 2648 
Q 2700 2681 2553 2681 
Q 2122 2681 1889 2404 
Q 1656 2128 1656 1613 
L 1656 0 
L 538 0 
L 538 3500 
L 1656 3500 
L 1656 2925 
Q 1872 3269 2151 3426 
Q 2431 3584 2822 3584 
Q 2878 3584 2943 3579 
Q 3009 3575 3134 3559 
L 3138 2547 
z
" transform="scale(0.015625)"/>
      <path id="DejaVuSans-Bold-76" d="M 97 3500 
L 1216 3500 
L 2088 1081 
L 2956 3500 
L 4078 3500 
L 2700 0 
L 1472 0 
L 97 3500 
z
" transform="scale(0.015625)"/>
      <path id="DejaVuSans-Bold-69" d="M 538 3500 
L 1656 3500 
L 1656 0 
L 538 0 
L 538 3500 
z
M 538 4863 
L 1656 4863 
L 1656 3950 
L 538 3950 
L 538 4863 
z
" transform="scale(0.015625)"/>
      <path id="DejaVuSans-Bold-6c" d="M 538 4863 
L 1656 4863 
L 1656 0 
L 538 0 
L 538 4863 
z
" transform="scale(0.015625)"/>
     </defs>
     <use xlink:href="#DejaVuSans-Bold-61"/>
     <use xlink:href="#DejaVuSans-Bold-29" transform="translate(67.480469 0)"/>
     <use xlink:href="#DejaVuSans-Bold-20" transform="translate(113.183594 0)"/>
     <use xlink:href="#DejaVuSans-Bold-56" transform="translate(147.998047 0)"/>
     <use xlink:href="#DejaVuSans-Bold-6f" transform="translate(219.890625 0)"/>
     <use xlink:href="#DejaVuSans-Bold-13e" transform="translate(288.591797 0)"/>
     <use xlink:href="#DejaVuSans-Bold-6e" transform="translate(336.541016 0)"/>
     <use xlink:href="#DejaVuSans-Bold-e1" transform="translate(407.732422 0)"/>
     <use xlink:href="#DejaVuSans-Bold-20" transform="translate(475.212891 0)"/>
     <use xlink:href="#DejaVuSans-Bold-72" transform="translate(510.027344 0)"/>
     <use xlink:href="#DejaVuSans-Bold-6f" transform="translate(559.34375 0)"/>
     <use xlink:href="#DejaVuSans-Bold-76" transform="translate(628.044922 0)"/>
     <use xlink:href="#DejaVuSans-Bold-69" transform="translate(693.230469 0)"/>
     <use xlink:href="#DejaVuSans-Bold-6e" transform="translate(727.507812 0)"/>
     <use xlink:href="#DejaVuSans-Bold-6e" transform="translate(798.699219 0)"/>
     <use xlink:href="#DejaVuSans-Bold-e1" transform="translate(869.890625 0)"/>
     <use xlink:href="#DejaVuSans-Bold-20" transform="translate(937.371094 0)"/>
     <use xlink:href="#DejaVuSans-Bold-76" transform="translate(972.185547 0)"/>
     <use xlink:href="#DejaVuSans-Bold-6c" transform="translate(1037.371094 0)"/>
     <use xlink:href="#DejaVuSans-Bold-6e" transform="translate(1071.648438 0)"/>
     <use xlink:href="#DejaVuSans-Bold-61" transform="translate(1142.839844 0)"/>
    </g>
   </g>
  </g>
  <g id="axes_2">
   <g id="patch_8">
    <path d="M 394.528437 191.408 
L 705.833438 191.408 
L 705.833438 35.7555 
L 394.528437 35.7555 
z
" style="fill: #ffffff"/>
   </g>
   <g id="matplotlib.axis_3">
    <g id="xtick_6">
     <g id="line2d_22">
      <path d="M 394.528437 191.408 
L 394.528437 35.7555 
" clip-path="url(#ped0e713a17)" style="fill: none; stroke: #b0b0b0; stroke-opacity: 0.3; stroke-width: 0.8; stroke-linecap: square"/>
     </g>
     <g id="line2d_23">
      <g>
       <use xlink:href="#m7e75f918fc" x="394.528437" y="191.408" style="stroke: #000000; stroke-width: 0.8"/>
      </g>
     </g>
     <g id="text_14">
      <!-- 0 -->
      <g transform="translate(391.347188 206.006438) scale(0.1 -0.1)">
       <use xlink:href="#DejaVuSans-30"/>
      </g>
     </g>
    </g>
    <g id="xtick_7">
     <g id="line2d_24">
      <path d="M 433.441563 191.408 
L 433.441563 35.7555 
" clip-path="url(#ped0e713a17)" style="fill: none; stroke: #b0b0b0; stroke-opacity: 0.3; stroke-width: 0.8; stroke-linecap: square"/>
     </g>
     <g id="line2d_25">
      <g>
       <use xlink:href="#m7e75f918fc" x="433.441563" y="191.408" style="stroke: #000000; stroke-width: 0.8"/>
      </g>
     </g>
     <g id="text_15">
      <!-- 1 -->
      <g transform="translate(430.260313 206.006438) scale(0.1 -0.1)">
       <use xlink:href="#DejaVuSans-31"/>
      </g>
     </g>
    </g>
    <g id="xtick_8">
     <g id="line2d_26">
      <path d="M 472.354688 191.408 
L 472.354688 35.7555 
" clip-path="url(#ped0e713a17)" style="fill: none; stroke: #b0b0b0; stroke-opacity: 0.3; stroke-width: 0.8; stroke-linecap: square"/>
     </g>
     <g id="line2d_27">
      <g>
       <use xlink:href="#m7e75f918fc" x="472.354688" y="191.408" style="stroke: #000000; stroke-width: 0.8"/>
      </g>
     </g>
     <g id="text_16">
      <!-- 2 -->
      <g transform="translate(469.173438 206.006438) scale(0.1 -0.1)">
       <use xlink:href="#DejaVuSans-32"/>
      </g>
     </g>
    </g>
    <g id="xtick_9">
     <g id="line2d_28">
      <path d="M 511.267812 191.408 
L 511.267812 35.7555 
" clip-path="url(#ped0e713a17)" style="fill: none; stroke: #b0b0b0; stroke-opacity: 0.3; stroke-width: 0.8; stroke-linecap: square"/>
     </g>
     <g id="line2d_29">
      <g>
       <use xlink:href="#m7e75f918fc" x="511.267812" y="191.408" style="stroke: #000000; stroke-width: 0.8"/>
      </g>
     </g>
     <g id="text_17">
      <!-- 3 -->
      <g transform="translate(508.086563 206.006438) scale(0.1 -0.1)">
       <defs>
        <path id="DejaVuSans-33" d="M 2597 2516 
Q 3050 2419 3304 2112 
Q 3559 1806 3559 1356 
Q 3559 666 3084 287 
Q 2609 -91 1734 -91 
Q 1441 -91 1130 -33 
Q 819 25 488 141 
L 488 750 
Q 750 597 1062 519 
Q 1375 441 1716 441 
Q 2309 441 2620 675 
Q 2931 909 2931 1356 
Q 2931 1769 2642 2001 
Q 2353 2234 1838 2234 
L 1294 2234 
L 1294 2753 
L 1863 2753 
Q 2328 2753 2575 2939 
Q 2822 3125 2822 3475 
Q 2822 3834 2567 4026 
Q 2313 4219 1838 4219 
Q 1578 4219 1281 4162 
Q 984 4106 628 3988 
L 628 4550 
Q 988 4650 1302 4700 
Q 1616 4750 1894 4750 
Q 2613 4750 3031 4423 
Q 3450 4097 3450 3541 
Q 3450 3153 3228 2886 
Q 3006 2619 2597 2516 
z
" transform="scale(0.015625)"/>
       </defs>
       <use xlink:href="#DejaVuSans-33"/>
      </g>
     </g>
    </g>
    <g id="xtick_10">
     <g id="line2d_30">
      <path d="M 550.180938 191.408 
L 550.180938 35.7555 
" clip-path="url(#ped0e713a17)" style="fill: none; stroke: #b0b0b0; stroke-opacity: 0.3; stroke-width: 0.8; stroke-linecap: square"/>
     </g>
     <g id="line2d_31">
      <g>
       <use xlink:href="#m7e75f918fc" x="550.180938" y="191.408" style="stroke: #000000; stroke-width: 0.8"/>
      </g>
     </g>
     <g id="text_18">
      <!-- 4 -->
      <g transform="translate(546.999688 206.006438) scale(0.1 -0.1)">
       <use xlink:href="#DejaVuSans-34"/>
      </g>
     </g>
    </g>
    <g id="xtick_11">
     <g id="line2d_32">
      <path d="M 589.094063 191.408 
L 589.094063 35.7555 
" clip-path="url(#ped0e713a17)" style="fill: none; stroke: #b0b0b0; stroke-opacity: 0.3; stroke-width: 0.8; stroke-linecap: square"/>
     </g>
     <g id="line2d_33">
      <g>
       <use xlink:href="#m7e75f918fc" x="589.094063" y="191.408" style="stroke: #000000; stroke-width: 0.8"/>
      </g>
     </g>
     <g id="text_19">
      <!-- 5 -->
      <g transform="translate(585.912813 206.006438) scale(0.1 -0.1)">
       <defs>
        <path id="DejaVuSans-35" d="M 691 4666 
L 3169 4666 
L 3169 4134 
L 1269 4134 
L 1269 2991 
Q 1406 3038 1543 3061 
Q 1681 3084 1819 3084 
Q 2600 3084 3056 2656 
Q 3513 2228 3513 1497 
Q 3513 744 3044 326 
Q 2575 -91 1722 -91 
Q 1428 -91 1123 -41 
Q 819 9 494 109 
L 494 744 
Q 775 591 1075 516 
Q 1375 441 1709 441 
Q 2250 441 2565 725 
Q 2881 1009 2881 1497 
Q 2881 1984 2565 2268 
Q 2250 2553 1709 2553 
Q 1456 2553 1204 2497 
Q 953 2441 691 2322 
L 691 4666 
z
" transform="scale(0.015625)"/>
       </defs>
       <use xlink:href="#DejaVuSans-35"/>
      </g>
     </g>
    </g>
    <g id="xtick_12">
     <g id="line2d_34">
      <path d="M 628.007188 191.408 
L 628.007188 35.7555 
" clip-path="url(#ped0e713a17)" style="fill: none; stroke: #b0b0b0; stroke-opacity: 0.3; stroke-width: 0.8; stroke-linecap: square"/>
     </g>
     <g id="line2d_35">
      <g>
       <use xlink:href="#m7e75f918fc" x="628.007188" y="191.408" style="stroke: #000000; stroke-width: 0.8"/>
      </g>
     </g>
     <g id="text_20">
      <!-- 6 -->
      <g transform="translate(624.825938 206.006438) scale(0.1 -0.1)">
       <use xlink:href="#DejaVuSans-36"/>
      </g>
     </g>
    </g>
    <g id="xtick_13">
     <g id="line2d_36">
      <path d="M 666.920313 191.408 
L 666.920313 35.7555 
" clip-path="url(#ped0e713a17)" style="fill: none; stroke: #b0b0b0; stroke-opacity: 0.3; stroke-width: 0.8; stroke-linecap: square"/>
     </g>
     <g id="line2d_37">
      <g>
       <use xlink:href="#m7e75f918fc" x="666.920313" y="191.408" style="stroke: #000000; stroke-width: 0.8"/>
      </g>
     </g>
     <g id="text_21">
      <!-- 7 -->
      <g transform="translate(663.739063 206.006438) scale(0.1 -0.1)">
       <defs>
        <path id="DejaVuSans-37" d="M 525 4666 
L 3525 4666 
L 3525 4397 
L 1831 0 
L 1172 0 
L 2766 4134 
L 525 4134 
L 525 4666 
z
" transform="scale(0.015625)"/>
       </defs>
       <use xlink:href="#DejaVuSans-37"/>
      </g>
     </g>
    </g>
    <g id="xtick_14">
     <g id="line2d_38">
      <path d="M 705.833438 191.408 
L 705.833438 35.7555 
" clip-path="url(#ped0e713a17)" style="fill: none; stroke: #b0b0b0; stroke-opacity: 0.3; stroke-width: 0.8; stroke-linecap: square"/>
     </g>
     <g id="line2d_39">
      <g>
       <use xlink:href="#m7e75f918fc" x="705.833438" y="191.408" style="stroke: #000000; stroke-width: 0.8"/>
      </g>
     </g>
     <g id="text_22">
      <!-- 8 -->
      <g transform="translate(702.652188 206.006438) scale(0.1 -0.1)">
       <use xlink:href="#DejaVuSans-38"/>
      </g>
     </g>
    </g>
    <g id="text_23">
     <!-- X súradnica -->
     <g transform="translate(520.728594 219.684562) scale(0.1 -0.1)">
      <defs>
       <path id="DejaVuSans-58" d="M 403 4666 
L 1081 4666 
L 2241 2931 
L 3406 4666 
L 4084 4666 
L 2584 2425 
L 4184 0 
L 3506 0 
L 2194 1984 
L 872 0 
L 191 0 
L 1856 2491 
L 403 4666 
z
" transform="scale(0.015625)"/>
       <path id="DejaVuSans-73" d="M 2834 3397 
L 2834 2853 
Q 2591 2978 2328 3040 
Q 2066 3103 1784 3103 
Q 1356 3103 1142 2972 
Q 928 2841 928 2578 
Q 928 2378 1081 2264 
Q 1234 2150 1697 2047 
L 1894 2003 
Q 2506 1872 2764 1633 
Q 3022 1394 3022 966 
Q 3022 478 2636 193 
Q 2250 -91 1575 -91 
Q 1294 -91 989 -36 
Q 684 19 347 128 
L 347 722 
Q 666 556 975 473 
Q 1284 391 1588 391 
Q 1994 391 2212 530 
Q 2431 669 2431 922 
Q 2431 1156 2273 1281 
Q 2116 1406 1581 1522 
L 1381 1569 
Q 847 1681 609 1914 
Q 372 2147 372 2553 
Q 372 3047 722 3315 
Q 1072 3584 1716 3584 
Q 2034 3584 2315 3537 
Q 2597 3491 2834 3397 
z
" transform="scale(0.015625)"/>
       <path id="DejaVuSans-72" d="M 2631 2963 
Q 2534 3019 2420 3045 
Q 2306 3072 2169 3072 
Q 1681 3072 1420 2755 
Q 1159 2438 1159 1844 
L 1159 0 
L 581 0 
L 581 3500 
L 1159 3500 
L 1159 2956 
Q 1341 3275 1631 3429 
Q 1922 3584 2338 3584 
Q 2397 3584 2469 3576 
Q 2541 3569 2628 3553 
L 2631 2963 
z
" transform="scale(0.015625)"/>
       <path id="DejaVuSans-6e" d="M 3513 2113 
L 3513 0 
L 2938 0 
L 2938 2094 
Q 2938 2591 2744 2837 
Q 2550 3084 2163 3084 
Q 1697 3084 1428 2787 
Q 1159 2491 1159 1978 
L 1159 0 
L 581 0 
L 581 3500 
L 1159 3500 
L 1159 2956 
Q 1366 3272 1645 3428 
Q 1925 3584 2291 3584 
Q 2894 3584 3203 3211 
Q 3513 2838 3513 2113 
z
" transform="scale(0.015625)"/>
       <path id="DejaVuSans-63" d="M 3122 3366 
L 3122 2828 
Q 2878 2963 2633 3030 
Q 2388 3097 2138 3097 
Q 1578 3097 1268 2742 
Q 959 2388 959 1747 
Q 959 1106 1268 751 
Q 1578 397 2138 397 
Q 2388 397 2633 464 
Q 2878 531 3122 666 
L 3122 134 
Q 2881 22 2623 -34 
Q 2366 -91 2075 -91 
Q 1284 -91 818 406 
Q 353 903 353 1747 
Q 353 2603 823 3093 
Q 1294 3584 2113 3584 
Q 2378 3584 2631 3529 
Q 2884 3475 3122 3366 
z
" transform="scale(0.015625)"/>
      </defs>
      <use xlink:href="#DejaVuSans-58"/>
      <use xlink:href="#DejaVuSans-20" transform="translate(68.505859 0)"/>
      <use xlink:href="#DejaVuSans-73" transform="translate(100.292969 0)"/>
      <use xlink:href="#DejaVuSans-fa" transform="translate(152.392578 0)"/>
      <use xlink:href="#DejaVuSans-72" transform="translate(215.771484 0)"/>
      <use xlink:href="#DejaVuSans-61" transform="translate(256.884766 0)"/>
      <use xlink:href="#DejaVuSans-64" transform="translate(318.164062 0)"/>
      <use xlink:href="#DejaVuSans-6e" transform="translate(381.640625 0)"/>
      <use xlink:href="#DejaVuSans-69" transform="translate(445.019531 0)"/>
      <use xlink:href="#DejaVuSans-63" transform="translate(472.802734 0)"/>
      <use xlink:href="#DejaVuSans-61" transform="translate(527.783203 0)"/>
     </g>
    </g>
   </g>
   <g id="matplotlib.axis_4">
    <g id="ytick_6">
     <g id="line2d_40">
      <path d="M 394.528437 191.408 
L 705.833438 191.408 
" clip-path="url(#ped0e713a17)" style="fill: none; stroke: #b0b0b0; stroke-opacity: 0.3; stroke-width: 0.8; stroke-linecap: square"/>
     </g>
     <g id="line2d_41">
      <g>
       <use xlink:href="#m898d120dae" x="394.528437" y="191.408" style="stroke: #000000; stroke-width: 0.8"/>
      </g>
     </g>
     <g id="text_24">
      <!-- -2 -->
      <g transform="translate(377.558125 195.207219) scale(0.1 -0.1)">
       <use xlink:href="#DejaVuSans-2d"/>
       <use xlink:href="#DejaVuSans-32" transform="translate(36.083984 0)"/>
      </g>
     </g>
    </g>
    <g id="ytick_7">
     <g id="line2d_42">
      <path d="M 394.528437 152.494875 
L 705.833438 152.494875 
" clip-path="url(#ped0e713a17)" style="fill: none; stroke: #b0b0b0; stroke-opacity: 0.3; stroke-width: 0.8; stroke-linecap: square"/>
     </g>
     <g id="line2d_43">
      <g>
       <use xlink:href="#m898d120dae" x="394.528437" y="152.494875" style="stroke: #000000; stroke-width: 0.8"/>
      </g>
     </g>
     <g id="text_25">
      <!-- -1 -->
      <g transform="translate(377.558125 156.294094) scale(0.1 -0.1)">
       <use xlink:href="#DejaVuSans-2d"/>
       <use xlink:href="#DejaVuSans-31" transform="translate(36.083984 0)"/>
      </g>
     </g>
    </g>
    <g id="ytick_8">
     <g id="line2d_44">
      <path d="M 394.528437 113.58175 
L 705.833438 113.58175 
" clip-path="url(#ped0e713a17)" style="fill: none; stroke: #b0b0b0; stroke-opacity: 0.3; stroke-width: 0.8; stroke-linecap: square"/>
     </g>
     <g id="line2d_45">
      <g>
       <use xlink:href="#m898d120dae" x="394.528437" y="113.58175" style="stroke: #000000; stroke-width: 0.8"/>
      </g>
     </g>
     <g id="text_26">
      <!-- 0 -->
      <g transform="translate(381.165937 117.380969) scale(0.1 -0.1)">
       <use xlink:href="#DejaVuSans-30"/>
      </g>
     </g>
    </g>
    <g id="ytick_9">
     <g id="line2d_46">
      <path d="M 394.528437 74.668625 
L 705.833438 74.668625 
" clip-path="url(#ped0e713a17)" style="fill: none; stroke: #b0b0b0; stroke-opacity: 0.3; stroke-width: 0.8; stroke-linecap: square"/>
     </g>
     <g id="line2d_47">
      <g>
       <use xlink:href="#m898d120dae" x="394.528437" y="74.668625" style="stroke: #000000; stroke-width: 0.8"/>
      </g>
     </g>
     <g id="text_27">
      <!-- 1 -->
      <g transform="translate(381.165937 78.467844) scale(0.1 -0.1)">
       <use xlink:href="#DejaVuSans-31"/>
      </g>
     </g>
    </g>
    <g id="ytick_10">
     <g id="line2d_48">
      <path d="M 394.528437 35.7555 
L 705.833438 35.7555 
" clip-path="url(#ped0e713a17)" style="fill: none; stroke: #b0b0b0; stroke-opacity: 0.3; stroke-width: 0.8; stroke-linecap: square"/>
     </g>
     <g id="line2d_49">
      <g>
       <use xlink:href="#m898d120dae" x="394.528437" y="35.7555" style="stroke: #000000; stroke-width: 0.8"/>
      </g>
     </g>
     <g id="text_28">
      <!-- 2 -->
      <g transform="translate(381.165937 39.554719) scale(0.1 -0.1)">
       <use xlink:href="#DejaVuSans-32"/>
      </g>
     </g>
    </g>
    <g id="text_29">
     <!-- Y súradnica -->
     <g transform="translate(371.478438 142.663) rotate(-90) scale(0.1 -0.1)">
      <defs>
       <path id="DejaVuSans-59" d="M -13 4666 
L 666 4666 
L 1959 2747 
L 3244 4666 
L 3922 4666 
L 2272 2222 
L 2272 0 
L 1638 0 
L 1638 2222 
L -13 4666 
z
" transform="scale(0.015625)"/>
      </defs>
      <use xlink:href="#DejaVuSans-59"/>
      <use xlink:href="#DejaVuSans-20" transform="translate(61.083984 0)"/>
      <use xlink:href="#DejaVuSans-73" transform="translate(92.871094 0)"/>
      <use xlink:href="#DejaVuSans-fa" transform="translate(144.970703 0)"/>
      <use xlink:href="#DejaVuSans-72" transform="translate(208.349609 0)"/>
      <use xlink:href="#DejaVuSans-61" transform="translate(249.462891 0)"/>
      <use xlink:href="#DejaVuSans-64" transform="translate(310.742188 0)"/>
      <use xlink:href="#DejaVuSans-6e" transform="translate(374.21875 0)"/>
      <use xlink:href="#DejaVuSans-69" transform="translate(437.597656 0)"/>
      <use xlink:href="#DejaVuSans-63" transform="translate(465.380859 0)"/>
      <use xlink:href="#DejaVuSans-61" transform="translate(520.361328 0)"/>
     </g>
    </g>
   </g>
   <g id="line2d_50">
    <path d="M 522.94175 113.58175 
L 528.227073 104.745334 
L 537.046359 89.903503 
L 540.102851 85.187139 
L 542.418901 81.939441 
L 544.623636 79.208009 
L 546.720738 77.025475 
L 548.225389 75.761204 
L 549.673689 74.820604 
L 551.067653 74.202981 
L 552.409416 73.903484 
L 553.701233 73.91321 
L 554.945469 74.219366 
L 556.144595 74.805477 
L 557.301184 75.651657 
L 558.417906 76.734923 
L 559.84963 78.503268 
L 561.222156 80.579833 
L 562.865251 83.49764 
L 565.055559 87.914448 
L 569.201352 96.39156 
L 570.655893 98.861538 
L 571.826501 100.50638 
L 573.011768 101.814208 
L 574.219441 102.757685 
L 575.144511 103.216533 
L 576.089681 103.459723 
L 577.058095 103.489345 
L 578.052844 103.311402 
L 579.076958 102.935704 
L 580.493239 102.150926 
L 581.973816 101.080212 
L 584.329531 99.051861 
L 590.56068 93.476741 
L 593.068665 91.644798 
L 595.192306 90.398021 
L 596.856099 89.636226 
L 598.582516 89.053265 
L 600.372948 88.674039 
L 602.228641 88.520828 
L 604.150698 88.612937 
L 606.140069 88.96637 
L 608.197556 89.593565 
L 610.323806 90.503169 
L 612.519315 91.699875 
L 614.784419 93.184313 
L 616.33325 94.332239 
L 616.33325 94.332239 
" clip-path="url(#ped0e713a17)" style="fill: none; stroke: #ffa500; stroke-width: 3; stroke-linecap: square"/>
   </g>
   <g id="patch_9">
    <path d="M 394.528437 191.408 
L 394.528437 35.7555 
" style="fill: none; stroke: #000000; stroke-width: 0.8; stroke-linejoin: miter; stroke-linecap: square"/>
   </g>
   <g id="patch_10">
    <path d="M 705.833438 191.408 
L 705.833438 35.7555 
" style="fill: none; stroke: #000000; stroke-width: 0.8; stroke-linejoin: miter; stroke-linecap: square"/>
   </g>
   <g id="patch_11">
    <path d="M 394.528437 191.408 
L 705.833438 191.408 
" style="fill: none; stroke: #000000; stroke-width: 0.8; stroke-linejoin: miter; stroke-linecap: square"/>
   </g>
   <g id="patch_12">
    <path d="M 394.528437 35.7555 
L 705.833438 35.7555 
" style="fill: none; stroke: #000000; stroke-width: 0.8; stroke-linejoin: miter; stroke-linecap: square"/>
   </g>
   <g id="text_30">
    <!-- b) Prechod -->
    <g transform="translate(513.384063 29.7555) scale(0.12 -0.12)">
     <defs>
      <path id="DejaVuSans-Bold-62" d="M 2400 722 
Q 2759 722 2948 984 
Q 3138 1247 3138 1747 
Q 3138 2247 2948 2509 
Q 2759 2772 2400 2772 
Q 2041 2772 1848 2508 
Q 1656 2244 1656 1747 
Q 1656 1250 1848 986 
Q 2041 722 2400 722 
z
M 1656 2988 
Q 1888 3294 2169 3439 
Q 2450 3584 2816 3584 
Q 3463 3584 3878 3070 
Q 4294 2556 4294 1747 
Q 4294 938 3878 423 
Q 3463 -91 2816 -91 
Q 2450 -91 2169 54 
Q 1888 200 1656 506 
L 1656 0 
L 538 0 
L 538 4863 
L 1656 4863 
L 1656 2988 
z
" transform="scale(0.015625)"/>
      <path id="DejaVuSans-Bold-50" d="M 588 4666 
L 2584 4666 
Q 3475 4666 3951 4270 
Q 4428 3875 4428 3144 
Q 4428 2409 3951 2014 
Q 3475 1619 2584 1619 
L 1791 1619 
L 1791 0 
L 588 0 
L 588 4666 
z
M 1791 3794 
L 1791 2491 
L 2456 2491 
Q 2806 2491 2997 2661 
Q 3188 2831 3188 3144 
Q 3188 3456 2997 3625 
Q 2806 3794 2456 3794 
L 1791 3794 
z
" transform="scale(0.015625)"/>
      <path id="DejaVuSans-Bold-65" d="M 4031 1759 
L 4031 1441 
L 1416 1441 
Q 1456 1047 1700 850 
Q 1944 653 2381 653 
Q 2734 653 3104 758 
Q 3475 863 3866 1075 
L 3866 213 
Q 3469 63 3072 -14 
Q 2675 -91 2278 -91 
Q 1328 -91 801 392 
Q 275 875 275 1747 
Q 275 2603 792 3093 
Q 1309 3584 2216 3584 
Q 3041 3584 3536 3087 
Q 4031 2591 4031 1759 
z
M 2881 2131 
Q 2881 2450 2695 2645 
Q 2509 2841 2209 2841 
Q 1884 2841 1681 2658 
Q 1478 2475 1428 2131 
L 2881 2131 
z
" transform="scale(0.015625)"/>
      <path id="DejaVuSans-Bold-63" d="M 3366 3391 
L 3366 2478 
Q 3138 2634 2908 2709 
Q 2678 2784 2431 2784 
Q 1963 2784 1702 2511 
Q 1441 2238 1441 1747 
Q 1441 1256 1702 982 
Q 1963 709 2431 709 
Q 2694 709 2930 787 
Q 3166 866 3366 1019 
L 3366 103 
Q 3103 6 2833 -42 
Q 2563 -91 2291 -91 
Q 1344 -91 809 395 
Q 275 881 275 1747 
Q 275 2613 809 3098 
Q 1344 3584 2291 3584 
Q 2566 3584 2833 3536 
Q 3100 3488 3366 3391 
z
" transform="scale(0.015625)"/>
      <path id="DejaVuSans-Bold-68" d="M 4056 2131 
L 4056 0 
L 2931 0 
L 2931 347 
L 2931 1625 
Q 2931 2084 2911 2256 
Q 2891 2428 2841 2509 
Q 2775 2619 2662 2680 
Q 2550 2741 2406 2741 
Q 2056 2741 1856 2470 
Q 1656 2200 1656 1722 
L 1656 0 
L 538 0 
L 538 4863 
L 1656 4863 
L 1656 2988 
Q 1909 3294 2193 3439 
Q 2478 3584 2822 3584 
Q 3428 3584 3742 3212 
Q 4056 2841 4056 2131 
z
" transform="scale(0.015625)"/>
      <path id="DejaVuSans-Bold-64" d="M 2919 2988 
L 2919 4863 
L 4044 4863 
L 4044 0 
L 2919 0 
L 2919 506 
Q 2688 197 2409 53 
Q 2131 -91 1766 -91 
Q 1119 -91 703 423 
Q 288 938 288 1747 
Q 288 2556 703 3070 
Q 1119 3584 1766 3584 
Q 2128 3584 2408 3439 
Q 2688 3294 2919 2988 
z
M 2181 722 
Q 2541 722 2730 984 
Q 2919 1247 2919 1747 
Q 2919 2247 2730 2509 
Q 2541 2772 2181 2772 
Q 1825 2772 1636 2509 
Q 1447 2247 1447 1747 
Q 1447 1247 1636 984 
Q 1825 722 2181 722 
z
" transform="scale(0.015625)"/>
     </defs>
     <use xlink:href="#DejaVuSans-Bold-62"/>
     <use xlink:href="#DejaVuSans-Bold-29" transform="translate(71.582031 0)"/>
     <use xlink:href="#DejaVuSans-Bold-20" transform="translate(117.285156 0)"/>
     <use xlink:href="#DejaVuSans-Bold-50" transform="translate(152.099609 0)"/>
     <use xlink:href="#DejaVuSans-Bold-72" transform="translate(225.390625 0)"/>
     <use xlink:href="#DejaVuSans-Bold-65" transform="translate(274.707031 0)"/>
     <use xlink:href="#DejaVuSans-Bold-63" transform="translate(342.529297 0)"/>
     <use xlink:href="#DejaVuSans-Bold-68" transform="translate(401.806641 0)"/>
     <use xlink:href="#DejaVuSans-Bold-6f" transform="translate(472.998047 0)"/>
     <use xlink:href="#DejaVuSans-Bold-64" transform="translate(541.699219 0)"/>
    </g>
   </g>
  </g>
  <g id="axes_3">
   <g id="patch_13">
    <path d="M 750.808438 191.408 
L 1062.113438 191.408 
L 1062.113438 35.7555 
L 750.808438 35.7555 
z
" style="fill: #ffffff"/>
   </g>
   <g id="matplotlib.axis_5">
    <g id="xtick_15">
     <g id="line2d_51">
      <path d="M 750.808438 191.408 
L 750.808438 35.7555 
" clip-path="url(#p5608d1564c)" style="fill: none; stroke: #b0b0b0; stroke-opacity: 0.3; stroke-width: 0.8; stroke-linecap: square"/>
     </g>
     <g id="line2d_52">
      <g>
       <use xlink:href="#m7e75f918fc" x="750.808438" y="191.408" style="stroke: #000000; stroke-width: 0.8"/>
      </g>
     </g>
     <g id="text_31">
      <!-- 0 -->
      <g transform="translate(747.627188 206.006438) scale(0.1 -0.1)">
       <use xlink:href="#DejaVuSans-30"/>
      </g>
     </g>
    </g>
    <g id="xtick_16">
     <g id="line2d_53">
      <path d="M 789.721563 191.408 
L 789.721563 35.7555 
" clip-path="url(#p5608d1564c)" style="fill: none; stroke: #b0b0b0; stroke-opacity: 0.3; stroke-width: 0.8; stroke-linecap: square"/>
     </g>
     <g id="line2d_54">
      <g>
       <use xlink:href="#m7e75f918fc" x="789.721563" y="191.408" style="stroke: #000000; stroke-width: 0.8"/>
      </g>
     </g>
     <g id="text_32">
      <!-- 1 -->
      <g transform="translate(786.540313 206.006438) scale(0.1 -0.1)">
       <use xlink:href="#DejaVuSans-31"/>
      </g>
     </g>
    </g>
    <g id="xtick_17">
     <g id="line2d_55">
      <path d="M 828.634688 191.408 
L 828.634688 35.7555 
" clip-path="url(#p5608d1564c)" style="fill: none; stroke: #b0b0b0; stroke-opacity: 0.3; stroke-width: 0.8; stroke-linecap: square"/>
     </g>
     <g id="line2d_56">
      <g>
       <use xlink:href="#m7e75f918fc" x="828.634688" y="191.408" style="stroke: #000000; stroke-width: 0.8"/>
      </g>
     </g>
     <g id="text_33">
      <!-- 2 -->
      <g transform="translate(825.453438 206.006438) scale(0.1 -0.1)">
       <use xlink:href="#DejaVuSans-32"/>
      </g>
     </g>
    </g>
    <g id="xtick_18">
     <g id="line2d_57">
      <path d="M 867.547813 191.408 
L 867.547813 35.7555 
" clip-path="url(#p5608d1564c)" style="fill: none; stroke: #b0b0b0; stroke-opacity: 0.3; stroke-width: 0.8; stroke-linecap: square"/>
     </g>
     <g id="line2d_58">
      <g>
       <use xlink:href="#m7e75f918fc" x="867.547813" y="191.408" style="stroke: #000000; stroke-width: 0.8"/>
      </g>
     </g>
     <g id="text_34">
      <!-- 3 -->
      <g transform="translate(864.366563 206.006438) scale(0.1 -0.1)">
       <use xlink:href="#DejaVuSans-33"/>
      </g>
     </g>
    </g>
    <g id="xtick_19">
     <g id="line2d_59">
      <path d="M 906.460938 191.408 
L 906.460938 35.7555 
" clip-path="url(#p5608d1564c)" style="fill: none; stroke: #b0b0b0; stroke-opacity: 0.3; stroke-width: 0.8; stroke-linecap: square"/>
     </g>
     <g id="line2d_60">
      <g>
       <use xlink:href="#m7e75f918fc" x="906.460938" y="191.408" style="stroke: #000000; stroke-width: 0.8"/>
      </g>
     </g>
     <g id="text_35">
      <!-- 4 -->
      <g transform="translate(903.279688 206.006438) scale(0.1 -0.1)">
       <use xlink:href="#DejaVuSans-34"/>
      </g>
     </g>
    </g>
    <g id="xtick_20">
     <g id="line2d_61">
      <path d="M 945.374063 191.408 
L 945.374063 35.7555 
" clip-path="url(#p5608d1564c)" style="fill: none; stroke: #b0b0b0; stroke-opacity: 0.3; stroke-width: 0.8; stroke-linecap: square"/>
     </g>
     <g id="line2d_62">
      <g>
       <use xlink:href="#m7e75f918fc" x="945.374063" y="191.408" style="stroke: #000000; stroke-width: 0.8"/>
      </g>
     </g>
     <g id="text_36">
      <!-- 5 -->
      <g transform="translate(942.192813 206.006438) scale(0.1 -0.1)">
       <use xlink:href="#DejaVuSans-35"/>
      </g>
     </g>
    </g>
    <g id="xtick_21">
     <g id="line2d_63">
      <path d="M 984.287188 191.408 
L 984.287188 35.7555 
" clip-path="url(#p5608d1564c)" style="fill: none; stroke: #b0b0b0; stroke-opacity: 0.3; stroke-width: 0.8; stroke-linecap: square"/>
     </g>
     <g id="line2d_64">
      <g>
       <use xlink:href="#m7e75f918fc" x="984.287188" y="191.408" style="stroke: #000000; stroke-width: 0.8"/>
      </g>
     </g>
     <g id="text_37">
      <!-- 6 -->
      <g transform="translate(981.105938 206.006438) scale(0.1 -0.1)">
       <use xlink:href="#DejaVuSans-36"/>
      </g>
     </g>
    </g>
    <g id="xtick_22">
     <g id="line2d_65">
      <path d="M 1023.200313 191.408 
L 1023.200313 35.7555 
" clip-path="url(#p5608d1564c)" style="fill: none; stroke: #b0b0b0; stroke-opacity: 0.3; stroke-width: 0.8; stroke-linecap: square"/>
     </g>
     <g id="line2d_66">
      <g>
       <use xlink:href="#m7e75f918fc" x="1023.200313" y="191.408" style="stroke: #000000; stroke-width: 0.8"/>
      </g>
     </g>
     <g id="text_38">
      <!-- 7 -->
      <g transform="translate(1020.019063 206.006438) scale(0.1 -0.1)">
       <use xlink:href="#DejaVuSans-37"/>
      </g>
     </g>
    </g>
    <g id="xtick_23">
     <g id="line2d_67">
      <path d="M 1062.113438 191.408 
L 1062.113438 35.7555 
" clip-path="url(#p5608d1564c)" style="fill: none; stroke: #b0b0b0; stroke-opacity: 0.3; stroke-width: 0.8; stroke-linecap: square"/>
     </g>
     <g id="line2d_68">
      <g>
       <use xlink:href="#m7e75f918fc" x="1062.113438" y="191.408" style="stroke: #000000; stroke-width: 0.8"/>
      </g>
     </g>
     <g id="text_39">
      <!-- 8 -->
      <g transform="translate(1058.932188 206.006438) scale(0.1 -0.1)">
       <use xlink:href="#DejaVuSans-38"/>
      </g>
     </g>
    </g>
    <g id="text_40">
     <!-- X súradnica -->
     <g transform="translate(877.008594 219.684562) scale(0.1 -0.1)">
      <use xlink:href="#DejaVuSans-58"/>
      <use xlink:href="#DejaVuSans-20" transform="translate(68.505859 0)"/>
      <use xlink:href="#DejaVuSans-73" transform="translate(100.292969 0)"/>
      <use xlink:href="#DejaVuSans-fa" transform="translate(152.392578 0)"/>
      <use xlink:href="#DejaVuSans-72" transform="translate(215.771484 0)"/>
      <use xlink:href="#DejaVuSans-61" transform="translate(256.884766 0)"/>
      <use xlink:href="#DejaVuSans-64" transform="translate(318.164062 0)"/>
      <use xlink:href="#DejaVuSans-6e" transform="translate(381.640625 0)"/>
      <use xlink:href="#DejaVuSans-69" transform="translate(445.019531 0)"/>
      <use xlink:href="#DejaVuSans-63" transform="translate(472.802734 0)"/>
      <use xlink:href="#DejaVuSans-61" transform="translate(527.783203 0)"/>
     </g>
    </g>
   </g>
   <g id="matplotlib.axis_6">
    <g id="ytick_11">
     <g id="line2d_69">
      <path d="M 750.808438 191.408 
L 1062.113438 191.408 
" clip-path="url(#p5608d1564c)" style="fill: none; stroke: #b0b0b0; stroke-opacity: 0.3; stroke-width: 0.8; stroke-linecap: square"/>
     </g>
     <g id="line2d_70">
      <g>
       <use xlink:href="#m898d120dae" x="750.808438" y="191.408" style="stroke: #000000; stroke-width: 0.8"/>
      </g>
     </g>
     <g id="text_41">
      <!-- -2 -->
      <g transform="translate(733.838125 195.207219) scale(0.1 -0.1)">
       <use xlink:href="#DejaVuSans-2d"/>
       <use xlink:href="#DejaVuSans-32" transform="translate(36.083984 0)"/>
      </g>
     </g>
    </g>
    <g id="ytick_12">
     <g id="line2d_71">
      <path d="M 750.808438 152.494875 
L 1062.113438 152.494875 
" clip-path="url(#p5608d1564c)" style="fill: none; stroke: #b0b0b0; stroke-opacity: 0.3; stroke-width: 0.8; stroke-linecap: square"/>
     </g>
     <g id="line2d_72">
      <g>
       <use xlink:href="#m898d120dae" x="750.808438" y="152.494875" style="stroke: #000000; stroke-width: 0.8"/>
      </g>
     </g>
     <g id="text_42">
      <!-- -1 -->
      <g transform="translate(733.838125 156.294094) scale(0.1 -0.1)">
       <use xlink:href="#DejaVuSans-2d"/>
       <use xlink:href="#DejaVuSans-31" transform="translate(36.083984 0)"/>
      </g>
     </g>
    </g>
    <g id="ytick_13">
     <g id="line2d_73">
      <path d="M 750.808438 113.58175 
L 1062.113438 113.58175 
" clip-path="url(#p5608d1564c)" style="fill: none; stroke: #b0b0b0; stroke-opacity: 0.3; stroke-width: 0.8; stroke-linecap: square"/>
     </g>
     <g id="line2d_74">
      <g>
       <use xlink:href="#m898d120dae" x="750.808438" y="113.58175" style="stroke: #000000; stroke-width: 0.8"/>
      </g>
     </g>
     <g id="text_43">
      <!-- 0 -->
      <g transform="translate(737.445938 117.380969) scale(0.1 -0.1)">
       <use xlink:href="#DejaVuSans-30"/>
      </g>
     </g>
    </g>
    <g id="ytick_14">
     <g id="line2d_75">
      <path d="M 750.808438 74.668625 
L 1062.113438 74.668625 
" clip-path="url(#p5608d1564c)" style="fill: none; stroke: #b0b0b0; stroke-opacity: 0.3; stroke-width: 0.8; stroke-linecap: square"/>
     </g>
     <g id="line2d_76">
      <g>
       <use xlink:href="#m898d120dae" x="750.808438" y="74.668625" style="stroke: #000000; stroke-width: 0.8"/>
      </g>
     </g>
     <g id="text_44">
      <!-- 1 -->
      <g transform="translate(737.445938 78.467844) scale(0.1 -0.1)">
       <use xlink:href="#DejaVuSans-31"/>
      </g>
     </g>
    </g>
    <g id="ytick_15">
     <g id="line2d_77">
      <path d="M 750.808438 35.7555 
L 1062.113438 35.7555 
" clip-path="url(#p5608d1564c)" style="fill: none; stroke: #b0b0b0; stroke-opacity: 0.3; stroke-width: 0.8; stroke-linecap: square"/>
     </g>
     <g id="line2d_78">
      <g>
       <use xlink:href="#m898d120dae" x="750.808438" y="35.7555" style="stroke: #000000; stroke-width: 0.8"/>
      </g>
     </g>
     <g id="text_45">
      <!-- 2 -->
      <g transform="translate(737.445938 39.554719) scale(0.1 -0.1)">
       <use xlink:href="#DejaVuSans-32"/>
      </g>
     </g>
    </g>
    <g id="text_46">
     <!-- Y súradnica -->
     <g transform="translate(727.758438 142.663) rotate(-90) scale(0.1 -0.1)">
      <use xlink:href="#DejaVuSans-59"/>
      <use xlink:href="#DejaVuSans-20" transform="translate(61.083984 0)"/>
      <use xlink:href="#DejaVuSans-73" transform="translate(92.871094 0)"/>
      <use xlink:href="#DejaVuSans-fa" transform="translate(144.970703 0)"/>
      <use xlink:href="#DejaVuSans-72" transform="translate(208.349609 0)"/>
      <use xlink:href="#DejaVuSans-61" transform="translate(249.462891 0)"/>
      <use xlink:href="#DejaVuSans-64" transform="translate(310.742188 0)"/>
      <use xlink:href="#DejaVuSans-6e" transform="translate(374.21875 0)"/>
      <use xlink:href="#DejaVuSans-69" transform="translate(437.597656 0)"/>
      <use xlink:href="#DejaVuSans-63" transform="translate(465.380859 0)"/>
      <use xlink:href="#DejaVuSans-61" transform="translate(520.361328 0)"/>
     </g>
    </g>
   </g>
   <g id="line2d_79">
    <path d="M 1007.635063 113.58175 
L 1007.535342 110.059331 
L 1007.2365 106.548195 
L 1006.739495 103.05959 
L 1006.045917 99.60469 
L 1005.157989 96.194564 
L 1004.078555 92.840133 
L 1002.811073 89.552145 
L 1001.359603 86.34113 
L 999.728794 83.217375 
L 997.923871 80.190887 
L 995.950615 77.271359 
L 993.815347 74.468145 
L 991.524906 71.790223 
L 989.086631 69.246172 
L 986.508331 66.844142 
L 983.798266 64.591826 
L 980.965117 62.496439 
L 978.017958 60.564694 
L 974.966232 58.802779 
L 971.819712 57.216338 
L 968.58848 55.810451 
L 965.282884 54.589624 
L 961.913515 53.557766 
L 958.491165 52.718183 
L 955.026796 52.073565 
L 951.531507 51.625975 
L 948.016494 51.376849 
L 944.493017 51.326984 
L 940.972361 51.47654 
L 937.465806 51.825037 
L 933.984583 52.37136 
L 930.539844 53.113758 
L 927.142624 54.049853 
L 923.803804 55.176647 
L 920.534081 56.49053 
L 917.343927 57.987293 
L 914.243563 59.662142 
L 911.242918 61.509712 
L 908.351606 63.524085 
L 905.578888 65.698807 
L 902.933647 68.026913 
L 900.424354 70.500944 
L 898.059049 73.112976 
L 895.845308 75.854642 
L 893.790223 78.71716 
L 891.900377 81.691359 
L 890.181822 84.767713 
L 888.640065 87.936366 
L 887.280045 91.18717 
L 886.106117 94.50971 
L 885.122041 97.893344 
L 884.330972 101.327232 
L 883.735442 104.800376 
L 883.337358 108.301648 
L 883.137998 111.819835 
L 883.137998 115.343665 
L 883.337358 118.861852 
L 883.735442 122.363124 
L 884.330972 125.836268 
L 885.122041 129.270156 
L 886.106117 132.65379 
L 887.280045 135.97633 
L 888.640065 139.227134 
L 890.181822 142.395787 
L 891.900377 145.472141 
L 893.790223 148.44634 
L 895.845308 151.308858 
L 898.059049 154.050524 
L 900.424354 156.662556 
L 902.933647 159.136587 
L 905.578888 161.464693 
L 908.351606 163.639415 
L 911.242918 165.653788 
L 914.243563 167.501358 
L 917.343927 169.176207 
L 920.534081 170.67297 
L 923.803804 171.986853 
L 927.142624 173.113647 
L 930.539844 174.049742 
L 933.984583 174.79214 
L 937.465806 175.338463 
L 940.972361 175.68696 
L 944.493017 175.836516 
L 948.016494 175.786651 
L 951.531507 175.537525 
L 955.026796 175.089935 
L 958.491165 174.445317 
L 961.913515 173.605734 
L 965.282884 172.573876 
L 968.58848 171.353049 
L 971.819712 169.947162 
L 974.966232 168.360721 
L 978.017958 166.598806 
L 980.965117 164.667061 
L 983.798266 162.571674 
L 986.508331 160.319358 
L 989.086631 157.917328 
L 991.524906 155.373277 
L 993.815347 152.695355 
L 995.950615 149.892141 
L 997.923871 146.972613 
L 999.728794 143.946125 
L 1001.359603 140.82237 
L 1002.811073 137.611355 
L 1004.078555 134.323367 
L 1005.157989 130.968936 
L 1006.045917 127.55881 
L 1006.739495 124.10391 
L 1007.2365 120.615305 
L 1007.535342 117.104169 
L 1007.635063 113.58175 
L 1007.535342 110.059331 
L 1007.2365 106.548195 
L 1006.739495 103.05959 
L 1006.045917 99.60469 
L 1005.157989 96.194564 
L 1004.078555 92.840133 
L 1002.811073 89.552145 
L 1001.359603 86.34113 
L 999.728794 83.217375 
L 997.923871 80.190887 
L 995.950615 77.271359 
L 993.815347 74.468145 
L 991.524906 71.790223 
L 989.086631 69.246172 
L 986.508331 66.844142 
L 983.798266 64.591826 
L 980.965117 62.496439 
L 978.017958 60.564694 
L 974.966232 58.802779 
L 971.819712 57.216338 
L 968.58848 55.810451 
L 965.282884 54.589624 
L 961.913515 53.557766 
L 958.491165 52.718183 
L 955.026796 52.073565 
L 951.531507 51.625975 
L 948.016494 51.376849 
L 944.493017 51.326984 
L 940.972361 51.47654 
L 937.465806 51.825037 
L 933.984583 52.37136 
L 930.539844 53.113758 
L 927.142624 54.049853 
L 923.803804 55.176647 
L 920.534081 56.49053 
L 917.343927 57.987293 
L 914.243563 59.662142 
L 911.242918 61.509712 
L 908.351606 63.524085 
L 905.578888 65.698807 
L 902.933647 68.026913 
L 900.424354 70.500944 
L 898.059049 73.112976 
L 895.845308 75.854642 
L 893.790223 78.71716 
L 891.900377 81.691359 
L 890.181822 84.767713 
L 888.640065 87.936366 
L 887.280045 91.18717 
L 886.106117 94.50971 
L 885.122041 97.893344 
L 884.330972 101.327232 
L 883.735442 104.800376 
L 883.337358 108.301648 
L 883.137998 111.819835 
L 883.137998 115.343665 
L 883.337358 118.861852 
L 883.735442 122.363124 
L 884.330972 125.836268 
L 885.122041 129.270156 
L 886.106117 132.65379 
L 887.280045 135.97633 
L 888.640065 139.227134 
L 890.181822 142.395787 
L 891.900377 145.472141 
L 893.790223 148.44634 
L 895.845308 151.308858 
L 898.059049 154.050524 
L 900.424354 156.662556 
L 902.933647 159.136587 
L 905.578888 161.464693 
L 908.351606 163.639415 
L 911.242918 165.653788 
L 914.243563 167.501358 
L 917.343927 169.176207 
L 920.534081 170.67297 
L 923.803804 171.986853 
L 927.142624 173.113647 
L 930.539844 174.049742 
L 933.984583 174.79214 
L 937.465806 175.338463 
L 940.972361 175.68696 
L 944.493017 175.836516 
L 948.016494 175.786651 
L 951.531507 175.537525 
L 955.026796 175.089935 
L 958.491165 174.445317 
L 961.913515 173.605734 
L 965.282884 172.573876 
L 968.58848 171.353049 
L 971.819712 169.947162 
L 974.966232 168.360721 
L 978.017958 166.598806 
L 980.965117 164.667061 
L 983.798266 162.571674 
L 986.508331 160.319358 
L 989.086631 157.917328 
L 991.524906 155.373277 
L 993.815347 152.695355 
L 995.950615 149.892141 
L 997.923871 146.972613 
L 999.728794 143.946125 
L 1001.359603 140.82237 
L 1002.811073 137.611355 
L 1004.078555 134.323367 
L 1005.157989 130.968936 
L 1006.045917 127.55881 
L 1006.739495 124.10391 
L 1007.2365 120.615305 
L 1007.535342 117.104169 
L 1007.635063 113.58175 
L 1007.535342 110.059331 
L 1007.2365 106.548195 
L 1006.739495 103.05959 
L 1006.045917 99.60469 
L 1005.157989 96.194564 
L 1004.078555 92.840133 
L 1002.811073 89.552145 
L 1001.359603 86.34113 
L 999.728794 83.217375 
L 997.923871 80.190887 
L 995.950615 77.271359 
L 993.815347 74.468145 
L 991.524906 71.790223 
L 989.086631 69.246172 
L 986.508331 66.844142 
L 983.798266 64.591826 
L 980.965117 62.496439 
L 978.017958 60.564694 
L 974.966232 58.802779 
L 971.819712 57.216338 
L 968.58848 55.810451 
L 965.282884 54.589624 
L 961.913515 53.557766 
L 958.491165 52.718183 
L 955.026796 52.073565 
L 951.531507 51.625975 
L 948.016494 51.376849 
L 944.493017 51.326984 
L 940.972361 51.47654 
L 937.465806 51.825037 
L 933.984583 52.37136 
L 930.539844 53.113758 
L 927.142624 54.049853 
L 923.803804 55.176647 
L 920.534081 56.49053 
L 917.343927 57.987293 
L 914.243563 59.662142 
L 911.242918 61.509712 
L 908.351606 63.524085 
L 905.578888 65.698807 
L 902.933647 68.026913 
L 900.424354 70.500944 
L 898.059049 73.112976 
L 895.845308 75.854642 
L 893.790223 78.71716 
L 891.900377 81.691359 
L 890.181822 84.767713 
L 888.640065 87.936366 
L 887.280045 91.18717 
L 886.106117 94.50971 
L 885.122041 97.893344 
L 884.330972 101.327232 
L 883.735442 104.800376 
L 883.337358 108.301648 
L 883.137998 111.819835 
L 883.137998 115.343665 
L 883.337358 118.861852 
L 883.735442 122.363124 
L 884.330972 125.836268 
L 885.122041 129.270156 
L 886.106117 132.65379 
L 887.280045 135.97633 
L 888.640065 139.227134 
L 890.181822 142.395787 
L 891.900377 145.472141 
L 893.790223 148.44634 
L 895.845308 151.308858 
L 898.059049 154.050524 
L 900.424354 156.662556 
L 902.933647 159.136587 
L 905.578888 161.464693 
L 908.351606 163.639415 
L 911.242918 165.653788 
L 914.243563 167.501358 
L 917.343927 169.176207 
L 920.534081 170.67297 
L 923.803804 171.986853 
L 927.142624 173.113647 
L 930.539844 174.049742 
L 933.984583 174.79214 
L 937.465806 175.338463 
L 940.972361 175.68696 
L 944.493017 175.836516 
L 948.016494 175.786651 
L 951.531507 175.537525 
L 955.026796 175.089935 
L 958.491165 174.445317 
L 961.913515 173.605734 
L 965.282884 172.573876 
L 968.58848 171.353049 
L 971.819712 169.947162 
L 974.966232 168.360721 
L 978.017958 166.598806 
L 980.965117 164.667061 
L 983.798266 162.571674 
L 986.508331 160.319358 
L 989.086631 157.917328 
L 991.524906 155.373277 
L 993.815347 152.695355 
L 995.950615 149.892141 
L 997.923871 146.972613 
L 999.728794 143.946125 
L 1001.359603 140.82237 
L 1002.811073 137.611355 
L 1004.078555 134.323367 
L 1005.157989 130.968936 
L 1006.045917 127.55881 
L 1006.739495 124.10391 
L 1007.2365 120.615305 
L 1007.535342 117.104169 
L 1007.635063 113.58175 
L 1007.635063 113.58175 
" clip-path="url(#p5608d1564c)" style="fill: none; stroke-dasharray: 5.55,2.4; stroke-dashoffset: 0; stroke: #808080; stroke-opacity: 0.5; stroke-width: 1.5"/>
   </g>
   <g id="line2d_80">
    <path d="M 1007.635063 113.58175 
L 1009.505087 109.947714 
L 1010.603793 107.409516 
L 1011.559093 104.78891 
L 1012.350922 102.097414 
L 1012.960908 99.348957 
L 1013.372767 96.559613 
L 1013.57264 93.747299 
L 1013.549389 90.931408 
L 1013.294833 88.132423 
L 1012.803918 85.371493 
L 1012.074822 82.66999 
L 1011.108996 80.049061 
L 1009.911123 77.529185 
L 1008.489026 75.12973 
L 1006.853491 72.868548 
L 1005.018043 70.761586 
L 1002.998654 68.822552 
L 1000.813409 67.062615 
L 998.482121 65.490173 
L 996.025922 64.110671 
L 993.466818 62.926493 
L 990.827235 61.936914 
L 988.129566 61.138123 
L 985.395712 60.52332 
L 982.646648 60.082868 
L 979.902012 59.804522 
L 975.832023 59.658499 
L 971.863427 59.786692 
L 968.035486 60.124687 
L 963.192552 60.783518 
L 950.427593 62.733485 
L 946.567763 62.979555 
L 943.702105 62.965064 
L 939.830092 62.682811 
L 935.803047 62.144315 
L 922.085678 60.056659 
L 918.232136 59.748951 
L 914.243563 59.662142 
L 910.161382 59.859672 
L 907.413886 60.177263 
L 904.666724 60.660252 
L 901.939906 61.320256 
L 899.254679 62.166221 
L 896.633107 63.204213 
L 894.097635 64.437275 
L 891.670628 65.865356 
L 889.373914 67.485301 
L 887.228336 69.290911 
L 885.253313 71.273078 
L 883.466436 73.419972 
L 881.883095 75.717298 
L 880.516155 78.148598 
L 879.375681 80.695604 
L 878.468723 83.33863 
L 877.799164 86.056989 
L 877.367637 88.829435 
L 877.171506 91.63461 
L 877.204922 94.451492 
L 877.458946 97.259831 
L 877.921736 100.040566 
L 878.578798 102.776211 
L 879.413289 105.4512 
L 880.406379 108.052185 
L 881.537642 110.568283 
L 883.446178 114.166008 
L 885.541493 117.538816 
L 887.748176 120.684913 
L 890.740208 124.549601 
L 898.811408 134.629397 
L 900.954425 137.849072 
L 902.374705 140.338051 
L 904.066274 143.832439 
L 905.613445 147.58921 
L 910.664166 160.512628 
L 912.324454 164.003747 
L 914.243563 167.501358 
L 916.455718 170.937865 
L 918.104509 173.158471 
L 919.89637 175.296088 
L 921.831359 177.32758 
L 923.9066 179.230072 
L 926.116313 180.981424 
L 928.451912 182.560676 
L 930.902171 183.948486 
L 933.453441 185.127526 
L 936.089934 186.082846 
L 938.794052 186.802183 
L 941.546756 187.276216 
L 944.327969 187.498767 
L 947.117007 187.466922 
L 949.893015 187.181098 
L 952.635422 186.645034 
L 955.324369 185.865709 
L 957.941142 184.853199 
L 960.468561 183.620467 
L 962.891344 182.183087 
L 965.196424 180.558926 
L 967.373216 178.76777 
L 969.413824 176.830916 
L 971.313186 174.77073 
L 973.069161 172.610196 
L 974.682534 170.372445 
L 976.843987 166.920742 
L 978.717267 163.419742 
L 980.338526 159.93565 
L 982.189428 155.41213 
L 986.883187 143.382368 
L 988.599999 139.916623 
L 990.045377 137.442135 
L 992.225822 134.23 
L 994.705695 131.011725 
L 1003.372343 120.175963 
L 1005.565597 116.992552 
L 1007.635063 113.58175 
L 1009.505087 109.947714 
L 1010.603793 107.409516 
L 1011.559093 104.78891 
L 1012.350922 102.097414 
L 1012.960908 99.348957 
L 1013.372767 96.559613 
L 1013.57264 93.747299 
L 1013.549389 90.931408 
L 1013.294833 88.132423 
L 1012.803918 85.371493 
L 1012.074822 82.66999 
L 1011.108996 80.049061 
L 1009.911123 77.529185 
L 1008.489026 75.12973 
L 1006.853491 72.868548 
L 1005.018043 70.761586 
L 1002.998654 68.822552 
L 1000.813409 67.062615 
L 998.482121 65.490173 
L 996.025922 64.110671 
L 993.466818 62.926493 
L 990.827235 61.936914 
L 988.129566 61.138123 
L 985.395712 60.52332 
L 982.646648 60.082868 
L 979.902012 59.804522 
L 975.832023 59.658499 
L 971.863427 59.786692 
L 968.035486 60.124687 
L 963.192552 60.783518 
L 950.427593 62.733485 
L 946.567763 62.979555 
L 943.702105 62.965064 
L 939.830092 62.682811 
L 935.803047 62.144315 
L 922.085678 60.056659 
L 918.232136 59.748951 
L 914.243563 59.662142 
L 910.161382 59.859672 
L 907.413886 60.177263 
L 904.666724 60.660252 
L 901.939906 61.320256 
L 899.254679 62.166221 
L 896.633107 63.204213 
L 894.097635 64.437275 
L 891.670628 65.865356 
L 889.373914 67.485301 
L 887.228336 69.290911 
L 885.253313 71.273078 
L 883.466436 73.419972 
L 881.883095 75.717298 
L 880.516155 78.148598 
L 879.375681 80.695604 
L 878.468723 83.33863 
L 877.799164 86.056989 
L 877.367637 88.829435 
L 877.171506 91.63461 
L 877.204922 94.451492 
L 877.458946 97.259831 
L 877.921736 100.040566 
L 878.578798 102.776211 
L 879.413289 105.4512 
L 880.406379 108.052185 
L 881.537642 110.568283 
L 883.446178 114.166008 
L 885.541493 117.538816 
L 887.748176 120.684913 
L 890.740208 124.549601 
L 898.811408 134.629397 
L 900.954425 137.849072 
L 902.374705 140.338051 
L 904.066274 143.832439 
L 905.613445 147.58921 
L 910.664166 160.512628 
L 912.324454 164.003747 
L 914.243563 167.501358 
L 916.455718 170.937865 
L 918.104509 173.158471 
L 919.89637 175.296088 
L 921.831359 177.32758 
L 923.9066 179.230072 
L 926.116313 180.981424 
L 928.451912 182.560676 
L 930.902171 183.948486 
L 933.453441 185.127526 
L 936.089934 186.082846 
L 938.794052 186.802183 
L 941.546756 187.276216 
L 944.327969 187.498767 
L 947.117007 187.466922 
L 949.893015 187.181098 
L 952.635422 186.645034 
L 955.324369 185.865709 
L 957.941142 184.853199 
L 960.468561 183.620467 
L 962.891344 182.183087 
L 965.196424 180.558926 
L 967.373216 178.76777 
L 969.413824 176.830916 
L 971.313186 174.77073 
L 973.069161 172.610196 
L 974.682534 170.372445 
L 976.843987 166.920742 
L 978.717267 163.419742 
L 980.338526 159.93565 
L 982.189428 155.41213 
L 986.883187 143.382368 
L 988.599999 139.916623 
L 990.045377 137.442135 
L 992.225822 134.23 
L 994.705695 131.011725 
L 1003.372343 120.175963 
L 1005.565597 116.992552 
L 1007.635063 113.58175 
L 1009.505087 109.947714 
L 1010.603793 107.409516 
L 1011.559093 104.78891 
L 1012.350922 102.097414 
L 1012.960908 99.348957 
L 1013.372767 96.559613 
L 1013.57264 93.747299 
L 1013.549389 90.931408 
L 1013.294833 88.132423 
L 1012.803918 85.371493 
L 1012.074822 82.66999 
L 1011.108996 80.049061 
L 1009.911123 77.529185 
L 1008.489026 75.12973 
L 1006.853491 72.868548 
L 1005.018043 70.761586 
L 1002.998654 68.822552 
L 1000.813409 67.062615 
L 998.482121 65.490173 
L 996.025922 64.110671 
L 993.466818 62.926493 
L 990.827235 61.936914 
L 988.129566 61.138123 
L 985.395712 60.52332 
L 982.646648 60.082868 
L 979.902012 59.804522 
L 975.832023 59.658499 
L 971.863427 59.786692 
L 968.035486 60.124687 
L 963.192552 60.783518 
L 950.427593 62.733485 
L 946.567763 62.979555 
L 943.702105 62.965064 
L 939.830092 62.682811 
L 935.803047 62.144315 
L 922.085678 60.056659 
L 918.232136 59.748951 
L 914.243563 59.662142 
L 910.161382 59.859672 
L 907.413886 60.177263 
L 904.666724 60.660252 
L 901.939906 61.320256 
L 899.254679 62.166221 
L 896.633107 63.204213 
L 894.097635 64.437275 
L 891.670628 65.865356 
L 889.373914 67.485301 
L 887.228336 69.290911 
L 885.253313 71.273078 
L 883.466436 73.419972 
L 881.883095 75.717298 
L 880.516155 78.148598 
L 879.375681 80.695604 
L 878.468723 83.33863 
L 877.799164 86.056989 
L 877.367637 88.829435 
L 877.171506 91.63461 
L 877.204922 94.451492 
L 877.458946 97.259831 
L 877.921736 100.040566 
L 878.578798 102.776211 
L 879.413289 105.4512 
L 880.406379 108.052185 
L 881.537642 110.568283 
L 883.446178 114.166008 
L 885.541493 117.538816 
L 887.748176 120.684913 
L 890.740208 124.549601 
L 898.811408 134.629397 
L 900.954425 137.849072 
L 902.374705 140.338051 
L 904.066274 143.832439 
L 905.613445 147.58921 
L 910.664166 160.512628 
L 912.324454 164.003747 
L 914.243563 167.501358 
L 916.455718 170.937865 
L 918.104509 173.158471 
L 919.89637 175.296088 
L 921.831359 177.32758 
L 923.9066 179.230072 
L 926.116313 180.981424 
L 928.451912 182.560676 
L 930.902171 183.948486 
L 933.453441 185.127526 
L 936.089934 186.082846 
L 938.794052 186.802183 
L 941.546756 187.276216 
L 944.327969 187.498767 
L 947.117007 187.466922 
L 949.893015 187.181098 
L 952.635422 186.645034 
L 955.324369 185.865709 
L 957.941142 184.853199 
L 960.468561 183.620467 
L 962.891344 182.183087 
L 965.196424 180.558926 
L 967.373216 178.76777 
L 969.413824 176.830916 
L 971.313186 174.77073 
L 973.069161 172.610196 
L 974.682534 170.372445 
L 976.843987 166.920742 
L 978.717267 163.419742 
L 980.338526 159.93565 
L 982.189428 155.41213 
L 986.883187 143.382368 
L 988.599999 139.916623 
L 990.045377 137.442135 
L 992.225822 134.23 
L 994.705695 131.011725 
L 1003.372343 120.175963 
L 1005.565597 116.992552 
L 1007.635063 113.58175 
L 1007.635063 113.58175 
" clip-path="url(#p5608d1564c)" style="fill: none; stroke: #ff0000; stroke-width: 3; stroke-linecap: square"/>
   </g>
   <g id="patch_14">
    <path d="M 750.808438 191.408 
L 750.808438 35.7555 
" style="fill: none; stroke: #000000; stroke-width: 0.8; stroke-linejoin: miter; stroke-linecap: square"/>
   </g>
   <g id="patch_15">
    <path d="M 1062.113438 191.408 
L 1062.113438 35.7555 
" style="fill: none; stroke: #000000; stroke-width: 0.8; stroke-linejoin: miter; stroke-linecap: square"/>
   </g>
   <g id="patch_16">
    <path d="M 750.808438 191.408 
L 1062.113438 191.408 
" style="fill: none; stroke: #000000; stroke-width: 0.8; stroke-linejoin: miter; stroke-linecap: square"/>
   </g>
   <g id="patch_17">
    <path d="M 750.808438 35.7555 
L 1062.113438 35.7555 
" style="fill: none; stroke: #000000; stroke-width: 0.8; stroke-linejoin: miter; stroke-linecap: square"/>
   </g>
   <g id="text_47">
    <g id="patch_18">
     <path d="M 757.409281 169.2485 
L 868.729594 169.2485 
Q 871.729594 169.2485 871.729594 166.2485 
L 871.729594 156.570375 
Q 871.729594 153.570375 868.729594 153.570375 
L 757.409281 153.570375 
Q 754.409281 153.570375 754.409281 156.570375 
L 754.409281 166.2485 
Q 754.409281 169.2485 757.409281 169.2485 
z
" style="fill: #ffff00; stroke: #000000; stroke-linejoin: miter"/>
    </g>
    <!-- PODMIENKA: L = nλ -->
    <g transform="translate(757.409281 164.168813) scale(0.1 -0.1)">
     <defs>
      <path id="DejaVuSans-Bold-4f" d="M 2719 3878 
Q 2169 3878 1866 3472 
Q 1563 3066 1563 2328 
Q 1563 1594 1866 1187 
Q 2169 781 2719 781 
Q 3272 781 3575 1187 
Q 3878 1594 3878 2328 
Q 3878 3066 3575 3472 
Q 3272 3878 2719 3878 
z
M 2719 4750 
Q 3844 4750 4481 4106 
Q 5119 3463 5119 2328 
Q 5119 1197 4481 553 
Q 3844 -91 2719 -91 
Q 1597 -91 958 553 
Q 319 1197 319 2328 
Q 319 3463 958 4106 
Q 1597 4750 2719 4750 
z
" transform="scale(0.015625)"/>
      <path id="DejaVuSans-Bold-44" d="M 1791 3756 
L 1791 909 
L 2222 909 
Q 2959 909 3348 1275 
Q 3738 1641 3738 2338 
Q 3738 3031 3350 3393 
Q 2963 3756 2222 3756 
L 1791 3756 
z
M 588 4666 
L 1856 4666 
Q 2919 4666 3439 4514 
Q 3959 4363 4331 4000 
Q 4659 3684 4818 3271 
Q 4978 2859 4978 2338 
Q 4978 1809 4818 1395 
Q 4659 981 4331 666 
Q 3956 303 3431 151 
Q 2906 0 1856 0 
L 588 0 
L 588 4666 
z
" transform="scale(0.015625)"/>
      <path id="DejaVuSans-Bold-4d" d="M 588 4666 
L 2119 4666 
L 3181 2169 
L 4250 4666 
L 5778 4666 
L 5778 0 
L 4641 0 
L 4641 3413 
L 3566 897 
L 2803 897 
L 1728 3413 
L 1728 0 
L 588 0 
L 588 4666 
z
" transform="scale(0.015625)"/>
      <path id="DejaVuSans-Bold-49" d="M 588 4666 
L 1791 4666 
L 1791 0 
L 588 0 
L 588 4666 
z
" transform="scale(0.015625)"/>
      <path id="DejaVuSans-Bold-45" d="M 588 4666 
L 3834 4666 
L 3834 3756 
L 1791 3756 
L 1791 2888 
L 3713 2888 
L 3713 1978 
L 1791 1978 
L 1791 909 
L 3903 909 
L 3903 0 
L 588 0 
L 588 4666 
z
" transform="scale(0.015625)"/>
      <path id="DejaVuSans-Bold-4e" d="M 588 4666 
L 1931 4666 
L 3628 1466 
L 3628 4666 
L 4769 4666 
L 4769 0 
L 3425 0 
L 1728 3200 
L 1728 0 
L 588 0 
L 588 4666 
z
" transform="scale(0.015625)"/>
      <path id="DejaVuSans-Bold-4b" d="M 588 4666 
L 1791 4666 
L 1791 2963 
L 3525 4666 
L 4922 4666 
L 2675 2456 
L 5153 0 
L 3647 0 
L 1791 1838 
L 1791 0 
L 588 0 
L 588 4666 
z
" transform="scale(0.015625)"/>
      <path id="DejaVuSans-Bold-41" d="M 3419 850 
L 1538 850 
L 1241 0 
L 31 0 
L 1759 4666 
L 3194 4666 
L 4922 0 
L 3713 0 
L 3419 850 
z
M 1838 1716 
L 3116 1716 
L 2478 3572 
L 1838 1716 
z
" transform="scale(0.015625)"/>
      <path id="DejaVuSans-Bold-3a" d="M 716 3500 
L 1844 3500 
L 1844 2291 
L 716 2291 
L 716 3500 
z
M 716 1209 
L 1844 1209 
L 1844 0 
L 716 0 
L 716 1209 
z
" transform="scale(0.015625)"/>
      <path id="DejaVuSans-Bold-4c" d="M 588 4666 
L 1791 4666 
L 1791 909 
L 3903 909 
L 3903 0 
L 588 0 
L 588 4666 
z
" transform="scale(0.015625)"/>
      <path id="DejaVuSans-Bold-3d" d="M 678 3084 
L 4684 3084 
L 4684 2350 
L 678 2350 
L 678 3084 
z
M 678 1663 
L 4684 1663 
L 4684 922 
L 678 922 
L 678 1663 
z
" transform="scale(0.015625)"/>
      <path id="DejaVuSans-Bold-3bb" d="M 1544 3188 
L 1350 3713 
Q 1263 3953 1145 4040 
Q 1028 4128 734 4128 
L 384 4128 
L 384 4863 
L 1031 4863 
Q 1600 4863 1908 4622 
Q 2216 4381 2428 3813 
L 3859 0 
L 2741 0 
L 2044 1838 
L 1309 0 
L 191 0 
L 1544 3188 
z
" transform="scale(0.015625)"/>
     </defs>
     <use xlink:href="#DejaVuSans-Bold-50"/>
     <use xlink:href="#DejaVuSans-Bold-4f" transform="translate(73.291016 0)"/>
     <use xlink:href="#DejaVuSans-Bold-44" transform="translate(158.300781 0)"/>
     <use xlink:href="#DejaVuSans-Bold-4d" transform="translate(241.308594 0)"/>
     <use xlink:href="#DejaVuSans-Bold-49" transform="translate(340.820312 0)"/>
     <use xlink:href="#DejaVuSans-Bold-45" transform="translate(378.027344 0)"/>
     <use xlink:href="#DejaVuSans-Bold-4e" transform="translate(446.337891 0)"/>
     <use xlink:href="#DejaVuSans-Bold-4b" transform="translate(530.029297 0)"/>
     <use xlink:href="#DejaVuSans-Bold-41" transform="translate(607.519531 0)"/>
     <use xlink:href="#DejaVuSans-Bold-3a" transform="translate(686.787109 0)"/>
     <use xlink:href="#DejaVuSans-Bold-20" transform="translate(726.777344 0)"/>
     <use xlink:href="#DejaVuSans-Bold-4c" transform="translate(761.591797 0)"/>
     <use xlink:href="#DejaVuSans-Bold-20" transform="translate(825.3125 0)"/>
     <use xlink:href="#DejaVuSans-Bold-3d" transform="translate(860.126953 0)"/>
     <use xlink:href="#DejaVuSans-Bold-20" transform="translate(943.916016 0)"/>
     <use xlink:href="#DejaVuSans-Bold-6e" transform="translate(978.730469 0)"/>
     <use xlink:href="#DejaVuSans-Bold-3bb" transform="translate(1049.921875 0)"/>
    </g>
   </g>
   <g id="text_48">
    <!-- c) Uväznená n=3 -->
    <g transform="translate(849.524688 16.318125) scale(0.12 -0.12)">
     <defs>
      <path id="DejaVuSans-Bold-55" d="M 588 4666 
L 1791 4666 
L 1791 1869 
Q 1791 1291 1980 1042 
Q 2169 794 2597 794 
Q 3028 794 3217 1042 
Q 3406 1291 3406 1869 
L 3406 4666 
L 4609 4666 
L 4609 1869 
Q 4609 878 4112 393 
Q 3616 -91 2597 -91 
Q 1581 -91 1084 393 
Q 588 878 588 1869 
L 588 4666 
z
" transform="scale(0.015625)"/>
      <path id="DejaVuSans-Bold-e4" d="M 2106 1575 
Q 1756 1575 1579 1456 
Q 1403 1338 1403 1106 
Q 1403 894 1545 773 
Q 1688 653 1941 653 
Q 2256 653 2472 879 
Q 2688 1106 2688 1447 
L 2688 1575 
L 2106 1575 
z
M 3816 1997 
L 3816 0 
L 2688 0 
L 2688 519 
Q 2463 200 2181 54 
Q 1900 -91 1497 -91 
Q 953 -91 614 226 
Q 275 544 275 1050 
Q 275 1666 698 1953 
Q 1122 2241 2028 2241 
L 2688 2241 
L 2688 2328 
Q 2688 2594 2478 2717 
Q 2269 2841 1825 2841 
Q 1466 2841 1156 2769 
Q 847 2697 581 2553 
L 581 3406 
Q 941 3494 1303 3539 
Q 1666 3584 2028 3584 
Q 2975 3584 3395 3211 
Q 3816 2838 3816 1997 
z
M 1200 4953 
L 1934 4953 
L 1934 4184 
L 1200 4184 
L 1200 4953 
z
M 2434 4953 
L 3168 4953 
L 3168 4184 
L 2434 4184 
L 2434 4953 
z
" transform="scale(0.015625)"/>
      <path id="DejaVuSans-Bold-7a" d="M 366 3500 
L 3419 3500 
L 3419 2719 
L 1575 800 
L 3419 800 
L 3419 0 
L 288 0 
L 288 781 
L 2131 2700 
L 366 2700 
L 366 3500 
z
" transform="scale(0.015625)"/>
      <path id="DejaVuSans-Bold-33" d="M 2981 2516 
Q 3453 2394 3698 2092 
Q 3944 1791 3944 1325 
Q 3944 631 3412 270 
Q 2881 -91 1863 -91 
Q 1503 -91 1142 -33 
Q 781 25 428 141 
L 428 1069 
Q 766 900 1098 814 
Q 1431 728 1753 728 
Q 2231 728 2486 893 
Q 2741 1059 2741 1369 
Q 2741 1688 2480 1852 
Q 2219 2016 1709 2016 
L 1228 2016 
L 1228 2791 
L 1734 2791 
Q 2188 2791 2409 2933 
Q 2631 3075 2631 3366 
Q 2631 3634 2415 3781 
Q 2200 3928 1806 3928 
Q 1516 3928 1219 3862 
Q 922 3797 628 3669 
L 628 4550 
Q 984 4650 1334 4700 
Q 1684 4750 2022 4750 
Q 2931 4750 3382 4451 
Q 3834 4153 3834 3553 
Q 3834 3144 3618 2883 
Q 3403 2622 2981 2516 
z
" transform="scale(0.015625)"/>
     </defs>
     <use xlink:href="#DejaVuSans-Bold-63"/>
     <use xlink:href="#DejaVuSans-Bold-29" transform="translate(59.277344 0)"/>
     <use xlink:href="#DejaVuSans-Bold-20" transform="translate(104.980469 0)"/>
     <use xlink:href="#DejaVuSans-Bold-55" transform="translate(139.794922 0)"/>
     <use xlink:href="#DejaVuSans-Bold-76" transform="translate(220.996094 0)"/>
     <use xlink:href="#DejaVuSans-Bold-e4" transform="translate(286.181641 0)"/>
     <use xlink:href="#DejaVuSans-Bold-7a" transform="translate(353.662109 0)"/>
     <use xlink:href="#DejaVuSans-Bold-6e" transform="translate(411.865234 0)"/>
     <use xlink:href="#DejaVuSans-Bold-65" transform="translate(483.056641 0)"/>
     <use xlink:href="#DejaVuSans-Bold-6e" transform="translate(550.878906 0)"/>
     <use xlink:href="#DejaVuSans-Bold-e1" transform="translate(622.070312 0)"/>
     <use xlink:href="#DejaVuSans-Bold-20" transform="translate(689.550781 0)"/>
     <use xlink:href="#DejaVuSans-Bold-6e" transform="translate(724.365234 0)"/>
     <use xlink:href="#DejaVuSans-Bold-3d" transform="translate(795.556641 0)"/>
     <use xlink:href="#DejaVuSans-Bold-33" transform="translate(879.345703 0)"/>
    </g>
    <!-- L = 3λ -->
    <g transform="translate(885.460938 29.7555) scale(0.12 -0.12)">
     <use xlink:href="#DejaVuSans-Bold-4c"/>
     <use xlink:href="#DejaVuSans-Bold-20" transform="translate(63.720703 0)"/>
     <use xlink:href="#DejaVuSans-Bold-3d" transform="translate(98.535156 0)"/>
     <use xlink:href="#DejaVuSans-Bold-20" transform="translate(182.324219 0)"/>
     <use xlink:href="#DejaVuSans-Bold-33" transform="translate(217.138672 0)"/>
     <use xlink:href="#DejaVuSans-Bold-3bb" transform="translate(286.71875 0)"/>
    </g>
   </g>
  </g>
 </g>
 <defs>
  <clipPath id="p59c1f9a62d">
   <rect x="38.248438" y="51.32075" width="311.305" height="124.522"/>
  </clipPath>
  <clipPath id="ped0e713a17">
   <rect x="394.528437" y="35.7555" width="311.305" height="155.6525"/>
  </clipPath>
  <clipPath id="p5608d1564c">
   <rect x="750.808438" y="35.7555" width="311.305" height="155.6525"/>
  </clipPath>
 </defs>
</svg>
