<?xml version="1.0" encoding="utf-8" standalone="no"?>
<!DOCTYPE svg PUBLIC "-//W3C//DTD SVG 1.1//EN"
  "http://www.w3.org/Graphics/SVG/1.1/DTD/svg11.dtd">
<svg xmlns:xlink="http://www.w3.org/1999/xlink" width="720pt" height="432pt" viewBox="0 0 720 432" xmlns="http://www.w3.org/2000/svg" version="1.1">
 <metadata>
  <rdf:RDF xmlns:dc="http://purl.org/dc/elements/1.1/" xmlns:cc="http://creativecommons.org/ns#" xmlns:rdf="http://www.w3.org/1999/02/22-rdf-syntax-ns#">
   <cc:Work>
    <dc:type rdf:resource="http://purl.org/dc/dcmitype/StillImage"/>
    <dc:date>2025-12-03T16:19:58.332241</dc:date>
    <dc:format>image/svg+xml</dc:format>
    <dc:creator>
     <cc:Agent>
      <dc:title>Matplotlib v3.10.6, https://matplotlib.org/</dc:title>
     </cc:Agent>
    </dc:creator>
   </cc:Work>
  </rdf:RDF>
 </metadata>
 <defs>
  <style type="text/css">*{stroke-linejoin: round; stroke-linecap: butt}</style>
 </defs>
 <g id="figure_1">
  <g id="patch_1">
   <path d="M 0 432 
L 720 432 
L 720 0 
L 0 0 
z
" style="fill: #f0f0f0"/>
  </g>
  <g id="axes_1">
   <g id="patch_2">
    <path d="M 47.72 380.470942 
L 703.98 380.470942 
L 703.98 43.44 
L 47.72 43.44 
z
" style="fill: #ffffff"/>
   </g>
   <g id="FillBetweenPolyCollection_1">
    <path d="M 91.470667 -593.174002 
L 91.470667 754.949767 
L 222.722667 754.949767 
L 222.722667 -593.174002 
L 222.722667 -593.174002 
L 91.470667 -593.174002 
z
" clip-path="url(#p0b4746938e)" style="fill: #377eb8; fill-opacity: 0.3; stroke: #377eb8; stroke-opacity: 0.3"/>
   </g>
   <g id="FillBetweenPolyCollection_2">
    <defs>
     <path id="mb305605392" d="M 310.224 -263.386708 
L 310.224 -200.474266 
L 441.476 -200.474266 
L 441.476 -263.386708 
L 441.476 -263.386708 
L 310.224 -263.386708 
z
" style="stroke: #4daf4a; stroke-opacity: 0.4"/>
    </defs>
    <g clip-path="url(#p0b4746938e)">
     <use xlink:href="#mb305605392" x="0" y="432" style="fill: #4daf4a; fill-opacity: 0.4; stroke: #4daf4a; stroke-opacity: 0.4"/>
    </g>
   </g>
   <g id="FillBetweenPolyCollection_3">
    <defs>
     <path id="m7c2f41c8cb" d="M 528.977333 -232.859194 
L 528.977333 -231.466133 
L 660.229333 -231.466133 
L 660.229333 -232.859194 
L 660.229333 -232.859194 
L 528.977333 -232.859194 
z
" style="stroke: #e41a1c; stroke-opacity: 0.6"/>
    </defs>
    <g clip-path="url(#p0b4746938e)">
     <use xlink:href="#m7c2f41c8cb" x="0" y="432" style="fill: #e41a1c; fill-opacity: 0.6; stroke: #e41a1c; stroke-opacity: 0.6"/>
    </g>
   </g>
   <g id="matplotlib.axis_1">
    <g id="xtick_1">
     <g id="line2d_1">
      <path d="M 157.096667 380.470942 
L 157.096667 43.44 
" clip-path="url(#p0b4746938e)" style="fill: none; stroke: #b0b0b0; stroke-opacity: 0.3; stroke-width: 0.5; stroke-linecap: square"/>
     </g>
     <g id="line2d_2">
      <defs>
       <path id="m079705029f" d="M 0 0 
L 0 3.5 
" style="stroke: #000000; stroke-width: 0.8"/>
      </defs>
      <g>
       <use xlink:href="#m079705029f" x="157.096667" y="380.470942" style="stroke: #000000; stroke-width: 0.8"/>
      </g>
     </g>
     <g id="text_1">
      <!-- Quantenmechanik -->
      <g transform="translate(113.450702 418.582999) rotate(-15) scale(0.1 -0.1)">
       <defs>
        <path id="DejaVuSans-51" d="M 2522 4238 
Q 1834 4238 1429 3725 
Q 1025 3213 1025 2328 
Q 1025 1447 1429 934 
Q 1834 422 2522 422 
Q 3209 422 3611 934 
Q 4013 1447 4013 2328 
Q 4013 3213 3611 3725 
Q 3209 4238 2522 4238 
z
M 3406 84 
L 4238 -825 
L 3475 -825 
L 2784 -78 
Q 2681 -84 2626 -87 
Q 2572 -91 2522 -91 
Q 1538 -91 948 567 
Q 359 1225 359 2328 
Q 359 3434 948 4092 
Q 1538 4750 2522 4750 
Q 3503 4750 4090 4092 
Q 4678 3434 4678 2328 
Q 4678 1516 4351 937 
Q 4025 359 3406 84 
z
" transform="scale(0.015625)"/>
        <path id="DejaVuSans-75" d="M 544 1381 
L 544 3500 
L 1119 3500 
L 1119 1403 
Q 1119 906 1312 657 
Q 1506 409 1894 409 
Q 2359 409 2629 706 
Q 2900 1003 2900 1516 
L 2900 3500 
L 3475 3500 
L 3475 0 
L 2900 0 
L 2900 538 
Q 2691 219 2414 64 
Q 2138 -91 1772 -91 
Q 1169 -91 856 284 
Q 544 659 544 1381 
z
M 1991 3584 
L 1991 3584 
z
" transform="scale(0.015625)"/>
        <path id="DejaVuSans-61" d="M 2194 1759 
Q 1497 1759 1228 1600 
Q 959 1441 959 1056 
Q 959 750 1161 570 
Q 1363 391 1709 391 
Q 2188 391 2477 730 
Q 2766 1069 2766 1631 
L 2766 1759 
L 2194 1759 
z
M 3341 1997 
L 3341 0 
L 2766 0 
L 2766 531 
Q 2569 213 2275 61 
Q 1981 -91 1556 -91 
Q 1019 -91 701 211 
Q 384 513 384 1019 
Q 384 1609 779 1909 
Q 1175 2209 1959 2209 
L 2766 2209 
L 2766 2266 
Q 2766 2663 2505 2880 
Q 2244 3097 1772 3097 
Q 1472 3097 1187 3025 
Q 903 2953 641 2809 
L 641 3341 
Q 956 3463 1253 3523 
Q 1550 3584 1831 3584 
Q 2591 3584 2966 3190 
Q 3341 2797 3341 1997 
z
" transform="scale(0.015625)"/>
        <path id="DejaVuSans-6e" d="M 3513 2113 
L 3513 0 
L 2938 0 
L 2938 2094 
Q 2938 2591 2744 2837 
Q 2550 3084 2163 3084 
Q 1697 3084 1428 2787 
Q 1159 2491 1159 1978 
L 1159 0 
L 581 0 
L 581 3500 
L 1159 3500 
L 1159 2956 
Q 1366 3272 1645 3428 
Q 1925 3584 2291 3584 
Q 2894 3584 3203 3211 
Q 3513 2838 3513 2113 
z
" transform="scale(0.015625)"/>
        <path id="DejaVuSans-74" d="M 1172 4494 
L 1172 3500 
L 2356 3500 
L 2356 3053 
L 1172 3053 
L 1172 1153 
Q 1172 725 1289 603 
Q 1406 481 1766 481 
L 2356 481 
L 2356 0 
L 1766 0 
Q 1100 0 847 248 
Q 594 497 594 1153 
L 594 3053 
L 172 3053 
L 172 3500 
L 594 3500 
L 594 4494 
L 1172 4494 
z
" transform="scale(0.015625)"/>
        <path id="DejaVuSans-65" d="M 3597 1894 
L 3597 1613 
L 953 1613 
Q 991 1019 1311 708 
Q 1631 397 2203 397 
Q 2534 397 2845 478 
Q 3156 559 3463 722 
L 3463 178 
Q 3153 47 2828 -22 
Q 2503 -91 2169 -91 
Q 1331 -91 842 396 
Q 353 884 353 1716 
Q 353 2575 817 3079 
Q 1281 3584 2069 3584 
Q 2775 3584 3186 3129 
Q 3597 2675 3597 1894 
z
M 3022 2063 
Q 3016 2534 2758 2815 
Q 2500 3097 2075 3097 
Q 1594 3097 1305 2825 
Q 1016 2553 972 2059 
L 3022 2063 
z
" transform="scale(0.015625)"/>
        <path id="DejaVuSans-6d" d="M 3328 2828 
Q 3544 3216 3844 3400 
Q 4144 3584 4550 3584 
Q 5097 3584 5394 3201 
Q 5691 2819 5691 2113 
L 5691 0 
L 5113 0 
L 5113 2094 
Q 5113 2597 4934 2840 
Q 4756 3084 4391 3084 
Q 3944 3084 3684 2787 
Q 3425 2491 3425 1978 
L 3425 0 
L 2847 0 
L 2847 2094 
Q 2847 2600 2669 2842 
Q 2491 3084 2119 3084 
Q 1678 3084 1418 2786 
Q 1159 2488 1159 1978 
L 1159 0 
L 581 0 
L 581 3500 
L 1159 3500 
L 1159 2956 
Q 1356 3278 1631 3431 
Q 1906 3584 2284 3584 
Q 2666 3584 2933 3390 
Q 3200 3197 3328 2828 
z
" transform="scale(0.015625)"/>
        <path id="DejaVuSans-63" d="M 3122 3366 
L 3122 2828 
Q 2878 2963 2633 3030 
Q 2388 3097 2138 3097 
Q 1578 3097 1268 2742 
Q 959 2388 959 1747 
Q 959 1106 1268 751 
Q 1578 397 2138 397 
Q 2388 397 2633 464 
Q 2878 531 3122 666 
L 3122 134 
Q 2881 22 2623 -34 
Q 2366 -91 2075 -91 
Q 1284 -91 818 406 
Q 353 903 353 1747 
Q 353 2603 823 3093 
Q 1294 3584 2113 3584 
Q 2378 3584 2631 3529 
Q 2884 3475 3122 3366 
z
" transform="scale(0.015625)"/>
        <path id="DejaVuSans-68" d="M 3513 2113 
L 3513 0 
L 2938 0 
L 2938 2094 
Q 2938 2591 2744 2837 
Q 2550 3084 2163 3084 
Q 1697 3084 1428 2787 
Q 1159 2491 1159 1978 
L 1159 0 
L 581 0 
L 581 4863 
L 1159 4863 
L 1159 2956 
Q 1366 3272 1645 3428 
Q 1925 3584 2291 3584 
Q 2894 3584 3203 3211 
Q 3513 2838 3513 2113 
z
" transform="scale(0.015625)"/>
        <path id="DejaVuSans-69" d="M 603 3500 
L 1178 3500 
L 1178 0 
L 603 0 
L 603 3500 
z
M 603 4863 
L 1178 4863 
L 1178 4134 
L 603 4134 
L 603 4863 
z
" transform="scale(0.015625)"/>
        <path id="DejaVuSans-6b" d="M 581 4863 
L 1159 4863 
L 1159 1991 
L 2875 3500 
L 3609 3500 
L 1753 1863 
L 3688 0 
L 2938 0 
L 1159 1709 
L 1159 0 
L 581 0 
L 581 4863 
z
" transform="scale(0.015625)"/>
       </defs>
       <use xlink:href="#DejaVuSans-51"/>
       <use xlink:href="#DejaVuSans-75" transform="translate(78.710938 0)"/>
       <use xlink:href="#DejaVuSans-61" transform="translate(142.089844 0)"/>
       <use xlink:href="#DejaVuSans-6e" transform="translate(203.369141 0)"/>
       <use xlink:href="#DejaVuSans-74" transform="translate(266.748047 0)"/>
       <use xlink:href="#DejaVuSans-65" transform="translate(305.957031 0)"/>
       <use xlink:href="#DejaVuSans-6e" transform="translate(367.480469 0)"/>
       <use xlink:href="#DejaVuSans-6d" transform="translate(430.859375 0)"/>
       <use xlink:href="#DejaVuSans-65" transform="translate(528.271484 0)"/>
       <use xlink:href="#DejaVuSans-63" transform="translate(589.794922 0)"/>
       <use xlink:href="#DejaVuSans-68" transform="translate(644.775391 0)"/>
       <use xlink:href="#DejaVuSans-61" transform="translate(708.154297 0)"/>
       <use xlink:href="#DejaVuSans-6e" transform="translate(769.433594 0)"/>
       <use xlink:href="#DejaVuSans-69" transform="translate(832.8125 0)"/>
       <use xlink:href="#DejaVuSans-6b" transform="translate(860.595703 0)"/>
      </g>
     </g>
    </g>
    <g id="xtick_2">
     <g id="line2d_3">
      <path d="M 375.85 380.470942 
L 375.85 43.44 
" clip-path="url(#p0b4746938e)" style="fill: none; stroke: #b0b0b0; stroke-opacity: 0.3; stroke-width: 0.5; stroke-linecap: square"/>
     </g>
     <g id="line2d_4">
      <g>
       <use xlink:href="#m079705029f" x="375.85" y="380.470942" style="stroke: #000000; stroke-width: 0.8"/>
      </g>
     </g>
     <g id="text_2">
      <!-- LHC Experimentell -->
      <g transform="translate(331.773142 418.813914) rotate(-15) scale(0.1 -0.1)">
       <defs>
        <path id="DejaVuSans-4c" d="M 628 4666 
L 1259 4666 
L 1259 531 
L 3531 531 
L 3531 0 
L 628 0 
L 628 4666 
z
" transform="scale(0.015625)"/>
        <path id="DejaVuSans-48" d="M 628 4666 
L 1259 4666 
L 1259 2753 
L 3553 2753 
L 3553 4666 
L 4184 4666 
L 4184 0 
L 3553 0 
L 3553 2222 
L 1259 2222 
L 1259 0 
L 628 0 
L 628 4666 
z
" transform="scale(0.015625)"/>
        <path id="DejaVuSans-43" d="M 4122 4306 
L 4122 3641 
Q 3803 3938 3442 4084 
Q 3081 4231 2675 4231 
Q 1875 4231 1450 3742 
Q 1025 3253 1025 2328 
Q 1025 1406 1450 917 
Q 1875 428 2675 428 
Q 3081 428 3442 575 
Q 3803 722 4122 1019 
L 4122 359 
Q 3791 134 3420 21 
Q 3050 -91 2638 -91 
Q 1578 -91 968 557 
Q 359 1206 359 2328 
Q 359 3453 968 4101 
Q 1578 4750 2638 4750 
Q 3056 4750 3426 4639 
Q 3797 4528 4122 4306 
z
" transform="scale(0.015625)"/>
        <path id="DejaVuSans-20" transform="scale(0.015625)"/>
        <path id="DejaVuSans-45" d="M 628 4666 
L 3578 4666 
L 3578 4134 
L 1259 4134 
L 1259 2753 
L 3481 2753 
L 3481 2222 
L 1259 2222 
L 1259 531 
L 3634 531 
L 3634 0 
L 628 0 
L 628 4666 
z
" transform="scale(0.015625)"/>
        <path id="DejaVuSans-78" d="M 3513 3500 
L 2247 1797 
L 3578 0 
L 2900 0 
L 1881 1375 
L 863 0 
L 184 0 
L 1544 1831 
L 300 3500 
L 978 3500 
L 1906 2253 
L 2834 3500 
L 3513 3500 
z
" transform="scale(0.015625)"/>
        <path id="DejaVuSans-70" d="M 1159 525 
L 1159 -1331 
L 581 -1331 
L 581 3500 
L 1159 3500 
L 1159 2969 
Q 1341 3281 1617 3432 
Q 1894 3584 2278 3584 
Q 2916 3584 3314 3078 
Q 3713 2572 3713 1747 
Q 3713 922 3314 415 
Q 2916 -91 2278 -91 
Q 1894 -91 1617 61 
Q 1341 213 1159 525 
z
M 3116 1747 
Q 3116 2381 2855 2742 
Q 2594 3103 2138 3103 
Q 1681 3103 1420 2742 
Q 1159 2381 1159 1747 
Q 1159 1113 1420 752 
Q 1681 391 2138 391 
Q 2594 391 2855 752 
Q 3116 1113 3116 1747 
z
" transform="scale(0.015625)"/>
        <path id="DejaVuSans-72" d="M 2631 2963 
Q 2534 3019 2420 3045 
Q 2306 3072 2169 3072 
Q 1681 3072 1420 2755 
Q 1159 2438 1159 1844 
L 1159 0 
L 581 0 
L 581 3500 
L 1159 3500 
L 1159 2956 
Q 1341 3275 1631 3429 
Q 1922 3584 2338 3584 
Q 2397 3584 2469 3576 
Q 2541 3569 2628 3553 
L 2631 2963 
z
" transform="scale(0.015625)"/>
        <path id="DejaVuSans-6c" d="M 603 4863 
L 1178 4863 
L 1178 0 
L 603 0 
L 603 4863 
z
" transform="scale(0.015625)"/>
       </defs>
       <use xlink:href="#DejaVuSans-4c"/>
       <use xlink:href="#DejaVuSans-48" transform="translate(55.712891 0)"/>
       <use xlink:href="#DejaVuSans-43" transform="translate(130.908203 0)"/>
       <use xlink:href="#DejaVuSans-20" transform="translate(200.732422 0)"/>
       <use xlink:href="#DejaVuSans-45" transform="translate(232.519531 0)"/>
       <use xlink:href="#DejaVuSans-78" transform="translate(295.703125 0)"/>
       <use xlink:href="#DejaVuSans-70" transform="translate(354.882812 0)"/>
       <use xlink:href="#DejaVuSans-65" transform="translate(418.359375 0)"/>
       <use xlink:href="#DejaVuSans-72" transform="translate(479.882812 0)"/>
       <use xlink:href="#DejaVuSans-69" transform="translate(520.996094 0)"/>
       <use xlink:href="#DejaVuSans-6d" transform="translate(548.779297 0)"/>
       <use xlink:href="#DejaVuSans-65" transform="translate(646.191406 0)"/>
       <use xlink:href="#DejaVuSans-6e" transform="translate(707.714844 0)"/>
       <use xlink:href="#DejaVuSans-74" transform="translate(771.09375 0)"/>
       <use xlink:href="#DejaVuSans-65" transform="translate(810.302734 0)"/>
       <use xlink:href="#DejaVuSans-6c" transform="translate(871.826172 0)"/>
       <use xlink:href="#DejaVuSans-6c" transform="translate(899.609375 0)"/>
      </g>
     </g>
    </g>
    <g id="xtick_3">
     <g id="line2d_5">
      <path d="M 594.603333 380.470942 
L 594.603333 43.44 
" clip-path="url(#p0b4746938e)" style="fill: none; stroke: #b0b0b0; stroke-opacity: 0.3; stroke-width: 0.5; stroke-linecap: square"/>
     </g>
     <g id="line2d_6">
      <g>
       <use xlink:href="#m079705029f" x="594.603333" y="380.470942" style="stroke: #000000; stroke-width: 0.8"/>
      </g>
     </g>
     <g id="text_3">
      <!-- Einstein-VED -->
      <g transform="translate(564.546738 411.300478) rotate(-15) scale(0.1 -0.1)">
       <defs>
        <path id="DejaVuSans-73" d="M 2834 3397 
L 2834 2853 
Q 2591 2978 2328 3040 
Q 2066 3103 1784 3103 
Q 1356 3103 1142 2972 
Q 928 2841 928 2578 
Q 928 2378 1081 2264 
Q 1234 2150 1697 2047 
L 1894 2003 
Q 2506 1872 2764 1633 
Q 3022 1394 3022 966 
Q 3022 478 2636 193 
Q 2250 -91 1575 -91 
Q 1294 -91 989 -36 
Q 684 19 347 128 
L 347 722 
Q 666 556 975 473 
Q 1284 391 1588 391 
Q 1994 391 2212 530 
Q 2431 669 2431 922 
Q 2431 1156 2273 1281 
Q 2116 1406 1581 1522 
L 1381 1569 
Q 847 1681 609 1914 
Q 372 2147 372 2553 
Q 372 3047 722 3315 
Q 1072 3584 1716 3584 
Q 2034 3584 2315 3537 
Q 2597 3491 2834 3397 
z
" transform="scale(0.015625)"/>
        <path id="DejaVuSans-2d" d="M 313 2009 
L 1997 2009 
L 1997 1497 
L 313 1497 
L 313 2009 
z
" transform="scale(0.015625)"/>
        <path id="DejaVuSans-56" d="M 1831 0 
L 50 4666 
L 709 4666 
L 2188 738 
L 3669 4666 
L 4325 4666 
L 2547 0 
L 1831 0 
z
" transform="scale(0.015625)"/>
        <path id="DejaVuSans-44" d="M 1259 4147 
L 1259 519 
L 2022 519 
Q 2988 519 3436 956 
Q 3884 1394 3884 2338 
Q 3884 3275 3436 3711 
Q 2988 4147 2022 4147 
L 1259 4147 
z
M 628 4666 
L 1925 4666 
Q 3281 4666 3915 4102 
Q 4550 3538 4550 2338 
Q 4550 1131 3912 565 
Q 3275 0 1925 0 
L 628 0 
L 628 4666 
z
" transform="scale(0.015625)"/>
       </defs>
       <use xlink:href="#DejaVuSans-45"/>
       <use xlink:href="#DejaVuSans-69" transform="translate(63.183594 0)"/>
       <use xlink:href="#DejaVuSans-6e" transform="translate(90.966797 0)"/>
       <use xlink:href="#DejaVuSans-73" transform="translate(154.345703 0)"/>
       <use xlink:href="#DejaVuSans-74" transform="translate(206.445312 0)"/>
       <use xlink:href="#DejaVuSans-65" transform="translate(245.654297 0)"/>
       <use xlink:href="#DejaVuSans-69" transform="translate(307.177734 0)"/>
       <use xlink:href="#DejaVuSans-6e" transform="translate(334.960938 0)"/>
       <use xlink:href="#DejaVuSans-2d" transform="translate(398.339844 0)"/>
       <use xlink:href="#DejaVuSans-56" transform="translate(428.548828 0)"/>
       <use xlink:href="#DejaVuSans-45" transform="translate(496.957031 0)"/>
       <use xlink:href="#DejaVuSans-44" transform="translate(560.140625 0)"/>
      </g>
     </g>
    </g>
   </g>
   <g id="matplotlib.axis_2">
    <g id="ytick_1">
     <g id="line2d_7">
      <path d="M 47.72 380.470942 
L 703.98 380.470942 
" clip-path="url(#p0b4746938e)" style="fill: none; stroke: #b0b0b0; stroke-opacity: 0.3; stroke-width: 0.5; stroke-linecap: square"/>
     </g>
     <g id="line2d_8">
      <defs>
       <path id="m05e59e2b63" d="M 0 0 
L -3.5 0 
" style="stroke: #000000; stroke-width: 0.8"/>
      </defs>
      <g>
       <use xlink:href="#m05e59e2b63" x="47.72" y="380.470942" style="stroke: #000000; stroke-width: 0.8"/>
      </g>
     </g>
     <g id="text_4">
      <!-- 0.6 -->
      <g transform="translate(24.816875 384.270161) scale(0.1 -0.1)">
       <defs>
        <path id="DejaVuSans-30" d="M 2034 4250 
Q 1547 4250 1301 3770 
Q 1056 3291 1056 2328 
Q 1056 1369 1301 889 
Q 1547 409 2034 409 
Q 2525 409 2770 889 
Q 3016 1369 3016 2328 
Q 3016 3291 2770 3770 
Q 2525 4250 2034 4250 
z
M 2034 4750 
Q 2819 4750 3233 4129 
Q 3647 3509 3647 2328 
Q 3647 1150 3233 529 
Q 2819 -91 2034 -91 
Q 1250 -91 836 529 
Q 422 1150 422 2328 
Q 422 3509 836 4129 
Q 1250 4750 2034 4750 
z
" transform="scale(0.015625)"/>
        <path id="DejaVuSans-2e" d="M 684 794 
L 1344 794 
L 1344 0 
L 684 0 
L 684 794 
z
" transform="scale(0.015625)"/>
        <path id="DejaVuSans-36" d="M 2113 2584 
Q 1688 2584 1439 2293 
Q 1191 2003 1191 1497 
Q 1191 994 1439 701 
Q 1688 409 2113 409 
Q 2538 409 2786 701 
Q 3034 994 3034 1497 
Q 3034 2003 2786 2293 
Q 2538 2584 2113 2584 
z
M 3366 4563 
L 3366 3988 
Q 3128 4100 2886 4159 
Q 2644 4219 2406 4219 
Q 1781 4219 1451 3797 
Q 1122 3375 1075 2522 
Q 1259 2794 1537 2939 
Q 1816 3084 2150 3084 
Q 2853 3084 3261 2657 
Q 3669 2231 3669 1497 
Q 3669 778 3244 343 
Q 2819 -91 2113 -91 
Q 1303 -91 875 529 
Q 447 1150 447 2328 
Q 447 3434 972 4092 
Q 1497 4750 2381 4750 
Q 2619 4750 2861 4703 
Q 3103 4656 3366 4563 
z
" transform="scale(0.015625)"/>
       </defs>
       <use xlink:href="#DejaVuSans-30"/>
       <use xlink:href="#DejaVuSans-2e" transform="translate(63.623047 0)"/>
       <use xlink:href="#DejaVuSans-36" transform="translate(95.410156 0)"/>
      </g>
     </g>
    </g>
    <g id="ytick_2">
     <g id="line2d_9">
      <path d="M 47.72 305.575177 
L 703.98 305.575177 
" clip-path="url(#p0b4746938e)" style="fill: none; stroke: #b0b0b0; stroke-opacity: 0.3; stroke-width: 0.5; stroke-linecap: square"/>
     </g>
     <g id="line2d_10">
      <g>
       <use xlink:href="#m05e59e2b63" x="47.72" y="305.575177" style="stroke: #000000; stroke-width: 0.8"/>
      </g>
     </g>
     <g id="text_5">
      <!-- 0.7 -->
      <g transform="translate(24.816875 309.374396) scale(0.1 -0.1)">
       <defs>
        <path id="DejaVuSans-37" d="M 525 4666 
L 3525 4666 
L 3525 4397 
L 1831 0 
L 1172 0 
L 2766 4134 
L 525 4134 
L 525 4666 
z
" transform="scale(0.015625)"/>
       </defs>
       <use xlink:href="#DejaVuSans-30"/>
       <use xlink:href="#DejaVuSans-2e" transform="translate(63.623047 0)"/>
       <use xlink:href="#DejaVuSans-37" transform="translate(95.410156 0)"/>
      </g>
     </g>
    </g>
    <g id="ytick_3">
     <g id="line2d_11">
      <path d="M 47.72 230.679412 
L 703.98 230.679412 
" clip-path="url(#p0b4746938e)" style="fill: none; stroke: #b0b0b0; stroke-opacity: 0.3; stroke-width: 0.5; stroke-linecap: square"/>
     </g>
     <g id="line2d_12">
      <g>
       <use xlink:href="#m05e59e2b63" x="47.72" y="230.679412" style="stroke: #000000; stroke-width: 0.8"/>
      </g>
     </g>
     <g id="text_6">
      <!-- 0.8 -->
      <g transform="translate(24.816875 234.478631) scale(0.1 -0.1)">
       <defs>
        <path id="DejaVuSans-38" d="M 2034 2216 
Q 1584 2216 1326 1975 
Q 1069 1734 1069 1313 
Q 1069 891 1326 650 
Q 1584 409 2034 409 
Q 2484 409 2743 651 
Q 3003 894 3003 1313 
Q 3003 1734 2745 1975 
Q 2488 2216 2034 2216 
z
M 1403 2484 
Q 997 2584 770 2862 
Q 544 3141 544 3541 
Q 544 4100 942 4425 
Q 1341 4750 2034 4750 
Q 2731 4750 3128 4425 
Q 3525 4100 3525 3541 
Q 3525 3141 3298 2862 
Q 3072 2584 2669 2484 
Q 3125 2378 3379 2068 
Q 3634 1759 3634 1313 
Q 3634 634 3220 271 
Q 2806 -91 2034 -91 
Q 1263 -91 848 271 
Q 434 634 434 1313 
Q 434 1759 690 2068 
Q 947 2378 1403 2484 
z
M 1172 3481 
Q 1172 3119 1398 2916 
Q 1625 2713 2034 2713 
Q 2441 2713 2670 2916 
Q 2900 3119 2900 3481 
Q 2900 3844 2670 4047 
Q 2441 4250 2034 4250 
Q 1625 4250 1398 4047 
Q 1172 3844 1172 3481 
z
" transform="scale(0.015625)"/>
       </defs>
       <use xlink:href="#DejaVuSans-30"/>
       <use xlink:href="#DejaVuSans-2e" transform="translate(63.623047 0)"/>
       <use xlink:href="#DejaVuSans-38" transform="translate(95.410156 0)"/>
      </g>
     </g>
    </g>
    <g id="ytick_4">
     <g id="line2d_13">
      <path d="M 47.72 155.783647 
L 703.98 155.783647 
" clip-path="url(#p0b4746938e)" style="fill: none; stroke: #b0b0b0; stroke-opacity: 0.3; stroke-width: 0.5; stroke-linecap: square"/>
     </g>
     <g id="line2d_14">
      <g>
       <use xlink:href="#m05e59e2b63" x="47.72" y="155.783647" style="stroke: #000000; stroke-width: 0.8"/>
      </g>
     </g>
     <g id="text_7">
      <!-- 0.9 -->
      <g transform="translate(24.816875 159.582866) scale(0.1 -0.1)">
       <defs>
        <path id="DejaVuSans-39" d="M 703 97 
L 703 672 
Q 941 559 1184 500 
Q 1428 441 1663 441 
Q 2288 441 2617 861 
Q 2947 1281 2994 2138 
Q 2813 1869 2534 1725 
Q 2256 1581 1919 1581 
Q 1219 1581 811 2004 
Q 403 2428 403 3163 
Q 403 3881 828 4315 
Q 1253 4750 1959 4750 
Q 2769 4750 3195 4129 
Q 3622 3509 3622 2328 
Q 3622 1225 3098 567 
Q 2575 -91 1691 -91 
Q 1453 -91 1209 -44 
Q 966 3 703 97 
z
M 1959 2075 
Q 2384 2075 2632 2365 
Q 2881 2656 2881 3163 
Q 2881 3666 2632 3958 
Q 2384 4250 1959 4250 
Q 1534 4250 1286 3958 
Q 1038 3666 1038 3163 
Q 1038 2656 1286 2365 
Q 1534 2075 1959 2075 
z
" transform="scale(0.015625)"/>
       </defs>
       <use xlink:href="#DejaVuSans-30"/>
       <use xlink:href="#DejaVuSans-2e" transform="translate(63.623047 0)"/>
       <use xlink:href="#DejaVuSans-39" transform="translate(95.410156 0)"/>
      </g>
     </g>
    </g>
    <g id="ytick_5">
     <g id="line2d_15">
      <path d="M 47.72 80.887882 
L 703.98 80.887882 
" clip-path="url(#p0b4746938e)" style="fill: none; stroke: #b0b0b0; stroke-opacity: 0.3; stroke-width: 0.5; stroke-linecap: square"/>
     </g>
     <g id="line2d_16">
      <g>
       <use xlink:href="#m05e59e2b63" x="47.72" y="80.887882" style="stroke: #000000; stroke-width: 0.8"/>
      </g>
     </g>
     <g id="text_8">
      <!-- 1.0 -->
      <g transform="translate(24.816875 84.687101) scale(0.1 -0.1)">
       <defs>
        <path id="DejaVuSans-31" d="M 794 531 
L 1825 531 
L 1825 4091 
L 703 3866 
L 703 4441 
L 1819 4666 
L 2450 4666 
L 2450 531 
L 3481 531 
L 3481 0 
L 794 0 
L 794 531 
z
" transform="scale(0.015625)"/>
       </defs>
       <use xlink:href="#DejaVuSans-31"/>
       <use xlink:href="#DejaVuSans-2e" transform="translate(63.623047 0)"/>
       <use xlink:href="#DejaVuSans-30" transform="translate(95.410156 0)"/>
      </g>
     </g>
    </g>
    <g id="text_9">
     <!-- Protonenradius (fm) -->
     <g transform="translate(18.737187 269.220315) rotate(-90) scale(0.1 -0.1)">
      <defs>
       <path id="DejaVuSans-Bold-50" d="M 588 4666 
L 2584 4666 
Q 3475 4666 3951 4270 
Q 4428 3875 4428 3144 
Q 4428 2409 3951 2014 
Q 3475 1619 2584 1619 
L 1791 1619 
L 1791 0 
L 588 0 
L 588 4666 
z
M 1791 3794 
L 1791 2491 
L 2456 2491 
Q 2806 2491 2997 2661 
Q 3188 2831 3188 3144 
Q 3188 3456 2997 3625 
Q 2806 3794 2456 3794 
L 1791 3794 
z
" transform="scale(0.015625)"/>
       <path id="DejaVuSans-Bold-72" d="M 3138 2547 
Q 2991 2616 2845 2648 
Q 2700 2681 2553 2681 
Q 2122 2681 1889 2404 
Q 1656 2128 1656 1613 
L 1656 0 
L 538 0 
L 538 3500 
L 1656 3500 
L 1656 2925 
Q 1872 3269 2151 3426 
Q 2431 3584 2822 3584 
Q 2878 3584 2943 3579 
Q 3009 3575 3134 3559 
L 3138 2547 
z
" transform="scale(0.015625)"/>
       <path id="DejaVuSans-Bold-6f" d="M 2203 2784 
Q 1831 2784 1636 2517 
Q 1441 2250 1441 1747 
Q 1441 1244 1636 976 
Q 1831 709 2203 709 
Q 2569 709 2762 976 
Q 2956 1244 2956 1747 
Q 2956 2250 2762 2517 
Q 2569 2784 2203 2784 
z
M 2203 3584 
Q 3106 3584 3614 3096 
Q 4122 2609 4122 1747 
Q 4122 884 3614 396 
Q 3106 -91 2203 -91 
Q 1297 -91 786 396 
Q 275 884 275 1747 
Q 275 2609 786 3096 
Q 1297 3584 2203 3584 
z
" transform="scale(0.015625)"/>
       <path id="DejaVuSans-Bold-74" d="M 1759 4494 
L 1759 3500 
L 2913 3500 
L 2913 2700 
L 1759 2700 
L 1759 1216 
Q 1759 972 1856 886 
Q 1953 800 2241 800 
L 2816 800 
L 2816 0 
L 1856 0 
Q 1194 0 917 276 
Q 641 553 641 1216 
L 641 2700 
L 84 2700 
L 84 3500 
L 641 3500 
L 641 4494 
L 1759 4494 
z
" transform="scale(0.015625)"/>
       <path id="DejaVuSans-Bold-6e" d="M 4056 2131 
L 4056 0 
L 2931 0 
L 2931 347 
L 2931 1631 
Q 2931 2084 2911 2256 
Q 2891 2428 2841 2509 
Q 2775 2619 2662 2680 
Q 2550 2741 2406 2741 
Q 2056 2741 1856 2470 
Q 1656 2200 1656 1722 
L 1656 0 
L 538 0 
L 538 3500 
L 1656 3500 
L 1656 2988 
Q 1909 3294 2193 3439 
Q 2478 3584 2822 3584 
Q 3428 3584 3742 3212 
Q 4056 2841 4056 2131 
z
" transform="scale(0.015625)"/>
       <path id="DejaVuSans-Bold-65" d="M 4031 1759 
L 4031 1441 
L 1416 1441 
Q 1456 1047 1700 850 
Q 1944 653 2381 653 
Q 2734 653 3104 758 
Q 3475 863 3866 1075 
L 3866 213 
Q 3469 63 3072 -14 
Q 2675 -91 2278 -91 
Q 1328 -91 801 392 
Q 275 875 275 1747 
Q 275 2603 792 3093 
Q 1309 3584 2216 3584 
Q 3041 3584 3536 3087 
Q 4031 2591 4031 1759 
z
M 2881 2131 
Q 2881 2450 2695 2645 
Q 2509 2841 2209 2841 
Q 1884 2841 1681 2658 
Q 1478 2475 1428 2131 
L 2881 2131 
z
" transform="scale(0.015625)"/>
       <path id="DejaVuSans-Bold-61" d="M 2106 1575 
Q 1756 1575 1579 1456 
Q 1403 1338 1403 1106 
Q 1403 894 1545 773 
Q 1688 653 1941 653 
Q 2256 653 2472 879 
Q 2688 1106 2688 1447 
L 2688 1575 
L 2106 1575 
z
M 3816 1997 
L 3816 0 
L 2688 0 
L 2688 519 
Q 2463 200 2181 54 
Q 1900 -91 1497 -91 
Q 953 -91 614 226 
Q 275 544 275 1050 
Q 275 1666 698 1953 
Q 1122 2241 2028 2241 
L 2688 2241 
L 2688 2328 
Q 2688 2594 2478 2717 
Q 2269 2841 1825 2841 
Q 1466 2841 1156 2769 
Q 847 2697 581 2553 
L 581 3406 
Q 941 3494 1303 3539 
Q 1666 3584 2028 3584 
Q 2975 3584 3395 3211 
Q 3816 2838 3816 1997 
z
" transform="scale(0.015625)"/>
       <path id="DejaVuSans-Bold-64" d="M 2919 2988 
L 2919 4863 
L 4044 4863 
L 4044 0 
L 2919 0 
L 2919 506 
Q 2688 197 2409 53 
Q 2131 -91 1766 -91 
Q 1119 -91 703 423 
Q 288 938 288 1747 
Q 288 2556 703 3070 
Q 1119 3584 1766 3584 
Q 2128 3584 2408 3439 
Q 2688 3294 2919 2988 
z
M 2181 722 
Q 2541 722 2730 984 
Q 2919 1247 2919 1747 
Q 2919 2247 2730 2509 
Q 2541 2772 2181 2772 
Q 1825 2772 1636 2509 
Q 1447 2247 1447 1747 
Q 1447 1247 1636 984 
Q 1825 722 2181 722 
z
" transform="scale(0.015625)"/>
       <path id="DejaVuSans-Bold-69" d="M 538 3500 
L 1656 3500 
L 1656 0 
L 538 0 
L 538 3500 
z
M 538 4863 
L 1656 4863 
L 1656 3950 
L 538 3950 
L 538 4863 
z
" transform="scale(0.015625)"/>
       <path id="DejaVuSans-Bold-75" d="M 500 1363 
L 500 3500 
L 1625 3500 
L 1625 3150 
Q 1625 2866 1622 2436 
Q 1619 2006 1619 1863 
Q 1619 1441 1641 1255 
Q 1663 1069 1716 984 
Q 1784 875 1895 815 
Q 2006 756 2150 756 
Q 2500 756 2700 1025 
Q 2900 1294 2900 1772 
L 2900 3500 
L 4019 3500 
L 4019 0 
L 2900 0 
L 2900 506 
Q 2647 200 2364 54 
Q 2081 -91 1741 -91 
Q 1134 -91 817 281 
Q 500 653 500 1363 
z
" transform="scale(0.015625)"/>
       <path id="DejaVuSans-Bold-73" d="M 3272 3391 
L 3272 2541 
Q 2913 2691 2578 2766 
Q 2244 2841 1947 2841 
Q 1628 2841 1473 2761 
Q 1319 2681 1319 2516 
Q 1319 2381 1436 2309 
Q 1553 2238 1856 2203 
L 2053 2175 
Q 2913 2066 3209 1816 
Q 3506 1566 3506 1031 
Q 3506 472 3093 190 
Q 2681 -91 1863 -91 
Q 1516 -91 1145 -36 
Q 775 19 384 128 
L 384 978 
Q 719 816 1070 734 
Q 1422 653 1784 653 
Q 2113 653 2278 743 
Q 2444 834 2444 1013 
Q 2444 1163 2330 1236 
Q 2216 1309 1875 1350 
L 1678 1375 
Q 931 1469 631 1722 
Q 331 1975 331 2491 
Q 331 3047 712 3315 
Q 1094 3584 1881 3584 
Q 2191 3584 2531 3537 
Q 2872 3491 3272 3391 
z
" transform="scale(0.015625)"/>
       <path id="DejaVuSans-Bold-20" transform="scale(0.015625)"/>
       <path id="DejaVuSans-Bold-28" d="M 2413 -844 
L 1484 -844 
Q 1006 -72 778 623 
Q 550 1319 550 2003 
Q 550 2688 779 3389 
Q 1009 4091 1484 4856 
L 2413 4856 
Q 2013 4116 1813 3408 
Q 1613 2700 1613 2009 
Q 1613 1319 1811 609 
Q 2009 -100 2413 -844 
z
" transform="scale(0.015625)"/>
       <path id="DejaVuSans-Bold-66" d="M 2841 4863 
L 2841 4128 
L 2222 4128 
Q 1984 4128 1890 4042 
Q 1797 3956 1797 3744 
L 1797 3500 
L 2753 3500 
L 2753 2700 
L 1797 2700 
L 1797 0 
L 678 0 
L 678 2700 
L 122 2700 
L 122 3500 
L 678 3500 
L 678 3744 
Q 678 4316 997 4589 
Q 1316 4863 1984 4863 
L 2841 4863 
z
" transform="scale(0.015625)"/>
       <path id="DejaVuSans-Bold-6d" d="M 3781 2919 
Q 3994 3244 4286 3414 
Q 4578 3584 4928 3584 
Q 5531 3584 5847 3212 
Q 6163 2841 6163 2131 
L 6163 0 
L 5038 0 
L 5038 1825 
Q 5041 1866 5042 1909 
Q 5044 1953 5044 2034 
Q 5044 2406 4934 2573 
Q 4825 2741 4581 2741 
Q 4263 2741 4089 2478 
Q 3916 2216 3909 1719 
L 3909 0 
L 2784 0 
L 2784 1825 
Q 2784 2406 2684 2573 
Q 2584 2741 2328 2741 
Q 2006 2741 1831 2477 
Q 1656 2213 1656 1722 
L 1656 0 
L 531 0 
L 531 3500 
L 1656 3500 
L 1656 2988 
Q 1863 3284 2130 3434 
Q 2397 3584 2719 3584 
Q 3081 3584 3359 3409 
Q 3638 3234 3781 2919 
z
" transform="scale(0.015625)"/>
       <path id="DejaVuSans-Bold-29" d="M 513 -844 
Q 913 -100 1113 609 
Q 1313 1319 1313 2009 
Q 1313 2700 1113 3408 
Q 913 4116 513 4856 
L 1441 4856 
Q 1916 4091 2145 3389 
Q 2375 2688 2375 2003 
Q 2375 1319 2147 623 
Q 1919 -72 1441 -844 
L 513 -844 
z
" transform="scale(0.015625)"/>
      </defs>
      <use xlink:href="#DejaVuSans-Bold-50"/>
      <use xlink:href="#DejaVuSans-Bold-72" transform="translate(73.291016 0)"/>
      <use xlink:href="#DejaVuSans-Bold-6f" transform="translate(122.607422 0)"/>
      <use xlink:href="#DejaVuSans-Bold-74" transform="translate(191.308594 0)"/>
      <use xlink:href="#DejaVuSans-Bold-6f" transform="translate(239.111328 0)"/>
      <use xlink:href="#DejaVuSans-Bold-6e" transform="translate(307.8125 0)"/>
      <use xlink:href="#DejaVuSans-Bold-65" transform="translate(379.003906 0)"/>
      <use xlink:href="#DejaVuSans-Bold-6e" transform="translate(446.826172 0)"/>
      <use xlink:href="#DejaVuSans-Bold-72" transform="translate(518.017578 0)"/>
      <use xlink:href="#DejaVuSans-Bold-61" transform="translate(567.333984 0)"/>
      <use xlink:href="#DejaVuSans-Bold-64" transform="translate(634.814453 0)"/>
      <use xlink:href="#DejaVuSans-Bold-69" transform="translate(706.396484 0)"/>
      <use xlink:href="#DejaVuSans-Bold-75" transform="translate(740.673828 0)"/>
      <use xlink:href="#DejaVuSans-Bold-73" transform="translate(811.865234 0)"/>
      <use xlink:href="#DejaVuSans-Bold-20" transform="translate(871.386719 0)"/>
      <use xlink:href="#DejaVuSans-Bold-28" transform="translate(906.201172 0)"/>
      <use xlink:href="#DejaVuSans-Bold-66" transform="translate(951.904297 0)"/>
      <use xlink:href="#DejaVuSans-Bold-6d" transform="translate(995.410156 0)"/>
      <use xlink:href="#DejaVuSans-Bold-29" transform="translate(1099.609375 0)"/>
     </g>
    </g>
   </g>
   <g id="LineCollection_1">
    <path d="M 91.470667 80.887882 
L 222.722667 80.887882 
" clip-path="url(#p0b4746938e)" style="fill: none; stroke-dasharray: 7.4,3.2; stroke-dashoffset: 0; stroke: #377eb8; stroke-width: 2"/>
   </g>
   <g id="LineCollection_2">
    <path d="M 310.224 200.069513 
L 441.476 200.069513 
" clip-path="url(#p0b4746938e)" style="fill: none; stroke-dasharray: 7.4,3.2; stroke-dashoffset: 0; stroke: #4daf4a; stroke-width: 2"/>
   </g>
   <g id="LineCollection_3">
    <path d="M 528.977333 199.837336 
L 660.229333 199.837336 
" clip-path="url(#p0b4746938e)" style="fill: none; stroke: #e41a1c; stroke-width: 3"/>
   </g>
   <g id="patch_3">
    <path d="M 47.72 380.470942 
L 47.72 43.44 
" style="fill: none; stroke: #000000; stroke-width: 0.8; stroke-linejoin: miter; stroke-linecap: square"/>
   </g>
   <g id="patch_4">
    <path d="M 703.98 380.470942 
L 703.98 43.44 
" style="fill: none; stroke: #000000; stroke-width: 0.8; stroke-linejoin: miter; stroke-linecap: square"/>
   </g>
   <g id="patch_5">
    <path d="M 47.72 380.470942 
L 703.98 380.470942 
" style="fill: none; stroke: #000000; stroke-width: 0.8; stroke-linejoin: miter; stroke-linecap: square"/>
   </g>
   <g id="patch_6">
    <path d="M 47.72 43.44 
L 703.98 43.44 
" style="fill: none; stroke: #000000; stroke-width: 0.8; stroke-linejoin: miter; stroke-linecap: square"/>
   </g>
   <g id="text_10">
    <g id="patch_7">
     <path d="M 441.476 348.541629 
L 670.385375 348.541629 
Q 673.385375 348.541629 673.385375 345.541629 
L 673.385375 313.064754 
Q 673.385375 310.064754 670.385375 310.064754 
L 441.476 310.064754 
Q 438.476 310.064754 438.476 313.064754 
L 438.476 345.541629 
Q 438.476 348.541629 441.476 348.541629 
z
" style="fill: #ffebee; opacity: 0.9; stroke: #e41a1c; stroke-width: 2; stroke-linejoin: miter"/>
    </g>
    <!-- Einstein-VED: Deterministisch geometric -->
    <g transform="translate(441.476 320.663191) scale(0.1 -0.1)">
     <defs>
      <path id="DejaVuSans-Bold-45" d="M 588 4666 
L 3834 4666 
L 3834 3756 
L 1791 3756 
L 1791 2888 
L 3713 2888 
L 3713 1978 
L 1791 1978 
L 1791 909 
L 3903 909 
L 3903 0 
L 588 0 
L 588 4666 
z
" transform="scale(0.015625)"/>
      <path id="DejaVuSans-Bold-2d" d="M 347 2297 
L 2309 2297 
L 2309 1388 
L 347 1388 
L 347 2297 
z
" transform="scale(0.015625)"/>
      <path id="DejaVuSans-Bold-56" d="M 31 4666 
L 1241 4666 
L 2478 1222 
L 3713 4666 
L 4922 4666 
L 3194 0 
L 1759 0 
L 31 4666 
z
" transform="scale(0.015625)"/>
      <path id="DejaVuSans-Bold-44" d="M 1791 3756 
L 1791 909 
L 2222 909 
Q 2959 909 3348 1275 
Q 3738 1641 3738 2338 
Q 3738 3031 3350 3393 
Q 2963 3756 2222 3756 
L 1791 3756 
z
M 588 4666 
L 1856 4666 
Q 2919 4666 3439 4514 
Q 3959 4363 4331 4000 
Q 4659 3684 4818 3271 
Q 4978 2859 4978 2338 
Q 4978 1809 4818 1395 
Q 4659 981 4331 666 
Q 3956 303 3431 151 
Q 2906 0 1856 0 
L 588 0 
L 588 4666 
z
" transform="scale(0.015625)"/>
      <path id="DejaVuSans-Bold-3a" d="M 716 3500 
L 1844 3500 
L 1844 2291 
L 716 2291 
L 716 3500 
z
M 716 1209 
L 1844 1209 
L 1844 0 
L 716 0 
L 716 1209 
z
" transform="scale(0.015625)"/>
      <path id="DejaVuSans-Bold-63" d="M 3366 3391 
L 3366 2478 
Q 3138 2634 2908 2709 
Q 2678 2784 2431 2784 
Q 1963 2784 1702 2511 
Q 1441 2238 1441 1747 
Q 1441 1256 1702 982 
Q 1963 709 2431 709 
Q 2694 709 2930 787 
Q 3166 866 3366 1019 
L 3366 103 
Q 3103 6 2833 -42 
Q 2563 -91 2291 -91 
Q 1344 -91 809 395 
Q 275 881 275 1747 
Q 275 2613 809 3098 
Q 1344 3584 2291 3584 
Q 2566 3584 2833 3536 
Q 3100 3488 3366 3391 
z
" transform="scale(0.015625)"/>
      <path id="DejaVuSans-Bold-68" d="M 4056 2131 
L 4056 0 
L 2931 0 
L 2931 347 
L 2931 1625 
Q 2931 2084 2911 2256 
Q 2891 2428 2841 2509 
Q 2775 2619 2662 2680 
Q 2550 2741 2406 2741 
Q 2056 2741 1856 2470 
Q 1656 2200 1656 1722 
L 1656 0 
L 538 0 
L 538 4863 
L 1656 4863 
L 1656 2988 
Q 1909 3294 2193 3439 
Q 2478 3584 2822 3584 
Q 3428 3584 3742 3212 
Q 4056 2841 4056 2131 
z
" transform="scale(0.015625)"/>
      <path id="DejaVuSans-Bold-67" d="M 2919 594 
Q 2688 288 2409 144 
Q 2131 0 1766 0 
Q 1125 0 706 504 
Q 288 1009 288 1791 
Q 288 2575 706 3076 
Q 1125 3578 1766 3578 
Q 2131 3578 2409 3434 
Q 2688 3291 2919 2981 
L 2919 3500 
L 4044 3500 
L 4044 353 
Q 4044 -491 3511 -936 
Q 2978 -1381 1966 -1381 
Q 1638 -1381 1331 -1331 
Q 1025 -1281 716 -1178 
L 716 -306 
Q 1009 -475 1290 -558 
Q 1572 -641 1856 -641 
Q 2406 -641 2662 -400 
Q 2919 -159 2919 353 
L 2919 594 
z
M 2181 2772 
Q 1834 2772 1640 2515 
Q 1447 2259 1447 1791 
Q 1447 1309 1634 1061 
Q 1822 813 2181 813 
Q 2531 813 2725 1069 
Q 2919 1325 2919 1791 
Q 2919 2259 2725 2515 
Q 2531 2772 2181 2772 
z
" transform="scale(0.015625)"/>
     </defs>
     <use xlink:href="#DejaVuSans-Bold-45"/>
     <use xlink:href="#DejaVuSans-Bold-69" transform="translate(68.310547 0)"/>
     <use xlink:href="#DejaVuSans-Bold-6e" transform="translate(102.587891 0)"/>
     <use xlink:href="#DejaVuSans-Bold-73" transform="translate(173.779297 0)"/>
     <use xlink:href="#DejaVuSans-Bold-74" transform="translate(233.300781 0)"/>
     <use xlink:href="#DejaVuSans-Bold-65" transform="translate(281.103516 0)"/>
     <use xlink:href="#DejaVuSans-Bold-69" transform="translate(348.925781 0)"/>
     <use xlink:href="#DejaVuSans-Bold-6e" transform="translate(383.203125 0)"/>
     <use xlink:href="#DejaVuSans-Bold-2d" transform="translate(454.394531 0)"/>
     <use xlink:href="#DejaVuSans-Bold-56" transform="translate(488.648438 0)"/>
     <use xlink:href="#DejaVuSans-Bold-45" transform="translate(566.041016 0)"/>
     <use xlink:href="#DejaVuSans-Bold-44" transform="translate(634.351562 0)"/>
     <use xlink:href="#DejaVuSans-Bold-3a" transform="translate(717.359375 0)"/>
     <use xlink:href="#DejaVuSans-Bold-20" transform="translate(757.349609 0)"/>
     <use xlink:href="#DejaVuSans-Bold-44" transform="translate(792.164062 0)"/>
     <use xlink:href="#DejaVuSans-Bold-65" transform="translate(875.171875 0)"/>
     <use xlink:href="#DejaVuSans-Bold-74" transform="translate(942.994141 0)"/>
     <use xlink:href="#DejaVuSans-Bold-65" transform="translate(990.796875 0)"/>
     <use xlink:href="#DejaVuSans-Bold-72" transform="translate(1058.619141 0)"/>
     <use xlink:href="#DejaVuSans-Bold-6d" transform="translate(1107.935547 0)"/>
     <use xlink:href="#DejaVuSans-Bold-69" transform="translate(1212.134766 0)"/>
     <use xlink:href="#DejaVuSans-Bold-6e" transform="translate(1246.412109 0)"/>
     <use xlink:href="#DejaVuSans-Bold-69" transform="translate(1317.603516 0)"/>
     <use xlink:href="#DejaVuSans-Bold-73" transform="translate(1351.880859 0)"/>
     <use xlink:href="#DejaVuSans-Bold-74" transform="translate(1411.402344 0)"/>
     <use xlink:href="#DejaVuSans-Bold-69" transform="translate(1459.205078 0)"/>
     <use xlink:href="#DejaVuSans-Bold-73" transform="translate(1493.482422 0)"/>
     <use xlink:href="#DejaVuSans-Bold-63" transform="translate(1553.003906 0)"/>
     <use xlink:href="#DejaVuSans-Bold-68" transform="translate(1612.28125 0)"/>
     <use xlink:href="#DejaVuSans-Bold-20" transform="translate(1683.472656 0)"/>
     <use xlink:href="#DejaVuSans-Bold-67" transform="translate(1718.287109 0)"/>
     <use xlink:href="#DejaVuSans-Bold-65" transform="translate(1789.869141 0)"/>
     <use xlink:href="#DejaVuSans-Bold-6f" transform="translate(1857.691406 0)"/>
     <use xlink:href="#DejaVuSans-Bold-6d" transform="translate(1926.392578 0)"/>
     <use xlink:href="#DejaVuSans-Bold-65" transform="translate(2030.591797 0)"/>
     <use xlink:href="#DejaVuSans-Bold-74" transform="translate(2098.414062 0)"/>
     <use xlink:href="#DejaVuSans-Bold-72" transform="translate(2146.216797 0)"/>
     <use xlink:href="#DejaVuSans-Bold-69" transform="translate(2195.533203 0)"/>
     <use xlink:href="#DejaVuSans-Bold-63" transform="translate(2229.810547 0)"/>
    </g>
    <!-- model of proton.  Radius abgeleitet aus -->
    <g transform="translate(441.476 331.939129) scale(0.1 -0.1)">
     <defs>
      <path id="DejaVuSans-Bold-6c" d="M 538 4863 
L 1656 4863 
L 1656 0 
L 538 0 
L 538 4863 
z
" transform="scale(0.015625)"/>
      <path id="DejaVuSans-Bold-70" d="M 1656 506 
L 1656 -1331 
L 538 -1331 
L 538 3500 
L 1656 3500 
L 1656 2988 
Q 1888 3294 2169 3439 
Q 2450 3584 2816 3584 
Q 3463 3584 3878 3070 
Q 4294 2556 4294 1747 
Q 4294 938 3878 423 
Q 3463 -91 2816 -91 
Q 2450 -91 2169 54 
Q 1888 200 1656 506 
z
M 2400 2772 
Q 2041 2772 1848 2508 
Q 1656 2244 1656 1747 
Q 1656 1250 1848 986 
Q 2041 722 2400 722 
Q 2759 722 2948 984 
Q 3138 1247 3138 1747 
Q 3138 2247 2948 2509 
Q 2759 2772 2400 2772 
z
" transform="scale(0.015625)"/>
      <path id="DejaVuSans-Bold-2e" d="M 653 1209 
L 1778 1209 
L 1778 0 
L 653 0 
L 653 1209 
z
" transform="scale(0.015625)"/>
      <path id="DejaVuSans-Bold-52" d="M 2297 2597 
Q 2675 2597 2839 2737 
Q 3003 2878 3003 3200 
Q 3003 3519 2839 3656 
Q 2675 3794 2297 3794 
L 1791 3794 
L 1791 2597 
L 2297 2597 
z
M 1791 1766 
L 1791 0 
L 588 0 
L 588 4666 
L 2425 4666 
Q 3347 4666 3776 4356 
Q 4206 4047 4206 3378 
Q 4206 2916 3982 2619 
Q 3759 2322 3309 2181 
Q 3556 2125 3751 1926 
Q 3947 1728 4147 1325 
L 4800 0 
L 3519 0 
L 2950 1159 
Q 2778 1509 2601 1637 
Q 2425 1766 2131 1766 
L 1791 1766 
z
" transform="scale(0.015625)"/>
      <path id="DejaVuSans-Bold-62" d="M 2400 722 
Q 2759 722 2948 984 
Q 3138 1247 3138 1747 
Q 3138 2247 2948 2509 
Q 2759 2772 2400 2772 
Q 2041 2772 1848 2508 
Q 1656 2244 1656 1747 
Q 1656 1250 1848 986 
Q 2041 722 2400 722 
z
M 1656 2988 
Q 1888 3294 2169 3439 
Q 2450 3584 2816 3584 
Q 3463 3584 3878 3070 
Q 4294 2556 4294 1747 
Q 4294 938 3878 423 
Q 3463 -91 2816 -91 
Q 2450 -91 2169 54 
Q 1888 200 1656 506 
L 1656 0 
L 538 0 
L 538 4863 
L 1656 4863 
L 1656 2988 
z
" transform="scale(0.015625)"/>
     </defs>
     <use xlink:href="#DejaVuSans-Bold-6d"/>
     <use xlink:href="#DejaVuSans-Bold-6f" transform="translate(104.199219 0)"/>
     <use xlink:href="#DejaVuSans-Bold-64" transform="translate(172.900391 0)"/>
     <use xlink:href="#DejaVuSans-Bold-65" transform="translate(244.482422 0)"/>
     <use xlink:href="#DejaVuSans-Bold-6c" transform="translate(312.304688 0)"/>
     <use xlink:href="#DejaVuSans-Bold-20" transform="translate(346.582031 0)"/>
     <use xlink:href="#DejaVuSans-Bold-6f" transform="translate(381.396484 0)"/>
     <use xlink:href="#DejaVuSans-Bold-66" transform="translate(450.097656 0)"/>
     <use xlink:href="#DejaVuSans-Bold-20" transform="translate(493.603516 0)"/>
     <use xlink:href="#DejaVuSans-Bold-70" transform="translate(528.417969 0)"/>
     <use xlink:href="#DejaVuSans-Bold-72" transform="translate(600 0)"/>
     <use xlink:href="#DejaVuSans-Bold-6f" transform="translate(649.316406 0)"/>
     <use xlink:href="#DejaVuSans-Bold-74" transform="translate(718.017578 0)"/>
     <use xlink:href="#DejaVuSans-Bold-6f" transform="translate(765.820312 0)"/>
     <use xlink:href="#DejaVuSans-Bold-6e" transform="translate(834.521484 0)"/>
     <use xlink:href="#DejaVuSans-Bold-2e" transform="translate(905.712891 0)"/>
     <use xlink:href="#DejaVuSans-Bold-20" transform="translate(943.701172 0)"/>
     <use xlink:href="#DejaVuSans-Bold-20" transform="translate(978.515625 0)"/>
     <use xlink:href="#DejaVuSans-Bold-52" transform="translate(1013.330078 0)"/>
     <use xlink:href="#DejaVuSans-Bold-61" transform="translate(1090.332031 0)"/>
     <use xlink:href="#DejaVuSans-Bold-64" transform="translate(1157.8125 0)"/>
     <use xlink:href="#DejaVuSans-Bold-69" transform="translate(1229.394531 0)"/>
     <use xlink:href="#DejaVuSans-Bold-75" transform="translate(1263.671875 0)"/>
     <use xlink:href="#DejaVuSans-Bold-73" transform="translate(1334.863281 0)"/>
     <use xlink:href="#DejaVuSans-Bold-20" transform="translate(1394.384766 0)"/>
     <use xlink:href="#DejaVuSans-Bold-61" transform="translate(1429.199219 0)"/>
     <use xlink:href="#DejaVuSans-Bold-62" transform="translate(1496.679688 0)"/>
     <use xlink:href="#DejaVuSans-Bold-67" transform="translate(1568.261719 0)"/>
     <use xlink:href="#DejaVuSans-Bold-65" transform="translate(1639.84375 0)"/>
     <use xlink:href="#DejaVuSans-Bold-6c" transform="translate(1707.666016 0)"/>
     <use xlink:href="#DejaVuSans-Bold-65" transform="translate(1741.943359 0)"/>
     <use xlink:href="#DejaVuSans-Bold-69" transform="translate(1809.765625 0)"/>
     <use xlink:href="#DejaVuSans-Bold-74" transform="translate(1844.042969 0)"/>
     <use xlink:href="#DejaVuSans-Bold-65" transform="translate(1891.845703 0)"/>
     <use xlink:href="#DejaVuSans-Bold-74" transform="translate(1959.667969 0)"/>
     <use xlink:href="#DejaVuSans-Bold-20" transform="translate(2007.470703 0)"/>
     <use xlink:href="#DejaVuSans-Bold-61" transform="translate(2042.285156 0)"/>
     <use xlink:href="#DejaVuSans-Bold-75" transform="translate(2109.765625 0)"/>
     <use xlink:href="#DejaVuSans-Bold-73" transform="translate(2180.957031 0)"/>
    </g>
    <!-- 4 Wellenlängen des Einschlusses. -->
    <g transform="translate(441.476 343.383816) scale(0.1 -0.1)">
     <defs>
      <path id="DejaVuSans-Bold-34" d="M 2356 3675 
L 1038 1722 
L 2356 1722 
L 2356 3675 
z
M 2156 4666 
L 3494 4666 
L 3494 1722 
L 4159 1722 
L 4159 850 
L 3494 850 
L 3494 0 
L 2356 0 
L 2356 850 
L 288 850 
L 288 1881 
L 2156 4666 
z
" transform="scale(0.015625)"/>
      <path id="DejaVuSans-Bold-57" d="M 191 4666 
L 1344 4666 
L 2150 1275 
L 2950 4666 
L 4109 4666 
L 4909 1275 
L 5716 4666 
L 6859 4666 
L 5759 0 
L 4372 0 
L 3525 3547 
L 2688 0 
L 1300 0 
L 191 4666 
z
" transform="scale(0.015625)"/>
      <path id="DejaVuSans-Bold-e4" d="M 2106 1575 
Q 1756 1575 1579 1456 
Q 1403 1338 1403 1106 
Q 1403 894 1545 773 
Q 1688 653 1941 653 
Q 2256 653 2472 879 
Q 2688 1106 2688 1447 
L 2688 1575 
L 2106 1575 
z
M 3816 1997 
L 3816 0 
L 2688 0 
L 2688 519 
Q 2463 200 2181 54 
Q 1900 -91 1497 -91 
Q 953 -91 614 226 
Q 275 544 275 1050 
Q 275 1666 698 1953 
Q 1122 2241 2028 2241 
L 2688 2241 
L 2688 2328 
Q 2688 2594 2478 2717 
Q 2269 2841 1825 2841 
Q 1466 2841 1156 2769 
Q 847 2697 581 2553 
L 581 3406 
Q 941 3494 1303 3539 
Q 1666 3584 2028 3584 
Q 2975 3584 3395 3211 
Q 3816 2838 3816 1997 
z
M 1200 4953 
L 1934 4953 
L 1934 4184 
L 1200 4184 
L 1200 4953 
z
M 2434 4953 
L 3168 4953 
L 3168 4184 
L 2434 4184 
L 2434 4953 
z
" transform="scale(0.015625)"/>
     </defs>
     <use xlink:href="#DejaVuSans-Bold-34"/>
     <use xlink:href="#DejaVuSans-Bold-20" transform="translate(69.580078 0)"/>
     <use xlink:href="#DejaVuSans-Bold-57" transform="translate(104.394531 0)"/>
     <use xlink:href="#DejaVuSans-Bold-65" transform="translate(211.072266 0)"/>
     <use xlink:href="#DejaVuSans-Bold-6c" transform="translate(278.894531 0)"/>
     <use xlink:href="#DejaVuSans-Bold-6c" transform="translate(313.171875 0)"/>
     <use xlink:href="#DejaVuSans-Bold-65" transform="translate(347.449219 0)"/>
     <use xlink:href="#DejaVuSans-Bold-6e" transform="translate(415.271484 0)"/>
     <use xlink:href="#DejaVuSans-Bold-6c" transform="translate(486.462891 0)"/>
     <use xlink:href="#DejaVuSans-Bold-e4" transform="translate(520.740234 0)"/>
     <use xlink:href="#DejaVuSans-Bold-6e" transform="translate(588.220703 0)"/>
     <use xlink:href="#DejaVuSans-Bold-67" transform="translate(659.412109 0)"/>
     <use xlink:href="#DejaVuSans-Bold-65" transform="translate(730.994141 0)"/>
     <use xlink:href="#DejaVuSans-Bold-6e" transform="translate(798.816406 0)"/>
     <use xlink:href="#DejaVuSans-Bold-20" transform="translate(870.007812 0)"/>
     <use xlink:href="#DejaVuSans-Bold-64" transform="translate(904.822266 0)"/>
     <use xlink:href="#DejaVuSans-Bold-65" transform="translate(976.404297 0)"/>
     <use xlink:href="#DejaVuSans-Bold-73" transform="translate(1044.226562 0)"/>
     <use xlink:href="#DejaVuSans-Bold-20" transform="translate(1103.748047 0)"/>
     <use xlink:href="#DejaVuSans-Bold-45" transform="translate(1138.5625 0)"/>
     <use xlink:href="#DejaVuSans-Bold-69" transform="translate(1206.873047 0)"/>
     <use xlink:href="#DejaVuSans-Bold-6e" transform="translate(1241.150391 0)"/>
     <use xlink:href="#DejaVuSans-Bold-73" transform="translate(1312.341797 0)"/>
     <use xlink:href="#DejaVuSans-Bold-63" transform="translate(1371.863281 0)"/>
     <use xlink:href="#DejaVuSans-Bold-68" transform="translate(1431.140625 0)"/>
     <use xlink:href="#DejaVuSans-Bold-6c" transform="translate(1502.332031 0)"/>
     <use xlink:href="#DejaVuSans-Bold-75" transform="translate(1536.609375 0)"/>
     <use xlink:href="#DejaVuSans-Bold-73" transform="translate(1607.800781 0)"/>
     <use xlink:href="#DejaVuSans-Bold-73" transform="translate(1667.322266 0)"/>
     <use xlink:href="#DejaVuSans-Bold-65" transform="translate(1726.84375 0)"/>
     <use xlink:href="#DejaVuSans-Bold-73" transform="translate(1794.666016 0)"/>
     <use xlink:href="#DejaVuSans-Bold-2e" transform="translate(1854.1875 0)"/>
    </g>
   </g>
   <g id="text_11">
    <!-- Protonenradius-Schätzungen -->
    <g transform="translate(260.923125 21.653687) scale(0.14 -0.14)">
     <defs>
      <path id="DejaVuSans-Bold-53" d="M 3834 4519 
L 3834 3531 
Q 3450 3703 3084 3790 
Q 2719 3878 2394 3878 
Q 1963 3878 1756 3759 
Q 1550 3641 1550 3391 
Q 1550 3203 1689 3098 
Q 1828 2994 2194 2919 
L 2706 2816 
Q 3484 2659 3812 2340 
Q 4141 2022 4141 1434 
Q 4141 663 3683 286 
Q 3225 -91 2284 -91 
Q 1841 -91 1394 -6 
Q 947 78 500 244 
L 500 1259 
Q 947 1022 1364 901 
Q 1781 781 2169 781 
Q 2563 781 2772 912 
Q 2981 1044 2981 1288 
Q 2981 1506 2839 1625 
Q 2697 1744 2272 1838 
L 1806 1941 
Q 1106 2091 782 2419 
Q 459 2747 459 3303 
Q 459 4000 909 4375 
Q 1359 4750 2203 4750 
Q 2588 4750 2994 4692 
Q 3400 4634 3834 4519 
z
" transform="scale(0.015625)"/>
      <path id="DejaVuSans-Bold-7a" d="M 366 3500 
L 3419 3500 
L 3419 2719 
L 1575 800 
L 3419 800 
L 3419 0 
L 288 0 
L 288 781 
L 2131 2700 
L 366 2700 
L 366 3500 
z
" transform="scale(0.015625)"/>
     </defs>
     <use xlink:href="#DejaVuSans-Bold-50"/>
     <use xlink:href="#DejaVuSans-Bold-72" transform="translate(73.291016 0)"/>
     <use xlink:href="#DejaVuSans-Bold-6f" transform="translate(122.607422 0)"/>
     <use xlink:href="#DejaVuSans-Bold-74" transform="translate(191.308594 0)"/>
     <use xlink:href="#DejaVuSans-Bold-6f" transform="translate(239.111328 0)"/>
     <use xlink:href="#DejaVuSans-Bold-6e" transform="translate(307.8125 0)"/>
     <use xlink:href="#DejaVuSans-Bold-65" transform="translate(379.003906 0)"/>
     <use xlink:href="#DejaVuSans-Bold-6e" transform="translate(446.826172 0)"/>
     <use xlink:href="#DejaVuSans-Bold-72" transform="translate(518.017578 0)"/>
     <use xlink:href="#DejaVuSans-Bold-61" transform="translate(567.333984 0)"/>
     <use xlink:href="#DejaVuSans-Bold-64" transform="translate(634.814453 0)"/>
     <use xlink:href="#DejaVuSans-Bold-69" transform="translate(706.396484 0)"/>
     <use xlink:href="#DejaVuSans-Bold-75" transform="translate(740.673828 0)"/>
     <use xlink:href="#DejaVuSans-Bold-73" transform="translate(811.865234 0)"/>
     <use xlink:href="#DejaVuSans-Bold-2d" transform="translate(871.386719 0)"/>
     <use xlink:href="#DejaVuSans-Bold-53" transform="translate(912.890625 0)"/>
     <use xlink:href="#DejaVuSans-Bold-63" transform="translate(984.912109 0)"/>
     <use xlink:href="#DejaVuSans-Bold-68" transform="translate(1044.189453 0)"/>
     <use xlink:href="#DejaVuSans-Bold-e4" transform="translate(1115.380859 0)"/>
     <use xlink:href="#DejaVuSans-Bold-74" transform="translate(1182.861328 0)"/>
     <use xlink:href="#DejaVuSans-Bold-7a" transform="translate(1230.664062 0)"/>
     <use xlink:href="#DejaVuSans-Bold-75" transform="translate(1288.867188 0)"/>
     <use xlink:href="#DejaVuSans-Bold-6e" transform="translate(1360.058594 0)"/>
     <use xlink:href="#DejaVuSans-Bold-67" transform="translate(1431.25 0)"/>
     <use xlink:href="#DejaVuSans-Bold-65" transform="translate(1502.832031 0)"/>
     <use xlink:href="#DejaVuSans-Bold-6e" transform="translate(1570.654297 0)"/>
    </g>
    <!-- mit ±3σ-Bereichen -->
    <g transform="translate(301.734219 37.44) scale(0.14 -0.14)">
     <defs>
      <path id="DejaVuSans-Bold-b1" d="M 3053 4013 
L 3053 2906 
L 4684 2906 
L 4684 2169 
L 3053 2169 
L 3053 1063 
L 2309 1063 
L 2309 2169 
L 678 2169 
L 678 2906 
L 2309 2906 
L 2309 4013 
L 3053 4013 
z
M 678 744 
L 4684 744 
L 4684 0 
L 678 0 
L 678 744 
z
" transform="scale(0.015625)"/>
      <path id="DejaVuSans-Bold-33" d="M 2981 2516 
Q 3453 2394 3698 2092 
Q 3944 1791 3944 1325 
Q 3944 631 3412 270 
Q 2881 -91 1863 -91 
Q 1503 -91 1142 -33 
Q 781 25 428 141 
L 428 1069 
Q 766 900 1098 814 
Q 1431 728 1753 728 
Q 2231 728 2486 893 
Q 2741 1059 2741 1369 
Q 2741 1688 2480 1852 
Q 2219 2016 1709 2016 
L 1228 2016 
L 1228 2791 
L 1734 2791 
Q 2188 2791 2409 2933 
Q 2631 3075 2631 3366 
Q 2631 3634 2415 3781 
Q 2200 3928 1806 3928 
Q 1516 3928 1219 3862 
Q 922 3797 628 3669 
L 628 4550 
Q 984 4650 1334 4700 
Q 1684 4750 2022 4750 
Q 2931 4750 3382 4451 
Q 3834 4153 3834 3553 
Q 3834 3144 3618 2883 
Q 3403 2622 2981 2516 
z
" transform="scale(0.015625)"/>
      <path id="DejaVuSans-Bold-3c3" d="M 2200 2784 
Q 1831 2784 1636 2517 
Q 1441 2250 1441 1747 
Q 1441 1244 1636 976 
Q 1831 709 2200 709 
Q 2569 709 2762 976 
Q 2956 1244 2956 1747 
Q 2956 2250 2762 2517 
Q 2569 2784 2200 2784 
z
M 4650 2700 
L 3916 2700 
Q 4122 2291 4122 1747 
Q 4122 884 3614 396 
Q 3106 -91 2203 -91 
Q 1297 -91 786 396 
Q 275 884 275 1747 
Q 275 2609 788 3097 
Q 1209 3500 2203 3500 
L 4650 3500 
L 4650 2700 
z
" transform="scale(0.015625)"/>
      <path id="DejaVuSans-Bold-42" d="M 2456 2859 
Q 2741 2859 2887 2984 
Q 3034 3109 3034 3353 
Q 3034 3594 2887 3720 
Q 2741 3847 2456 3847 
L 1791 3847 
L 1791 2859 
L 2456 2859 
z
M 2497 819 
Q 2859 819 3042 972 
Q 3225 1125 3225 1434 
Q 3225 1738 3044 1889 
Q 2863 2041 2497 2041 
L 1791 2041 
L 1791 819 
L 2497 819 
z
M 3616 2497 
Q 4003 2384 4215 2081 
Q 4428 1778 4428 1338 
Q 4428 663 3972 331 
Q 3516 0 2584 0 
L 588 0 
L 588 4666 
L 2394 4666 
Q 3366 4666 3802 4372 
Q 4238 4078 4238 3431 
Q 4238 3091 4078 2852 
Q 3919 2613 3616 2497 
z
" transform="scale(0.015625)"/>
     </defs>
     <use xlink:href="#DejaVuSans-Bold-6d"/>
     <use xlink:href="#DejaVuSans-Bold-69" transform="translate(104.199219 0)"/>
     <use xlink:href="#DejaVuSans-Bold-74" transform="translate(138.476562 0)"/>
     <use xlink:href="#DejaVuSans-Bold-20" transform="translate(186.279297 0)"/>
     <use xlink:href="#DejaVuSans-Bold-b1" transform="translate(221.09375 0)"/>
     <use xlink:href="#DejaVuSans-Bold-33" transform="translate(304.882812 0)"/>
     <use xlink:href="#DejaVuSans-Bold-3c3" transform="translate(374.462891 0)"/>
     <use xlink:href="#DejaVuSans-Bold-2d" transform="translate(452.34375 0)"/>
     <use xlink:href="#DejaVuSans-Bold-42" transform="translate(493.847656 0)"/>
     <use xlink:href="#DejaVuSans-Bold-65" transform="translate(570.068359 0)"/>
     <use xlink:href="#DejaVuSans-Bold-72" transform="translate(637.890625 0)"/>
     <use xlink:href="#DejaVuSans-Bold-65" transform="translate(687.207031 0)"/>
     <use xlink:href="#DejaVuSans-Bold-69" transform="translate(755.029297 0)"/>
     <use xlink:href="#DejaVuSans-Bold-63" transform="translate(789.306641 0)"/>
     <use xlink:href="#DejaVuSans-Bold-68" transform="translate(848.583984 0)"/>
     <use xlink:href="#DejaVuSans-Bold-65" transform="translate(919.775391 0)"/>
     <use xlink:href="#DejaVuSans-Bold-6e" transform="translate(987.597656 0)"/>
    </g>
   </g>
   <g id="PathCollection_1">
    <defs>
     <path id="C0_0_836ffe0a42" d="M 0 5.477226 
C 1.452577 5.477226 2.845856 4.900111 3.872983 3.872983 
C 4.900111 2.845856 5.477226 1.452577 5.477226 -0 
C 5.477226 -1.452577 4.900111 -2.845856 3.872983 -3.872983 
C 2.845856 -4.900111 1.452577 -5.477226 0 -5.477226 
C -1.452577 -5.477226 -2.845856 -4.900111 -3.872983 -3.872983 
C -4.900111 -2.845856 -5.477226 -1.452577 -5.477226 0 
C -5.477226 1.452577 -4.900111 2.845856 -3.872983 3.872983 
C -2.845856 4.900111 -1.452577 5.477226 0 5.477226 
z
"/>
    </defs>
    <g clip-path="url(#p0b4746938e)">
     <use xlink:href="#C0_0_836ffe0a42" x="157.096667" y="80.887882" style="fill: #377eb8; stroke: #000000"/>
    </g>
    <g clip-path="url(#p0b4746938e)">
     <use xlink:href="#C0_0_836ffe0a42" x="375.85" y="200.069513" style="fill: #4daf4a; stroke: #000000"/>
    </g>
    <g clip-path="url(#p0b4746938e)">
     <use xlink:href="#C0_0_836ffe0a42" x="594.603333" y="199.837336" style="fill: #e41a1c; stroke: #000000"/>
    </g>
   </g>
   <g id="legend_1">
    <g id="patch_8">
     <path d="M 516.270625 95.474375 
L 696.98 95.474375 
Q 698.98 95.474375 698.98 93.474375 
L 698.98 50.44 
Q 698.98 48.44 696.98 48.44 
L 516.270625 48.44 
Q 514.270625 48.44 514.270625 50.44 
L 514.270625 93.474375 
Q 514.270625 95.474375 516.270625 95.474375 
z
" style="fill: #ffffff; opacity: 0.9; stroke: #cccccc; stroke-linejoin: miter"/>
    </g>
    <g id="patch_9">
     <path d="M 518.270625 60.038437 
L 538.270625 60.038437 
L 538.270625 53.038437 
L 518.270625 53.038437 
z
" style="fill: #377eb8; fill-opacity: 0.3; stroke: #377eb8; stroke-opacity: 0.3; stroke-linejoin: miter"/>
    </g>
    <g id="text_12">
     <!-- MC: Probabilistisch -->
     <g transform="translate(546.270625 60.038437) scale(0.1 -0.1)">
      <defs>
       <path id="DejaVuSans-4d" d="M 628 4666 
L 1569 4666 
L 2759 1491 
L 3956 4666 
L 4897 4666 
L 4897 0 
L 4281 0 
L 4281 4097 
L 3078 897 
L 2444 897 
L 1241 4097 
L 1241 0 
L 628 0 
L 628 4666 
z
" transform="scale(0.015625)"/>
       <path id="DejaVuSans-3a" d="M 750 794 
L 1409 794 
L 1409 0 
L 750 0 
L 750 794 
z
M 750 3309 
L 1409 3309 
L 1409 2516 
L 750 2516 
L 750 3309 
z
" transform="scale(0.015625)"/>
       <path id="DejaVuSans-50" d="M 1259 4147 
L 1259 2394 
L 2053 2394 
Q 2494 2394 2734 2622 
Q 2975 2850 2975 3272 
Q 2975 3691 2734 3919 
Q 2494 4147 2053 4147 
L 1259 4147 
z
M 628 4666 
L 2053 4666 
Q 2838 4666 3239 4311 
Q 3641 3956 3641 3272 
Q 3641 2581 3239 2228 
Q 2838 1875 2053 1875 
L 1259 1875 
L 1259 0 
L 628 0 
L 628 4666 
z
" transform="scale(0.015625)"/>
       <path id="DejaVuSans-6f" d="M 1959 3097 
Q 1497 3097 1228 2736 
Q 959 2375 959 1747 
Q 959 1119 1226 758 
Q 1494 397 1959 397 
Q 2419 397 2687 759 
Q 2956 1122 2956 1747 
Q 2956 2369 2687 2733 
Q 2419 3097 1959 3097 
z
M 1959 3584 
Q 2709 3584 3137 3096 
Q 3566 2609 3566 1747 
Q 3566 888 3137 398 
Q 2709 -91 1959 -91 
Q 1206 -91 779 398 
Q 353 888 353 1747 
Q 353 2609 779 3096 
Q 1206 3584 1959 3584 
z
" transform="scale(0.015625)"/>
       <path id="DejaVuSans-62" d="M 3116 1747 
Q 3116 2381 2855 2742 
Q 2594 3103 2138 3103 
Q 1681 3103 1420 2742 
Q 1159 2381 1159 1747 
Q 1159 1113 1420 752 
Q 1681 391 2138 391 
Q 2594 391 2855 752 
Q 3116 1113 3116 1747 
z
M 1159 2969 
Q 1341 3281 1617 3432 
Q 1894 3584 2278 3584 
Q 2916 3584 3314 3078 
Q 3713 2572 3713 1747 
Q 3713 922 3314 415 
Q 2916 -91 2278 -91 
Q 1894 -91 1617 61 
Q 1341 213 1159 525 
L 1159 0 
L 581 0 
L 581 4863 
L 1159 4863 
L 1159 2969 
z
" transform="scale(0.015625)"/>
      </defs>
      <use xlink:href="#DejaVuSans-4d"/>
      <use xlink:href="#DejaVuSans-43" transform="translate(86.279297 0)"/>
      <use xlink:href="#DejaVuSans-3a" transform="translate(156.103516 0)"/>
      <use xlink:href="#DejaVuSans-20" transform="translate(189.794922 0)"/>
      <use xlink:href="#DejaVuSans-50" transform="translate(221.582031 0)"/>
      <use xlink:href="#DejaVuSans-72" transform="translate(280.134766 0)"/>
      <use xlink:href="#DejaVuSans-6f" transform="translate(318.998047 0)"/>
      <use xlink:href="#DejaVuSans-62" transform="translate(380.179688 0)"/>
      <use xlink:href="#DejaVuSans-61" transform="translate(443.65625 0)"/>
      <use xlink:href="#DejaVuSans-62" transform="translate(504.935547 0)"/>
      <use xlink:href="#DejaVuSans-69" transform="translate(568.412109 0)"/>
      <use xlink:href="#DejaVuSans-6c" transform="translate(596.195312 0)"/>
      <use xlink:href="#DejaVuSans-69" transform="translate(623.978516 0)"/>
      <use xlink:href="#DejaVuSans-73" transform="translate(651.761719 0)"/>
      <use xlink:href="#DejaVuSans-74" transform="translate(703.861328 0)"/>
      <use xlink:href="#DejaVuSans-69" transform="translate(743.070312 0)"/>
      <use xlink:href="#DejaVuSans-73" transform="translate(770.853516 0)"/>
      <use xlink:href="#DejaVuSans-63" transform="translate(822.953125 0)"/>
      <use xlink:href="#DejaVuSans-68" transform="translate(877.933594 0)"/>
     </g>
    </g>
    <g id="patch_10">
     <path d="M 518.270625 74.716563 
L 538.270625 74.716563 
L 538.270625 67.716563 
L 518.270625 67.716563 
z
" style="fill: #4daf4a; fill-opacity: 0.4; stroke: #4daf4a; stroke-opacity: 0.4; stroke-linejoin: miter"/>
    </g>
    <g id="text_13">
     <!-- LHC: Experimentell -->
     <g transform="translate(546.270625 74.716563) scale(0.1 -0.1)">
      <use xlink:href="#DejaVuSans-4c"/>
      <use xlink:href="#DejaVuSans-48" transform="translate(55.712891 0)"/>
      <use xlink:href="#DejaVuSans-43" transform="translate(130.908203 0)"/>
      <use xlink:href="#DejaVuSans-3a" transform="translate(200.732422 0)"/>
      <use xlink:href="#DejaVuSans-20" transform="translate(234.423828 0)"/>
      <use xlink:href="#DejaVuSans-45" transform="translate(266.210938 0)"/>
      <use xlink:href="#DejaVuSans-78" transform="translate(329.394531 0)"/>
      <use xlink:href="#DejaVuSans-70" transform="translate(388.574219 0)"/>
      <use xlink:href="#DejaVuSans-65" transform="translate(452.050781 0)"/>
      <use xlink:href="#DejaVuSans-72" transform="translate(513.574219 0)"/>
      <use xlink:href="#DejaVuSans-69" transform="translate(554.6875 0)"/>
      <use xlink:href="#DejaVuSans-6d" transform="translate(582.470703 0)"/>
      <use xlink:href="#DejaVuSans-65" transform="translate(679.882812 0)"/>
      <use xlink:href="#DejaVuSans-6e" transform="translate(741.40625 0)"/>
      <use xlink:href="#DejaVuSans-74" transform="translate(804.785156 0)"/>
      <use xlink:href="#DejaVuSans-65" transform="translate(843.994141 0)"/>
      <use xlink:href="#DejaVuSans-6c" transform="translate(905.517578 0)"/>
      <use xlink:href="#DejaVuSans-6c" transform="translate(933.300781 0)"/>
     </g>
    </g>
    <g id="patch_11">
     <path d="M 518.270625 89.394687 
L 538.270625 89.394687 
L 538.270625 82.394687 
L 518.270625 82.394687 
z
" style="fill: #e41a1c; fill-opacity: 0.6; stroke: #e41a1c; stroke-opacity: 0.6; stroke-linejoin: miter"/>
    </g>
    <g id="text_14">
     <!-- Einstein-VED: Deterministisch -->
     <g transform="translate(546.270625 89.394687) scale(0.1 -0.1)">
      <use xlink:href="#DejaVuSans-45"/>
      <use xlink:href="#DejaVuSans-69" transform="translate(63.183594 0)"/>
      <use xlink:href="#DejaVuSans-6e" transform="translate(90.966797 0)"/>
      <use xlink:href="#DejaVuSans-73" transform="translate(154.345703 0)"/>
      <use xlink:href="#DejaVuSans-74" transform="translate(206.445312 0)"/>
      <use xlink:href="#DejaVuSans-65" transform="translate(245.654297 0)"/>
      <use xlink:href="#DejaVuSans-69" transform="translate(307.177734 0)"/>
      <use xlink:href="#DejaVuSans-6e" transform="translate(334.960938 0)"/>
      <use xlink:href="#DejaVuSans-2d" transform="translate(398.339844 0)"/>
      <use xlink:href="#DejaVuSans-56" transform="translate(428.548828 0)"/>
      <use xlink:href="#DejaVuSans-45" transform="translate(496.957031 0)"/>
      <use xlink:href="#DejaVuSans-44" transform="translate(560.140625 0)"/>
      <use xlink:href="#DejaVuSans-3a" transform="translate(637.142578 0)"/>
      <use xlink:href="#DejaVuSans-20" transform="translate(670.833984 0)"/>
      <use xlink:href="#DejaVuSans-44" transform="translate(702.621094 0)"/>
      <use xlink:href="#DejaVuSans-65" transform="translate(779.623047 0)"/>
      <use xlink:href="#DejaVuSans-74" transform="translate(841.146484 0)"/>
      <use xlink:href="#DejaVuSans-65" transform="translate(880.355469 0)"/>
      <use xlink:href="#DejaVuSans-72" transform="translate(941.878906 0)"/>
      <use xlink:href="#DejaVuSans-6d" transform="translate(981.242188 0)"/>
      <use xlink:href="#DejaVuSans-69" transform="translate(1078.654297 0)"/>
      <use xlink:href="#DejaVuSans-6e" transform="translate(1106.4375 0)"/>
      <use xlink:href="#DejaVuSans-69" transform="translate(1169.816406 0)"/>
      <use xlink:href="#DejaVuSans-73" transform="translate(1197.599609 0)"/>
      <use xlink:href="#DejaVuSans-74" transform="translate(1249.699219 0)"/>
      <use xlink:href="#DejaVuSans-69" transform="translate(1288.908203 0)"/>
      <use xlink:href="#DejaVuSans-73" transform="translate(1316.691406 0)"/>
      <use xlink:href="#DejaVuSans-63" transform="translate(1368.791016 0)"/>
      <use xlink:href="#DejaVuSans-68" transform="translate(1423.771484 0)"/>
     </g>
    </g>
   </g>
  </g>
 </g>
 <defs>
  <clipPath id="p0b4746938e">
   <rect x="47.72" y="43.44" width="656.26" height="337.030942"/>
  </clipPath>
 </defs>
</svg>
